<mxfile host="app.diagrams.net" modified="2021-02-23T11:54:14.680Z" agent="5.0 (Windows NT 10.0; Win64; x64) AppleWebKit/537.36 (KHTML, like Gecko) Chrome/83.0.4103.97 Safari/537.36" etag="hmw7INkvfOfW3KvvEWGd" version="14.4.2" type="github">
  <diagram id="N6PaMzylTJZtVG_ZVGIw" name="Page-1">
    <mxGraphModel dx="1695" dy="482" grid="1" gridSize="10" guides="1" tooltips="1" connect="1" arrows="1" fold="1" page="1" pageScale="1" pageWidth="827" pageHeight="1169" math="0" shadow="0">
      <root>
        <mxCell id="0" />
        <mxCell id="1" parent="0" />
        <mxCell id="bOGV1TXRQdCtfyOMVB9T-1" value="" style="strokeWidth=1;shadow=0;dashed=0;align=center;html=1;shape=mxgraph.mockup.containers.browserWindow;rSize=0;strokeColor=#666666;strokeColor2=#008cff;strokeColor3=#c4c4c4;mainText=,;recursiveResize=0;" parent="1" vertex="1">
          <mxGeometry x="-20" y="20" width="830" height="470" as="geometry" />
        </mxCell>
        <mxCell id="bOGV1TXRQdCtfyOMVB9T-2" value="Riscuoti" style="strokeWidth=1;shadow=0;dashed=0;align=center;html=1;shape=mxgraph.mockup.containers.anchor;fontSize=17;fontColor=#666666;align=left;" parent="bOGV1TXRQdCtfyOMVB9T-1" vertex="1">
          <mxGeometry x="60" y="12" width="110" height="26" as="geometry" />
        </mxCell>
        <mxCell id="bOGV1TXRQdCtfyOMVB9T-3" value="https://www.bancasgravata.it" style="strokeWidth=1;shadow=0;dashed=0;align=center;html=1;shape=mxgraph.mockup.containers.anchor;rSize=0;fontSize=17;fontColor=#666666;align=left;" parent="bOGV1TXRQdCtfyOMVB9T-1" vertex="1">
          <mxGeometry x="130" y="60" width="250" height="26" as="geometry" />
        </mxCell>
        <mxCell id="bOGV1TXRQdCtfyOMVB9T-4" value="" style="shape=rect;fillColor=#F6F6F6;strokeColor=none;" parent="bOGV1TXRQdCtfyOMVB9T-1" vertex="1">
          <mxGeometry y="110" width="190" height="80" as="geometry" />
        </mxCell>
        <mxCell id="bOGV1TXRQdCtfyOMVB9T-5" value="BenvenutoÂ Nome Utente !" style="text;fontColor=#000000;fontSize=12;verticalAlign=top;align=center;spacingTop=-2;" parent="bOGV1TXRQdCtfyOMVB9T-4" vertex="1">
          <mxGeometry x="20" y="5.4" width="186.694" height="38.4" as="geometry" />
        </mxCell>
        <mxCell id="bOGV1TXRQdCtfyOMVB9T-6" value="Modifica Profilo" style="text;fontColor=#bbbbbb;fontSize=11;verticalAlign=middle;align=center;" parent="bOGV1TXRQdCtfyOMVB9T-4" vertex="1">
          <mxGeometry x="30.001499999999997" y="5.3999999999999995" width="104.5" height="50.4" as="geometry" />
        </mxCell>
        <mxCell id="bOGV1TXRQdCtfyOMVB9T-8" value="" style="html=1;verticalLabelPosition=bottom;align=center;labelBackgroundColor=#ffffff;verticalAlign=top;strokeWidth=2;strokeColor=#0080F0;shadow=0;dashed=0;shape=mxgraph.ios7.icons.user;fontSize=12;" parent="bOGV1TXRQdCtfyOMVB9T-4" vertex="1">
          <mxGeometry x="9.5" y="9.600000000000001" width="32.549375" height="30" as="geometry" />
        </mxCell>
        <mxCell id="bOGV1TXRQdCtfyOMVB9T-9" value="" style="shape=rect;fillColor=#F6F6F8;strokeColor=none;fontSize=12;" parent="bOGV1TXRQdCtfyOMVB9T-4" vertex="1">
          <mxGeometry x="20" y="39.60000000000001" width="140" height="30" as="geometry" />
        </mxCell>
        <mxCell id="bOGV1TXRQdCtfyOMVB9T-11" value="2.356.077,13 $" style="text;fontColor=#0080f0;fontSize=10;verticalAlign=middle;align=right;spacingTop=2;spacingRight=4;" parent="bOGV1TXRQdCtfyOMVB9T-9" vertex="1">
          <mxGeometry x="50" width="80" height="30" as="geometry" />
        </mxCell>
        <mxCell id="bOGV1TXRQdCtfyOMVB9T-10" value="Saldo :" style="text;fontSize=10;verticalAlign=middle;align=center;spacingTop=2;" parent="bOGV1TXRQdCtfyOMVB9T-9" vertex="1">
          <mxGeometry width="66" height="30" as="geometry" />
        </mxCell>
        <mxCell id="bOGV1TXRQdCtfyOMVB9T-35" value="&lt;span style=&quot;font-size: 15px&quot;&gt;Da Oggi Fino al 01-03-2021 puoi ricevere ben 1 Milione di dollari con un sempice click !&lt;/span&gt;" style="html=1;strokeWidth=1;shadow=0;dashed=0;shape=mxgraph.ios7ui.icon;fontSize=8;fontColor=#ffffff;buttonText=;whiteSpace=wrap;align=center;" parent="bOGV1TXRQdCtfyOMVB9T-1" vertex="1">
          <mxGeometry x="210" y="120" width="610" height="40" as="geometry" />
        </mxCell>
        <mxCell id="bOGV1TXRQdCtfyOMVB9T-37" value="* I Requisiti sono indicati nella casella specifica della lista *" style="text;html=1;strokeColor=none;fillColor=none;align=center;verticalAlign=middle;whiteSpace=wrap;rounded=0;fontSize=12;" parent="bOGV1TXRQdCtfyOMVB9T-1" vertex="1">
          <mxGeometry x="210" y="170" width="320" height="20" as="geometry" />
        </mxCell>
        <mxCell id="bOGV1TXRQdCtfyOMVB9T-38" value="" style="shape=image;verticalLabelPosition=bottom;labelBackgroundColor=#ffffff;verticalAlign=top;aspect=fixed;imageAspect=0;image=data:image/jpeg,/9j/4AAQSkZJRgABAQAAAQABAAD/2wBDAAgGBgcGBQgHBwcJCQgKDBQNDAsLDBkSEw8UHRofHh0aHBwgJC4nICIsIxwcKDcpLDAxNDQ0Hyc5PTgyPC4zNDL/2wBDAQkJCQwLDBgNDRgyIRwhMjIyMjIyMjIyMjIyMjIyMjIyMjIyMjIyMjIyMjIyMjIyMjIyMjIyMjIyMjIyMjIyMjL/wAARCAGQBAEDASIAAhEBAxEB/8QAHwAAAQUBAQEBAQEAAAAAAAAAAAECAwQFBgcICQoL/8QAtRAAAgEDAwIEAwUFBAQAAAF9AQIDAAQRBRIhMUEGE1FhByJxFDKBkaEII0KxwRVS0fAkM2JyggkKFhcYGRolJicoKSo0NTY3ODk6Q0RFRkdISUpTVFVWV1hZWmNkZWZnaGlqc3R1dnd4eXqDhIWGh4iJipKTlJWWl5iZmqKjpKWmp6ipqrKztLW2t7i5usLDxMXGx8jJytLT1NXW19jZ2uHi4+Tl5ufo6erx8vP09fb3+Pn6/8QAHwEAAwEBAQEBAQEBAQAAAAAAAAECAwQFBgcICQoL/8QAtREAAgECBAQDBAcFBAQAAQJ3AAECAxEEBSExBhJBUQdhcRMiMoEIFEKRobHBCSMzUvAVYnLRChYkNOEl8RcYGRomJygpKjU2Nzg5OkNERUZHSElKU1RVVldYWVpjZGVmZ2hpanN0dXZ3eHl6goOEhYaHiImKkpOUlZaXmJmaoqOkpaanqKmqsrO0tba3uLm6wsPExcbHyMnK0tPU1dbX2Nna4uPk5ebn6Onq8vP09fb3+Pn6/9oADAMBAAIRAxEAPwD0hfE2rMoJ8LX+7t/pVv8A/F0xfFGrg5PhXUDk8/v4Dn/x+vEryKS08KwXWr+EI/tK3jxSlIpLc+XsUqwKYHUMMnIqSDR9C1zw5ZNY2+p2VzLeSx7li+1HhU4YjadvPHfrU2Fc9lbxXqe8qPDN+mRkATQf/HKT/hKNXABHhzUcE9prc8/99159Y/D46dpdncvHHqP2d5vPSCzWR7kbwAo3kEYAPIz355pdXtvCVgljpb6eNM1W9hV499h56xs7cKwY53c474AosFz0P/hJdXTJPhfUMd/9Ig/+LpreK9WBUHwvqBxzkzwH/wBnrz2503T7jXE06x0DRr/SYlCXd3buRMhUZdiFII6EAYxWTp2m6JruuT61pkUcVna/u20i6gVA8m35EDk7SWI5zhqLBc9b/wCEr1YHaPC2oMcZ/wBfAP8A2elHizVi2P8AhFNQB9p4P/i68kj0rSin9pappsGjatKXitNOuXItbiQAfOQRlFGcYPyk4px0azi8iw1DT7K08WXUTLbW+0m3POFZ1GVV2AOMZXoTRYLnrJ8VaqWyfCmoHPH+vt//AIukbxXqgX/kV9QznH+vgP8A7UryGbTdMtQdLng06LxfHbYaOT5bUd8HPyebt5z938ahubPSIdM8+3s7O+1+2jRJYIVc2rkkgugHDuBjIB29+aLBc9kTxVqxYlfC2oEf9d4P/i6a/i7VhwPC+oDAzg3EH/xdeNXmmaVZyWmrtpc9xfFFE2lRRvHbLIByzMw+6ePlXv3p8dxo0vi9bm4sbKLSWjA+wCGINkr8yk7x0PRv0osFz2M+LNWOP+KU1Dp186A/+z1H/wAJXqrE7fC+oHH/AE3gx/6HXlFnL4cszdWv/CNQTWjK4iuZr+OWcsR8pwGAA9QKisLLRLuxna+0QLeTLtIsrkCNTkEFcs208EdO9Fhc3keur4o1MdPC2olMnpPB/wDF0P4t1VTtXwtfD6zwf/F143PpDtYX1rZaLYW+8j7NO7PLKvzc7mbIyV4+Udaz7PwhdjS7u3ujA1zI0TRTozExqpJcYIHJyPyosO57onirVyMt4WviPQXEGf8A0OnjxVqwPyeFr0D/AK+YP/i68Zi8NaTY2c0TxTXs8hUq0l0sIXBOdpCkjNEFlDawXCpoeiidkAgea9MoU7hktuYDpnoKLCuezP4t1UAbvC98PQ/aIM5/77ofxZqxXjwtfbh1P2mD/wCLrw62huzNO+oWWgeX9nkEUcMtqn70qQpbLZwOv4CqGkaJdnWLKTUIbeWxSZXuBbzwPuTIJGFb07UWHc+gE8WaqVAPhS/P/bzB/wDF08+KtXIx/wAInfe3+lW//wAXXj9tYWg1OS3TRETTfKlIu5rZpZJJWUhTtUNtQMRhR2HPNadpb6Lb+Jdmo6fYtpkk5CIdInjKKeBmQhR6HoaLBc9KbxVqqA7vC14Bjr9qg/8Ai6iXxZq+ePCl71wR9rg5/wDH68dudF8Hw63dXFrrcwtrGdHls7m23703fNs+Yblxx0zisXV9A0O01e8gi8URxqjnYslrKVCnlcMu7PBFFgufQS+LNUIIXwnfcdf9Kt8f+h0L4v1VRz4Uvd3Yi6g5/wDH68L8QeGLWXUI7nTtZ0iG2vYUmhheZoRgjBI3KBjcG4zUmpeF9Vt4dKvNJsLK5WSzRZ1jaKdWlVirEDJzn5TketFgue5nxfqmAT4Vvuen+lQf/F0g8Yarn/kVL4e5ubcY/wDH68R8QxW1hp+kzaj4UCtcWxNyYBJbMjiRh2yo4CnpSzeGdM1yz0YaUb6zlntd5Lw+bGf3jjLyKRzxjOOmKLBc9vPi/VSv/Iq3xP8A19W//wAXTP8AhMNU3Fv+EUviBkf8fdvz/wCP15yfAy6TaWN+dP8A7UgazjSS3t7ZWaSQqd0m5mDqMkdAO1P1TTPB51+DwxaW62OpAxq7vZeajfLll3E5HGSTz060WFc9DHjHVSMjwlfZ9Ptdv/8AF0p8Y6qVz/wiV9k9/tVv/wDF15r9h0q91y7ePw5o9z4ZtUacXVjKTMAgyFIU5yxGMEYrJ0/TNMv57/xLpkEM9ud0cGj3cSxbp8DEa84YAEn5TngDvRYdz2BfF+qgfN4Uvv8AwKt//i6D4x1NRx4UvTnrm6t+P/H68fi0PSxAt3LYx6fr16ji10q9lPkEg7S4yOM8hVY4yOtStoOnq8ekyadaweMLq3+S2YE26dxgZIWUqM91H40WFc9ZPjLVduP+EUvhj/p5g/8Ai6Q+LtVzz4T1Dr2uoP8A4uvBvFttpGkac1hNEI/FEKxi5W3DLABzkY6b8bckcenOa5CzinurhIIPNlmlYLGikksxPQUWDmPqkeLdUKEjwrfqfT7Tb8/+P00eMNUCj/ikr859bmAf+z15bb/CGLTNCn1jxPq0sCwx+dJBaAHaB/DuPU9uBXAm/wDD73xB0q8+yhh0vf3uOmfu7c+1CQ2z6Q/4THVc/wDIo6iB7XEHP/j9H/CYanjP/CJ6hj/r4gH/ALPXlt98II9S0WDU/DGryTRXEIlihuRgtnnAYd+3Sua8G6Bo2pXeo23iCa8sfsEPmTSibAQ7lUgjacYJ60WA94Hi/VDg/wDCJ3//AIFW/wD8XQfGGqAj/ik9R5PX7RB/8XXnmu/BW1bSftXh2/uJZwN6JNICsq/7JAGD6dRXjVxDdWV89rdxTI8TEPG52sCPX0NFtbBfQ+pz4v1QbgfCd+Qf+nq3/wDi6F8XaoAceEr8A/8AT1b/APxdfPPivT9I0TWrW1tYrqSB7aGeTzZ/mPmKGwMLxgH3r1hfgt4cktUkF3qm5kDj98vAxkfw/ShqyuFzrz4v1UdPCd9+N1b/APxdIfGGp458J3wJ/wCnmD/4uvmgTaUJZN2lXzqnLbLzoM4z9zjkin+IYdGjj0270KW6WK4iLTR3Eodo2ViMcAcY5osFz6UHi/UwDnwrqA9/tUH/AMXSDxhqmCf+EU1Bh/18wD/2avliGdFfdKWkUfwq+M/pXtekfC7wtqNviPUNR85YopJovOXK+Ygdf4fQ9aLCud0fF+pqP+RTvmBOMfaYMD/x+nL4z1PapHhS/AI/5+oP/i6+efGXhq58J+IpbF2ZoCPNt5GP30zx+I5BrR+H/g+HxTqbfb7iW3sxlIyhw0km0sVXPoAST9PWiw+Y93/4S/VDjPhPUP8AwIg/+Lpf+Eu1PH/IqX4HbFxBn/0OvM/GXw30Twx4YuNTin1C4mVljRZJwFBY4yfl6CqPgTwHpPi3RZbyaa+hmhnMJWKYbSMA55Ge9Fguetr4w1MNj/hEtQHv9og/+LpP+Ew1TOD4W1H2xcQc/wDj9eG/EHQNK8Ia9b6dAbyZWgE7tLNg8luBgcdOtd9bfB/w5dWVrdi71UCaJZFXzl4yM4+7RYV/M7Q+L9SAz/wimpc/9N4P/i6afF+oHAPhTUv/AAIg/wDi6+X9VaJLuRbbz4oVZggkm3EgHHPArofh/odn4r12TTb2S7XETyrJDIPlCkDoRznNPl0uO/mfQH/CYaiBhfCupZHpNB/8XR/wmWoEgHwpqJH/AF2g/wDi68l8feAtI8K+H47+0n1CW4klWELJKMcgkk4HtXlfmSxvy0m3d03nn8aVvIL+Z9Yf8JjfsMjwpqgx6yw//F0h8X6j38Kan/39gP8A7PXmng74Z6J4p8LWWryXmpQyTBg6LKCAwYqccdOK47xF4ZNv45fw1of2q4lVlTdLLksSoJ7AADP6UtOwX8z3z/hLr8JuPhbUweP+WkP/AMXQfGGoHC/8Ipqme/7yH/4uvKL/AOGen+FfDjar4k1i6kkQALb2Rxvc8ABm/wAK4izvvDz6h5V5bajBav8AL50N5vePp8xBXDY/CmldXsF/M+i28X6kJAP+EV1QH0MkOf8A0KmnxjqBJz4V1QDOM+ZDz/4/XlfiP4S6ra2MmoaHqkmoQIvmeXIcOVA6g55rM8C+G/D/AIi025n1i6vLKSCeOASC5AR2cHb1HB+Wl8g5vM9r/wCEw1DaP+KU1TB7+bDx/wCP0p8YXwGf+EV1T/v5D/8AF15Z4v8AhJcafp4vPD93c3IiUma3kf52HquOD9OteZ2Evm6nBb3rXIhaVUcRylWGSAetNK/QL+Z9Pf8ACY3+cHwpqvH+3D/8XS/8Jjf9f+EU1Qf8Dh4/8fr5n8XQJpPiW90yxe6EdrMYi8su5nwcZ4xjvTvDKRapr9hYXcl2be6mWEtFKVK5OO4ot5BfzPpX/hL74vg+FtUB/wB+L/4unf8ACX6jnI8LamMf9NIf/i6888R/CvRtC0C+1Qahqsxt4TIsbTKA2McdK5Pwxovh7xZdHTIb7VdO1HaTGryLIkmBk4IA59qLeQX8z23/AITG/Iz/AMInqg998P8A8XTv+Ewvs4PhXVP++4f/AIuvBfGXgLXPCaea9y9xYlsC5iZsL7MOxP41u+G/hHqt/aLfa3qMthAy7xEh3SBeuW7LRbyHfzPWx4xvScDwnqx/4HD/APF0HxlfAAnwrqvPT54f/i6+cb+/0K31Ax2Mep3NqH2iV7zazgdSBtwM+9drafDW08VeHItX8Oa3dxM2QYLs5ww6ruXv74ot5Cv5nrP/AAmF8Dg+FtXBxnrEf/Z6f/wmN6uQfCmrkgZ6xD/2evAPDPh17jx1/wAI1rkl/bTAupMc/KlVLDr1GBXXeMPh3pPhvwveayl/qszRbFWN5gASxxycUW8gv5nqB8YXrH/kU9XGPXyv/i6Z/wAJlfHb/wAUvqyluRgxc/X56+VPtd2M4mmYE8ZlJxXrPgLwDp3i7w2dQudQ1KCaOdoWCTAg4AORx703HyC/meqnxjeKdw8KawOx/wBUf/Z6X/hMrwN/yK+sk9OFi/8Ai68F8faNaeEtcXTLK7v5GESyGWabjLZ4wPoa5FZ50+T7VMCTnIcnPelbyC59TnxpdhuPCur5PU4iH/s9O/4TK9xz4W1jPpiL/wCLrwfwB4SvPGesTxSXdxFZWy5mkSQ53EfKoz3z+gqh430LUPCXiF9Oa6uXgb97BMzn507fiOc0W1tYL+Z9D/8ACZ3u4A+FdY5/65f/ABdJJ40ulX5vCusjnHSI/wDs9eB/D7SrTxXrzaZeXt/EWhaVZIZcjgjgg/U11HjbwJp/g7R4dSGo6nciS4WEJ54XGVY56f7NHL5BfzPVP+Ezu16eF9Yx7rF/8XTx4zuyuf8AhFtZz6bYv/i68m8L+ANL8a6A+oaZreq2kqOY3inIYBgMjkY4INYMfw78Ry+M5fDq6gV8qMTyXIlbb5ZPBxnr1GKXyC/me8DxleZH/FKa19CsX/xdMHjO6bc48KayMcfdi/8Ai68Q8Y6LZ+C72GylOr3sjxCQ3DXHlRtnjC4B/U1k6Fa6NrurQWb6vqemyyHgSNvVzj7obI2n607eQX8z6HXxneFcN4U1v/viL/4ul/4TS5Vf+RT1zj/Yi/8Ai6+T5L2+CsftVxkHGBIe3eu58LWVzqmhwSafZx6rqBuSLqCa5cNHHgBcKGHynJJbnFNxC57s/jW5AJbwprox6Rxn/wBnpo8aXL8/8ItrYPbMcf8A8XXkg0SG9kjXwnImofZbk/2h9ruH/djpgHIzF97kc5FB0m0u2hvfDax3WlRXDHUJr25dfJHJwckYTHIIyTxSt5Cuetr40uXBJ8La2QOM+XH/APF0o8ZzrtX/AIRfXDk/88o//i68nj06zElrNolvPqujzSt59/c3jRiBQxDIORsIBBBOSeKTT9N0/S/ENvpZGoa4t8m+G9DP5MSNnawAOWwcBifSi3kFz1d/Gs2zJ8K64P8AtlH/APF08eNLjGR4W1zpn/Up/wDF15FY6TZwXF9o3iHUFGryEyW8GnzP5i7AWKbj8o3AcDk81p2+n2mreGpr230ObTpLZ12tqd9IiTQkYLMc8EH0HpRbyDmZ6V/wm03GfDGu4Iz/AKlP/iqf/wAJlJtz/wAIzrv/AH4X/wCKry+88P8Ahy20S3vRr1zIouGhaSK8cq0mwERlsEgZB5A71k6/4f11dFsDYWBtZDJMLmVb12UIpXaxdm46n0ot5BfzPYx4zlkHy+G9e4/6d1/+KoHjSXnPhjxBkf8ATsvP/j1eD3empZaNpD3/AIpFtPIsrSPBNJOZP3m0Y2nbxgjr1qbUbnRtM0PR5De65dzXSSylluPJ8xQ21cglsDKnFFgv5nun/CYygBx4a17ae32Zc5/76o/4TRiMHw1r2f8Ar2X/AOKryfSoEvPCUeoWPh7Ury+upXS2ja9mZUVQAXdsgAZyMd6k1nQZbbSXeS9tbGd47cR7rmVtjld0xwC3sBniiwanqn/CbNjP/COa/wBv+XQf/FUHxq+cDw3r59xaD/4qvHP7P01FN43idPL/ALM/1SSzsftP3N4HXG7Bx+lS6TpdrJFpjT6y83lzSG8wt2vnIQCgHHGDkUcoX8z18eNDtBPhzXweePsf/wBelHjZQyg+HteO7v8AY+n615LY20DW1zbatZXYn4EVzp8l1wCpy2HOMgheO+awfsWqW8epQ/adTnzAjWUsrvGVbeMqwLcfLuHcUcoXfme8f8JsGOF8O69nPP8AofT9aD4xGM/8I/rv1+x//XrwvS7i8SC4h1TTpX2xN5MkOosjeZngH94RjBPOKuQQxFbkTXetWzvD5cSPqEcqo5PDcSKT9MUcoc3qe1L41TODoOugAdfsR/xoPjRScHQNd4/6cv8A69eCWlvrNu119qv552MYFoTqIKhg6kll8wY+XcMV1VrNoxgQX0l+84jXe0N+dm7dk4HncDGBnPeiwX9T08+M0X/mBa/+Nkf8aP8AhNYlJ3aHrwx3Nif8a8he8trTT5y8E97eG4AhCanJEixerfvTz9KZqbW1zoa/2XeanZag7mR47i8eVQP+easrfjkiiwX9T2H/AITWIcHQ9d3d8WJ/xpD42t8LjRddJI6fYW4rx6R4bkw2Al1mylEa79ViklaN5CPm3R5yF5HI/KmqYZNZudMe51S306GPKast1LvYqOWKnhtx/hABGKLBf1PZT41iGM6JroB6f6A1N/4Te3xk6Lrucf8APg1ePNLbrf38Fzq01nosUa+VqEepO02ex2ZyxbuuBirH2SR7y8XUb+40zSRsSz1JdRkkaRjjacbsPuB54GKLBfzPWh43gJP/ABJtdGOf+Qe9OPje3IH/ABJtcB9PsDV5Mml6hqEl5pSyalo80Mix22oXd/I3ntnBUjOG3A5GwenNVrUPq2h3troUmr3WqWBAlury6liWRckMwXfhSvBwT0yaLBf1PXv+E4tt2G0XXhzgE6e2KcPG9oW/5BGudf8AoHvXlG/SbfSLPU5tW1S+mt2W3vLXS7yR1aUglSXY5AI4+XjIrXvtJ8xbC4F3qOl2F5arI011q7xvbvyCmx87uStFgv6noX/CdWfH/Eo13n/qHPR/wnVn30nXAPU6c9eZ6xpH9mak9vZavql9dCNJFsTqhhymzlwScsMhjxisPXrHxcniK6g0+XULTTkcBJZ751TGASdztzye1Fh38z2k+ObMHH9k65nOP+Qc9C+OrNv+YXrY+unSf4V4jq4ubXxDd2n/AAms1tCtwY4oY55p5OTjBxwD+NGs6/ZaXrd9ax6r4luTBKYREl5sQMvBAYkk85o5U9wv5nt58dWWQDpms8+unSf4U+08badc6lbWP2XUYJ7lykRuLR41LAE4yfYGvD/EPin+ydYl02zTUHe32o7yapOx3bQW4BHckfhXWeDL28utP0N715WmXxFIuJZGYov2YnbliTjmjlSBM9rB3DNLUEBJ3c8ZqepGLRSUUAfPul+DPEOgWNzYzXV0weSKYHTroCZAAwYFTyQQ2flB6d625dUuv+EPvGS30W7nFysQikugoCFCCHLbG8zjkHmuQ1O4tL3xhrt1IjRxM2LSXbuO9dip6EK208jtU+r6fDf6fMMTRxXUqTzm5LOVUAiKRCTnLA7QCTnBPAGa0ILWrWL3mj6BZy+G9Tgi8tpA2l3BZIGeRgRkhsjgHOe9aNteS3PjTUng8Qt5Gmq7tY6hb4jTy12qQ5yAN205GDya53Rray0nUba8uE1CO3sSJC9vNt2xhgcv2fGcEDBwy1tQ6p4k8SX2rW/hoz3NhNnfPqsafugSxKRqRyD75xjtQBWNtZ6H4cuNR1K3XSrvUpBbi80efzhszuMigscAkYOPSqOq+I9N1KC10SS3Ouwxp5jXJ3xzyz4PzAIDkYwPmFU7XSNB0oyW2sx3GpalGdqxQ3CiODPZz90MD/CCfcV0WlX13pNnLboLexhuONrogY8Yxlwg/KNs+9AEEbeKvEO949KhNvZlTAJ44R9k2gYC5DOeADyOals/Dep64xutQ1mKKaEsyNNHMX+bOdnmsq8/TvVY2EaqVkluEtyPu75UT8B/o6Z/Oki0rRdhmj003UmfvLbRyZP/AH1Ln9aANi08H6fBbz3erXd9EkaKd0MkIL+oxCpI7dzVOzuPCFrI7asguNvEeJbmTPPfzGA/ICom0ZrsLCnhmZw52jdp0cajPGd3kAj65rltQ8I6dZXs1qCkvmbtrhJCU27csoB5G4lcnIO3igZ2Np4h8E2Vy7z2tjMmQFRdPhTac9yzknireneMtCivnazhu7yNs7YILa0AT3G3Dce5Neff8IxpmH+UgugC/uZvkxxkc9+vNOHh60tS0iFgfLwgCTrhh3OD3NAj0YeOrOz1GR3h1nfgt9mlMYVQe4CjOB2OabF47sYryO+EOryCcs8cb3DmJ+P4VCkHH415/cX+s28FvD9pvLuFYvuGFphvB6jzDxkd1x9Kq6b4l1GCTy5dPkELsxaNgTGSvUkE9QO+dw7MKB3PSP8AhYmmLffbRa3wLAyjdeTmIr03bNm3H4YpR44s7jXEK214NQbDLbi9uQGAHH7sRYIwPSsu2jtrqETZZFCmRm5YxZ43EDBdPVhiRf4sim3GkiaQWNxEY7uIebb+WR8wwTuiYdG6kYwr4IwrUCsat349sFlXULiO6g8uQKSLu6SLcp6Mvlbc+oqvdfErRru6juWu5Iyu3CR386RsBzyvk4NEcD6vaPHefvZp9sXmZKxXbYDIkvcMVwUk9eD0INAeBLDU4Gt4It25RJFvARwm7a/Ixh0bIZejDlcGgZvS+L4dbkS5toZsKB8tpMxV+c8gwH1qLWPEWn6hdxI9pBZSKMmFhEWcZ6kSwk4+mK8yi0C2Kma3VIJJEXYyCb5WHUggnIP4/hV6/wBT1m0ZYo5Ly4gSP93G8TShXzj/AJaElfqDQB2Oo6r4ZvRC1vpOlQBiy7xHbuJT/wB9J09qr31x4WmSFtP0uG3lBIkZb9UDY/uiOcEc+xrkrXxHfwz+S9hN9nIMjpLGdpA6sVyeh/izuH94V10Ftb3tsZwSigeazNy0XbecYLoCMFxh15DZoAgvBoLWSy2c+uefxviW9LJ0ycEh81S1fQdEtrRJodckLMQHgm0iORkOOpYquQPUe1Wbrw9Fe/aLC6slF4AJEChcTDBbchGPmIBPGFcA8Kwq5a6Zb6jBCLi2g+048mK4RfLS43AFY5CMEMwwUk49DkgigRzt34R+1aPa3i6xo09tGNsatcPE0QY9NjHC854461Vu/CetS6NZwC3la0gZ3t5ogJgN5G75o88ZH866eDwLbakHS386TfHvjaRyrqgba3HRXRuGU8MDkYNc+njLxJBYNb3TS3cBkGIJrQNGV3cFWBDZ/GgA03Ur/TbC1sJf7Umks5JJAtrdYEgYAhZBzxke3DV0Go+NE1Dwpa2503S7ud/NF3bXEhhWNd+UCElM/hVaD4hQ3WmNY6t4ekiWJvLF2E+0FCT0Iky3f+99K0XTwfqFm6xans1aM7TAF8ksM8DbM3GAeiuKAM2+1bRNR8b6JbOlzbxwR20UNxa3oMKgAMVOR0BJBO7JxV7SdWn1D+3tWg8QxXsMaMsdvqkIjWKSVtq/OcgDGR8rDrzQvhvxFZacLvTkeexf5fKVAkgxx/qpAVJ4/wBon1rMhlS+e5sp4bUSA5mjFq1tKMd3jQ4OPUI/uKANq08Nmz0S0iSwvNGvdUuQ73OkOZ4o9nCFjuOEO4ng4rdvdCtNZuIYdRitdR0rTkybu3lKXH2kYLhkXAy2B78e9ZUGr6jpslrLdQJNZSLHBFd2khCbNwJA2nYx46FVPbBro4Z0v4mk0+ETSSNsiZ9kqDJyZZFyHUZwpB/ujigBiWYa5lv7+KPVH81JLGF7ZYZ7FCOhLf3Qc4Pp70senRWlmlg11dXzzCaI6jOwS6iVgSFi+XLdDx2HPStBYbqSEF0ijtQSGQgFbgvndvWQbkUN0APIqWGzvzduZbzDt5bSDl4xwysIQcGPoOSW69KljTPOviXbQ2fgtLRV84QPbx/bJ33XMmDJ9/jO3jg55rhvhbcWtr8QNLku2QRmR0V3OAGZSFP5n9a9W8b+GNV1nwfBY2U32gmSHZFM3zrgPuLSMQW69wK8n0v4Z+KdW0+K+sLSJraRsI5nRclTg9/UGmtge57f8WhKfhtqXkZO0xs4H90Oua+ZEKu+UyrYx057V7rpVp8VLKwbTr3TLHVrJ0MbJdzruK+m4HJ/HNYCfC/VUuvOTwcpQtu+z/2wuzPp93dj8aEgep6X8L4JY/h5pHnqRJsZ1B7Au2P0P615brlzbXfib4hzWhVofsGNydGYSRBsH6g10ms2fxV1Ox/s+10+x0u0ChPKs5VDbcdNxOenpiuf0b4e+L9GstSt20KG6/tC3NvIz3yoQpOfl98gHJzTBsxfAXxN1Dwm0djfFrvSTgFC2Xhz3T/CvVfEPhXQPiRo8Wp6bPELtlxBdxDOf9mQd/5ivKX+DvjBpNy6YigfwtdIT/Stzw54L+I/hG++2aZZxhG/1tu1yhjkHoRn9etAjnfiTayWXi8Wcu0vBY2sTlTkZWJRx+VfSdsyfYo8n7sC5HT+H/61eI+I/BHjXxL4jl1i80KBHkWMGGO8TBCgDqcntXcrqnxCEYiXwrphwNuPtw6du3pQB48mqaGPCeu2kOnm11CVY9s0k/meYglXKjgY9ffFcYYJDB521vJD7Gk2nbnqB+Qr1GX4W65JceafCcarknH9qDH8qsax8PvFupaVY6fb+G7LTrO2ZnKRXgYuzY+ZiTycDH40AeSZBYHdwPQcEV6lceKZPCXxGsbrc32OTTrOO5TP3lMKc/UdfwrMT4Q+LhNul0qF0IxtW7RTj2P/ANatvxH8P/FniK7iuhoVtaTxwpCNl8rB1QYHB74xQB6R468MWfjTwtHPDcW6yxfv7e6c/LtP3sn+6R/KvNfAmqW918TNLsNN3DS7KKaK3B6udh3SH3Y/oB6Vei8L/EyHwRJ4YSxgMDtzN9pXeIzyYxz93NV/CvgDxh4T1VdSTQbe5nRCiGS9VQu7qeOvf86EI7L4vYPgK43NjFxFkdj82KpfBEhvC17two+2Ejnk/ItJ4itPG/ifR59Mu/CmnrE5U+ZHqADAqcg8imeEtM8beENKawsfC1lKGcyM8moAszYA7ewoGcl8bST4zgLcD7CmeP8AaavctFUHQdPJAwLaMf8AjorybxX4S8W+MNYi1C+8MwQTRRiJvLv1xIoOcc8jqRmuti1X4gWttHbxeELARxoEX/iYZwAMCl0BHzrfLvlmHBYyt1HTmvRfg7pk9l44gedWRbnTJJo/dN6jPtnBq5B8PNci1B7p/BtvNly/kyaoCh56cdR9a3rXTvG9r4pl8QR+FLMTm1W1SL7eojiQY6AfSmgZa+OIceC7UgDP21QP++HrwSz0+81K8jsrdC8rnjJ7YJJPtxXuXie18beKtNFjqHhO0ESyiUGPUQCCAR/WszSvCfiPRLW5Fh4JsluJ4HiNzJqAdwGGDjsKAOz+D4/4trpq4HBl/wDRjVz2jXFnD8f9cS52iWSDZAx7thCQPfAP5VN4cPjnw7oVvpNp4RtGjhBw7343MSSSfzNcz4g8E+M9f1ttcj0SOwvGYMfLv1+8oABGcEdPWlYbsdT8cI5H8I2LQuGVLwb/AMUYA/ma8D2KgcAjBG0Y6mvcFt/iPdaO2la1oOn6taMu1jJcqknsdynGffFYNl8O9TsL77UPCLTBSGEVxqqMmR0yAoJpknsPh0m38K6b9ocBktIhIz9sIM5/I14BdPbS+F/FstmF+zvrFu0YXpszNjA+mK7DXrX4n+IYGtJLG3trRxhobe4Vdw9GbOT9OntWVbeBPFNt4cvNIPh2Fo7uZJWmN+ocMn3cY4wMn160DE8BfFV9M8vS9fLzWC/LHcN8zwjtn+8P1Fdt4m+HOl+KTb67o01ul0ZEkLR/6u4UEHk9jgdfzrytvhF41ycWEPB4AuEOR9c11XhDQ/iR4LZ47bT4rm0YZa1muV259VOeDQNWPPfHZH/Cfa2gO0m8k4/4Fml8FMW8b6Kj5UC+hIOePvDmuk1v4beN9a1281VtHgie7laQoLlGCZ7ZzU/h/wCGvi/RNWttRbQ47mW3kWSOM3iKpYc84yTzQI9c8fKzeAdcLE/8erDjnNfP/wAOY57nx/o4hBLrcBmI/ugHcfpivY9Tu/HWpaPPpt14LsjbXEZikK6jgkH0NYPh3w34t8JiW40bwbZC7kG0z3N8JWAPYAbcCgR6H4yurCy8PyzaqqG182FcEjk+YpH5dfwqfxN5s3hTVDakMz2E2woev7s4xivHfEfg74meK7hZNVgiZEY7IluI1SP6DP6nmtXw1bfFXw1FHYrY215ZqMLFcTq2B6Bgcj6UDPGD5ckvzlgSeQK99+CKyr4LufkPlteNsOPRVB/WuUvPh1qeoam1w3g6W0ZiWkht9TQRkn03AkCuiEHxGtNITS9D8N2Wk2ka7VaO4WSQep3McZPrigLD9UmtJvj7osUOzzEtXWfYc/NskwD74IrZ+L7Mvw4vQq8eZEDkf7YrgfDvgvxvoHiVdck0IXt6oYhpb1RlmBBY9STg11PiE+NfEejT6XfeD4PIlIJMWoKGUhsjH4ikwPCILd7yeO2hG+SRwkaDqxJwAPzr6B+CsDQ+DbyKT5HS/kU455AUGuW8N+E9d8OXYu7bwLHNdjOya41JWKe4GAM1seEoPG3hXRzYW/hKGcmVpWeW/UMzN3wO3AqmBx3xmQ/8LALD5gtpGTx/vVxdnp1/qB32ts0nzpEdvd3OFA+v9K9S8T+GfFHirWE1K+8HeXMEWNhDqagMBnHUHHWtSy0zxNpmlx6fZ+A7eERlnWQakpcSFSu/Pc4Y49KQWZgaNrv/AAh2u6bZ2t/Zvpltlb/9+MyyvjzGP+6cAey+9eh/EbwtD428J+baFXu4F8+0dTxICM7c+jDH44rx9/hX4yL/APIIO3PIa4Qk/jn2r0Xw7d+O/D+g2ekr4Vjuktk2rLLfoGPOR09OMfSgRxHwYUx/EJsgBhZygrjBBG3INel/FqPTbjw7psepyXENq+oxhpIQCyfI/OD1Fc5YaZ4q03xpdeIrbwVGtxcRlWiF+vlgtjcwwO+Kl8Xw+NfF2i/2bdeEUhCyrJG8V8pIYZHIPbBNA7HV6Loi+EvBs0XhVEv5mXz0M8mROSBzkew4Arxm28e+JLbxRfeIZ4PNZUWC7h27VVM4Vf8AZOc4PvzXb+D0+I3hPTJLD/hHxf2wJMCy3aq0XqAQelS3lt4suLnULw+ALLz9QhWGdHvFdHAOcleOffPpQFi7p/xc8J6zAsOrW0ltxhluYRKh/EZ/kKsah8OPBnivTxe6EsULPnZc2UvCt7rn17cGvPG+Gmrzy75PClzbA/wwalGV/JweK6XS9N8b+GdDl0zw94ZFqZmLPcz3iSybsYyOgHHtQB45qVnJpl9dWMxSSW3maJiD1KsQT+lesfDbTLa78ITNZmWy1GdpEfVIAGaMBkKx4JyM+w5AridU+HvjCytrvVdQ08rDGrSyzNKjE88k4Pqa9X+Huga5oWgwWd9HEsrTmaJJVGIkPDMrqSSxByARjigDXbSraa4WK3eXTtlxFO9zZRqGvsD5jIoGRyDx3ycA0SafAXivI4Ws4oGm8zS7YRtBdk5Hztjbzjv04FX49PvJLdN95L5QZF8wSKty7JIR8zqMFcH7uKl/s3UDPIpuLct5O0xFMW7BpCcmPrux/FnFDDXYxf7IsjFLbSxN/YU8CW7aPBAoEDlvnkL55wQefp2qrL4aS40+fw9cXcVraiQy2FrpeVdokzuR3bjLEg89zW5PFeRW8skkqur75Yrm4QOYGY7QNq4XYE5yTkCuZl8VT3V19n0bSZZ5HGZGY4jjxld4VTjDDJyxGePSkg1RX1OyurPTbDW1js9BubfbHeS3kYnuNi7RHyoPJXr07VVms9Lt/HFwDHfXsWrW0hae6uFS3jjkQsFx14IA6jFUNU1GSI3NzObWR5W+dpZmaJnAAwFTAYjAHG73NQ2eieINetGePTUt7LaWeVrZYFYY7AAuRjHc/SmFxbTVbnSvDup2L6hoejTK8UsC2eJ2Ug4fIG4klSOc9qsTeL7e60nTY57zVNRntxIJ3FskcdyrMDtcvnjAA4p9j4f8PWFm9zrGqpaSRk+VDLEIA5xxwQXx74BqBfF+gaXA8Ntpv9r3jr+7kt7ZkCDGPld9zHnuAKBFG4t11kWa2fhRGitYmWJAzyAKXLc7CB1artno+v6iqosOkRRWsXkqXeEeUpJOOMsOpNULT4ha6kAisLWW3gm/1heCS4b0ABY49egFXoPBlxfaZbX0xIm1FhIm0rGrbhuAwOFRVBLMe4IHrQMfYW39oNJHN4vtLdYmIMYWUjk9FDEA8+1Gn2Oj3E0kd5q+qRQr92RbOICQ5/hwrHHWrKaFYWca3JWa7ZYzJAjswVh93zpADwpOAiD5mrPXQLeJXuZ0Ek9wzIiY5fBIIXHCrngkck5VfWgGXrGPQhfyC7OqNbKSFZbqQO2CMZXCgD8atW1x4cGolZ7LzrT5givMTIw7ZLTY478VR/sG3ggLTwxI0e1ZAIvliJ/5Z8feY9kX6sTzXL6hrsFo09tZWpGBh3CAsw4wCQMAew4+tAjtU1LwzFqfmNptl9kLFY4THb5IxxlzKec5q0dW8PxX4uY7CCK3Q/8AHsYrTDDofmzmvOrfWdTM7RWlv9nYIfKc23zI3+82Qo47AVNf2t7qMytPf3LhoWDGS6z8+cA4z0oHdnojeJ/DrXyXEcUVvEjfNbxy2exyPXOTz9aln8XaLcXsc9uXhCqP3FvNakHB7964vSPAinTY79oWla6IW2Jb77sSuEHY/KWZjnaOxrf0vRrHQrGZoEMsUyltgJQXIUfM7HqsA/N/fgUD1Ne98a6LcSQzbbiyjxwsE9sFfv3PP4VPfeNdHusFRd2XlrtfyHtuc46hiefSuVmSW4l/tPVZHeZSUgiCjEZGPkiXouMgM3OCdoyat/2WYzI10wikTazrhh5RbpvPJ3Hsi5ds5JAoEbWoeMtCuhFHG89qVYqfLjtmZ2x0O4kVFe+K/C89tFFxbyRvhphZ28m7A7jOPyrh9b8RpYTtHZxOojUL5wX5+T04GEH+yPxJqnba3cyJIlpaBJ1/1DNa59Odz/KOp6DtQF2egz6n4LuLCJVgtFulALXE2lg7wPvcKQBnjvTHuPBMmmKLbyRf4Hz+RcRRk+u1TxXAahaX99Ncpf3lxLGQpjLXSkDjkkeme3FU08L2wjfZIyl4wFPmr17k+o9uKAuehvaeE5NMLC+k+2944rmdY2zzgF1Pb2qvbeBtP1ewnmtdRM08AybXyIpj14wQE6/0rgIvDYDQRpPJ5j7kysoOW2lgQAfYjHc+ldNa6W+gxwiQSXSyoHWdDJMjDp1WVQMHIxjtQBo3vgXW72CO/llBjsG3RrctLC8QXB+VSXX06elQm48TXGuQ6sbe5u7e1YiS3tNjwOSvzb1TByQTnIqKb7C0wUyeS56eWZFPv/y8E1at4r6G3cW+s6hHbsCp3TS7SMY53xsuMerUAZ1h4hg0y5vLFYotA026t3QG3ic3CyZ+ViWwxwc9PWpLdLHVfDNzBa2d5rE+n3azKdUuBHuEilXYfNnaCqnk962rO4mSwmtvsdjqcbYY74RKU4xwY2fb/wB8AVyv9jeG7/z49SurnS7gDCSpGphPoGwSBz7LQFzpdR8R3+m2mh37apoemO1uYplSMTMfLcrtVgGJG3A+9Wvc3Gga549m0fUrqW8M0yvBAbQBIXKKxxIDu5Ax+NcCLHxRpnh+JIdPiudOssmOdrNJWRH5JB5BB5ORkD1rabxOl7r11qema/e+UiGRbZbLZHESgRTI3Tg89OelAFu20DTr3xMuqWOiyXaG8eS7ku3lRomDFsouFDAgDHucVkaW+tz+LIvN8MW8aGbz7kQacryf3sEtnaScDt3qxpWqa8Uv7eLVpHhvNsUn2uQubNGbiQZPIwcHP8sGi/vDYWjxJqlztiJYwOxia4fcC2VTHzYZepPU0ARtbeO/7bt212ebS7K5uA0tz+7RUTOSCy9Djpk10vhS5N4lncyNG5l8WTt8jhxzbnGCOvGOaoWuqm78MeFVuL6Zw7z295C8hKPGr4YMpPOFbIJ56Uz4c+UdC0LyUKofEjkb2yf+PU0mUj3W3BAYf7VWqhh/i+tTVAwooooA8Ls7V1+w3Gu6THbXthASkNuw2zbHRYAfmPd2HPTmsXWtQBkjU7p2kkDIqKD58jY+YL6HPyj+7tH8TU+aW3Or3c0OnfYWlffcwRsHJkGQ3z57lmXjoSKh0qGFpZdav5DtkysWz5WWLJBZAejOdyr/AHV3HtWhBd8I6bHca9PqeutvsdOAVWLfuhMSCEUY/eEdcgctzzxWlfeMrPTo5oNKjXTIHYs9zKQ007c5OTuOevZj/u1zPiLxHJ9siS7aOGRIiLe0CMUtk28AhQfmx2/PA+WsOHTRcG2vH1KdLjblttzgjIxgfL8v0oAtv4utkcSaZGFd5NrzSl492cksduXI+r/8Bql/wlt7HaL5Nza28kr4fy0kQgE4ydqgEfXd1raV7e2hghjkYrH/AKoCdmOfYAdfoKlN2Y1Rj9ojOQu6SSUDrgDJTA60AYMHiUQL5q21g0wfaXlacE8/ewgUY/Wtey8Zaa8J+3wDz92AyRF4ic46u2V/EflUst2wTd9oG3HAF22B/wCO1Evl3MDW6lpS53FbeWSRh33bQh9ucUAd3ZRN/Ympz2929pbGzdjP5HlsBglWjlSRkbkdMZrzeyt1S5mvLu5ubiSfBBllYsOBksccnOaknt9aOjyaOs+sfZGmaRVME3O7B+c+VlucnqPpWkkdwiqpsNRO1fvmC5H4/wCroAixbEDG/wD7+vTW8snYBIOOMyMP6UpulBI80K2TuDXDoR7EMoI/GpxLLKoZLXUZF/vKlw6t9CI8UDKfnW6NjZISOG/eNTZreyu7cZjlwmQpDuWUnjPvVwfaSCF0/UQ2ME+Rc/8Axui4lnhQ+bDc26vxvmaeJT04yyAUCN/witxJaQy29rOWt7iNElCFsjzdj5I45iIDf7gPWl8Q6zpehfZNPvSqzrezLbtG+9rSHeHRio7bl4HUCuFW0uJXVLfULyOIuf8ARrOaRxtPOQqKcZ55qax8PzWyzp5OrOrSboisE42HH3h+6+970hm1rniL7B5UWk39rcK8iTzpAS8SxqSVVumSGfoMEBVqc/FRjpl1Y2dhBFd3cxLzpM5H7w/MyApkd+CfzrIs7G6spZTHa6vIJGDMZY7jJIGM8RD/ACKlEqZd02o/3W3zurjH94Fcj8aYiIC0hgjRFkCKuABK2P5UifZlXhZASccSvT3uDIyhSJHbgLFNJIT/AMBVSasJ9rC5NjfALxzDc/8AxugDMvYLefepEnmbNiuHOAD7/Wux8CxXFzpVpcQ20jG2mhQS7Dh/nMUue2DFjPugNczP9qkjcfY71kKFdvk3OG/8h1nvZSBTGmqXdpCA2bb7U8YQnoAhQFR14PX1oA7bX9Y0fQ7ixsLk+XLHczLA0Th3tIvMDIWAzxleB1ArG13X47KO2Ww1C1uIndZLprfLRIgyURvU7mPTBAUdKwLLRsWaiI6hNk8TxJMwU9ypERGD+NadnaXNjFHDFb6pIkYIQyR3Py/QCIce1AGvF8V5bnSZLOy0+KK6vpHMkyysfLL53MoK49SBk4NYscdpCPLUyEAADLHpjp+lS+ZLG2JoLiJCOsonjUfUlAKRZSdqId7HokU0jsfX5VUmgdytcW1jcxbXjfAwQDIx5rMuNIiNrMYpp2kJ3xgvxu6dxXRILpeljqHr/qrnGf8Av1Rtu1G02V+SOR+5uev/AH7oEZEPif8AsxpbGWctYoBuQg7m4zyu3YcH2B/2q6+PWNK8ReHo420+HVWtcEXAkeO5hXOeQcuuM8EFl47VgTSefE8U+5DjbJHNJKrY9wyViGzGnTvqcWqXCT24XyHjuCXUj3Ccj24oA7i90nWdJ0wanpksl1p9ym93AWWUL3EyDKyqO7D5hVTRvEM1nfxTwlYbyROCjGRJk9Aerp14PzL2J6UvhnXl8QypFHKLbXY/3yCFjFHeHHzFQRhZfXja2OQetXfE2k6PJ5mqaTDI1vgT6hYhSksJzgzRD+F1IO4DigD0Kx8Z6GNNe6vXS2aJfMmBG4AHowYcMp7EdTx14qufHtnqH/IF0bUdV/24YAsQ+rtgflmvO7e1e52RXBiuZldZ7S5Ma+XchslWGeEkOCCp+ViCDhsGtG48XeMtZ1JdE0e2s7KYDGRheAPmPz/dI7qBke/WlYDsv7T8ZXYcQeGrGBOwutQJP5IuP1rkfGNrqXhn4V6fafa/IuYroCVraRh94u2AeDjmmz/D/wARSWV1e+IfFd2Y4I2laG3d2IAGTgkgfpXO6h8P5IYo/teuStcyFXFmImkbawyDkkb8DrtBPtQG53MPwsvJIoz/AMJtrI4BwGP/AMVUrfCe8GD/AMJrrWT3LH/4quq8P+IY9QEdnPGkU5g82Jo5N8cyA4LI3HQ9QQCPSh/G3heNij+INOyvXNwvH60rspWOQb4T3/fxxrJz33H/AOKpF+FV+uQfGusEYzneeD/31XWnxz4Y3Z/4SDTcD/p4WlHjfwsfva7p27pgzrRdhZHIj4VXknC+NtYLdsk//FU4fCW/Lc+ONYAxgjn/AOLrsJfFnh+Dy3l1ixhWZd8RaVRuXpkUxfGnhoxlzr+m7B/F9oXFF2FkcmPhTe4YHxxq/wCZ6fTdUX/Cp7zAUeNdZGT15/8Ai67EeNvCq4b/AISHS9p45nWtHTtV07VLZ59Pvre7jRtpeFg4BxnHHsaLsLI8/Hwovz8v/Ca6uPox/wDiqG+Et4w/5HTWiDxyx/8Ai67G98V6BYXL295q9lb3KcOkswVl/CpLTxBol3p099DqtrLawEeZMkoKpnpk9qLsVkcaPhPeKCv/AAmmsAA92bp/33TW+FV8QM+NtZz0ySf/AIqurPjfw38gbX9O2Ho32hefxrVtNWsNUtFuLC5iubckqJInDLkdeRRdjsjz8/Cy5jdVPjXWvmOB85/+KpT8LLv/AFbeNNZB5HLHn/x6usPjLw4k+H16xjaMEOplAI+vpTT438LFsjXdOIH92dTj/OaLsLI5T/hVl5Hjd401liRw2T/8VSL8K7/IP/Caax+Z/wDiq6tvG3hZl2/8JDppI6f6QtNHjHwypQL4g08n0Fwv+NNMlnNN8LL0AE+NNYbAwck8/wDj1O/4VdeoNw8bayEOcICeM++6umPjXw2/A13Ttvr9oX/GnweLdBuXaODW7GVhGXKrMDhQMk8egFCY7I5AfCy/MhA8a6soHozc/wDj1I/wuvhkDxtrHoBkkf8AoVdX/wAJl4ZwQfEGmjHUeev+NaNhqel6ook0++gugo5MMgbb9cGk2wsjgv8AhV98Igx8a6wW+p/+LpB8LdQYAnxvq4PfJOP/AEOvS2Ce1Yuo+LPDumXQtb7V7SCcHlGk5X646fjRdhZHG/8ACq7/ACM+N9YwBzgn/wCLqRPhff7TjxtrP/j3/wAXXbza/oltFHLPqlrHHIAUkaZcNnOMHPfB/Kqy+M/DBO3+3tO/8CF5/Wi7CyOPPww1HJz421jHb5jz/wCP04/DW+BBHjbWARjqSc4/4FXcWGv6Nqc7QadqNldOqlmWGUOwHrgdqtG8tPt4sTPF9rKeYIcjcVzjOPSi7HZHnv8AwrC+ZD/xWur7j0wzf/F1Gfhjf+YCfGmrnnpyMf8Aj9d7qOt6TpBjTUNQtrVpBlPPcJuHtmqP/CZeGNzf8T3T+Bj/AI+F5/Wi7CyOPX4ZXyud3jbVwexJbH/odNPwz1AuF/4TjVjj+IFs/wDoddf/AMJh4Ydc/wBu6djOCftC8frTx4w8JgkjXdO+ouF/xpoLI5AfC/UCMnxxqxA5wM//ABVA+F+pj5v+E51nGcgEk/8As9d9a6lpmoWZurK9t5rYE7pY5AVGOuT04qlbeLfDd3fLZQa3ZPMTtVBMPmPoPWldisjkk+F+qZUnxxq/yjgZbk/990P8MNTyT/wnGsAdeCf/AIuvSVmhmj3ROrjJGVOQSDg/qKqXupWWm25mv7uG2iHO6Vwo/Wi7BpHCL8MdVMa58casBnkEHn/x+kX4YaqDgeOdWC454Iz/AOPV2OmeKNE1idodP1K1uZFGdkcoLfl1pbjxLotjcPb32qWVtOoyYpZgGA7cGi7BJHFxfC/VWDAeOdYAJ5yW5/8AH6a/wx1ZiVXxzq4PUg5/+Lrs08Y+GyAg13TiT/08L/jWja3cF3Ak0MiTRyjcrocqy9iDRdjdmedj4Y6yFLHx3qxJ/wB7j/x+mH4Z6wcf8V3q2O6hTz/4/XpF1d2lmYI5poomnby4ldgN7eg9TVe81HTdLRJL++gtRJ90zOFz+dF2KyOBHwz1g/J/wnWrjnIOG4H/AH3TW+GOsMVA8eavnPB59P8AfrvbXXdN1UuunX9vcNHguYXD4HvipL6/sdM2z391BbIx2q0zhATjoM1SF1OC/wCFXa0Rx471Y47/ADf/ABdN/wCFYa7tU/8ACeasSOgIOf8A0OuxTxX4fCknXtP5PU3CkfzpV8Y+HQTv1vTuO/2hf8aTbLOPPwy1wBseONWz75P/ALPQPhjrjED/AITnUgAOPvf/ABVdwPFHh82yzf2zZ+U7mMOZ1ClhjIznryPzqNPFvhzOf7c0/HQA3K8/rSuybI44fC/WlB/4r3VTnrw3/wAXSf8ACstcVf8AkfNU69MN+P8AHXfz6zptrZJez39tFbMcLM0o2H8elVV8T6FcSpFFrNhJKzBVRJ1JLHgADPWi7HocR/wrLXfMOPHmrDvwD1/77pw+G2vBAB461MNk5J3c9f8AarutV13SNGQHUtQgti3TzZApP4U631vSr+CGW01C3njmbZGY3DbmwTjjvgE0XYaHBr8Mtf6jx5qeCP8Aa/8Ai6Rfhj4iUD/ivtS+u1v/AIuvRZb61tZIYrmeKJ5m8uIOwBdvQepqDVdWh0uKMtHLNPK22GCL70hxk9eAAOST0ouxWR5nd+EtasmvtFl8RT6k2p6ZMsC3bFVDq0Z9T2J/Wulj1HxRbwoLnwpHOgUDNtfKzdMdGFYGu3k/jKL7B5+nWc6yj7NIJJGcsSRtRwBu44OAVqto3w/vLywE8HinW7WZZHikj83cA6sVPIIyMjrVCudO/juwt3EWq6fqWluSFzcwYjz/AL4yBVl/GukNZLcgzvE4+QRAEs2B8uOxOeB3rjtXj8XeELPfL4mtNVgc7Vs7+Ib5B3GfQdTWLJZGLdcQ6ZDHf35VYrOAFF+YY+qIep6M2OwoC5o+J/FD3soWVfkDZgtEIPI9+jP6n7q/7RrP0VvEPiWN7exRILEORLIuTAp7lj96d/qdtM0jQrPU7zzdQvQNLjk8me9+6LuRQSYosfchUA5PtV7X9astBhkvbmSVLOVDHp2lKfL8yIdC6j7sefxbv6UAGly6NpNrd3z2DzzIPLTUtQmVVQgEHGAQvPRUBP0rnX8diX7TbWd5L5e3c8rsy+awBxxks3TqSB/s1lXE1x4huZri51NsqpiiSIbYVUqMqi44FWba3trXB3o8+0K0nzEtgcc8fy7UAZ66PPPcvdzyTqZIwXPkAsG6kc/UVdstPitCsim4lkC7A/kjIAweRnFaVnp91fubew0+W6kGJGSEH5R0OdxAHbvT7zR9RsYg+paPLaxs+wSSAHnkgHax7CgCskbiFCEnBAGQLQdMfX15/Gt2y8cxaP4efw9qtnLKrwvHBOGEZCMPunOcYyRkdqwoI4j5gEa7yA4yrYJPBz+VaNpod3qcj/YNO+1PEfnKLhUPHB3MBn6ZoETad4vOv6vMjva2UFzMipGz/IrRMhTL+6hgBgAH61qaVqFg2rfZIZ4JtUttPYWrRygxrIsaqsanu27e2f8Aa9azZvBHiOTcq6FMinG1lMRK++C9Z6/D7xEsbRtp100pcSiVTCGVgMcYfFAzt9dsxYWLgWsotrS3j2bgTlWSSSVmP95igQnsCa8ztrVPMkui8k5uVywNuNrHrnGef/rCpZk8TWkdzZNrOoIiERPbSyMTggBgw5HQ9jg5rVtvBOtLaxhNBuQPvAOUJ/WT0oAqeW+wP5cysnyq/wBlByfXGaQByX5lDEcbrcDJ7962f+EM8QLEY08PzALls7o8+3/LT3qhe6DqmlQpPe6RJDATtMjqhRc+pViQc+1AjY0v4gQ6FpT6RqVvK6N5r20igI8YbO4YOccs2CKq2Pi1dU1KExNDZ2VysUKrI2VBjKNGrv2DBWGAAMuetVbbSbzUh5NppxupIsbvKUfICfVmAqe58F+IZIDENIuI+m0qIW247gF8HNA7m5pmo6YfEVrp7zwz39vA3kASBoVkCEgE9CzPl+D6Vc1S2NrpkRkjnVYbaCd9wO9pJWbzpG/2wq4z23muNX4ea4Lb7Mul3u4Sh0lEcBKgZGAPM56/zqp/xVmnRNbXGvahEyNsmtmfJRDnqPp6HHPWgCC10+XEkt15ztM5mEaQKUAPQDnntiruydF2ubhWHILQKOfQ80ljpTXK/ZNO06aaUHKoiFm4IBOWbgVp3HhDW5XYNoN0Ez/cj/8AjlAGYYZ3BAM20dT9mXB/Wk8hkAYmcBAQD9lXp9M/WtUeEdcMZK+Hrog84aOPBGP+ulZs9hPbXbQXlkbWcDd5csQzjPBGCRj8aAKVxbSyp5atMjLKGBS3UEe454ruPB17rr+E9SW+1Fn8m7EKiR2jaGMAHP7sbmLFhx9a52Pw3q1/brPaaNcSwMMxzLGgVwR1GXBIqfSNK8ceHdXa50ywu0jlG2SFoo9hA6dH5IJPNAFjWPEFnZSywaleyB0UFFk+0lnz6Avx9SBXLf8ACT2K3R22bo+7YJo79VyT3wynj3zWm3gzWbWOW91XTL2ZjL50szxxnax+8SQ5JHPcVUh077VtitLRbmaQ5SKGBSzDgZ6/U80AUP8AhLJxcSl2SeJWG3zZkdxu6YLZ4HtirB8TWkzzJqNpG8e3l1mWbK57Kx3Z/wB1xW43g7WhGf8Aim7lSB18mM8f990yTwPqs0Jjfw3dEN1CxRj3HO+gDS8K+M4tO0z+zrJo7vTF3B7Uk70U9cZG4fQgj/aq/qmjaJqfhK5u/DNxdJe2wMohTHmiPIJQ92UH5gctgjg1wOo+HdUsrmQSxvYT+V+7jmt0QnHOQwJ79xzU1rq0mi3tvG2pCO4VA63IYLsbPRgCc59cfUGgRYttQdZrWZ8JOymSKUDKSqcg4HcdivqSOhGOmvILC/0cXNyTBJY5uUkHLPCRskiJ6nZuBU9ShU1Sv/suv2bQTW8dlfKqs4X5VSTGEnTHRW4Dj0IYdKoWdxP/AGfItxAyyws0FxESCRwVbI9gzDH+3H6UDOs061fUrG+1HTdV0o211I9uvkwtt5UKq7W5DAYG5e3JBqDwj5kkVg8zQM//AAlUgb7P/qwfsx4X2qLSZb7VZNOS98L2aeG7VfP+0YwySIBvcCM/fLDAGKn8LXcF/wDZLq1SVIJvFksiLL94A256+9JjR7Jbknf7GrK96rxAgtgdasLwOetQUOoozRQB82I5SQRsxJmBeQqOQCMsfq2Ux/tCm31+trp8mpSJEJ1JjsoXcBDIFznDdVRQuPX5e+cutIYbppbsBjGFWIDuxw0jgd8Abh9SncVm6ismo+IlZHhmt7OJodvkpIpYN87YY4BLFj9AK0II9Otp0ijvZZLr7U2Ww1/HjLHLN04JrSiedg2WYt2P2uI8/wBaqrLFczEQusso6iOOBiO3QE1Zht5lz8hIznm3hGP1oA6/wJcaVcamIHgvBrUcAkLzTLLGF4DeWVJUHn689a6H4hO8Xw61WSB2WRI1ZXDEMDvXkEVyngYSReJUJQgi0lyDEifxJ/d6/jXU/Evd/wAK21gsOirwcDjzFoegHj+kXtze2ETSNJJt4aR9QXc3J6qeR+NepfDMGR9VlIPmKYkyZBIQMNxkdPXFeQeG7eV9MJjwwOchLeF2XBPJLHca9e+FjMiasCerRY+RF7N/d4oAZ8UvFmoeFLC1bTRGJrqYoXk5KqoB4HSuv8Iapca54UsNQukjS4nQ71jIK7gSCR7cV5j8dQzWejEDj7RJz+ArvfhyUj8DacpkRiPMy6AKD+8foOg/ClIcTzT4jzyWnxMit42YRXUEPmKJNq5JIye2eB9cYr3UKqKFC4QYAUdB+FeBfFJt3xYsBnC+VBklRg4c+te+7gQwDfL1BzSfwh1PI/BXxF1rW/HlxpV1FaixZ5BEqjDx7c4579Oa73x0o/4QnW2H3ltHdWB5DDkEehB714h8Ljj4qcFSMzjJxzw3c89q9u8fMo8A68ec/YpOAOOlD0VylucR8GL2TUNL1K5nyZkZIi5fJIwT+Gc8itX4m+NdR8JaXZvpYhE1zKymSRdwUKATgZ9x1rD+Bin+w9UZTx56bsY4+U/41D8b4g2n6EmFx9pkySB6L68U2iEz0bwrrNxrnhTTtTulVJriImVUOV3Bipx7cV5P8TdXk0r4ixLGHMM9qhkRZvLBYlhuPbPA5r0vwIuzwNpSDYSI5OQAFP7xuw4H0ryL4yS4+IVkGGD9li6qCM7m5IPUUJAdj8OSja3qUhLMVt4/LJlEm3czZwRwMgDP0roPiN4svPC3hNL7T1Q3E06xK0i5CggknHfgVzfw4gcX1+CR/wAe8PzLHHHn5n6BTjFTfGqP/ihLJQxJF6nf/YenLoC3Z0PgPXLvxP4Xg1C/ijF0XaOTyvusR346cH864j4yXlxp3ijSGt/lM9myyDdtD4bjPbIrqvhNBt8HldwYi5fmMBQeF7DiuM+O3PiXQ9xIAtW7A4+c+tS9xpXPX9ORLbTLWOIKsaRKAo4x8o7V5zZ/EzVrn4pPoLrb/wBnG6a1WPZ8wxnDE565HTpXpFsxFlbAgj5F6jrwK8E0of8AF7ywK/8AIXk4I56t3qnvYk931aCOXRdQWQbg1rLlT/uGvL/gveS3t1fSXP72SC2VVkeXc2CckY6j09xXpuqsf7IvyRnNpKM/8ANeX/AhUFxq5BA3RIMYHqepoA7b4keKb7wn4VN5p6p58k6wqzjcFyCScd+lSfD/AF+78R+GodQvRH9qMrROY8bWx34JHpxWB8cc/wDCEW20cfbk4x/sPV74SKB4NRdyyD7TIQUUAZ+XsOlAzmvjRey6R4g0a5iDqHhcSqr48xQw4P0yea50S+cgKSZVwOPtykfStn4+FjqGjZHPky9e/wAy1zVjHJFaQ5KttT76W0OKSY2VL2wuFuRfQbswqGi23sa+Sw5BBPbpwK9O0HXbW/s7HxTJbrJJLHJbajFGnInC8MAP74XBHfKelcL5TvH5eGYEEsDDAR05GMVd8GJcW2sTaBbzRsby3WZEeNU2yROHUttJ6jIzTEbTrYeGdXNtMj3GjM4kjXZvDW8wyQB35AYd8xE961tT0i1lWK6/tBmtTg2mrxZLw4+6s+OSB0D9R0JHen48urK90yKbT9sSW8EkAUcGNopkQAgdOJH/AANWNL1Ob7ENT8mTTLlyUuJ0j86zuGAHMqDmMkYO4AcMOTQBoxeJNU0iA2XiOwS+tZI9q30DDbKp45JwpOD6qfY9axdUtbW5uLabTG1F4VKRyR33KbCcKilvmPf1CgEgitS3ubKeR4rG21C3kCCSc6NKlzbEMSPuHK/wnjaD61nW+hanqE8LnR50YMwaNreO1DJn+N1wTkZBIXoSB1zQBc8HNNcT6cpZvMF3NOCevlfZ0Bz9XZM+4NZfxE8Nab4d+FkUCWdut688SyzKgLM5BZiW644Neh+G/Di6HHLNK0T3c5wxTOyMZJ2rnk8kkk9SfpXNfGeFZPh9Ir4Mq3MZB6eoz+tJMqxxfgiy02b4T6tcXun291LJdNAjyKN6MyoAQ2MjBOa574gRLbfE82+0ctaq4x8pbYmT+PNdL4Kkx8IbtM4P9qIAQAc8x+tc98TInl+LU8e8qfMgG9cZGVQZA9RTJOo+NmprJFFpMcCKlnJG4mB5BZW+XpwOPXtWZa3EMP7PkzCBTJc3jR7uAVbcDn8Av61X+J/hrUtHEl1daxcahbzTxIrTlNzEI3UA9unQdTUjqD+z/Bt7ai5z2PJ60dAJfhlNp9r4P8Tave2EF4LUxMI5UU8EEYyQcdRXolhbyeEdB1e/tbKGOK4njuYraOXKoGVFbnHHOT0rxzwto2o6p4F1+S01GSGC3nhaa0CgLPz3btjr+Fe9W8q32p3WjTMxSOwj80DBG58g/Xj60AeZfHbatxoLCP52jmDN3x8mM+vU11/hrUJbHwp4U0yysoJpdQtQGE7lUwEBJOASc81yPx7BFzoQVScRTcH6rXU6Cj5+Hw3PxaN6AYEQ/HvQtrgcxrGjyal8MPC1jYwwi5ub0hD0wx8wnnrziuc+HPjW78KajcaXcw7oppADG7FSkgOD26kA/iK9E0tB/wAIp4DIzu/tJWJ/4DMf6VwfxW8PSweKL7XLRCsP2lInKD7knlqwbj1JP4ilcdtD0O+S2nuvHF3DEkvmaVAy/IMNmFz/AIflXlfw1sI9R/4SK2fDZ0pgCxxgb1zg9jgGun8Ba2uo6H4tExlNzJpwYF+mEjYNjHuc/jWR8HlLX+vkHg6VIATzj5hTEN+JrWB0nw09lYW9l5sEkjpCq4xkAc4yTgfrXcaTp+nyeHfAiLp9v9umaOYXAAVgE+ZgeOcrmuN+JkSjwx4RdgC5tJBuwBx8pHTiu98NIz6X8PQrFQLWQtgA/wDLOoKseZ+F4reX4wLA8CNAL+4BiZAV4D449jjj2r1TTLK01bxRHrFlpVrZ/wBnXVxZySpgGTAIyVC4POO9eS6HZXN98W3tbS/eyupL+5C3MaBimBJng8dAfzr0/wAINc+H/DX2O5laW7m114DIpBL/ALzDMfTO0+/NWSeYabCLn4xpDPbx7G1SQPCygr95uMU7xZfr4R+IRvtAVrMRSHMKMNjEHBGB2PHB6VNZj/i/DoSVzrEn4/M1UfiUpfxXdr5jgC4lbkrxk+3070Ae6v4jju/Cl9qtoCs0FiblUY5PKFlOPQ/0NeT/AA88X6Npmn6sNYiWbVLqXzUeRQfO6DaWPTnJ/Gu70FEsdL8KfbGIgutKeG58zAXYE3jP6j8a828bfCvVvD8095YwNd6ZksGj5eEf7Q9h3oEd3a+CI49VfVr7TLeLSAqXbWkc3mIrBZRtAIHdlOOleeeO47H/AIWm0NrFGkAuIE2xooXoueBxg5rqfhD4vuhbahpWovLLY2qCVHPJhTOG+q8jgZxXL+NbSK0+KaQxOWVZLQBxzuOE5zQM9jtbGytPHN5Lp+nwQSWthskMYC+aWKlBtA9m5968th8bXdx8XrPVbmMW6+YtmybiVWM/Kefrz+Fen3Gof2X4g8T3zuQtvYRuAQMZCnHv1wK8W8dtZ/8AEjlsvtJuEtPJuXlgePMwbcT8wGclj0qVuU9j3C00y28UarHq2pWNuzWSzWhgc+YElD5yARj7oH5mvGPDtvbX3xhESwxm2e/mxG6Arj5iBt6V6/4I1T7dcGfO5dTtYr1ecjeAI5B/30K8n8ORIvxvUR5VV1KcAdsfPTbJOj8Z6bYW/hLxPc2VjFbxLqEEQWMKB5iHaxAHQEEVU+HZ07Tvh9qeo3umW16Uv0iCyIpJDbFxkg4+9mtTxsSngDxXyT/xOh6f314rjvDel6jfeBprq21Bks01aES2JwBISYwGJPpkcUIbR1Hju3ufCngSawgjFpbahqjtshcsBEUB25x03D9Ku6Dr/h3XfDWleH7DS7aW7ki8qaGfCeUVHLBgCc55BHrXR+JdNtPGjal4fnuBFJCsRtzxlJQGJPuMYBrwnXvCOv8Ag7Uo2uYJIvmzDdRE7Cc8bWHQ9ODQmI9/0Pf4X8PaLot0D9oeV4N27IwGY7ifpzXmel35+IXxWR74tLp0HmSxQMcqET7ox7naTXf+FddbxZ4P0/8AtEOuofOEl4AlkjBU/jggn615p8Hibbxy29RkWcqnB5BBGf5UwJvijqtrJq9td6Tbpa3Fi5iNzAcM2OnT0PeofHfiQeJfBfhvUZ4F+2s0iSygDDEEKefqM496wvFMkr2jOSziW4LZIUY6+n1ov0YfCzRcqcSalcsoPptQfzFAHpvhaDRP+Fe+HLa90a0u59TeS3DOoB3bmOS2CRwOtdho32nw7p3h3RZrZSzo0DOrZ2FVJHbnOPavNvCOj6q9h4J1FtRaTT/tbbbVlVRCcuM56nOO/rXrVhcw6vPdsX3LYXu2MgY5VAD+GWNTIErnk3xl8SSWvjHSYLdtz6cFnxj/AJaFgRn/AICB+ddl4p1aHX/BfiGHyIVMdnHNAxOdyOFZW6cHORXm3j+70vWNGfU4WuDqD6pJKc27hVgPyIN5GDwiHr3NXLDW2m+HEDFiw+zSaVNkjqjB4/8Ax0kUwKPw01C58M/EK50qVQ0sqSW5QtgNIuSgz7kEf8Cqx8WvELeI7LSXt4gtrAP3wyeJpATt564EZ/OofilBJ4Y+Itrq9rhGuFju0YdpFOGH/jo/OqPiy7E/g6WZbb7O11rH2tBjkxPG/lj8hTA1WFtafs9Q77dDPc3hVX2DIIkPOevRSKsfDJdLtfBGu6tqWm2959muEAWSNS3IAwCRx1qjfkj9n3Sdy9b5+2ecvWZ4W0rVdS8C6pPY6gyWkd7AJ7TbxNyoDZ9iV4oA9B8S6APD/wAKvE8f9nxRxTXgngiU7xCrCLJBxxgg1yXw803TLrwJ4vudRsopxBGpjO0bkO1sFT1HOK9E8far9o8KeKNORgwtbG33Djl2kyT+QWvEtJvtZsfBusf2eyrp9zNFb3YKZYZDFTnsO1AHT/C2/uBZeI9Lmja5sv7NknMTcqrDAyB6/MePYUz4LtbxeKNSvrpVZbTTpJ1LAfKQy5x+Gea3/AB0bRvhpq2rl/8ATrpJreUd9wU7EA/HNcl8NN7v4piC4f8AsK4x+a0Aa/gZT8Q/iRcajrYF1BCjTmGQ5QDICLj0Gensa7+20my1Dxzp2r6Hpf2ezs5ZILmeMbElJRhuCAY4Ixn3FeffBWU2t/4hcN+8GmtIvODwa9o8FQi38JaaOheLzWJIJLNknn8al7jsePfFHxrJeeKdPFkSg0mVnX3kyOf0rtNb8Q/2rdXmFKJ/ZCy2zBsiVJGjZ/p8pwfZa888eXOlatoVze25ZdSk1aWYgQsB5R+QfMRjHyA9e9bvg5IfEPhzRFlmEd1H5unCUjO1vvx7vUFSV+hqhFvSoEfULe9up722EKrl7KIOwlKLyflJAz5gHGBswAMV0qeKRawLpXhnTrm7ucsc3Oc7mYlmYfe5JzltorGvfDV9ZziWTTGbZGQE8o3ULvj1HzAHJbkZBJ7E1etpbSz0+2S9TWQk2ENpHapZwl9pO1mAXPfnNJsRWtdEu7jVpLm7uI9S1YDMkr4a1shnuejMOyjgdT61l6pLDdan/ZWiXBnd28l7mT5mklc4kfd3ONq8cAF8cVu3mowHT3DQC5sbaMt/ZmmH9wMc/vpuAf8AdB5PY1jeEX3avLrV+I1dJZ52SMjZH5ahAqj2EuB+FMZt3A0LyLe3SP8A4lWg27vOzfL5m04CY6HcyZJ74A6Ma8ivp7nxTrUuqXwkWR5DnbIu1UXgIoHIx+XWu2+IEzWFla6bawxxw6rdi4Ct8y+QiIIwR6E5JHrXJ2MCwwtgbB32njk5JH6UAW1uN5wC4x/F5rfpQZX+ygrlW2kE7zxn/JpiRxgLKsYPGeAB/ShYlaPaWVwSOh+tAj1P4aayuoQX9kulWtg9uUkLW33Zg2cNzzn5SOaz/jZIT4NQdheR9P8AdanfCbB1PVSAi/6PB8q/70lL8bv+RPTA5+2R5/75epW5b2PN9Hu5X02CWaMqCm0AZ6ZAzx+FetfDNxLol8cY/wBNYE56/IlePaDg6VCyeUGJ6q2Cf973r1/4ZbR4fvT8o/01gOcj7iVRJh/GXX9b0u50ax0jUJbVZ1d28ptpYhgBk+ld/wCFrqfUfDel3t4wa5mtkeU4xliOf1ry744Rl9f8OoPLOUcDd93llHNekeCm2+DdE6HFrH06dKSQNnlnjBnj+OAjjOEkuLJXUD73MZ/pXtxBWJnOCVBPPfFeF+NSyfHa3ALfNdWf4Y2V7xMQIJCQMBT0piPFvhb401/XPGU1vqWpS3FvPDLIYnxtUgjG30xXoPxBQf8ACvtZ4DYt+h/3lryH4MJ/xXyAHK/ZZBkjBHAr2H4jKE+HmuFucW/T/gQoA5z4NTST+Hr5pAQwuEXJGMgIAP5Uz4yeINV0W00uDSLlrdrh38xo+GIG3Az+NL8Div8AwjGoBQv/AB9Ag+vyCsz47HnQQVUnfKdpHB+5xSv0KSPRPAd9cav4L02+vW33MkX7xiACxBK5PvxXk/xYu5rH4lWvkDPmWUaso/iy7D869P8AhocfD7SflA/dscDoPnbivJ/jKgl+I9ku2PP2SIbXBx99+uO1JBI7b4YZbVtRY7sm2QsGz13tmtD4t63faB4QFxp1w1tPJcJF5qAbgpDE49DwKy/hZ+51S9RVQYtIuIySB8zevNL8cif+ELhBzzep2/2GoQ2b3wv1XVNY8GRzatM8t1HM8e9/vFcAjOPrXAfHSaWz1XQJIRh/LmGMdvk/xP512XwiRY/BRVQoxdPkKMDO1a4r4/5+3aMATny5xgfVKOoLY9n0eJP7D09cDaLaPHoPkFeL3njnX4vjR/ZsV4Rp8eoLam22jZsLBfxPOc17VpY26JZAk/8AHvH83/ARXzrf7m+O8gBQ/wDE5jJI/wCugxQthPc+lJgGhdSARtIIrwf4IvLJ4rvVblY7WQpkdMug4Ne6yMywOOTuU9q8I+CAUeL9QIUEm2kyw4I/eJgfpS6FHqHxK1q90DwReXli5juNyRiTH3NzAZH4Vk/CTX9V1zw7ctq8zzywTbVkkXDMpGQTxz3qf4vqW+HV2S5H76H/ANDFY/wXRY9EvxiNSZYm+Vj3TvnvVJ6XIS1Kfxxke3h0GWPG9biQjODkYHGPSuIeBb2zBEEkMkgIDNb4K5HYZxj3rsvjqVNho4yB++kwcdeBXF2q21vYqDDbRE/e2ibGTj1oQMk0fzyqaTKJVvo1Y2Ms0e0SYHzQj+8pGdv1I6NWiZbaWJZ3LqXCQSN/46jH1A+XJ/2I89a5+/tWkljvLUxLPA+YsGQY6YP1B5rf8oa5p4uIEO69gL7EPSQ7iy/99JJj3MdMC/pUsEdrcw3PiLUdHhtm+0RzW5AXDbQQy9WbG36Emt3QrqG6vLee0nE9tJ4qdo5c53j7Mec+9czYarJaL/alrbJcyRqGlgONsu776f8AfTOf+2YrZ8ISyz21jLPZLYyt4oYvbKpURH7MeMHpSY0e3Qu3PHGe1TD5utVof4sDPNWU71DKFx7Gil5opcwHzQwh0Pw/9vkQiZ1VlI7KzkqB+EBx7NVrRPDZbRYdVvILeGGaQJBCY2cydcPgDc544QYB6k4rW8S6GdT8UaR4fEqxQM8aNnusUGen/Aj+ddfYxyaP4Un33K2cwkZllli3SKpbAcr3dsEgYxkgY4rUg4vxZpL22p2V5AipZ3Nuse37Ou5JAv3Sv8PGWwO+awWtSZA2wNjoDaZ4A+tb3j661C4m02wNhc/2VbZzc3pKedIVIzu7HGRzjqeK5f7NbNEFNjYkejXdAHZeAYJE8T5dWA+xyj/V7edycZrp/iZEV+Hes7iCSqAD/totcj8Okij8VN5cMMf+iSgiGbzB95K7D4mOD8O9XDHrGv1/1i0PVAeLeG7SZtNjk+z/ACtuCyCIsXO7kHgV6h8OrWQrqoVXUiSLIKbDja3+NeRaFZJJYq7WdkxJP7yS4KMRnuAa9f8AhUI4INX2JbxgvESInLr909zQBifHBJU03Qgxzm5kyD0+6vFdv8PYceCbAsqRt+8yqngfvH6Zri/jq3maXonzKQLiT+S+9dp8OCsfgLTgyomBINiHco+duh7ik9ikjzT4oRF/ipYLGAWMMGCf9817Y6yhsICg7npXinxQKt8WNPAC8RQHn/eavd8ryS3GfSlHYl7nzt8Lyf8AhZZ4BH77B79Hr2TxwG/4QDXQ2M/Y5Oh9q8X+FZDfFAngjM/X/dbtXtPjrC+A9eCkD/Q5M4Ht9aqWwlucL8CedB1Y/wAJuU5/4DTPjkv+haCGjJzPLgHoThasfAfA8OaqTtGblTj221D8d2BsdCVQjfvpRhiRnhaGxpXO48ApJF4F01SoRiknC9AfMbpmvIvjLC0vxEslUKzG1iG09Gy7YH8q9d+H5CeBdJRkQOI3yqNuCne3Q9xXkXxoVT4+ttwV1NpEGUnAPzNxQ9WI7X4XWzRX+p+ZEIyIYcqE2jq/H4UfHBQngq145N8nHp8j1D8J44rbUdUVI4ow0EJKxSFwDl8881N8cWSXwTbDg4vkz/3w9D6DWhqfCiN4vBYQosRFy+VXPovrz71w/wAcUlbxNoXG/Nu42nv8/Su1+Eu2PwUFYRxkXMhwrFlHC9Dk1xXx1IbW9DGQSYH4JPPzj6VL3Gj2Wzj/AOJfa9z5SYyenArwDSUc/HFtvQatJz+L19AWBEmm23QZjQ/MevAr5+04FPjmzgKcaw+SPctVP4iT33VfMGi6jlflFtKAcdfkNeR/AlG8zVizZVo05zyeTkY/GvXNVYSaFf7hkG1lOM/7BryD4Esv2nViVGzyk+bPJ5NK47HQ/G4Y8EWykcfbkxjr91q0vhSkkXg7bhUP2mTIGSB9315rM+OL7vBduFO4fbkzz1+Vq0fhK6jwWuREhN1J8qscduhNMRxnx4Ltqej8E/uJMA8cb15rFtLWcWC7oTE+0fKkO8Y+vWtr485/tLRgmT+4kySe24f/AFq5OC1txaRB7SxDgAn/AEg/4/1oGa0gaFBLLsiTHzF4gAPxJ4rZ8H6ddQ+LrLVRbkhv3NtkBRJuI3uAM/KqZ59SBVPwbZw3WuXtrbwWi3hsfMt9rqcuJB3YMBxnPFdlPqPiC2mlvri0tYLqKL7KZYwhYlvug/OzE9wqgZPU4oAytftIYvEeqWccCJAXaQoGPP7uKRj/AOQnrc+GF40mnW0TllWa0AYH+GSEhDn3KNF+Vcc0VzFZ6rcySGa8ERgGWJO9iV699qpMM98A963fB18YPE8NiEKn7ffqxAyAgVQBn3Kcf7poYHrMMFvC7NFGilzl9qgbvc+tT4Ut8w57MO1RxsHUHIx2NSs/y8DnPWoZS1IhEJVLHgnnjtXmvxeea78Of2VZWV7dXUs0cg8m3d1CjPJIGO3SvTY8rCTkdO1VSVaQ9B6e1OIpHhnhk3Om/Di502/sLyC4XUEmAmtZArIWQZyABnI6VkeMrHVdV+Ik2tWmi6pLaedGVb7HICQgUHqPY17pd6DdanaNbXWoCSF2yVMAXBByOh7Yq+1jfNaxRC72yIfnlMSnePYU7hY8O+I4l17VZv7L0m9uJXMEr7LZw6ARsPmBGR979Kryrdw/CG20GXTdQTUF1AsEktHG8Hdgg4/TOa9vtdBubbVJNQF+WklQI48lRvA+7nnjFLfaBdajHGt3qXmBJVljzbqNrA8HINFwseF+GGu/DvgvX7HU9E1ZXvDGyO1qwjwOCGJxjv3r07wVc3N5q+r63d6XNptkltDbQiePYzLGCS2PfP6V1s+jX17BJBc36SRSDBU26kYqG98N3eoabJYS6s4gkXYwSFVJHpmhtWCxxPxV8M33irw7p2q6ZA009qpcwD5maNwCcDqSMD865/R/EWoSQ+FrO30a9Or2ME9sscsPlqzFMKdxIGAOvf5a90t7ZLe3jhTJVFCj6AVXvrFbpVYqvmRNvhZv4HHfikmNo861pofDkPg/RxBd3D2FykkzQW7ONqxsGYYHJy2cDJxW6mjWPiKLxPp08Y8i5lRclCGU+ShB57g1uWmiTR3hvby+e7uVjKRO6KojB64A459etLp2k3FjeXNw96ZRcNvkTygoLYABHpwBQM8X0jSb3wl4J8ZW97aXKXJb7PbSiFiHGGBYEdFI6kmsv4c2t9oN7q7XulahFFc6dJFFIbVyhc884B496+gdZ07+1tJubB5DGsy7NwXOB3qo2nXUi+Wl7sh2bNhhVsjGDyeaEyWjw3xtb32t6J4btdN0u+nFpbMsjpaPs3Hb0OOelddoGqC2sfB8N3ZXkE2nQyxTxPayb9wj/hGOfwr0DTtKn0zThYxXR2oMQsUH7sdh71BdaFdTXdrcS6oGltmLwkW6jBIIPf0JpthZnhOhWuraX8SU1+fQ9XNiLqaVtlmxbDhwOMf7VdLZ6vdX+q28FtoF6lumttqFzcPbMNqqAdoxk7vUfQV65cQXUmzybsw9iFhVsn8aqJo99ZeYbbUFTzpPNfFqgyx6nHrxRcLHhFrHqUfxQfxD/YmpSW0WovO4W2YuFOTjGODhs4px8OXfjj4nzb7a5s7KSZppPOj2sEByQR2Y+h9a91s9GurOJ1h1JhJNK0ssrQqxkY+xPHSoz4du4Z5ZIdUEM05+eSKzjDNxjk0XCxyfi1JdQvJrDTbZphpulzqoQH5XZNioCO+O3tU9l8QLjSbS1sfE+jaha3wgx8sBkFww4O3HUkYJ9K7PSNGttHjMVshaR8NNK7FmdvUk0+/snnnhkW5aNYjkxiINuOeuTyPwouFjzLwJ4bn0+LxH4j1Czaxgvo5VgtpFwVjJLHI7dgB9a85vdN1vUNfstSj0rUpYIfIAdLV8MIwBkevSvofWNDm1tPJmvmjsWwHhiQAyD0Zs5HTtWk9rMLZIbS6+zhPl5jD/ACjt2ouFjynXNT+3eJZTBp2oSW93JZ+dttJNyQoxZ9ykZ6gDpSfFjzdctEs7K1nnltkjnRYreR2JbjHHC/LzyM9K9Gg0aaDWX1A3++WVBHKBbgB1HTnPGM1LZ6RPYXtzcm7803RBkHlgfMMAHOfTtRcLM8l+Ht5faLo9hJq9le2zaZdOhaS2kGYJhyBx1D9veuf0q21S3+Jia9Lo2px2RvpJi32RyQjFsHGM969zv9GutTWS2kv1WFzwgtxxzkHOexFXJLPUWjiii1ERui4d/s4Jc+vXii6Cx5D4qeS98JeINPsrK7ubm81cypHFbOQFBBycDg4HQ81g6HdS6H8P9S0rU9E1RJp71JVJs22bRt4ySMfdr3XTNFk02e4kN35ouJDLKojCZkP8XX8KbeaLd38Ukdxfo9u5H7trVSDg5Hftii4WZ5aNQ8QtrL+KLHQrmEfb1H2WSPYzQpCVJOemcj8cVp+K/GNt4l8NXuh22iak2pzMsYtZLVgYTuBVicYBx/Ou8u9Avr60FvLrDmIOrECAZOGDYyD04q3Fp80F7cXj3PmeZnCeWEx6ZI6+nNFwscLZ6M/hrwx4X0yQL9uXUUkYjkgtuL4+gIFc9qXhXUvAvxATxDp+nyXWjSOTIsCF2jVxh1x7ZyDXpsPh9pdYj1PUbw3UsAIhQJsWLPUgA8ntW4wU7W3EDBGM/wBKLhY+Vr+3m8Q6nBY2NrNlpwrboiu0kgDPOa674i6VHaaRoPhXTLW6uJ9PSR5BFCxzkD5unUnceOlex3Xhi0l1EarBFCmoEkCd03AL67c4z70lh4dSwu7jUJbl7q/m4+0Sr9xewC5wB9KLhY828MyJ/wAI/wCENLurC6iubO9PmpcWrKDnJBBIwciuy1+ZvDfh7XJLK1nkmvXY28cEbP8AO6AEkAccgmta+0G71J4Hn1IFraUSxMLYfKw78N05rZVCNqvySMEjjP4UXCzPNfFMtrdfDuz0K0hkMU9ptjVrdy6+WnHyAZ+9tHpzXl+hRajYeGdd0++0jUF88RTwk2r4WRW57cfKTz7V9Ey6JK3iFNU+2cxxmJU8r+AkEjOfXvUt/Y3l0HjjvUigkUgo0G7IIwRnIouFmeT/ABE0pvHVzo91pMckoWKMAGNg215CpbB7A9/eqXxitt50vQNIsJZpLSPfKsMRYgAbUzgehP5161Y+Hbmwvra4S/RlhhFsE8jrGDkDJbsatQ6EkGtX+ppKxnu40QEjiMKO3ryfbpSuFj5+1CWb/hT2naK9lfR6nFqBfyXtnGQSxByRg9QKPDN3LoXw/wBc0vUtJ1JZLqZHjf7IxTAxkEnAHSve7vRb68EIuNTjcxSrNGPsuMOvQ/ep97ot7qFrJBd38E0MgwUezBH/AKFTuFjx/WtTl1DQfFl2dGvbSO/jt7W1iNuwZli5Zm44471ieELZrXwL4n0vUtPu4JbpI3tzJbuFZlz/ABYwDzmvdr/Qr7ULB7GfVlEMgCuEttu5c9M7uKW/0W/v7Sa0kv4vskylDF9l/gPbO6i4WPnPw4uqabaajDcabfBJIxPbOLZyBMoIx06MjMPyrS+Fq3Gja3ePqFjdR213YyQxyeQ5RiSCBnHfB56V9Ax2d1HpyWi3y+ZGAola342gYA27v1zVSz0O9srFbSDU41hTOF+y5ABOccvQmFjwHQbfVPA+qjUpdPuZ9K1C3eFniQsdj8dujAjoa7WDxXq8vg60bTLC7itbO2eAuYSzXE+wqqKoyQFzuJPcYr0nSdIbR7NbJLhZIR/q1VNu0ZJweTnk0l3p195ZgsLtLBH3NKwgDs7HqRyMfXrTEcP4mnsrv4bafpFgryRT2xi5hcNmJf7g5zvwPTNcP8P4tTsIdRs7ixvIMhLu3eSBwvmwnOMkcZUn8q9ri0SWHUoLqO7C+XEYgjRbjtJy2W3ZyTznGa0buzvZIzHHexRwOpV0aDeW/HcKAWpNbXEd1bRXCcxyKHH0Ip1xZ293BsuIY5kJztkUMD+dVtI0yTTNMis3n85YRtQhNpK9h1PStJQPu8A46GoLOL8azLpulwW8USBBvuDGoAG2JdwGPd/LH415toJEdlpdrKu+K82Ftw5ctOgY/wDkFq674rahHbJLbMp3Ppk3lMB382IsP++UP5VyN1BixeNx5MthdSJEUP3E+8p+gMcw+rD1q1sQzS+I+mzXOq2b29q2NNiCqqHcWhIGHAP91wVP4GuVhdpImVZ0fb3WdDjH/wCuu6tNS114reRrKO8u7EtGC7AMCxGMtkMDjgcFWGD1rD8ZRTWcWmXF9Yw2+oXVzJuijjRcRhVHbOR14JJz3FAjCZpT8rzcgEjEqAEelBJERAyADnKzKelSCO1Bw8r7iPlUQDn9aY8EKA7HlwTtP+jL/jQB3XwqmddQ1YMCf3MOGLg/xSegqX41MJPBMXPzfbEx/wB8vTPhcInvtWMZJXyoByoXnL8YFSfGpQPBMOO18nGf9lqVxnmPh15Y9JjURrH5gyhMyfMc/ewRkdO9eu/DAyf2JfBxj/THPJB/gT04ryTw+iLpcZlR4wMsvG/eOMY9PpXsHw4jVtFvX37s3r4bPONiUwOM+NeZNe8O5QEhXIGcA/OvevSfB20+D9EYDAFnHhf+A9K80+NIz4h0CNSWIichQ23J3jjPb616b4PTHg7RcKABaR5BbJ+6KBHkfjHcfjnbygjAurRTn6JXu025baYsd3yk9OgxXhXjAK3x3tgxwPtVoeOnRK94uVAs5woyPLbv7GlcD56+CwP/AAnqM5x/oko6/wC7XsXxF2n4fa2Acg2/PP8AtCvHfgzg+OVDKd32WU8H6V7B8REUfD/WsD/lhjlsfxCmBzXwSjMfhi96AG5GADn+H9KyvjsNz+HsjPzyjHTP3O9anwR3nw1qHmMeLkbQWzwUB49OtZXxzZ1bQFHzsWmUDp/c6e9AzuPhtKsPw90dXGSYmPBz/G1eW/GECb4iWWEDhrSEbS4XPzvxk8CvU/hwvmfD/RiSQfKPAOf4iK8o+MSOvxEsxHvLizi2ojbWPzP0PakmDO0+GbA6rfqBytpEo/eBsYJ4yKk+NTf8UbbkgE/bE4PI+49N+FyBNSvtzkt9ki3Bjkg5PB9T15p/xsCDwXBxn/TEH/jj0wLvwlZIfBzIUK/6S52senC1xnx8kU3+iFfmHlT9P95a7D4RqD4KQsHBM74Ej7yBhe9cb8eEzfaJxhjFPx0B5Sp6j2PaNLkJ0ayA6fZ4/wD0EV89Xbp/wvWXcgKjWUOQOmJFr6B0xh/ZFlsyv7iP/wBBFfPd7lvjm47DW0PH/XQU0rCep9Im4VomX7vynr9K8I+CThfFuoMUYH7M/PY/Ole4yIPLbcuCQevevDvgiB/wluokAlhav8xP/TROMUog9Dt/jDOZfh1d7QRmeL2/iFZvwWATQL4lcEyRYXIOf3Y5rS+MDlfhzeAr0miOcf7QrP8AgwpOhX5ZJOZYyC7Zz8g6eg9qb2BMzfjuudK0TKjP2iTp24Fcfa24uLA2kdrMsk5ESQGbcXLHHQDHeux+PCbdO0Mg5PnyHH4LXG6Trc2kS6XeRwzXE0E4l8ppt77QSCOBzlc4A9qFsD1Z3GqeFIZLy30vTVt4blbdPNSN9gd9vzF0OMg44Zeh6g1x2h/atOludJlgmt2iSXCs/wA6umJGwR0/1S/99V7Rp15Hq+pxXMRintGiE8ccqbJ7U8r90jJBw3PY+teea9o13B4itfEEu5AdR+w3MLMWKh885P3lIIx6BsdqYWsY2n6ebHWbqyknPk7zDJJngkll3Y7fJI5+ig1teBhJ/Zmk+bcNPJ/wkziSRzyzfZjnPvmma/Ym4htr2IhJ73SoZQQP+WqxEk/j5YX/AIHUngaQTWGnSAALJ4qlYd+sDGkxo9ytwVqyMdqrQpgZLZNWFqCgwaKdRQB47rxeHxlqmowXkcFzp9ibpDKgdDlUXa2emcEZrobJ9Nk1aRbiL7VdT3EbCcAMqyCLfhSP4UXv6t6muY8Vww3Xjy7064la3h1Cwto2fjIUS5OM/wC7+taXiLxAlloKalptstvJawJdOWVcgSr8qg9yzBc+wqmSl3Mrxp4jnlsP7FeMHULm5Eq2qsB9nhRgRvY8bmwDjtn8TzYN0U2or5GcESRisSwtPOmGpXXnC7ly7sZlk3FurEMcc+mOw/DV2YAJVlB7GOAU+gjp/AHnP4nCzFwPssvJZTj5k9K6b4lxf8W61gggjy1PPp5i1yfgC60q21q51G+1WytYoojCizSwxs7Egk/Kegx+Zrq/FOreGte8L6hpS+I9LjNzEUQ/a04fqM89MgUrspI8X8Ki5XTNwWbyjnafPXaeecKfu/1r1v4arJLJq4lBDboeGYNjhuhFeffC2x0iTUp7XW1ikQAxxCS4LRvLvwcAHGTxj1612HhDxBo2g+L/ABTo9zdRWKpdDyTM5C7RnjcenXuaNQsih8doVi0zRNmSTdSA847L3rtvh+v/ABQmniUMHPmbgz7z99u/esLx7F4Z8a6daW48WabbS2spkVzcoVIIwRjcDWr4e1Pwv4c0Kz0yLxPp8626EF2ukyxJJJ6+po1sF0ecfE4OnxW08Ix3eXbnrj+Jq968ocj5vc185ePvEOm6t8TYLzT5BdQW8catLG2B8pLNg98D869yj8c+G54klj1rTQjqGAkuUR+exUkEH60a8oup4d8KoS/xNbOcBpuQ3ThsV7T8QYgPAWunIJNm4yeorhfCnh3wv4Z8ZT60PGemzQ/P5MP2lFILf3juwcZNb3xB8YaAfBerW8OsWdxNcQeVHHBMrszHjoCabuPQwvgPHnQNVRuCblc4H+z1qD47RFbbQVB586QLzjnCjr2+tQfBbXNN0jTL+PUbyO0M0oeKSaTYjYGCNx4B9jXQePrPw1410+1jHivS7We1lMiO10jBsgZBw3tQxI6H4exv/wAILpRbdu8twQW3EfvG79/rXkfxnUr8QLRUOW+zRfdfaSdzcA9vr2r1nw9q/hjQfD9rpkfibTpRbpgubuPcxyST1964a51Xwn4j+Lcj31xZ3NjFYLDFJK5CPNuBwpHU4Y0a3EtzW+GCzSapqK3CuG+yw5V3DkfM/cUvxvgWLwbaMp4N8nb1VqboGs6J4W+JniDS7qZLK3McXktI52AgZIJPT73fitjxy/hjxl4d/sweKtMtnWVZUl+0xkBgCMEZ9DRK+g1Yg+EloD4PbzPv/aXzvk3n7q/xd64v46QvFr2hJGTn7O4+VsY+cd673wjeeF/COhR6YPFOm3DBy7yG6QZY+nPTpXmvxg1/TNd8UaVDpV1FeG3hKu8L/Llm4G7+tLUeh7lp1uW0q0YN/wAsUIx/uivn+ziK/HR1Gcf20y9f9pq9n0Pxx4dm0Kxd9YtIW8hAyTSiNgcdw2PSuKTw/wCFYviI/igeMdN8o3Buvs/nJuDnPGc4xk+lGvMGh6Vq9tt0PUPn/wCXWQbT/uGvHvgTGTeasuGwIUJJPB5PQdjXoviLxt4Zg0G+l/t2xmY27osUU6uXYrgfKD615f8ABnWNP0S4vZNRlWBLlNizySfJuBzgn+Hr1PWkrhodb8cYv+KLgwoGb1Oe/wB1uKvfChDJ4MUSRnzBdSH94249uM96seOX8MeM9BGm/wDCU6XbSLIJUl+1RsAwBHIz0wTUnhKfwv4Z8Pppp8U6bcOrtJJJ9rT5ieeMt0qkSzgPjoWj1DRsMCRBJ93jnctY1is4sICRMrbR8rTI56epq18Z/EWlazq+nxadex3X2aFhI8TZXJYEDI6nj9apWMZazjJdlbyxlRLE+PxNCAq31pffbUvovPE0S4BiuQjJjuMe3avTxq0HhnQNNtbTCpLBHcy3TMGluWIydufXoXbgAjGTivP7uJmtZAjSMxXARZokOenUc1Xs47qSJLrU7uZ5re3+z2UKXQP73IWIDaQQAWPHtTA33nu9a1Q3dwQElVp4wvA/eDytxB6ABlAHYZ9a6D4fql/40e7jXCSfab0g84DybU/MmWuS1CeZglpZIqvcyLbQPxygUKG+hARv+AGvSvhXZRG01LVYlxBPKttbcY/cwjYD+JyfrSbGj0DycZ255/hFISSCuORUw6CkZSelRe5RFHCxGd2B6U5olUgcevNO2nvwPekWIliWFO4DjhVDHmjDFemc09YwMZ596dgHBPagBkceF6VJxgcCjnGRSbueGwfpSAM4+tN3YBOCaf8AXAPpRxjNACg4pDyaKKACiilIxQAx87TkcVUXDA7eQKuMCRx1qqiKoyCOuelMBVTbs7GiVRnPpTH55H5UvLBiTwR09KAHBVSMFhnuBTZCHA4wPT0pnzsw7CjaefnPXih3Acu0Oqn+VK6nzdylVIOCCKZtbOSc0EFSPXtQBINvnj5jv7iopiBuyaoXmp2+lqZr25jhDHC7jy3sB1J9hXFa/wDFPTLAGKCP952a4YoT9EUF/wAwKLCuj0jA8sEHPFRXFxBbRb57hIl65dwOPxrx9PE3jfxKB/Zem35t2HDgC1ix9fvH8GFObwF4ovV+0atrGlaao5yI/PcH/fkJPT/apqNxN9j0R/FOiRybTqtq7Z4CSBj+lNm8Y6N91bqViOOLaU/+y15s3hrQIXKX/wAQ7iTA+5DcqoH4Amox4c+Hbvuk1zWJs8bg0rA/klOyFdnplv4w0TaS9zKD3LW0ox+a1at/FOhyggataAnoXk2H8mxXlL+HPhyJQw1/V7c9A2ZQB+aVNH4Z8OzsE0z4j3cLk5VJ7lWH5Nil1HqewQ3UE8W6GaOUf3o3DD9KsMCYlZTkeleNJ4B8S2jebpes6ZqSNyGMfkuT7PHz+tB8QeOvDAzqWn332cYy64u4wP8A0If99UNAmezKQkGen1pThlAB/LvXm+g/Fex1LMNxGpYf88CWb/v22G/LNdrp2q2WpwmSyuYp1BwQvVPYjqPxpWHdGkqKCw9RUax7ASCQM05HUAKTy2cUkhZIyBznoKAew6MbkOWOPaopc4yoJANKFYIASMfTvTiCAF6knt2pAiRPu59aY3XNDH5cAE4pkTu27apwOOaYXRO7AN746VC+4MCo+vNOO9yNy5xTy21emKQyVcbRxSA5Yr6CpEII96d+FAEWADnNKclcGlI3Nz+FG315oAaretKCO3NJk9hRnjNACFRg4AzUbRnZwo46VMOSN3Sk9efpTAqBHTO4g5708YKgFTkd6sdVIxTdg9DRdisiuY8nIFMKOT1+XtVh1w3AyuOaF3BvmAOOnHSmmOw3HH0FMAABYAgHjBqYAvwBjjNNFuF3MzksfekB5X8XLUzCzAXJuLaeIE8YZdr9fdRIK5a5uJpbtb+xVmN5yV9jslUj3DSDHqQR3r0/4kWLTeEpbuKLzJ9OkS9iU99n3h9Cua8esppLG6mtLaXdFC6XNoWAyYmbcgyfdhn/AK5n0qkSzutH1638UH7JeQQ3FtfIiFYlAkhx0PqUGMgjlTwRXmFzBcX+pI13ez3Ytp5IBNJMWJVWIAA7dB9avT28ljcQXuj3lzDd29xIrCIBv3ZyyMqkYyUcD8DzWZpNrI0cvmwzK7yN/rIfUk9u9Mk0pVYkkAdhwo61EoZsFkG4DJKqMADv+NWPLKpIoh29Pm8knvzUVxCIyg8p3b0S3zn25oA7n4VIY7rVlCbcxwkjPTmT3qT4zyu3geEk4H2xMY/3XrG8G+L9A8MWkzatLPDe3RDbBaMNqrkBfc8/rU/jTxv4P8WeGbjTBfTrKcSQH7O3Djp26daAOD0WSK20yBnkMTHkCSQYYdyM9BmvYvhqZToN4RnBvnIPY/InTFch8G9T02KOfTZ4pJbi6kCxyPCCmFQkruPQVL4D+I+i+HbTU9O1ZpI8X0kkUiR7lKnAxx06frQBH8ZQ7a/oTKmZSjAYOCcuBgGvTfBuf+EN0ZgP+XOPg9vlFcD4n8VfDvxa1rLeXt9FJaNlJIoWHBIJHSt21+LfgSxsYbS2vZkihQIi/Zm4AGAOlJ3KVjhPFxP/AAvS33AZ+12eMdOiV7pdFxaz+mxjx9K+adc8WQ6t8TR4gtIJmt0uYHRMfM6ptA+mcfyr2hvi54QVWjurq5glPDwy2zhge4PFDEjy74Mu3/CfjjC/Y5f6V7B8RNw8A60V27fsxwSPcVwPhvXPhn4Y1y41Sx1O8eV1KKJIWIjDHJAwBn8at+Ovil4a1Xwnfabps0tzcXK+Uo8plC85JJP0oVxuxZ+CjBPC99wS32rOT0+6OlZnxyYK/h9uQS8vAOP7n61Q+GPjDTPC+lXcGrJdwRTOsyXBgYp/d7duBzWz4t8UfDzxha20d9q80b2zF45YYX3LnAPUdDgUxHXfDWT/AIoDR8nnym/9DavKvjI6j4k2O5Tj7JDkq2wn5m6N2+td3pPxH8CaNptrp9nqTC3t49ifuXJP146k1y0Hj7w5q3xYbUrmNpLBrMWdu8kO4mTzAQdvYHnmkkBvfDCYnVNQIbeptozkyiTHzN1I61J8bHc+CrcBRg3i9/8AYas6DxdpPhD4peILW+Hk2c0cQRoo8+WwVSQQO2TWj4o8ZfD/AMU6MdPvtWlQK4kR44XDKwyM9Pc0wL/wndh4P24YAXLhdx3HoveuK+PbZ1HRAwxiGYjH+8orqvD3jrwH4c0mLTLXWZXRCSZJIH3MT34XFeb/ABW8X6V4t1awGls8kNrEytIyldzMQeAecDH61NtR30PoPTHI0ey24x9nj4/4CK+fLqRh8c2wrE/2wMgf9dFr07RPiz4WTRrNL66eynWFFZJIH6gYOMDkcVzkmpfDF/Gw8TnW5hcCTzjD5b7DJ2b7ufQ49aYj2CRnaN8rj5cc+9eGfBA7fFWosMn/AEVwef8Aponau8vvi74NjsJpIdSa4kVTsjSFwWbHAyRgc968s+GHiK08Na/PdXyXHkXETRNIkRYIcq2SR16YPtihDZ6f8YZD/wAK6vRgHM8X/oQqj8F2lbw/fM+/Hmx43Nn/AJZjp7VP4l8a+APE+hTaVe64EikIO5I33IQcgjiq/hXxb4A8JaW1laa4bgu+9pJYnyxxgYAXgAUMSM348hm0/Q+Bg3Eg+Xr0HWsPwVq0Gi+LLE3zS+U6SASzyb/JZiAre3oT2BqL4teNdF8UvptvpE7TLbF3kfYVBJAAUZ5PQ1ky2s13ZKVe5ErBkHmRBCc9iOuKEDPdhc2WoQ29xqsBtr5GktVEefnypJVT/ErL8w+nrXKeIpLu+8OQWZkiltrO2h1H7c7HzJFD/JhfXAAYk9TWJ4F166ktLfRdQaeW3sXWdpHjIdEXklWzyEcDp2er3jeOyspL67051jt5dMlsZIcHALDz0YeoxTDc1r2MJpHhOVlzi1hU9gfngOPy3CsLwHbG30zTolwWi8VyR/gIGFdN4lXbpXhaFRtcrGmOn/PIY/Wue8IyBmtSBgN4vmI9swvSY0e1wjBJHXNWQc1XhDAcEcVMFz9ahlD6KTFFTqB4f4/eOz+Jnh++uY2a28nLr/f2Fmx/Km/EaZbqaSzhin+zzzwRskMRcjZEWJIB6ASRj8Kl8eSwXb+EtUlIaAlHI25+UmPIP4MwrP8AHs2nTeKdNa0lYie2N1NGyErhljCjjkZVR0PUVo0StTGS3YFSqyYA/wCgYccVMYHCggy/U6Yen5VCiQngQ2nI6GKYk/rTv9GXrDaj2MUvP61QirdaJa36L58NwwUfIBYumT77SM/jWOvg9RDEXinDGTLqtvLjZz39enH61vhbaP8AeSRWojHBzDN/jSyRLbSRLLYxxiYFone1mUPjqBkgnqO1KwzO0nR5tEnt7y2jmkmS4Ehja2k27VbI5weeBwMdOtYc2nX+o399fXdtqM0l3N982bYf5hkn046Yrrk8vHzW9mADzmGb/GmMLbGfJtST/wBMZef1oC9jEu/BtoI7n7OlzvJ/dA2koAH1yf61APCEWZ9i3KsoBgP2WX07+nOfWuhZIM58m1x04hl/q1HlWwjH7m2Ix/zxk/8AiqYjFh8JxwSSy/6WoKhRi1ct0+bIJqxqHhu2vTv8u5EqptUrZOoOBxnB/pWqY7ZANsNtgjO7yZcE/nUYjtzuDQWxHTDQScfrQBzw8HKVyY7jcYgADbSf6z/D3/SnweDWCwmZZ85bztsEpGB93HTP6fjW5FBFPcC2hsYbiYjd5McEhOPU5IA+pIFdTYeBkuLS2vLptLlE8nlxW0cuIm56u2SXI/upjPrQBw1nYWiQT2D3BljaRwsQtyxIzkAc53VWk8K2zojxvcC3aUjebdwu3B4UkkMQe2fWvcX0iHVtNvLC/uLWXT7eE2/2exiHB2glyADhgc7VHTuSTStpNxq+g2GmT6dDbaYZFZo5GBdYY8FBt6b2wM+gz60kxvQ8GfwzapmSKb9zJOgikMTgOnf2znsDUsWgQ2ursbfdLJE8bpEYnBIDAndydvb1/CvYNc1gaJMbbUlSa3laWSLTYtrM6ABI0KgcJgFyexPevOJr2zlvJJpIrGNATGkMVtJ5UI67VxgE9Tk8nNMRz2qW+qazrOp6neW9/NJO+FZbR8MxIH4KBx37VZvPDdjDJMsMrJiLO14nXYxPGcscD39e1dzYeFreRoZ9YVbKGTHlWsEJ+03X0Tcdqe5GfpXYWk+laWh0u/06x0/TSgzYiLzSvdWlfpuOBhRuPuaTY0jx2w8Cy6i4NlG8lt5J8y6kHlxI/bLs2D+GT7V1dn8D7mO4tfN1e0gl2sZBEjOR2BG7qM9eBW/rOrnUNSM1qC1raA+StwixxW3+0yE4Dehcgjshrmh4nFvqhu7GZ9R1JeTcypI6J9AvJ9icD0QDmlcdjDuPDEMtqLedZXe1d4A0Ns2CVcg/Mp55Hes0eDlMNuGE5Of34FvIcD29f0rbt5beSB2jNvMwb94zQS7ix6lueucmpJViSMutvB90nAhlz09ziqJMIeEYhbQptmEnm/vMW8mAmT0PrjHp9avaXoRt7cxOk5X5hsNmzKynp171oSW62zmC5s7dJAgJCxuykHoQQxBGcj6jFNgjhGGWKDKjIIhl/wAaAMeXwlDybdLkyFhtV7ZwAM89z29aiXwgPKuGRLlDuzCDA+CPf07+tbxtwlqt1JpwitpGxHcNBIUkOSMghjjkY5ArT8P6Vpd9fTf2nIILOBMt5MTBmbGTncDhVGCTjqwoA47/AIRaBnnVDMHVV2L5DErle4zxW3DavawQxkTtsQKCdNyePrXU3Xglbu5uJPDdnaNDEBHNbXDESrKpOSeQCGHIP5VgSeGfE8c2w+GoVx1YxySDHblCRSTAhIkSIyy5VQCcvp+0D61BaWbTzi5nyI4gdiLEsbAn5STjvzge5B7Ni3p3h1rmVpZ5oBsdc+WmVhyeMKhZ2P12/UV02saba6Ux0mG1kuLqTEVvCGG+VzkGZwpwqgEhEz/eJ60wOTw8EP2wQtJMxW3tlLdSxAZvxyVA/wBp/wC7X0BoGkpo2h2lioGYYgrEd26k/icn8a8w8K6Eb7xjbwjy3tNH/fXEqH5ZLjG1UHsnzc9zuPevYhwMc/U1EikgA4FHegg+tAB7Hp61CQxW6j196UDack03JY5POKpnVbPzWha7gEqsysu4cFRub8gQapO4FHU/EMmnar9jOnXEkQtpLk3CsgUKg+YYJznJA6d6rp4102UM0W+WNXdC8RDj5YfOPQ+nGPWmXlxo2rFbtdVh2TWtxaoyOCCDguQfUBaqjw9pOlvDIt6LQGV5I9oVQW+z+WSP+AqWpgadv4lSbwxNrj28kcEMTymMujMyqu7IKkjke9Uj47s3s1uLa2ubncT8kSjcFEayM2CR0DgY654qvaWmi2+kapoP9swNLcxSTXDKEQojoAW2rgAYwc1RfSPDyaeJrLxFFZx3l1KVmjkTDmRVWSMZ9doOexxQBqT+NRbPfltMuGitEikE3mRhZRKwCYy3Gck84xitd9X8uzsp7iCSNruWOIRFlYoWOByCQfwrn7qz0LUm1Wxh1eESyrb28ka7W8oxP8gweuTxg1o3MunQ6Tbi91aJU0+5jEk+FQCRMEKQOF6jgUAXfD2vr4ggmnht3iiR9qM7K28evyk4PqDgitnHIyefpxXMaFa2GinU7v8AtOO4eQLLPKVRQiBSVLbeD8pznvW7p+pWuqWq3NlcpcW7EgSIcqSOuKALfTmjJPUUnGck/gaWpvqAMDjpmoPIOetTHI55NNy/Qk0wI/s5AyTimtCwXAYYPY1Nk9KVhu6AH60AU2hbblWAYdSaaAzcBuTVlo8KRxz61z3iHxVYeG42Dukl1s3rCDt4/vMx+6vufwz0p3A1bu5gsLR7i+uI4IV5Z3bAFeb+Jfif5E/2HS45PObhMR755M9Nsf8AD9W/75NYaSeI/iRfie1f7Hp0bfNfygqkQ7iFT/6Eefp0rV02XRPC0UsXhW1hu7lX2XWt3p+QOeoU9ZG/2U/OgRmw+EvEmrxvqfiTVE0KyK5d2k3XDD/ac/d+gwP9mrlh/wAIvoMZl8O6H9uYcNqmosIYifZ3GW/4CKUW9xqmogzC51O+zuVpow7xf7sOfLhHu5Le1dTY+Cbm4ljuNUufJmGPmjPmzEenmt93/gCrTuFjnrvV9avlD3WpyW0Lj5Vs41tYj7CWbLt9VX6VXt9CW+YGOwe9Yn/WSWs10f8AvudlT8hXplh4Y0jTJPOhs4zcHrPL88h+rNk1qhFOSeCKOYLHm1t4X1tMeRay26nqPtUNuPyiiJ/WrkfhjXThS8C98HVLpv1GBXfZBHOKABScgscFJ4V1wIQrQkE5wuqXSn9Sw/SqVx4Z1t12zWs0y9CovIZx+UsQ/nXpRGRzQAACMdanm1GeN3GgCwILaY9mRwZEtpbUgdf9ZAzJ+a1at9V1uygDWery3EK5+W6RbuPHoZIsOo92WvWtoJ5zWXfeH9LvpfNmsk84HKzR5SQH1DLg1dxWPM73/hHddj8/xJ4ejty33dT01/Ni+rOnK/8AAhWbL4Q8QaSq6r4Y1JNestuUxMFnUY6K4+99Dn6V3WpeD7iMvcadP5k3UeY3lzfQSqOfo4YVxkMkdvrFxa2UxtNWt2/fi1CpKT1+eD7kw91Ib2ouJo1PDfxLaeb7FqsMpnThw0eyeP13J/F9V59q9HtLiK+t1ubKaKaJjwytke4+teZXk2j+JreNPFFrFa3DHbba1aMdhbsCTzG3+y9ZU0niH4dXxuLmVrvTpWyuoRgtHID0Eyjv/tDn60gWuh7OwckYxj2NP2NgHGXHSsfw54osfEEKmNhHc7N7Q7w2R/eVh95f8nFb4UN931oHYpmKfzAO+OTUphlxgkbhVgo27OacxZvQUN3DlIERx1xStGzEnPHoam4Cgnr6UmR17UhiKWUdM0pYgdcUoAPX8KFGWGaAHDH3iM0mSemQKdjPWkBA4waAF/CkOByaXFGM0ANOGX+tNCD1P4U45zjdgelKCq0r6gJ0+9TgRj2pCAaCDt70wGYGfalOM8UmD6U1iRQArDsKTGF6ZNJuJPFBbjmhsCKeJLi3khlRWSRSjKe4IwRXzpdafLp9ze2UsO650qYxYLY82AgE49Dghvo7elfR+R6GvK/iDpMNl4ntNXf5bLUVFpdSbc+TIuSkmO4xkH2yKcRPY87u7XDQXcMSzFF2MCf9YOp5HpnI9AR6HEGIpFyFj+7twwfcrDPbt6V2On2Edu8ukXULi8jchokbmaNjlZIj/eXLED+JSw9qytZ0K40q5uPs19GTFN5e8KVy2OAy5B6A8jcOOPSrIMqCFVQhUg3ZII+fAqPbbrIm3y9xbG0F/qP5VoWlj4jaME6VeXLMvyyQLIoYf8CWtO18Iag0UV34hsPsulwN5kqy3AZ3ABwoVedxOMUmxnM3en2d1G7eRCrMB+8VZN2PUZyM1VHh60LoouZiEXaSFHA6/wByu01zR7HRpITp2qXVyhkKTR3DndD/AAjBGBgH5T6HFY8c8kqSeSs8qxozuYt8gA9yAQOnrQmBjafYHR55J7OacyeU4GFw3zAggHaMEjjPbNZWlaTLa3dvLMr4O55FIJVewB4znmuoV5PLILbIzznzG+YflU8r5hURxO7EqAkbkszdgOO9MRzsnh21Ku6XDrv+YbFyqn05WoR4cs1QOb2XA+YFY8jp9PrXRI8u7ZJG6yws8bxvIflYEg8jr0qJJGWFclCn/XU4I/KgDRs/g7q1xpcN1FqloPPCzC3dCOMZALD2xWfr3g+9tmJ1Kwa3jjPNzB+9UH0zk4/EA1cj8XNOtnY3kstu1jGI7W6hd+2QCy8AnAH3cH69K6O01u/t7mO/l2O8ilWuoQHjuxjpIowHI7Y2uP7pqbjSueYvoNmZ9rXzb3HTy/r7e1SR+FoeU+1SAk45iBH/AKDXtd6/hj7MyadZaXM19LuuLadNiyMOMZIwj+gOM/rXL6h4WiHmvoRnLR/NNpVydtxCPVOcMox7+xNNMbRyKWMdlH5NzcxzHCoqyREY4OAMYzWVdaJZCcmW5FskjZVRFwOPcZrfmdZGjOwSyKc7JFYqTzlWUjp1B4712vhzUrGSNLPQrGzs72SGZJbZgCTJjKSKzfM65BBH+0OOKYjy0+F7VfLzfOMnIzFk4A5OAKfaaLDp8lvIL7anmo6tJCMMw5UDgZHFe66ZoyaTq9xqFjo8aR6nbCR1GFaKVQSUPoGz27iqWnaDZWOn3Op6ZbQCSSdmltryMKETo0OT93GSQeh+lJAeFXWnXl9rF1qFwJxNcTj/AJZlt3zZZmz24zxWjfeG7e5neSOYxFsZVIsjnvz6+xr0y+8CXMl/cPplvbWRQb44g+YZFLfwjho27Hqpri7uOS3vPJu7ZreRgWVWRiG56hgSD+BpiOdPheEyuftku5mxxbj1H5UHwuqmRVvmVSoDEwD9P/rVtsVJAKv8vOdjdeP8KQrsiCmFmyc7mVs9eKBlKfQraWxW32AbVAWTYSynH1rMHhOMf8vThj0BhHNdKXVhxGyqwOcI3X86jykn3FfcDjOxuvbNAGFF4ShD7WvZFAOQPIBJrRstJW3mcGd5lyflMO0A4xnj2FWl3sxTY2GOSfLOAfX9KlaNQV2Kd+N2REeuB70AYN9oMFxL5gf7OWwDGsOQSO/JqsfC8a7it3Jwck+RzgV0U7RAJG+cs20HymO49Tgd6YvlXEbNbjepOxisJwKAOfTw6g8xku2G4YP7gfl14rciibaFP71lIy7Ajd74B61OQuwN5Ug7EiI/h3pPLYD5gxDYx+5ODn8aAF0W4ubDxZZ/Z3ybmOe2VWXjc6ED9dtdF8RpdPOjaB9jz580cXmZJO5GhITPuNpFcxmK3vdNu3l8n7PdRtuMZGMsP8K63xlpdgdc8KadaXIuJIzHDK3Z1GzYcdP+WhP40Adf4sZY/EPhe2z8sTNK49RHsb/2Q1yPgcL/AGfprrIHL+J2kBU5HNuTwfxrT8dXskninURAVMmn6SYkywAE07GNRk9OHJ59Ky/Aq3EdjpMdzs84eJ28zbtxn7Mem3jH0pMcT3SBsoTmp16VXhH3h2zVhemKzvqUOooopgfPmowSah8Mo7RwWm064uLJjnJIVGZf/QUqXxPa2CvoGo2S4xZvYsRM0efLC46Z45Yj2xUekXjQS6hY31s1uriKYowOcxOEkPPUmIo1VUhXTPAVva+cftNlqUzTFQwAXcYmB65OdnQdGFaEFfzlVWYggqDuAvZMY/755rc0jwxe620IlkbT4pVLDzp3aaRBj5lQ4x16sPwqXwpphe4TUL+5T7NbL9qlRpDKsKZ+UEdC5wT/ALIHTJBHSNCq3Mup3puLMXb/ALq0tSRc3BPQO2dw4/hUgKOTQMfo2k6d4UmF1fWdulzL8lthWurpgDyS2O+RwoAHrRrfheGXVZNTuE/tBrhcML+9MEUUeeECqvI571JLLqDCOx+1TxyRp/x4adIMwqehmnfJH4YPpmnL4Xt5IBqF7eadAg+9Msa3B/GWbdnn2FSxoqax4U8O6hoEsfh+00SDVQqm3eFxHhgRwWTkjGRXGS6HrWlxyya1pQhjRSwlF9I0TYH94Z2/8CwK7xPCthewfaI9YWeFiVDNa2roefaOpYNE1LS45Y7eC2vrSSPy5LcyyQFh3AUlkzj02/hSBo86s9M1K7smul0W5giXGGub/wAoMCMgqWYBuPQmrGnaLfauhaysI5kXG+SLVkcL6ZwxreudEX/SrnQLFm1CJfMfS9ZheVMdCY2LYJI46t+FcpceKLkrE76ZY3cBHzWyXzwRKRx/qmbA78CqTE0ba+B9blgLq1rFHHlji5lnbHXAVduSe3NXbbwRA9jcXLvqk8qjYLUx+QrE9wrvkjn++Olcmuowx2uJdGj0uGRw6wFpUhkxkD95GhJGST1qrbX0trI9zpdpaWzyfIfJ1iXaQPUbwx/Ki4j0XRdPH9ntottaaTDbId8iXQjkkkIPG6OI7QAcDLEmpLfU9NS7urvVh9olRTBHIIFjVedpjhQuXJOeuB0615lcWF5qFhMkkl7bzMGPl2rTGFifXcCTnvSaJ4bW1g3ahb3M9yOF3QFlUewMTd++Pwpgdjd+LtF8O2f2C4u9RimnI/0exMKrbxBiNoCsQhI68lvemXt/rerLBJo0cuk6RAgW3a4YRgcffJcgE4Pq+OvWqljItjbHyjcopOXQzPFkfhHEMe2RSXF/CpMyNah8587EbuP+BZnb+VACaZ4V09huvbi61aTeXxaKZFJ/2p5MIOnbB963HFkbW3tTJFb2lk2+K20xTcvG/wDeaVv3an3OSM8GsNr6XWSFggvNVkwD8kLSgfjKxVf+/YratfCPijVxEbmK10uJOVNy/wBsmA/2UP7tfwAoY0Vpbyc3JvNOnksrUAF3Dq7Ow7y3D/Kf93c/0pbOG9165E2nwz6jPyGvJZHit0z1HmsN7/SNUBrs9P8AAOlQzR3OombV7xOk1+28L/up91fwFdUqhMIvCrwFAwB9Ki47Hkup/CfXNViRLvXrUwIfktYYmhhj/wB1RkZ9zzXI3vgGfSLk2lxeRWyQhTLcNIZIkB6D1MhAztC9K+i2KNj58HOOa5LUvDOpahc6nATYrYXjpKZJ42kcPsVCFAIxjaDnPfpQM8m26OLG4t9Ntrm5uUUz/wBobRHK5XqAFPEeARj3yeeuj/YeqPHxoWogMMfM03AP4V6BD4av7ezbSY9P0y1tJiBPdW0jbnTv8pXO4jjJY4zXaEnAwOMVVybHiNjaW66f/ZWuW93DNavujmQlJYo2++clfmGMPyOfn/u1o6h4UsovDyaro1xqV68MoSaCVyzFclW+VRnI613Pibw7/bUAuISI76H/AFUh43Ac7SfryD2PtkV53HcXWiag6eZNpl3kB4SQiNjuN2UI9m4/uuBwFcLG5pOn6Zb+HLS21uC6WVxJJmPzCbcOc7HZeV4wSG45NR6Z/YHg6W5exgbU7K5PySQyI7RBsB0ccAL8qnn3FLLqcdzKlxeLpzT4A8+a1ntn/wC/sRZTgdwTWffpb3cjO9/ZNk8b52uT7ffgZv1osI6K48V6NF4cQaTeW9vIFCi1JR22jI2/ex096wR4q0SDw81rp8Fz/ajAFxp9u4ZsH+JkI4wT0asOTS4yTuvLVAOcppaD9ZI0H61HN5EaDzr8tFnccsrJnthE8xR+Y/CixVzZTWtSvtA/s5ILOCzVstLKwCoAQRuZiyKR16u3sKwZNaK3H9l+FFlvdXv3KSak6EcHqIs849XPPFXYPD2reKJV+zWtwYTwtzekrEi/7IJJP4Ej2r0/wn4JsPDSGY5nv5FAkumHOP7qj+Ee1IW5Z8GeGYPCvh+Kwj+aY/PPL3dz1OfTsPYV0IBJ54oGOgORSjJpX1KGMuH3HOKd8p75+tBJ74xXI+LVuZ11BIZbpUXSZpIzBIyHzVIKkFT1otcDru+FGD7V55qfgzULvXtQvYpERLtbgN8/8RjVUOPwYH2AqTxZaSaToUElvfX/AA6EQebM3m7YyAu9clSTzzwT1q142nuINIsJ45biErJv8iMyqZjtJCF05Vs9M8E8EUJWAytS8Harq1q04itrG9ZppYo45cpE5jSNRnABDBWz/vVoeKfC2o6rp9tBBebpUdpIi+B5DeVtUDAyRnrnsTWRql5qXnayYZL9bwQ3RmjJbZHEEHklB03Zx05+9mtS61S31DxToM8d25spYW2/PMgeQOAOAME+objGaYEY8M6s41iz8seTeW8axyG4HlhljRSpTGeShBPoabc+HdfvLItPDbvNMlzb+XJKo+zxylNrZCgMV2npz05q5qdnqt545eW1uJIrS3sY2K+Y6hmJmGAo+Uk/L15GBXMX99q954eie0a9kdDCjrvkiO9LVzJyOc7gPq2BQB2s2jXZurp0WJhJe2kqsWwWWPZvJ9/lNYEvhLXxp96oEcz3V7HekRTCJkbLbwGII4GznHPNJLb6+13rGo295O0ENusSgSPulzDGSypgqCPmORzk4qrdXN1HY2MkVxfy2o1CRbWJnmSSeP5cfMOcg78B+CPpQBpxaFrVvp+q6Z9it5FvtPSIXCzgBZFt/Lxtx0yBzXS+HBfW2m2lreWzRNGhV3kuBI2RjHIAznn6YrJ8IS79b1xZ53kuVu3AVpJTtj3nb8rfKP8AgPaseO5vP7a0FpZ7qVnZlMDGVDzK435A2tgYyrdsYoA9KYhjg0q+xrkNdtrs62tzaNcm5XTrh4UWdxGZV2hMrnbn5m6in+DZH8i78ua7ltA6eW92zF95QGQZbnG4n6HI7UrdQOsDEnrQz7femgnFITgZ/nQArHJH9KOe/wAtR5br3rkPG3jGHQLCVIp0WdVzJITnyVPTA/ic/wAI+pPAoauA7xl44tvD1tNDFKpuUUb5DysWenH8Tnsv54Fee2OgnV7c+JPGjyWmkqQ0NnJkzXbHoz45JPGFH0GB1foukRGGPxZ4rilMJf8A4lel/fklkbozD+J265P16AVevr65u70Xt0fN1FCUiigIdbLp8kQPDS9mc8KTgc4FMlsk1S/n1KFbS5t1sdNiUCLS0bagX+E3BXue0K8nvW3onhG61Bobq+Z7WFFxHGFCS7P7qgcQr7L8x7msKxjksL/Trm7kjxBeLmNAWCyMcOi+uAcvIeSeK9gC46gihjRUsdNtNNtlt7K3jt4VOdiLjn1Pqfc1b6nHtQFwDS5wDkYNQ3cYBcggEil2juelclqPj7StK8TjRb4T20jAbbiVNsRyOOfTqM+tdXFNHMivGwZGGQwOQRVNAO29wPxpmcjHvTixzgdKT86lvoAfTrRx68U1s8HsOtC8t7UgHfQ00kjrzQyk4AOKaw2+pqogZXiXW7fw94fvdTnYbYIyVU9Xf+FfxOK8Q8B6aPEPjOFdRRZoiJby5EpyXkwB29Cwx6YFbnxW8QHUdcg0C3k2wWZE92w/vkfKv4dSR3I74rS+DunRh9YvxGFAdLZTtww25JB/NePb2qidzW1jwfdWzST2LyT28mRIrfPLt9GB4mX2b5vQ1iWF9caVE1rFbi80+UMsmlSHehXubctz9Ym5HavW8Z+UVz3iPwrFqsbz2oWK64Zsj5ZiOm4Dow7MMEfpQUeXahoh0mBPE3g2We50ZWMktmhxLaMOCyd1I7g/Q5FeheC/G8HiC1gjuJEW6kB2OOFmx1wOzDup579K5WCa/wBJ1SS5g/c6iGEc0Mx2pd5HCS44WTH3ZOA3f0rM1zRkRJPFfhaKYQiT/iZ6YPlkgdf4lH8LLz0+vSgVz3NeM5PHrSkE9K4zwP4zg8Q2UcMkytPsLxOcDz1HU47MOjDt16EV2SnHegYgHOKXYe1O96NwBxnn0pANCNuzincd6QtikbJI6YoAdx68UcdqYx2jH50qEbTSaAdTXYqMgE/Shu1G8DvTAME8nrTSMH601pVyRnmkjbcCefxoAlcjHBprOFx1z69qeD6D86U+9FwITIdwPP4U0klue9TgKaikXYc+9ACZAbIFBHGaRSM1JgAZzQ3YCMhiOCB+NZuvaPba/o1zpt1nyp02kjqp7Ee4PNa4C45A/KmsnTpS5gPnxbxtKnPhrxakn+hMRZalGCzxKOhI6smPxFbkWuX2maRcxGGy1K3u9zC63hlckYzv4BP+y2w+5NejeKvCGn+KbIRXS+XPGD5NygG+Mnrj1HtXld34U1XwpOxaCdoMZN5Zj5W9d6Dn9QPrVJpiaNHSPEuhxaFLY6zLcCSIlrW1mSRQmB8oRuP/AEI9OtbnhzxLptxpTpqN9aBLdQII3CpINq5yCZGyeeOQa4m2WCddsN6oVhnYAoGe/wAj7F/DBpraXLvYLcWboy8maxZOPqiFf1oJTsdRfPofizTYdI0+O5sorZ13Xj4RYo8h2bfuILEqvfOSTVmHSdDi0bUdM0C9muLyazljRldmjDFe7AbMk9zk1z1lawxwbHuNKyp58u4iT8fniJFa8F1BbyI7pp9xLG2Y2kvZrsqexCIm0UDbMfwx4W/tyzv7/Urm7sLS0UKMIUbcFy+dw6Dge/NSXFpo2n2tzJYPdX99KFhh8w7cBh8+1f72GCZPdsdjU2ua9c6g5ivbuQxk4W1iQIXPb5ASRz3ck+i10nhDwvLHJHqWpwiJ1H7m3bnyuuCc9xk4+pJ5NOwjhI/DOtwW2Dp11xlnzGwHOSaoRQaT9nmj1aK4ZZZjEki5zAF6OoPDNu657cdTX0JkdOtcrqOjN9ovbdtGh1S0upftCb5FQwuQA2SeQMgNketCY+U8al8KT3rp9l1NL61kdY4ZocDDH7qurEGM/Xg10ekfC/xfpsjvaaja26yffjlbzEcdSHTaQa6u18G6hpljJaw6bZst1Miu6Ts0kCBwwOSBkDGeMHOOtejDkYPA9qGxpWPGr7TL3R2R9Us2s9gAW6t981v7DcMyR884YMo9KkuNS1G8ltbi5uYby1jwoZwoGM/eSePgPz3KZ7ivYWUFSuAQRjBHWuW1HwJptzLJc6e82lXj9Z7Jtmf95fut+IpDOSjSwGqtfI1vcSTwmCSLVF8iR0OOBMAUkIxwTk+9Yt/4Q0qN1W0e40hgQ6Q3m5Yww6FZlJX8+a27/wAI+JNOWQW8VpqUTcs1qfs0jD/aTmNj+BrBfVG00tbyLe6YzcsksTwA/wDfBKN/3xTTJe5as9U8Z6BNaTXzSahZRfK8qDzA6E5OSuQSOzZBrSt/Fmgais+jWutXqNcYMEVzbiQKed0WWzuU+h/A1i215bs/mRPb7wCTJEVif6kxtGfzSoriCK5EizQyfvTuJeMOSfUGSHPb+8aaRJ18f9mx6LFLbxzQanauudsEpMBPJUrnd5RxjGSOeKclgo055JPD+mXFldAF47eUkE4++scgA5znAIP1rznU7S28jzLWa4gu4kHlyJtX2wcS4x9FFZtjb6lHps1vd6teyIjEpaoFljbA4IO75fypgdvb+B0mtby5We4tHhG5Ee1kEYT2QMTkY6AkdOKyE8Ia5cxCSwggv4g+1ijyQk49pMGsu313W5bCLTiNWhtY8Y8q9VMAHON3l5H51cn8S+TbeWLvUoUZdrRXGqC4ZucgAKCRyKAGzeHvEdsF83RLhEXOSH3DH1DGqraHrEcMs0elyvHGSzsquQMc+vapofGNvNbPb2Om6rHF8yyRXGoI6ODyfllUjt2Ga3tCjN/BNcWtpbeH7KDKy6kl0ykseGUAYVj06cZ6UDOLikvJE32+lySuJCmwMQ7H2QtuPX0ru/B/gqTVrmafxBo91bWyQqsUckmC7EnOcHPAxW5plo4tbhNDt9SmuLkgy6tdSCAvgAcEqWI4/u1aXwZfXQL3d5asxHWUS3G38WcD8gKlu5SVjN1P4fWJ1GFNOh1WzG5THd2s6OkbepVju49RWrqehaNqVvHYaiun3evpCGSQn7O8reuRzg8+v0qFvCVxGwe0lsJGHH7nzbc8f7SSEfoaiSTUbSaOLUJdrhx5C6kizQs3YJOoBU/7wpAzlL3wDqlrZG6sbY3CqxBtbkgToc/wsp2uPTgGuYZ0LMrfZkkRgCjrKGQjqCNtetXEV3qlzcWsly8F3gSNpt580TAdGikXBA9weD1FYHiHSrfUdHjvY45IdQsW8i+lnYmaNeoL4x5iDIOeu3J6g1SJZ5+LL+0ZorBTbot1cxw70MmcM204BGM4Peu5itYLn4tQvBKstuqQRpg5Csud30OICKxNBtxa+MtPtb8tb/ZZzLcK0hIGxSVOehBLLj6ip9Flk0KLV9WkYyzW73hg+cHcVcQxD/vqST9aGgE1C4sPEWuX1rftKsOu38qQvGoJ2wx+XEevQsT+Iqx4AWCPTNGS3Z2gTxM20uu1ji3PUdvpWHbQahY3lnf2+lW2o2Nm8SLKysZIsNhnABBwW3MDyOldZ4djWK4t4o4kjjTxdcKqKTwPIahjTPaYcrHzznpipAcHNVoTtyP61OMN61FtSiTPtRTdvvRQB4HqekXul6zDf65Oky3V1Nb71dV8qB1Kodo2n+Ns8dhTLWJl1bXLiXG6TTkuo02k4uA6h/Y4kTnPYUeJ9H0fxBoei3x8SmK0skaBrl7V2YnIXc/Qj7oGSKzIRHc2+nTTXUM7W915csyZMciMxDhiMfLkSHP+2PWrZB0mn6gP7MtPLZBLdSpIwc5UmKKLaGP90Mdx9lNO0bUbk39zfLceWsiNtuJV3SRx5Aebb3ZiAoAHJwOigVxV3dpYeJNX0zzGjt4Jnt4t4wVRm+Y474RSPoSa7jwdpN7dxf2vDbJKXkRYfOPypjhc92WNRnA6ux9Mgew0dTaabp1taRya3tgt5X3QafK5YyNn78gGTLIep6gcCunkOm20SWbW8SQbC4QxYiQLycnG1foax9G1eTUftkl/HHEtuDEs4G3A6N+8zjJIzheBjqe2ToniPSDqFxZS6jbhXIUO+qm4Ut2HzcAkdgakdzpWfSdUtDAJLO7tpF5WNldSO2ccVzNx43h0nXLzTL2Lfb24Qxz27KeGXO0oSDkeoz2zWV4v0Hwj9mku7KGKDWW5jjtI1dn55LRjK46/MRx61zWmeHbzUbr7Pa2TIfvM5tokVR3J+Xn+tAM39W8c6ld3a/2O8NrbgcNO8ReQ+pBJ2j24PuOlcu02o3FzdXE0kSNLKXCQXcaoM8kgHOOcnr3rtbP4YytKHu9SQIeCEtowxH4rxVq6+GlqIwtpqUwfPWWCFhj8EFVdCszT8EStd+GFjkIkMcjISXWTPOeSOO9aE/hPQLhzJJpFo0pHLpGEOfqMGl8O6Evh/TjarP5ju+922KoJ9goHHFXNYu5dM0a8vokR3t4Wl8tyVDbRkjIz2B7VLGkc9J8OPDr8izlXPXFw5x+ZNM/4VxoCckXS9sCQf4VZXxPqMfhmHX3023msmt1uJlhnPmRoV3EgEYbA9xW9Zzxahaw3UbZjlQSI2CMqRkcGgNDno/AmhQxhI4bgd8/aZF/9BYVoW/hfRLU+aum2ryZyGkQO/wCbZNbO9Mnoe3FQrErPknIU8mi4wjQKAEUADHAGAPwqQh92R97NIAo3HGOnfmuH8TfE/TfCmtvpt7Z3c0giSQPAFIIb2JGDRuI73c+P6inY+U8f/rrymP45aGoJbS9RVR3Kpz/49XfeGdei8R6Hb6rFE8MVwXKxufmADFRn8qLBc1QAcnZg1MOVzySR1x2pu5RER+tPVwAQCfpmkMOACuMkdKbuG3PPNO5AIBIz+lIc4xvz7CgBg+VN2Pfk8VT1DTbDU7dYb+ziuIwcqHGdp9Qeoq+qgZ7g9vSkwGyAvHvQBxT/AA40N5mktxPbEnLbWV8n6yBjQnw50scvcXMh/wBqOA/+067GQtH8mBzz1pyHfjj64xxTuLQ5W3+H+hxSFmhuHBGM+bs/9AxWraeF9FsnEtvptusg6SMpdv8AvpsmtcEKCecdsUmQ+QWb8qBgiKn3WxUg3DgsMe1MVRjqeKfjK9CaADcewz9Kep4z09qjB2jABFODMx5PT3pMBSTjPFcDe+KtZt59ZZbZDaWk4hjlNs5AbzUTsf3hwzHC46AV3x468elU10y0aJ4zAux5vPYc8yBg2765ANCA4+28WardLY3BhtUtykDzjaweQTSFFaMZ+XgBiDnrjtVPT/H2o34uoVt4UngCxhnU7PMefy1PXldpVq7UeHNIEtpKLGIPZ8QEZ+TnP8zkelZN7D4cs76TR5rNd8ljJOyKvDRKRkZz16EfSmBTttd1q5uLEFrNUP2mO4QQsS7QNtJU7uA3y9QcVpeH9T1LUPCv9pzpHJcvG0kMYgaEfd4UhmPfPzZGay4vEPh2PSrK4srG4ljjXy4Vhj3MgeLzGOCeflHzd81eaXR/D2jRQ2llPPDe58u2hzIzLsz/ABNwAuO9AGJJ4t1sW+li3gSa8uJ5Umg+ySAjaEO0gtleGzuOR371ai8S6xcQ3BVLZGfUfsFqZLdwiHew3Ft3z8L2xzVi2vvD+j34tkspbcW4kK3G0mMMUWR1JJJ3bApwfTArOmv/AAzHp9zLNo97i8nYXFuVbep2mbeV3fKMfNleaALms+Lr3RrHUzIts89rFa7MZCO8md/foApI+ldHpWpf2ld364UwwtGImH8QaNXyf++qyb9NH0w6e6aVNcrcskURhUMBhCEzkjjazfrWd/avhnSL1byK3lhuhCVTlgGVJBbgY3YJzgD25oAty6/qkVxr0oWH7LppChDCwLYCsTv3YPyluMccUyz8Q6pf6vpkIEItruGS5JWB3zHvIT5gcJlcHJ6k0yTUtDiuNZv/AOzrrCyfZbiQEFLiRmEZUAvjOQBkgcCtuDRdMu4tNvfsLQtbwqluGZkaNMcKQDg/rQBydj401nU9GuZYVtYLu2jtzIssTOCZGYZA3DgrsI+probPV9Q/4SyTSrzy4oBGDDiFh55CqWKvkjgk5XqAB1rQTw/pkULRJbRqjpHGwHUrGcoPwqePRNPj1R9UW3H22RdrSkknGAOnQdB+VFwLwJ7rTjyOaTP0/Oq97ew2FpNdXDhYYVLu3oBSuBkeJdfj0HT/ADN6faJQREshwoxyWY/3QOT+XUivKtFsYtcll8Wa/JJ/YlnKZLaGRfmvJc48wjuSeAo9ABwKnvBc+PvFctgzmCyiCvqT5wIogcrDn17t/tf7oq3qurR3Kw3dunkaZaLs0q3UdFGV+0be7HBWMevNMlsW7uNS1PVvtFxFjUZF8qCBHx9jjIzsU9pCOXf+AcdcVp2emR2NmZQHaYqFieNPmAztGwZ4zkhB7ljzUWl6XNY2vn3CK9xONkqs5PkD72zPpzvdup6d61muVlKNC5bzMt8x5UEZ79CV5P8AdXA9MgJHP3sZt9Oubp/KQxw/J+8+QKucDA52Bund2yTwK9at5FmhSTOQ6Bgc+teXagHuZNzrIURVASIYLFhgKoP3XI4GfuJk9Wru/C83neGdOkypP2dEbDbgGUbTg9+RQx3Nw7SMHpSHrnqKaGUD5v0prNz7fWosM5T4geDofF2imNMJfwAtby9Dn+6T6H9OteU+G/GWueD5msrss9vGxQ21ydoQr1AP8J9x8vrjrXvxAbPJHtXmnxL8EG5t5dd0+ASzqmLuAEASoP48YPzL+eKsTO40PxFY67ZrPaTfNgF4nwHTPYj+vStNpCOhyfSvl7SdXm026ivNOupYwjbRtALRL1+X1XPVTke4r3Pwx43t9asbU3Mkcc0uVV4+Udh1H+yfY/hRYEzrjIx6oRTfMPUqAKGcHkOc+1J5pIwFOfWkMd5xBAIrO8Q69B4f0K81S4KhLeMsAf4m/hX8Tir3LD5mIFeO/FXWDqutW3heFybe3xcXpDAAHOFUn+nXkYppCucTbXF1M9xd3Ri+33M3nSzMx3Bic5z2wPy4/iIx7h8N7P7H4KsmPLXObgkJt4YnHHbjHFeKSli8yLAEKtsQcK2RwSP7uMkd8c9WJx9E2FsthYW1rGNqQxLGq+gAx/SmxIvKmJHfe/IAxn5akDYHzH6Zqq0oVGBbAHOawNQ8WW1rDIbNftZj4aQtiJeCfv8AQ9O1Idyz4l8O2+sWrSBo47lEOyVvukdSr+qn8x1GCK860zVLuz1NryxKzXifuZ4TJuF4qj/Vs3QyKMlG/jHHXNUtf+IJuiRA8V+r8KpUiGMjuFA+fv8Ae46VneGtB8R+I72fVYmaaBl/ePMAiS4OVVNvQg4IIGFP4inYTepf1i0i0G7t/Ffh53Og3koadIl+aymzgMB1HOQV+oPavWvDevRa5pwmJQXCACVEOV5GQy+qkcg/4V5xp2qR2U9w96jy6dd/u9XgdduCTtFwB2/uyDscH0qnYSXXgDxcNK3NPbsDJp7j/lvATloif7wPK+4x0akPbc9xz8oI/nTerVBZ3NveWUN1bSLJFMgdGU9QRmpx1zSGObnpS+mSPwpmM0qYB6UAOODyaB83Rse1L9aRj8uQD9RQA1mGAeoqDYzE8YH1pWDPKCeQO1E06QRvJKdkSKXZj0AFAA6lUzgZHpQr4AFcv/buu38H2zTNGjayJyhmm2Syr6gY4z2zV3QdZ/tmGadbdoVinMJWT72QBnPpyaCVNN2N8MSuVHNNLOB84H4Vka9qdxp1rbxWSo15dzC3g3n5QxyST7AA1jm51zRNRsv7S1CG9s7uVYGZYthhds4PuO1BLnZnZbxgBRzSFdwOTg+9RLjYAeD3rlpLzxBf6zqkFhe2kFvayIiiWEuxygbOc+9BTklY6dVG45GCO1Oyc9az9LXUobdhqdxBPOGJV4UKjHoRnrU15eR2Wnz3kudsKNI2PQDNA+ZWuX93AAPzUu8Y55NcNHf+I7Syj1y9mgNqxEk1isXMcZ77vUAgmu1idXQMpBBAOfWhoSknoSY3D0pCgbgjNZGt6hqkQMGnW6f6su9xKcJGBnoOpPHSrWg3c17oVjcXJ3SyQK7tjHJHpU2HfWxUvvC2iX8hkm06HzT1kj/dsfxXGaxpfhxoxk3RfaYu/DhuPT5lNdphM9TXGwXXiPXEl1HTrq1trUOwt4Xi3GYA43MeMAkHpRqDaRSPw0s23BdRuFbsfKj/AJgCoB8N7ZTtm1O+aPjMauqg/oa7LRNRbVdLgunQxuwIkT+64OCPzBqhr0uq/wBoWVnpnkr5yyM8k0bMq7cY6fWqTQntcqaL4Z0XQ5S1lYxxTd5WJZj+J6fhXQq4ODtH5Vyc1x4msL2wW7uNNeO4uVh2xxOGxySQc9gDXUgsM7h19PWqurEpk2FI3Y5o6nduwuD+NczJfa/cazf22nSWEcFsUQm4VixLKG7Vs6WNSEDDVHt3m3fIYFIXbj371I4yuXPunJyD25pfNUAYYE5wRUd3crbW8s8pHlxIXYnsAMn+Vck2reIILMa5OlsdPbEr2qId6RHo27ucckUDlNRdmdjvboAKXLEnGPxqNHWSIPGcqw3KfY1lazrFzpKCVdMnuYEQySSRMoCAeuTQO+lzbB69OeuKr3NtDcxNFNDHIh6q6gj8jVPSdVGradHdpE0W4srxt1RgcEH3rR5x70Amnqc3d+CvD92Sp02KNwMboSY8D/gJArAf4b2qzSeVKyRtjABBbqO5B7Zr0Flb5mBxUasGOMDd3PcUxnnT/Du4807LyRlAwNrhSBn02elD/DhmDr9vmZSneQcHPIxt6Y9K9F24JIyTSkZP3SKLkpHn0Hwq0p08ydg0xzkksw/LOK1YPBui6TbS3KxbWiUygqFQDaM44/qa6wDBI96rahaC8026tTI0fnRNHvAztyMZx3oTG0fPc7SSea6481gZN52feP6Dmuk0nxrdaVa2NmNPtDY26qrwbgzkjqwfdjOST09q0ofhPqRnk83xA2wH5CsCnI+nGKZefCnVUjJtte892/heFUH9aq6FZnQX3xO8O2umie3eW4kZSyW6xFWJx/ETwB7+1dTZ2y7hezKVup418z96xUEDoAeB+FeJaz4Q1vSolF9cZjcbcoqspPTBwvHU1Z8G6INc1Say1TxJfJEiI0Nos3l+ZnOduew9ueaTsJ3PYILPSNLuPOhgtraWZhHmMBd7E5wfU9azrzQbF55odNuo7e+kHmSWzt5kcwOfvxk9D/eABFNNrpnhjQJYtOjktVZjgoyiUt03AyHBNMU28egnV7pHu54GMsMl7s3xkHA+aIHA/Pg80ikzm7ua9t9Oe0ij2SW0o+ziVv3ljNnhN38UbDIUn1waqaFqwubu0N3veO4VrOXzOSUYldjZ+8Udhg9Ssnsa0tfWfxRYSXQ06VI2iOHgbd5sa8shI4JB+ZCCc4xxnFeZXWqTWsVzLJKftAlWcMo4M8bLlh7Oh3fjVIl7mrNOl5pmvX6ssV7aWcBicNtYt+6LZOOcMq8erVNdWFw2n6bo8UjG+kZAcjdyiNI7NjniSb80qjFaCW10N/MJh1BGur5UOdyROcJjHUKp+pretdF1DUbO/wBUuYQftbPaqReLAIo95eVgxB6vkcDoDTA0Ln/hOLHWdNtLO+sINPkjg3xb4v3YCjzAueSMqxqTQ7n7XdW1yBEpfxbOwCMGGPIIyCOD0zWPfXnhHw9YWXnzmS9NgbdDueZRCzNkhlC5OcjPHFT+A3gksNGe02/Z28RzNGEj2AL9nOOCTj6ZNAHt0AJyWOOasqvPy5x71FESeuPwqfJx1rNtFodiijNFK4Hgd1481Ky8M2l9rnhpHnlkltp08kxFUGxsfOrAhs8j2rnLbVtJup4ryOBLPTZ7hs2h2qqrvLMCQOP4R+VdX4a8PXqaDJAviq7WJJEvAWLQMsWCrBw+QBjDflXN+JknlCXc8dhJayzNGp0+ZJtjgDJyAPmKg9ecitSLGJqNrZalLCum+fJcRPItzcNHw8JkVUbk8nnHbg+1et+HreLTbLT9TttRe607ZLJJMykJAir84Az98naOewbvmuO07wPrk+iQanFHYm28pp0SS62nY65PABA55BBGMc1vR3X2TwtFZ2jGe1bEpkMeC8oEksgI/wB5UGPQ+9JjMnxHqt34gLXN8gWAufs9q7kIq9AWA4ZjhifTK+tU/D+hS6xci3isreZ5zvaSWJ/3Y9+QBx+dWNcjjjjkXjEMggTIx/ej7c/8s0Nel+BNKWz0OO6lCmW5+bd8x+UAAAbuR64qXoGpFafDbQIoI3ntlmmQ/MyrtDH6c8V0en2Vnp8TxWNpDbbjllhQLz6nAq84QRhSX56bacFC42Ag45qU+5ViMLIoy0hI9O9OCNxtUAHuadtD89D70jgqh/izxTAQlEHPJ9ap6lYjU9OubN3aOOeNo2ZcZwRg8EY6GphvQBmCk5xg85pzvls8j+tAHOp4Uh/siLSrjUbyWwjjWLyMqodFAG1iqgkYHTPNLpmnX1lrN3L5iGykXEajGEQYCKox8oADZ69q3VfzGPYU9QAAO3emFiDy/wB6BjLdasSQbV3KBnqR60GIYGCfwoAYdH9sUgGbck8D6CoTBG0hk2qJDhWYjJNWvuqc8HrVW+nis7Wa6uHEcEKGR3z0AGaYHmHxTu21HUNK8HWO0z3kivOQPurkhf6n8BXpemafbaVpdtp9quyG2jWNBjqB3ry34Z2k/ijxdq/jW8TAMhhtVbnbkc4/3VwPxr18bivOB3PPFO+hNtQ39Mj8qcCAcnPTv3qJipKjIJx+lSg5T5eO1SUBLAE5PHpUYOeen4k04qfQj60iqyEu+CO1ADROMHHzEdulNkvUgjaWVlRUGXZjwq+tZer+KNN08yW7zB7uNC/lIpbHpuwDjPvXmTanrHiaCa1ikmumJJususVtCuc4PHb65OKDGpV5dFqzvb7x5pUNi9xaStdyjASJEK7898kcj3rDu/iPeWto0TRWUF6SCHFwJERe+QOc+1cdfXejWyiLVNRvNYuY1GLezfyrdCP4d3BP4VVg8TTQymPSPDunQsoznyPOk477m+lJs53Wk3udbN8SbkW/kR3lpJKzL/pfkuu31+UZB/P1q3bfEmVYltkltNQuCQFuC3kKM+oOTx7Vx1n4v8UXME11biIQQKpcrbR4jyeM8d6Y3jG+lKf2ppmlXQcbszWgRmXjoR3xSuT7R/zM9StvHVnFb41V1t7pWAZYWMobIyCpA5rprHULXUbNLi0nWaFx8rr3/wDr14hZX/h25kBia78P3g6SROZYR9QeRV2abXNDmF3canOdNkfet/p7BoiTgEsvboOD6U0zSNed9dT28HAFKp3DOa4nQvH2nX6WlpdTOl3J8hcxkRu3s3QZ612asvSmdUZqSuhSVYlOD9acAcEk5+tRl/mxyPrS4BYFjigok71zGoeEo9R1ptVa5lS52GJdpO1YzGyFcZweW3Z9RXTowIyfXFBpgcV/wr9YY9thqD2pafz2/dBxkw+UwGTxnJPsTWlr3hNNZ0u2so7kWpgUxq3l+YChXaQRkdsEHsQK6PJxgCjOcUXA5SbwTHPKyS3sj2LIc2xQZMhi8ouW/wB3tjqc1BL4JvLiEb9aY3JlLPN9mX5lMZj2hc4B2nrzzXZZpWPTrmgDLn0ZZY9OiRzGtlMkiAc5Cqy4/I1zd98OrG/liknupGeEyGP5RwWleT8fv/oDXcAjGO/vSFQc5oA5JfCMsSavHFfQiLUJTMQ9irEMW3ENk/OO3OOK19I0t9Ks7e0Fy0sEEKRqCgByM5P0PHHbFagwoHTNISffFAAFyOtLhQeSfwpo56UF1H3ufwpAISgyRnNeY/EvxPLE0enWKl5llVI0HWS4ONg9wmQx9ytd9rupnStJmukUSTDCwxk/fdjhR9MkfhmvIPDbpd6rqXjC9H2nT9JDQWQx811cMfmYD+8zHj/eA7UWA0RYQ+HdFj8MI5ldlW71uZDl5Cx+WEH1c8fQE96i0pW1C4OqOEKRvttwACmV+VmAx9xBgD147saz9U86dzpks+LqSRp7+5iOSJDxIR67QREg9WPpXQ2TQwQR21sjRrEoWPY+dm07QBk4YBjgf3nOegqiWbEQZLUh1GAD5hfJ2gHdg+uDy3qx29BRFHNHunKoJH3HEvtzhzjov3nPduKrIDG6rlVYtuLqMjK9+vKoTgf3nOam2OkbtJEIwqgOCxKxquSEPrt+8395iBSKM7UYi4+be3nBhtZtjODywJ/hLAZdv4UAHeuk8BXMcugSRxu0ixXMgB8rYME7vlHZfm49sVylyQ8hRY13klWWU+vzsrn0Aw8h7/KtdJ4GZBHqAEhkeSVZSzyZdwyjDsv8G7GQvYYoJ6nYbuM4o8wDv+BqNsg8D5sZximHzmOAox64pFFrzV25wPwqGSQv905/DNQksBtPX2FUNV1S10awe6u5CkaHAx9527ADuT6UwueO/EXwa3h3UH1TSoWGnXUgLxr92CUn07Bj06EetctZXslleGaIBklZTJHuyr8cgjA+bP0P+9Xo3iLxBbXEbnxFK62xcbdPgkBXByArn+Juh9B+teY6fot3q1zL9kAgsVLOLqdgNseehP8AFx2/HgVRHU7jT/iTf21stvBeIYlcIYpYGlmjz2HI3Af5x0robfxF4tvrWKaK4e3jPWW9tkQEc5IjXLdh3HWuQ06/0Hw/pyppdqby5fHn3D9H5wG3sMYzxjufpmlm8eS6jqMUEV/DC87mKNVTzCrHaAS5wAM54Ax65yKVh3Os17VdZtNPur691+cxQREGK0VYAzHp6n9R9R0ryazsjqV27wSs8oxJczzz7Ap4wXYkZ56dPoan1zxCkUj2b+dcooVw9xIXVt2GVtowCduBz6mrjyqfBx1mLT7OFjKijEYCrkzZ/H7v6CmgZ1On6H4Us7RUebT57kj96ZLjeQQc7gTtGOfQdc5robG7tkWR9P1Fw8qYSFL1sDHVlzuPb+7gnvXlfh3VrrW5blblovs9uGl2IgHzFec/9+xVDS9cvNR1OKC4+zi2lffLiBchQCx/rS1DbY9f122167WKQa1FcwIMfZJFEKluSMsuQcZ78e1eYajfamb+S1v/ALTGT9y3li+9luCFGPzyaTR9c+0agEihfT3WJ5DNbzsNoT5zkY6YBGOhJFaV3rv9qWCyosN3NHMZUvYojHdQPyR0IBHGfz9KaQjrvBnwxeZlv/EUSheGSwwG29/nPb12g/WvW4kjgjEUSpGijCqFwAPoK8y8P/FPz9LxcabNJd26fv5fMWOI44yM89ueKLr4rxtMqCezjVgTstw9xJyOBgAAHPrQ7jVjX8Y6O1ncjXLWOPBO26RhlW3DaSf9lhhX/wCAn+GufOnx+JdCbw4JHW6tkN3odxJ99QvBiJ/vIflPtg9qwNU8e6lf2Kibzp4WcrJ58gt0dTwAVUdOvU1JoF5fTwQoqGO+RxcWbtnBlwQOe6yIDG3+0FPU1IM7H4Y+KjdRDT7oeXIzuDHtx5M45dAOwb74H+8O1enbucV4brsiWmtaf4s00tb6drWwTnn/AEa7U/KxHb5gQfbdXsWjakmr6VDdrGUkYESIT9xwcMv4EGgaZpr0pQQelRrndgninD5DwvHvzSGOJI+lRyOdtOMgIIxTSA2AeKAIxJtY46Yzmuf8aFj4ckhzgTzQxP8A7rSKD+ldAVGSMDFZ+vaa2r6Lc2SOEldQY2PZ1IKn8wKZMnpoS3N5babZh7iWK3gUhAznaB6Dms/SJ9Jmkuzpl3HOzy+bMEcNhiAM/TisoeL9Ka2EGvxm3uowBNbTxFhuHdeDkHtU/g+G2cale29mYYbm6Zot0ewmPAxx6ZzQZKV5JFjxhIkGkxXCti8t50ktNq5Ly9AuO+eRWKbzUtS13TYdasRp0BkEsQzvEswHyqT/AA9zitvxKr2smnaksbTQ2dxvmROSEKld2O+CQaoahqdj4gu7DT9LczyrcR3Dyqp2wopzkn1PTHvQTO92dYibUHbB7965OfSdfXWdTms763tba4dZFJj8xiQgXHsOK60knAJzgZrm7vxfpVrdTW97LNbTRMQBJAwDgd1OORTVjSaWlx+gandXiXVnqQjW/s3CSGM/K4IyrAe4P6U3xc5j8KagwYANGFOfQsBVXw4XvrzUdbMLxQ3jokKuMMURcBiPck1o63YvqWgXtmmczQsq/XHH64p2QrvkYuviNvCmoIHGw2kq9O201a0S4aXRbCQgbzbRkg9R8orkrnxDFq2iDSoRJ/al0ot3h2NuTPDE8cADPNdnHGLS2jRQWEahQo9hiiyFF66CahdbrO4UD/lk2Tjpwaz/AA5LL/wjWl4JC/ZU7e1VNd17TtPjmtp55BO0LHYImbqCB0FVfC3iLTpNM07TYZJjdpbIpjMDADC88kY7UaD5/eOrWVwpLEmuI0/WtU0201C00jTXv7K2kfyLj7qpkklcfxbST0rtMbo2UZyRjJrmdC13TdE0ZNP1BzbXdmvlyRMh3OcnDL65/rUtIJ3vvY3vDUcEfh20+z3BnRl3mTpuYnLHHbkmtZnBXANYnhaze00QK8TReZLLMIjxsV2LBfwBrQzIG4IxuqbamsfhVzIn/wBN8XQxjldPtjI3+/Ido/HaprWBBfB47j2rG8NSPcLqOoSqVa6u2Ck9TGnyL/In8a3CFY8YzjuKZKWl2cvPp/iCPWdRm0+e0tre4aNkeZC5YhAp47Dir2i6tc3ZuLPUIViv7VwkgQkqwIyGGexplz4p0aynkgurr7PJG2CsqkZx3HHIqnoEo1TUtQ1aNCtvMUigLrguiA/N+Zpmd7S0NDxPMyeE9Tx1MDL+B4/rVm/ji/4Ru5gB+T7K67T0A2Go9Ut/t+j39pn55oXRSfUjj9cVhTeIkvvCz2duCdWkh+zva4+ZHPysT7e9D3HJu/yOg0GYy+HNNkYYL2sbH/vkVB4gcTQ2emhhm8nXd/1zX5n/AEGPxrQtLcW1lb2y9Io1QfQDFclNJo3ibxS9pdzLKkEYigjBYZkOS5yPQACgG3ZI3NLlS08Q6laKQyXIW8jAPQn5XH5gH8a3M5O7GMdq4W/j0HwlrmnzWsnkTbtk6FmY+UwIDd+hANdwmJYg8ZyrjcCO4NIdNu/KxzndkYH41WfKZZATUxBztJ+Xv60OV8sgAig1K0d5FJuBmUbeD8w4Pp9akEyAHMin0+YV5vq/wltdY1m+1KbWbyM3UzSmKMABc49etef+NPA8Hh++0vStM1O7u9SvX+WNiAFUnAPHfP8AI1WhN2fRsbK8YdGDKRkFTkEUMuFPI+nrVDSbFtK0qzsAS4t4Ui3eu0AZ/StEru74qSkMAzyowaawKnLdadg8jqaeq4HXmgCrcQQ3kLQTxq8bjDKVzXK6p8N9JvLcQxSXMGDkN5jOPyJrtAAvIO36UuT6kfhQFjwjxV4Nm0a8Lyb7i3kG1ZmduncEHOD7ZrG8MXGp6Xdk6fcfZWjO0gNmJ+cYZTxjnJPote/61psWraZPZzKCJF+VicbW7N7YrwW3tTZarc28shLKpDg99oIf8dqEfjTRGx6Vb67NrXh+wfSohpk7XLQzKvSCfaSAygcoxyM8dQa8h8RaUlt4pW1v72KS081RczwksIhuwxOBwSD05wT7Yr0PRNVk0m5ubpIxIZ7RpSmT80gjMmf++1mH41zV14X1KbVNQstNtn1KyjuGEksbLtOSXCEEjLZYZPI6VYGRIrLY2f2S+SSWfzI49z5EEYYGOMdwTjuBnd71hTDw+7ul1qOqSsJXCWsMY2INx4DM3PbtUz2F3pmvC3+xTf2kmNsODvWQfNnA69QR/u10HhvTNWk1e3ebwjZWdpbgzSyy2+WO1cgZkbgk4H1NAGf4rvdAtdXNg+k3N29hDFaKZbvavyKAeFX1znnrXX/D8o+l6AFgWAHxDNthyTs/0c4GT6ZrG0tPGd7ryPdyWdnbSyma6kQ2yuqdWPHPTIz6kV0/hW5e7bS55FUNL4oumYKQygeSeARwfwpMaR7HDkDrnJ6Yq0DkfSq0IOMgjH0q0vI4/Gs7IodRRkUU7IDxh5Z/+Et1TT5NM8MpHdxSQKVuAs86lMxh135IOF4x0PWuR0XTbJWktX0+1F9GGfbBJvVZDypDKTkEqq9f+WjCujutJ1w2Wla1F4L03+1YHEUyTzOGjWPHlupMg4wMfNnmo9d0OSx8Si6sNP0/TrGaNp3uIpv3j5AZsoWO4ow35UYwKvYls6z4dXSTaHd6NKCwtHZVDfxQPkr/ADI/KsiKytVsdVacSNc2FsNoDEKQhaJsr0LYTqefnqp4e1P+zNYg1EvmNQ0F0idlGMNj/ZXA+kbV0OohU8VS22wG21OMqXzwVmUIfqN6If8AgdSNHIX9vLf3tpZoQrzXYHz5wXMjYGQc/wAJr2fT7UwafbwOMNHGqnBJ5A9TzXiCXhjvra4mwXguop2HptMjv/6MxXubXACKACST2oeoyQKR1yfpSoGTO3GD1LHNEbE5Bx9c0x32ZKnpU8oEhVSRk8j3qOWQDjB+tMjdyu44ye9DvnvzTSsA2SXbgI3JHINR5yR/SmSFsEqBmpos5TcB7VVtBX1DZjGeB6VMGGR0xUjoewwOpOelMIUc5zUjGngkg8egNAXPXr1/GhQrcrjB7gYpSpUHmhKwCMBIxGRgjHFZusaPa61Yy2F8ryW0mN6LKybgOxwelaIjb7zPk/TFIXZV4OTmgDM0XRLDw9p4stNi8q2ViwTcW5PXk81pBunTHvQxLAcAN6UnzA/MCDQAF+R059BipAy9ACT6VFgZGTjFSYVQxPXoDQApfOQVC1z/AIi1/wDsZbeGFFe5uXKoZDhEUDLM3sPTvmtuR8RFtu4qpbGcZwK8burqXxPcW0M88sZZWuLtzwlrBnnaPU4xnqaTMKs2lZbsrzyjU5NS1W+1D7No0k264kiBzcydo4weccdaxLjW5PEEtppNq8WmaWZBHHbJwi5P3nPU9eTVi8abxZcsLS2kXR9PjzDawkBtgOPlHdj1NV7zQG8xbzQoppLVIFuGjndfNjx94beCcY9OhpXOJ3exk6ro9/o2oC3vI9jD5onU5SQDup7iuuWS18UyxRtsh1yLa8MgXYl3GRnYewYAke9Zh14W1rPouo2a3Vls3Wq5KvExyQQx5HXkH8qXTvCHiPW/Ikt7AwwqBsmkzH0ORyeSfTikKK19xGj4ZtLew8O64mp+akH2y3tZSCOz81zfiLT59K1u4tZ/3jxyfuzu+/GeVIHpiu0Pw08WSRTLJqds/nSeZIjSNhm9TxjNY/iDwn4vSWOfUoXuoYQsYkibzAE6Dpzx9KC5QlbVGTp3h/ztIfVbu5jtLFXMcRZNzSuP4VXI/Op7DVNU8NJDd20hl0+63fuZV/dzAcMpXnuf171LLcRavp+kaW93DZxWMbJIJ2KqSWyXHqccVo3lmviV7TStIcrpOkwtvv5lKpknLuT/AE60EqPYnWOK60u41bw2xEG3N7pjYZrcgg70HcZGeK73wl4nu9YYRXfksZY/NgmgBwQDhlYdiMivKku38P6x/aehTGezjkMYlkXG8YyyN6gjkfhXQyQQQXdpq+k3MlnpmpnDNC2Psk3G5T7E00aRnZ3R7NFgjBZj3GRTmBIO5fpxWX4evpL7Q7OeZlaZox5hXoWHBP49fxraznmqO6LuroRegHtjFOC5qMP83TpTjKcfdBoKHEEHGaTHoDx6UhZsZGMdxQsmD0osA4AY5pMbjwxyO9Dtx0pobEfy569BQA8AYw3J9aQgKfamFuBkdTijdjoKAHED0/KjC5+7zSb89DSbj2GcdaABsA/0ppx0zwPXtQWy2MAe+arajex6fYzXUrgRwo0jkdSACf6UWA8x+KWt3EkyaVYKzzswt4dh5M8gx+ax/q4qG8WPQbSy0a3dBa6DCskjn7st84OzPrtG6Q/hWdo0kd1421DXtSz9m0CB7iXPe5fJbj1H3R/urVbVbtke1tbvZLcyym5uo2J2vPINxRj/AHQvlp9C3pVIlhBE8cRmdpUefDPJgboxwV4x1AbPvLIPStm3cEElFtxE2xBG2TDtGGYeuwMI19ZGJrIWUqBKsoXd8wkPPIy3mH/dBaXH954xVyBvKz5atbKCu49fIVBlVx/FsVgx9ZXX0psR0FtNCoMgGxwwQYbIiVB29owcn1karE0pAIV1R15DPj9yq85b1KZyeeXbHas2NooU+dcLb/NjJIQL0HH3thIJH8Uje1W3zhN8KmY8lGIIMgGVjOc/LGDvc/3qkq5HJbIi+ULd2clQEm4BB+YI5/OSQ/QVDo3iNdH1ye38u1dbmJJTcXFwsDTNubMjZ7Nn5R2UCi7k2QbAWuDsCu0pwZA3IVvTecu57IoFYVv4dHivXVhOpNEI4nuGbyAfMLFfmJPQsMEDsmynYm56DJ460uONHmvtMTchYf6arfMOoPHT3rIk+K1mn+pfTJUVsHbfqM+/I6VhT/BuS4leQ6wqhyC3+jE5A9y5qrL8H9Vjh8mHU9PKr03wuDg/Q4/ShopO5sy/FiNw5DaUhzhcXmc5H4VwPiXxlf6zrCTvdW7RW6EbLcsViBxk8/xHoPrWX4u8H3Phua1gmnt3mugSoim3bQOpxsGAc8fSqItyiJZQnEQB+1TYGJHx0B9ME89t2e2Q0rEEkotZnuJmeQy7QGknPyj/AGiT0zg4A6jaO5pl/qM0toLhHSaOIhEVc7FAPZe/O3OefwNVZJmjuG026tUjKrlBkNu6de2ccfl1wKlsoG0W/wDszNu0+94hkY48t8YGfQ8sp/OmMr6Dqkk+oyW95cNJBKjAhzkDg8D3ILD6mstvNsr/AIH/AB7yjYUAwSDx+YH6Vc1W1fTdXR7aOU7vmQMOQwwePoa1tR0h9bvVuLD5IpokdzIQoLKOcAegGD3oAn8fWNkdTt720GYri2V1w+RtDbRgf7hQ4qeymZ/hXcxbiRBccLjpiSLr/wB/DWmfC02paHpsW5fORTEwxkAMNoJ9OIweelaFr4RS10fULFJJZLe5cDaWCkfPzgHqMRr+dAHHeGDstNUl8vy2+xyksOv3Zah0REN/nKlk0+5IJ7EQH/A12iaPY6bZSiKSGIzxtC6mcHhlPIGemZMZ9h71VWy8O2YjS3a1ify5IWkEzEurphs+nt6ZNAHJqkdtZahOjkJJbpbo3TaZZA3P/AFb86uie60uwt7WyRhcX0gkhbuilhtznqCoT8Cfeta7ttIMF1ZQP+4cRNGYpd/zpGyAnPOPnz+FRanBPLdrJ5sYikhEFq+MrFEAd+cDgqoP4NQBl3lmNU1e3MMbTC4YxhLX5jI69SFwTg4J+hH1Pa6b8J9X1SeG4vBBpECjgYjmkP4BQB+JNcv4e1c6VqWm3sT21ssE0rRtKm7ahQKGfBB5yDj3Jrvh8S7qNGYappzqpwV+xS5x6jD4xQI67QPhz4f0NFdYBdTjnzrn5iD7L90fgKn8baQb3QxdW6kXNp8wKcEx9WA+mAw91FcLJ8VdSEbGOW0YAjLrYy/IT65b8qX/AIWtfOmZZ1Ee/Y2NPJx19ZBSaAtW1tHr9jqGgSqI4taia6tlxlYrpP8AWqvsThx6hjVz4X+IZ3LWF2xW5bMUqHtPFw3/AH0u0/VWrltL1Myi5+wO7XNlOLq1yhT54hkoFJON0Rdf+2Yq5qs7aP8AEGPVNORTZ63bpqFsR/z3QZZR/vLuX/gdFike3iQ7fm7jil84EgetVIrlLqCG5hbdC6B129CpHBp4Izwc/hU21C5K7nrnFRpIwkJ3E+opsgZyMcDvTVYjcSKdhtkzOUJPXPNL5gPPH40wkMgYdaYsjYbd83pgU2rkFiSGCQq7Rxs/94gGmeWI1+UgY79abHncV24H9496mChUKgZH61JaQfKVI2hh7ClSFIQzIiqp7AAU2M7eMA59akO0D39KBkRxhnODVd4UlZTJhgOikZqy4JhIxx35pgAXBHApARqArMqqfr1FNj8mYy+XIrPGdrqpGVPXn0PSquuao2l6Pc3ioZZEUiKIcmRzwqgepJFeReGdT1Dw18R73SNSuLmKPW1JWaWLY3mkHDAH3JX8qrYg9pS2RHMjbckYJA5x9aCok3KN2B+FeYF9Qj+LaeHP7a1L+zjZbyv2g537Cd2fr2qzp11qcfxjfRpNUu5rGKxWTyzJwz7V+Yj3POKW5SSPRTCdu3y/xqNbfrlQvpiuE8d+M7zTGtLnSmZrWynWW9KKSsinI2k4wOnr3Wk8S3niHU9Thv8AwnqUmyKwivRadUuFZ2GPrhenegVjv04Ug5wB1NOMcLMGZY2YdGIBI/GvP/DWrf8ACcXd7cLc39isCwJPapIU8uT5w6j2OFP4Yql8N7++1q2vr7UNWu2+w3rKN8uUaMLkhh3+tNIOY9VhJZmBAwOlJNlVyFOa8w8PeOL3/hYsunai7Cw1KEPp6shXYVz8vI6kAk++K9A1G/dvD97eac6TSpBI0RU7gWC8DikPccWQbQ7qrHopIFTKy7QWI47k14z4LudOHg7VPEmu20uqXSXRE0rMJHjTC4wCeOWPTFbGo6l/anw/t9K8Pi8Q30MsqblMkixAng7c43N8oz2zTsK9j0RoopmKywRuVPylgD/MU9I2AACAADoOMVx3wu8RPrnhhILkk3mn4t5g33uB8pP4cfUGu5/l3ppWFoncj7FvLAbvk9aZ9nt/NE5t087u+3n86ndN2Npyfc44oHIPTrQ0CV2KQSQD+BFM8iJTlYkB65CjOaC+043HI9DQWBwSP1qR6N6oUxo2cxRsfUqM1MhIAyMcUwP0B6U9X+UfpSGklsDJls9qREHVj+VODgsFNO47DFAyndtFDbyTSsFjQF3Y9gBXkfgSF/GXj7VPF92h+zWzeTaK3IBxgfkvP1au68f6fres+HZdK0RIw918s0skoTandR656fTNWfCHh3/hHPCllprKomjTdOV5zIeWOe/P6Ypi5TbTO3kkU8k96bg4wvJApo3Nnd2pDJASOcE1IpBXJU1CXONvpSoxweehoAkYAdcbT60Bc/dxQHDHDCnqAvQ5oAjY7R2zXi3jDS57TxfPKykRXiTtFhsn/VHJ/NjXtbquMsMHtXlHxBnjk8Z2yliq2lmdwz0Lvg5/4CQaYmVrWz8yy1O7iuZYDZxAxvHjcW825QJz6hwPxrrPDAtdK8P3l+wWK2M0kp2jgIgCAj8EB9ya5OCbyfDI/ds015chwuPv+UAAPxnYfrW54wIsvD9j4Ws3RXdY0mc9I4x3P1IJ+itTTFY85RF1HztcvZZFuppWmUo+3hskrkdMIEX/ALaVfg0TS18NiGa+uP7T1tXdcPullhRyQo3nHzFRg8dKhmtjrMttpKTG2S7Zi0ipuMMSDJJx0+6o5/55Vu6Z4hh1HXptQj8TQDQNPjXzbeaz2lYwAq/OVPJPPHvxVEnFzW/h/wAL6G8c66vHd6tHtZGWMSxQq3PHQByPyX3rqfh4Y20rwyIAxgOvXGzzMbsfZzjOOM1qi21LxDaQao2p6csInYB7Ta6TJ8u2L51yDnIz2yapeEZWun0Od0jQy+I7x9sJBVT5LcAjqKTKie1wknggfnU4+XpVSDjqat9h0/CosUFFLiigDyT7DY2Mj3p0u3i03UozHqQvL9nMLE5CbQSv3scjpk1o6faWdrHAsgs0trKZoFIsSFiQttALyHjADqT33CrOn6da2sR8jTLexmvG826iVlkdXPQ9QoHBPuAaWSL7ZcvaNHHvZVhv0RfP8vgmJy8hCjA54UnJqmyUc9p+k6c1hHajTdOkuJYm8tzEA5njdwysQcjeFOD7NU92tvLpFtbae0tuLNVaFrmQuVikIHOenlyquQegX3qbWdPeyvZlgfFxGPtMJU5Z148wD1ZG/eYHUOw71SurhJ1j1MIDY3DOt1DGc7XZQJo/oww6+pX/AGqaQNnO635Q1ZbqWI+RdASMqn7m47mX67g6/wDAa9b8N3X2/QbeSSQSSxDyZMjq6/KT+OM/jXleo2xliMDOJJ4mLRyp/GTghvxYoR7TH0rpPhzrJ+1SWFxIEMyhlVuCHC4xz6oB/wB8E96YkelopxngZHahoy3HAXv6GmrKJhhGDdRx2IpxJBCnt3rMsTrj0B6UMFOQUGe3NPPXC496FQkhBn86ACCFWGSnI6ZNPjhIbLgE+vtU6oVFI2T0pNgB+7jG6qzAk9Nu3r9KnkJVcj8arls5yG5oQC4LjIHH1pTk4B79KjUnhQQcZHNOJK9c5HSmAsjA/e7UmQijcetIqmTOc8ccinBCi5OW56baAGhgo2nv0pCgeMscenIzUgCk8Eg+gqN1CsSR1/WgBXCsdoOBUbM2NhYEdsmnBmLYAAHvTJAp6KGI53elAHKeO7oQ21jHLJmzef8Afoj7S6hScdQccc4rzHV5f7O8JRhAY7jWT9okVeqWynEaewzXUePHKalqFu213uoreOFicmIM2GA9M/rXGeM7kp4tuYoQPKsAlvENoK/IMdOnUnioOCs9WzDhN7p8dvqcJltispSKdf7wGSOPrXQXeu295s1G3gMXiGQG3Yw/clDLt37cfe5xiuml8UeG28NrpU1rZzXscBmUCEpB5+MkAjoTmsf4a6QureIZdQnQeRaDeIwvHmHp+VNbmaptNRi9zr/BfgC10uCO/wBTiSW/cBvLcZEXp9TXX32u6Zppxd39vFJ1CtIN35da5zxp4guNN05LaxkSK4uEdt7uFKKo5xnjcSQBWd8O7jRZtFEomhOruSblpWBkJz6ntj0qjpjaL5Im7p3jbSbu8vYptUtAqzlbcE7dybR69TkmtXw3qcmq6DaX0wQySqSxUYH3iP5AVk6RY29zea4txBFKhvejoGH+rTt+dYuiaJeR+Ere40G/e2unRy0Eh3QucsOB/CfpQPmnuWfGPg3S9deWTTHgg1aJPMaFMDzef4h74xmvLL7xFqCWlro7R+TFZuTJFHGF3vnq47ntXdeAFuP+E01k3LyPciBVkMhYsDnkc/j7elZ/xT0lLDVrfV4VwLoES5GR5i85x7j+VG6MZrmjzrQ4pjfX9hLPlpbeCQGTAyoZjjt3OMfSuk8FTHUEv/DUjYhvoybZ2/5ZzoMgj8q6PR/E/hqy8NJp9xb2EN1cRhpBHBuhEmPl3Z6npXn1nqbQ69baio2TxzrKPLQIDhueBxjGam2pk1Gm1Znp/wAOr6Jb5UD+TK9uy3cLMPnmVsZUeuAcj3Fem7gVGDXkE8dlZ+NL6FdkJmvbe7hm3BfKD4L5PoelesZxnBz7VSOyk+nYlZumAfTg0I53cnimiTA54yKG25x82OhOKDoHMAPukYNG4gjaoP1piMqqGwTk4waA534BGPSgVyYtj8ajZiozjv0oYtwBg/WkQdd5J9qBhv5PAB9ulI7PkDsaeAoY7QeeaftBfOeB2oAiLn2x34oaRgQQR05qdo1cYzUD2wPG7r1oANpbnHFch8QdSj07QsMw2uxllUnrHGN5H0LBF/4HXVsjIAq5YdzmvJfidO+p6vbaLFnddSw2SjGcZIkkP5CKmhMr6NbrY+C9It71hv1ad9W1E4/5YR/vMH2J2D/gVPn0mTUPh/q+sXIzdS3ImXLbfkVyGBPYEvIPpVjxE+7VNRS0QMkX2fR7YDp8v7x/w3GNTXYa/YRW3w91DT41LJFp7oAf4sITz7n+tPqSeU220NEROZMlWjZl+/8AxJuHpkNKw/uqorXt7nbGk2ZERB8kzjLAD59zDucHzCO7ug7VlWEGYFDMksrD1wpyeR9Gddue0cTetaCXAO3a4aR3BR3GAznLIzjsMBp2Hsg7VQG1Es0pRIdsL+YMK+CI2Vdwye4iUl29XbHarTIkvlxxwsySBVhjYn5ojyAx9ZCC7nH3AKyLOeFow0IeSFo0xG3DGMn93H/vzODI3otalsRGTPKftDSliQhz5u4gHH++wCL6Ih9aTAs3MXm6cVBE6yncUxgzA9FPceYw9OEU1m6HfwaT4oSTUZ3RJoJQz87HYsnIAGcko2B2RV9a0jK379JP3jTD5hGQd5PBYemfuL6KrGuK8Y28szRXLSiEQyrsxgglhgYHvjOeyKnrR5CPS7jxxYxecLW3ubl4hhkACY44JDEH9K5PUfiwUgzG9haN90iRmmk69lGP1rzyy8N6zr99LBaQTXxtnHntLcjCkjg5Y9PTA/GtyT4Sa99mN5ONOtfJjZzulLlgAT2GOMdyaYHOa5rt3rOuJfSXjyyNGVhlWLAWMHP3QvHRj071Cbe3vtLS40yWQXFrgKX4aPqwPXr97PY9RjpVW3kIttsEkeZkXCFQdyrx1xxyCeCD9auwW26dL+CNxdrKI7uBOWkUkcg9NwyP0PY0DIVD6xYOFEaX9vNvA9Wzzj64zj/CrFzp8jwm31HZavNIsjI2EaFud3GPTBAHYinyz21gbkaeS95MRvuPuhB228+5PtkD1qm5lv5yzMWI4EjnLctn+eaAsajXEcrpcbzvQDM7ABmBH8yNx9ya0dPWREZbCJ2GQV8z5lAyucD3H8qu6R4e83T2laIb8DHHU4z/AFrt7DRorSErs+YEAH196nmA5q30jU7/ADLPcvmRf3iodi/dKnAHT1/Cr0fhHzsSPJzkNknJPIOD+VdXDbLnceg7VNsUKcDmlcDg9Q8JQCE9CQpVDivPdX02bTLkxSBsH7p7GvcLtAU4AzXNaxpMOo25ikA6cHHIqb2JvZnkO4hWO4/KeavWOrG3gmtmjaSCQDcoYjB74+vSqs9u9jfzWkik4zgnoRVcgxjDHk8ZxWiL3O88PeBdV8RWn2+z+wwQSfuhI8hUsFOC2FHUkdDxjtXTaf8ACXUwpFzrcEeCdpt4SSufQkjb+HXvTvgxqkk1vqWnvKW8srLGvoCNp/Dha9UjkwxXtnmmI4a1+EWlJhrrUL2dwRjYyxAevCjjPf1rbtPh34XsguzTFmKggGZmfGevBOK6XnjBxSwy8srAnI61LZSVjgPF2h2miW9tq2k2UMH2eZQ6RIED5Py5/EbPo5rldctDL4IuxaljdeHLxLyzbubaTDr+QJH/AACvXNds01HRrqxJAM0RVCezdj+Bwa818Nust7Z284Jh1C2uNKuN3HIHmx5/4C7L+FUSdX4E1WG80MwQtlLdh5eef3TjfH+Qbb/wGunHzMGOfTrXk3wqvWs7ttLnG2aES2Ui/wC1E+9fzV3H/Aa9bG1Rgc++MUrdQHNkEBTgD1HNNK7iM4AHX3oLYPrxn60gO0bjgE8c0mwbuEsiRI3KJx1PApsFxEw2rIpcDJUEZHT/ABrznx74lgAESvFJFC+I0ljDrNNnB4PBRBnJ9TjtUPw2vPt1zHdvBaQyFJ42FvAsYcAw4zt643GqEeoPKUbGMDtTkc8YGM+tM8tmdCQCOmTVbVb4abZPOI98gwsSZxvcnCr+J/rSaK21H3mr2WnRGS+u7e2TH3ppAv5ZqrYeI9J1OXZZ6la3TdhFKrH8s1xGhWFp4i8TxarewrdTwCVmmlJIb5lRdqnhQCHwB6ZPJrW8W+HtMulsL06fH5kEpQsn7tiHUhfmXnIbZRbQV9Tt9wc5Hp0pgIXKscVzHg/WzqNkIpbgytEgaOR8bpIzwC3+0CCp9x711AO/LMP1pWHzFPUNNstREJuoxKYHE0ZJK7XHRvwrnNU/4QTUtWR9UudNlvY8KjSXI3Jg5wMHjmqPjDWo7i7Gmzh208OVmWN9vmFV3sCRztUY6dScdBW34f8ADOnWPhmzspLC2f8AcjzQ0QO5iMtnI55zRYady7F4f0SfU49bS2hku8bVuUcliuMdc4NJP4S0G4v5NQlsUa8lBDzh3DsPTIOce1cLpNxB4Q1T7LawvEqvKJ4VYlJUWQ/MoP3WVGRuOoyPSvURIsqKwwQeQR3FILmbH4X0ePSp9LTT0Wxnx5kO5trdOvPsKqrYeGvCqpOrW2nosflKZJtoCZLbQCemSTWjq2oDTbAuq75pCI4UJI3Oen4dz7A1wvhrT7DxF4n/ALWuIBcyRQvmaf5w5ZyqsFPCj5HwB2IoC51OmT+HryW7n0m5sppbr5rhraUbnOMZIBzTbTwnoljaXFpZWSQQXQ/forEb/rzXPeL9C0dprLV1s4zInmRiS0PlOTtJU7l7gpgfWtjwxrBv7Ro55vOmjVWD4wZI2+62Ox4IIHQg+1UhMs3vhjRdRmtZr6xWaS0AEDs7ZjA9MGrXh7SLLQLB7SxVBC0zS4C4ALdgPSrUjgrz1J6VheKNZbSdPPkuY3ZGdpAMmKNcZYDpnJAHuR6UMSdiLVdF8DWs87ah/Z1q9xjzY2uPKEv+8gYA/lWjpGm6CSb3R/I5iEO+2lyqqM4GAcDqaxfBvh/SiL+/NhE8k0oQtcHzmyqDd8zD+8WrM1zT9P8ADviKS+soxYzTrHJHNDlUTDbW3oMAqS0efxNSV0Ot0nwvpGj30t3Y2SQTTDEjh2/ec5yQTg9etbbIpxgfgKoaTff2rYJcbFRgSkiA52OOCPzH5Yqa4uFtIZJ5n2RRjczegAJNAkSySx20bSzyJHGvVmYAD8TVO31rSb5jFa6lZzSA42JOpOfpmuEmSPxd4hSDUYGlMVxFtikc+XCozIV29CxVRknoXwOldB4r8L6Lc6I8v9lWgNsVnzHEEbapBYZXB+6DQETp5UOMnkDnHeomcjluPQVznhPVMXEulh5WjjkdI/Ok3tEynmMk8kYwyn0yO1dRNAsi9TnsRVJg0MQ56c4ODz1NVJ9c02zufLutSs4T0CyTqp/Imuf8Vap9niGnp5iByqO0bbWLOcKgbsTySewHHJpfDPhnRIdJMw0q0JupGf8Aex+YShPy5LcnjH50mgTOvgmjmVZo2VkI4KnIP4in79zGvNreyt/C+umPTw9u73T7YlkPlTKQGEZXs2C2CO64r0KznS7to7iBt0cqB1J7g0hp3LCFsnBFSbcgZ/GkVSF5Hzd8U9eMg1DYyAIRwCRTSNxwQasgAHgHHvRgA5xTTApbcEZJI9KaxJPQ1ZkUdV496gYNvwW+XvxzTQCA4p6sw6cj170mAO2e/wD9alBx97GPagBJPmXIc/QV4R4m1NdQ8Q3E8J80zysw/wBqJegx6FUQ/jXrHjPV4tI0CV1l2TTjyo8H1+8w+i5P1xXkOmNJPqUmoPDH8rZgTGFOCMDPpu2D/dDelWkS2dbZtFb6hG9ywNppMO6XAB3MmS2PUtM7YHrEKdcaVZ3V1qE1z9rv5ZZxEhkuTGJLhlwyYTACIhwTk/xD1qpZJI0cFpa4kupnSfY3sMxbvpkzN7sB3p19PDIJGi3NpOlIQpBy07E54I/ikbH/AAEE/wAdFhEdtYrYQ3uj6LrbWuo6peSLb+ajSqkUTFCAcHGcHk02fStav7e20zRrzQtStosHUJpVjkZ5CcZKAcBeg7mtbT7K9sNIFnY3E9vc3KbnvZcTwQcAs2DjZuy3H4mm2tla6tEtrp+l6Ve6BOFF3e20hgmllQZPyKBk56ChA1Yz44pF1lLHUPDB03QtK3XMV4sjxhSOS+1SQxY9F9DUPg6S2uv7BntXb7NJ4hvWiBGDtMLEZHY1c82BLCNbbWNZ8K21g2x0v4wySFj/AHmJ3H27UnhvyjeaQ0DJLG3iS/ZGTGGXymwRjihjieuWuCgzk1ZwM4FQ24O04GB6VMAdwqGUO2minUVNgOBv57O1En2iO2aJz5fkuSVkXjKsBlnbBbjB7VXs9TEOoPNc2mqPEqHyLlrGUBVZv9UI1XgAKuGPNNvoJ7G8bXLaW2WSONnMM2BG8fBYgkAo5z1Gc8ZzXQNrdnd2LfZL2Fbxog4iQiV14B+4DknFaEoxNUvvtOiXLyaTqqXKEzQOlqcrIBwwCliuccg9ec+lY8FgzaSlxFqOmSi8jEBg8k2wZ1JICksSsiknHHbHTFdrp2o3EukSTyI1xPESPLW3e3LcDjbIevPXOKq6hdTahZgwaUs8JYrcW17+6f8AAMCp/E496ExtHlf2zypJre6DQywfu8SYjDDJGM9iMsuPRgR9yqctxLp92l7bTkOpWTKdSAfvY9c9R9R2Neo3Gg6TDr9rdwiyi1B4ljWG45EkSnB2rn7wBxu59K88Gnh9S1zSLi5S2vNNfzbVpXAWZCwABHupUE9Ome+XcVjqPBviiQR3EkdvJdQXcst00cJ3yQlpGB2r1ZMAHjkE9DmvQdOvrXULcXVtMJojwCOMHuCOoI9DzXz7pd42jatKYkmhilzEyHhoXDoXU9OVwee689jXa+HfE+r/AG2bZFb7bkxeXNJubzZAiKeFOQSTy3TCk44pNdgTPVd6jkd6sRYDFuawdL1yx1CGPE8KXTDLWvmqZI2HBUr14OR+Fb0fKrk5zzUyuh3JSdxzzRSYHYfnSElT9zj1zUDEdsDuQfSoAMkb8gHjBqwDu4BxUbqT3PtVJgQnHTge9DxI5ySwb1OeaekYPzEipCcCmAigIpAXAPOSetRlmyTsp7HBwOc+p5pm75sMee2cUAPBYL0GDTHBKjO714p3JBBP0x2qN2IKgZzigBv3mJDYPYk80pU+uPpSbQGyDn6jpSsNykc/hQB5N4gLReKFspgjCXWYJxNkZKtjCnHpjp9K4vULGTVPFGqxRQ3M90b1ykcSZyN7ZPoMcfnXa+Kkn0vXG8/bJCL6K+jdeoBYKQfTnGPoa53UYrC08b69HqE13CBIzxm1fDsSQcYJ6YJ/KoPNqK979zMm0Cz0qzmOp6hEl3tIjs4yJJC2Pl3leFGfc9K9A+E0C/2FdzDaJJLrawHYBRj+dcIZ/CzRPFDpl/dXEilEkmlQFWPQ4UZPPrXZfCacRJqOlyApMjrKEbr02n9QPzqlYdL+IrG14ztZorm01SPzRbxqYJvKCfJuIKsd4IAyMH0rhL/wnYu3mW0wiJYsT/aFuwP4ZGPwr0TxrqGo6YmnXGnK85SV3ngAyJIwvzAjvUOk6P4d1/Txf6HNNp7S4aWOBuFPcMhBFUbTjedluedW+k+JdNZjYavDFk5bGooN3uRuNXLfXPF3huyjjSbTr21jP3RPG5Hc/dIP6Guxh0LWr261KKLxAqC1m8lQ9nE28bVYE4H+1+lUdOsfEF1pUV+5+1RsrHFrHCJBgkdGj56dM0rozVNra4vhDxjpmsa6001r9i1a4iEXL/u5sHPXH3vrVz4loJPB53kl1uUIOc4yCOK4vXYFla11SD7THew3SRmOUwrIpyOCiAHOcdRXT/Fa9SPQrOyfCyTzBsY5woOcficUr6aFKd4SizzvTvDtxq2oW1pZyRySOnmy5U7IUxySelVdY0+2tAfsmoLex7zGzqpQq4HIwex6g5rTudV1fSLCXRrK+lNvHFtnHlKrDPVQ33sZOKzb37S9nYxeXbiBgXi+zEZbJ2ksc/eyMc0luc7il01O11meL+2LMTopW70aJGc4wjFsBzn04r1y0WOO2hTeGZUVd397A615NrQE3ig6epQj+zobEM7cIzjrn2z+lesWMP2W2jhDHKRqvPcgYqjro6yZMJRuyBnHanlyRzkDr1qMqd4JB5HJHSgxlgDkLz1P9Krbc31JSNoDMTtI6ZpYxyGA5NNVHIAyMeoNOYshyTx7UirC+p54oAyMkg+2KaWDLxkA9QaVTgbQcH3pDBmKH5VH508vg8g1BKAWU4Ykc+1SIM/NsJoAnEqE7SQDTgBnIbJ9qhKEqOAB3OOaVBsPDcfrQArptwQp/OvF7A/2t8V4Z53IhsYrjUGycgbmKof++BGfwr1rXbxrLQr+7IOYLeRx9dpx+uK8a0UmC08danHkPHDFpduffAi6+udtUhM0tAjkv9f0JW3fvDLqk/uZGLDP02xD8a1Piv4hjstEGkxyHz7xHaTYcMIgOee2SQM+xp3hx0i8R63eSt5drp8S26tjIVU+Rj+UQP415rr17N4l1e8vpPN2XBCFAfupu+SMHt0Offd/dNMkvQyqbMLLEI0aH50Q8hQo3qD6iPZGP9qVvepZ1k3SGfDMRILmOP0yPNC/7z+XAD6Kaz9JZ4bS08mNnwqFFZhhyHIT8GmLP7rGKuKmxIXgceaAjwSSLgHkrDu/8iTn6CmBZt52idoZ2JETOZpIzn95gCZx/uqVhT3PFb2lXeMq8a5ZseXHyQ33Cq5P8IxEnuHauWtJRJIkdqAqLtEbuvRVyUds/V52/wCAVrW9rfCZfJXdCo4EZ/eKu3AUHs21kTP96WQ9RSYHXXCwhdohV3B2OichiRtwM+wKL6Au1c74hUSwiNApWVPmC/KpyOOnZioPskI9edPT/tksccV5bRMJPMMjJJ/BwuVH+0fkT/ZBPesnVwGnlZVDLu2bV6MeFYL9SqxLj+FXNKwiDw7fXMAt9UtIozcR5MyMm15UA/eLnp0w4z04Fen6rOk/hq+nik+RrSUq/HTYea8p0NxbanqKebJKm03YMYA8wqQDu9nyD7DFd1oLLdW+o6DLOZRCpUPkZKPuU8exU/pVAeE3axRTeSrImxYxEwG05xnIIJGCc9+v1pslw0cwni8yKS5QLIEGAh2jgduc/gPqafdQRafLdRyx+YFOzDNkmQZBwfTOGPuKqrL5jFSQc5b6n1oKFZChRV5wcn3/ADrb0S1R4POKnBbbn1Y8fjxmsVgoiG1v3khO1R1HvXceCLN5b3y5FLrbEsMjjdnGf1zUNibO80axZbYGYfeIYJj7oraYKNqdM9PwqvHNDZx/v5lA6liQAPasu48Y6YspS3JmIPJXpQM3EQKCBz3xQDnk9MVWtb+O8hEqHjHIPWq2pX/2WymdT8wUgY7GkBJc+UrfNKi+zGsO+mgic4lUoe4NcNqk0zfvbq5Ck9BJJj9KpafdWvmqsmoQqh4YFm5/TFIl2J/EumC5RLqEgsgwxHJI9TXJyqU/dSDLLwf8a9AM+nwbVF7BIpGCA44rlfFlslvdw3EXKSrgsOh96cX0CLs7HV/B+6+xeKCjRErcxPBuB6NgOOPT5Wr3Vlw2AvvXzx8LZVbxxpgJbJ8wjng4jevovcS2cnFU2XYTdlMkYNNOMcECmhXErdCo6UbTGBkjIyOBT0JuNByzbuQK8o1VDo2s6z5Y5tbmHU4cdlWQM+PbZKw/4DXrWQBnBJNefeL9NSXxbZu2cX9lLZMM/eyrr0+rpTA55wuifFvUSQBHO1tfxkejN5T/AKSNn6V7GowMN6V4f4gJvZ/B+pYzJfaXLYyHv5gUgZ/4EQfwr2Wwuhe6ba3KnKywpID6gjNAFoKSQoBOO+apazbXd5pktrYXa2k8oCiZlJKjvjkc471pR8H2pksYJy2MVLGjwj4gae1ndQCYRpNb7YGaBSqMm0Mh5JPdgeeorc+Ee9mRmQH5bgZ9f9R3xVf4tbWv3GcEC2P6Tf8A1qtfCRgXQY6Lcn72eP3FUI9cRmA5bHsa8++JeriytAiviSGJnTkj94/yL+IXzSPcCu+EnPQjHrXivxOvDLftHyVN0VJycERxqMe/zM/51K3G3odX8NU8vS5HRQp8qFOBx0aQ/wDo2um8RFm8OXsiEboo/OXPHKEMP5Vh/DpVGjTBVAGYcf8AgPHW94j+XwxqZ2kqLSUcf7pqrknmvg+8ksPE1xZ5xHBeMmM9I3YoR9A4iP4mvV7y7WwsJrpySkMbOR64GcV4Gl28HjLVGjzvkluVX6jc6/juQV7H4ivVbw5C6ZK3TxdjyhIZun+wrUAeapnUvFssEiqTDGkEmWJG+SRBIee5Mjj/ACK9uDFUwOCB2rwXwdI1z4luZ35keWFmPqTcxHn3r3bOcE8YNJlI8n+IlwdP11LuMKGhu45eRwwaMBlPsRHj8a6zSvFunadY2GnSzvJKZDbxkj+EFdhJ9CjKa4b4t3E8euiNYgbcJCTI/HzYkGPyNVNG8VvaaCnlQpjYg3n728Bkznt8qL0596HsROXKmzpvi1qj/ZltobsRPCqkKDyWkJH6KH/76qt4a8S6TYaDcWkzYLxxRMC4XgRLnvn7zMa8n1/WLvUbuUzuMO27aM7ePlHB78Vq6NpF9qFp5ltYTzIWC7okJGQo4qTCdaVrpHoUWv6DpugNY20nmqLiKXzJJQWyHXPOOmB+tc98PtTt7XxF5kl5NHCHMAj3ZAVskHjr8w/Ns1d8S+DJrDwnpN1Fbs90q7btAm4gkhhke3SvM4jJb38ilShVjg4I6HOP0ouKM5r4j6V1HXJor+xj0+z+2207BXmj/wCWf1JIGcA8VxPji9Go65DZIcie5SLqcCOMhTx/vs//AHx9K5zRfEd/YXsTCfehOA0jYIHru+nrmsq51KfWPEemxvIYJlkiRyVxgs+5ic9OWP1zQnc0pVOe57/4d2roMMyKqibfLtx/eYt/Wue+IEaz6Ssm394Ip05/3N/84xWxoUgh8MaWsjgMbdQO2cAVm+OXA8PqSxBIlwf+2L+lNWNb9Ch8ONTe5tvLdmYSRZLE/wAceFY/UqY63/F18LXSgh24dizgnGUQF8fiQq/8CrzX4aXvlX8SsTtFwoGewkRlP6rHXQfE29kSJ40fAMMcQxzy7lj09oh19aGUmQfDUNdXTXjli7meVi2SSSY16n2B/OvSpYhcW8kbj5XVlOT1BGK87+FmfsY/iIR+QePvivR3LKuRjPpnFIInjOl3zWfiaYs7L5sMNyOTzIsYY/iV3j/gVexLMGQMJRtxnIPBHrXgs0yWnifTpyyhEFvvG7kgqMj6Yr1tZjD4FO1z5qW5t1z1LgmID/vqmhNnAaxqSah4rgVW+UJJfON/RtjMnHYhET8/rXrVlaLb2FvCoGI4lQfgAK8Qjlin8b308ZYZjulUH+6sLADnpgAV75HgIOc4AzQ2NbHmPxJRoGWdAfMAhkQqeVKOwz+UgrqvA+pjUdMY7Sn3ZUUgcK43YGOwbePwrn/if89nhCMGHpx/z1SofhffkpHCxAUxSR49NjqwH5St+VIEz1OjP0pqsOgz+NO57ICfWsygP3c0U5eh9qNvvQBGwGeM5NQEAA/1qyfaq9yyKMsyqvQ5OKpbARZGeoxiuW17xdawWsltp8gmuHcQmdQTFATxlm6EjrtGTxWJ4q8a3I0y9gsrEvHMjpDJFNiRkG4FwuOFO1wDnPGcVwXiHxDNqVkdOtyUR7gG3iXCrGgDqFH4EEn0Ge9WkS2Lf6zLrVnYWqylo7O1SJtx5YgfMx92Zc/RQatNJDYxlZBiGMYeMnJY5xs/3iWKn/ekPYVn6dpn2bQZtaV8WsDKkEaLl7hyeZMHkDg7T7ZrvNJ8Cw3ujaWNQto7WaSNbieaJtsjsx3GEj+6FwOufSndCsVtAsdU1O1nntoY45LzhrqeQpmPdllQAbjnoW4AGAOlVIbi0tL+XzTbynTLnfBY2byMkkvykyeYB1Ayu0jGAAK7qO1srLWd9vpEpwgRruRwI4Y9v3U3Hpx0Aq9pd7pktrIdOi8q0g53CExRNxngkAEe9JspGAPEujxFTNrbFhIA5aAo7ZJwpTGSoBHOO3WsbWptNv7OC51G0/tGK1uyttBoUj/IhPBkXIwf5122jap/avnzyCx2oQAbaQyEZ9WwM/hXNeMNRsBdiP7Xb6RPDIsf9qyD94shw21AOT8pBJbjmhDMa41LVraa8N5e2uvQ7QyaGkCeagI4DAklcDrjcah8FuXj8NP9kFmH129b7MBgRfuW+X8OlVbiFIdSuLhdJTRrgoCPEsvl7XOD86rnbls9Uy1WPBW4p4baS7F4w1293XCnIlPlH5/fPWmyUe1w8KamWqsBZl46ZNWl6YqCh1FHHrRQB5xY6jFfxO0EVtqVusapPeW4R1nkGFKtH3A5JOeMjFQw2yaVqkN7aaS0sVu5mvPssZ+WR0CkRxH5uAQcD1PpWemqabeRHUYb3SG0Ox2mErG1u4uvVjwvJycYODitEzaoNJH2OCRrqGESLDJdLOm7H3SeHOCAB2JarZC0OmXWdJ1DTLt/tMU0EaETRkHcg7h0PzD6EVlSy6Tb6YLOJ45be9GYDdM7QN6Jv52+w/IVkafpdlPbJqd7qWsG+sWxL0E8RJztIVSzLg+pBFdDeR2+u6Y629wTagcPF8x3DOQyMMEf7JHX0pWGmUX8uPT4LG6sUkvi7NBa3lzvEm0g/JIQecdAcHr0rjvHui3Go67a6xbFNMvFjGWmORtIxiZRnAzkbuVIODW9NLDa6Khtll1zSeFubVUJktyO687kII+6Rx2IpZp7S/st00s15aQn5LoLi8sMjpKuMsuO+DkdQetAzh/Emh3FvOpbyje7FaRYicE7crgkDcV5w38QBXqDnI0DUpIdTjjAZUdjFtUkGGRgE4/2SCSPTkdq7q8tn05baK8Kz2Rw1ld243Kp6jYM8jjJiOQcZU8YrC1vQYdSlWfToTFqMpLKIm3QzqcY2cZAJ5B/gPBwMGmiTTsNc1TX2e207TILl4kSU3ACRmF9zYbd1LEqo+mfWvYbQ5Taxw3XGa8Z+EurFdY1nSr+MpdOwlUONp+XO5SOxG7+dewxtjlcDHQgUpbDRfAOKXtg9aarZUZPNOxismUKWAHSoS2GzjpUuOxJ+oqIqTJxnaB1NAETKHb5crUh3BRzk/SjAPbn1NLnBHzA1YCbQVHUmm7drcoT9TUhOTgdc9KUAgkk4HtzQBCUJ5Gd1Iqlc559PapWY5IGR6ZFQncGBJyPQCgAZMgkHBzQaQswOCuRnnIpFYFSQmMD1oA878d6XdN588RWa2vo0gMRBLrImSrLjt1zXEeJfLvZtD8QTx+ZbXUSx3ShiD5ifK3I745r2TXtNl1fTUjguTBcwyCWGTGQG5HI7ggmvLobBr2G80O6dIl1Im506RfurOpO5R6bsdOvNS0cVWK5vUyLTXrl7gWPhTRoLWViQJFHmzsPUsw4FIL2bwn4pgv01CC8uFwbtIWyAzffUnj0zn1qKLU7uPw9NpQuYdMlhJE5IKyXCnoCQMkjkY71V0HRLW4s59X1V2t9Kt8qSow079lX1OcULcxSvtueuarFL4ltdKvtIZHj+cmQzMgQMuDnbycelPsvAVppdqjabfXVrqCkk3KtneT2ZTwV9q8m8O+J9R8OX8smlpLNaA75beRuMHucdD7ivV9I+Jfh/UkQTTNYzY5W4HGfZuhqjohKM3d7lfStQ1uw1LVo5tLF+ftK+ZNaSKmDsUfdY56YNL4Z1y+j8OW0NroN/O434kyiRk7z3J/pW5banoFs11cx6nZ4uX82U/aVOWwF9eOAKx5fHHhbw3YJaWdz9o8rPlxwfvDkkn73Qck96ll6R+0QW/h6X+0J/EniZrW3EchuFt42ysZChVLN/FgAceprzzVdWn8ZeKjcx3EENujBbY3LbUAByOc/eJ7U/XvGV54u1CG1ubiOw0wyAFcllHONzeppmYdEml0DXdOim04N5kdxF8soB6SK38WfT2oXY5pyUtI7EM3inVLS8n03Xbex1Dym8uVJ4xuyPR1wevNO0G2t/EnjKwhtLb7Pp8JEjJvJ8tEwx5785GT61a8R6xcW8QaCTR72C6jPl3Edsom2dCGz0bjGatabZSeHPCoXBGr67+6iXGDDB/Ex+v8AhR1JSfNvoamiqviXxHes+2OK+uhchm5ZoomwFUe/HPtXrIVNnTbj07VxfgTSUaws9VlZA6QG3gjRcCNQxzn1biuzdh038n2qkdlGNo37keSV68g9fWpFfbwWBqMg7cHke5pqhh6Ae4zVM01RaWXBHzCkkk3gA4NVyT6jPTgU8HAzgkipLFJ4+9im7ww+Xk+tSoMkfL061JsUHcAB7UAVfNZT1JHcGnrOD149zT5YQSx6Gq5ZQp6cdqpITZPLcELgUi3Ic7cD86gPI3KPxzS5wOuD3707IV2ZvimdG0GWIn5ZZoYiARyGkQEfkTXl/hg/afB1q7ABtU8TB3Geqo28/oldt4+neDQ4HQci48zg4ztjd/5qK4Pw832XwT4TU/Ls+3XhJ9RFJj/0Ki1hXMrVfEhn0O40u2dllv7g3F5IhwY4QqnH1Y5/yayLiOSGyWPDK2CXCtxgnaefQ/dH+7Ie9T2f2azaR5t0bO7Kz4yAB0+p4LAf7KetLJGrq32r93lMEMcgY4xx0AwF+iSHvQgH6RcK+kxI86tHGX3zxA4GEKnH+5ErEf7UgrQZ45IZS8bomGDxL1hyo3gf7kWyEf7TmszTcNYlyN0McrjYDzIoYSOSBwC7GGMD6+lX4ZZvtsTBleQE4cn5XO9gD/wKYs/+7GKYG1Y2wCNujRmYnEYPytyBt+jOFj/3YWrctrSPI3PGcAebcL1+6X3EY4+Vmf8A3pF9KoabFEiKCwwWUlO5j2gKvTOSjD8Zz6VtwyRx7l2FpnYuQQdjvv4/BpP/AB2P2pMCV2WKB2YLC5yDsyTDtXt/uLgf7ziuT1R2+0GOHIVSyRxjqpACtjPoCIlP953PauiuZH8hNskYllx5cxwAM/dZvqQ0p9kArAkKbPOw6xbQYiSC21VO0H/aCFnP+3OvpTQGbYkr4jgjyjSPbvv8s/LtEse5v+BYYAf3QvrXS3+qy+H9SutVgtmEEVs/mDZ8z5RSH98MTn23Vg6LHJc+KLtlCxfZbZ0CxY5kyGIB9vLCD2SuqvraaV5kmJ8wfu2/d78qSwI9jtQ8/wC170AeFG6e5Z5nkLOy5yxBLPjkn6nt70kRbzBu4+QY/MVLqOnXOnXr29wAJLeUxsMbcYweR07jp61CrfOSwHHGaCkdXpFjHdaTvjhHmmQruA5Ynpz7V6BomntZWzpCgQynLO3fH+f1rmvh0Ynt5InYlnkLKMdwOf511tzqTKZ7OxhMzxffc8JHxnGe59hWZPU57xVciFTFJehV5yqnJJ9MCuV0u8tIboedHKUJHOAufqKtais0TySjzJLvG+XAGI1J49/yxUGj291emZ5LeJiCCPMjz+vaiwWPSND1C1kg/dzxmMgdG6fWsLxP4gsUmNvHcpI+4DZGwyx6ViXdmkmpaVaG1CmeY+bsGAVHbI7VseMvC9p/Z7Lp9rFE64Zdi4JP1oCxxF5BLe3DTyMX44jXr64qK1WS5k2RWcbAgnBQk8ehzXS+G9OcqDcxZnXnce3sa6eKwkiLBIIk3HO4Hmi49DG0GBF0/wAiWAh88bhnGff865zWNEmt7O8uGmdo4psJEeirnt+deiCA267gNxzyQKydTt99pcxMd3mIxJPvmi9iG7HKfDewkHjTTJhIFiS4IXnBJ2k4+h6V9J7u+QDXz74Ch8u/0+8ypVbsCTd7nH+Fe+lBJycKuOtPctO6HH5ueOaCGVicUw45yenQ0pbOckEjuapKxI1kwp5OT0rjPH4Nv/Y2op962vVJx1xwx/8AQK7Nz8pHfHGO1cn8QYt3hKZiPmEiY/HK/wDs1MDh/EoFj4W0+ZBgaT4ieNTnkL5hIH5EV6V4RaQeGrSJipMCtB/3wxX+leceLd0/gnxZtQslvqUFyntvjiP9T+dei+DSj6PLjjF1K+3/AHm3/wDs1AzoASSuPXmnMwztY8H1pCueQPwoAB4I2565qWFzyH4tLm/kUEKpFuMAc9JqtfCsIZFCpwFuOTnjmGqPxZZW1CTduAH2f7o9pqs/CpY/NXy2YkC4B546wf8A16oD1fjafmGB1wa+e/G9wbnWQq4BbzGXcP70zn+WK+geVDMRgDkEV84+I38zUbdlIbdbQnk9CV3df+BUrCPXvhyytosrY2j9xgZ/6d4q3PEs23w7qe5ht+yyHA/3TWB8O5B/Y8pHAJgAB9rePFbviUp/wjOqStgotpJkevymiwzwsziHxuXxnGplW+hk5/TP516R4hux/wAIPpOTgR2sm5SQcFYTHn8C1eU6w5g8TXkhDLm7c5A/2z/9au88VXW/wgFJAwt2mfT/AEqMD+VMRz/gOXfrTNnBBgIx3zcx/nzXsevXur28tp/ZtqkqvIPPMjYCrnrnP4dK8V8FzGDVJZkT5ozCTGW7C4jI+leiXvjCabwtNd3Fm1pKzOpikPLKCMD8Syj86TJnJRV2cP8AE/UW1W/YJOpK+WDEo+8QHwR+BFN+G0+mzoNM1m0VoVikCu3fLxgAe4yT+Jri9Wu5ZdSMshO6Rg7eu71re8M3MLRSQyhWAldgD15j4IP/AAGl0M1O6uczrSGLUpUVCIw52EjsSSP0IrvPhvqGpRa9aW1lcMsc8gEsbDKFQoLH6j1rhdZiEN6QJjNHsjAc9VOxcj8On4V0mlJe2luZNP8APL3GYmESnfs2qcjuAelTLYzm2krHtHiHV7C70TV7TT7uKa/to8+WDn5gwI+vNfOLTS3GrHczNNLKxOe5Ykf1rrbrRdZ02za/+yTxLHtYODnZyCCfSuXP+i6jDeEh5JJvMHpnOeaFqNTdRe8j0Xw3ZW1t4f1a+1CKM3CWJMAL42Flx0PfkfnXCwz3OqeLVuQERri8G0AZA+Yce/GK62DSn/4RyyvtTn8yWTy/IgLfKsYcLlv5YriYbsx6iJEk2N5+UCKOPmyCO3ahKw4aRsexaRFb+IbPR7OTVJFeyjBfYMDdjhMdCQOfccVveOF8vw8uw9Fm7dD5MleSeGdSexvLW4aQ7HwJGJwevB/A/wBa73xJZXf2WbVzfu1rcxSotsRkIywuM5/MU1uOlO++5x/gy8ZNV3Z4AR8AdNk0Zz7cFhW78TbtJb82xbZtucEAdAsaf/Fmua8NyKNUZWZy3kTYUDuEJB/StT4g3IGu9SC80zAN35C4Az6Iapo6Dr/herCIuf4o5Dz/AL9ejOu/IGc9jXnPwuJNghyM+XJ0/wB+vRw+V5U9akcT5011wNSji2fdt4ue5+THX/PSvU47oN4R3nGXvFl5Pric/rXlfiJ9moRHgsYICc98xj/P+eO5t7sHwTG+7aGAfr/05EY/OrQmcd4fmLapKXBy9tcHK9APJfvj/P8AL6FjCmPC5GQM187+H23a1uAAT7LcDBb/AKYvmvoZW2oARknvUPcpbHBfEvEVqG5IEODgesiVgfDe4Av8EA4uVxz0DRSZ4+qLW58UGBsijDjygR7HzF5rl/AMxXWgSyhy0L9c9XKnv/tj86CWe7Iw780/cKhTC8DpUo24rMsUHNBBPSgECgk8YoAaRgZIzXlvjTUJLLWp5tQ0SS7tWligt5p03QxgheMZ4JLMd3+yBXqLsVXLdK4D4salBbeBbtJHHnTvGsKdyQ6tkfQA1cNwPM/E2rySGGKB0RPKlCBfuwRcrj1wAMj61i6Vp39oSKWKrb5wfMkC5BwSCewOcsfcAdqn0rSxrDrdas7wWbKNuyMuZTjCnH93PQdWJ4HFdlBDaWd4iWVkpvlVY4YB+88ll5yR0eU5yf4V71bZA1dFvDqH9nXdgZZpGUhRImfLHcAH5AcAZOMKSo5JrvUl0281Vb6azlVowIreafhWcZyIkJyT15A596wLO0NleMWxfarkTGHzD5Vsf+ek8ndvT06ACp7C/j1HV2hsblNR1QIfO1OWMmC3XrtiXp06c845JqSjZ0uZ7eOU389zBNdMI4Xu5V3uSP4YxwoGemPrWppVvDbRyxfbZLyQH9+0su8g46EdF47YrC0XTHt7+41MXcepPkxDZgsRkclz0IH8KgCotR0W21i5mistZggt4hvms4YlKOxz80pBBP0JoFcl126sNW1KztbWBtQSwaWa5ithuXHlkKh5xuLEYHtWHdqdKtoZrO1sLXTFH2nUYNRkaW4hP3QQAWxxjBA4wKg065u7+O60iFr1VscXdpd6XAbaK5xnMeCCOvfviphp1y8kuv6f4YtLLWZnK3C6lddY9nL4XI+oIFNDbOaNzbS2M11aJqfjHT7uXy2tp8AW7Z+XK43A46EYFa3hHYZ/Dqw2jWka63fgW7DBiAjPyn3A4/Crtxqj20S6rB4ls4NPsBE17p+lW6zAN3G4YO0469qz/BtzDO3hy4tEZbabW794xIfmClGIz+dNiR7PARsAqde9QQAFMjnk1OveoZQ7A9KKKKV2B4lBNYXWp2+k7fDE+i6cpnuQhIZHA/eSBRgAZ471tW95aXdleaxdW+grdTSrDBJHqBKybTuCliMBhwcAHkVxrW8+meFru4MngxJb+cQh0YCGSJcswJz8xzt49quC6W3bw7pf27wvAXCTPCLRpNzyNw0Y2lRlcc/jWpB17RHTtRlutOuUS/8AkR7bzVdZEwFUOOCOhIbJP16VDNr19eGe2No7qCDNEr/ZmteAQfPDbWU+3PtVRfEcd5qGvx2esJcyxApDBFYBAjbwiKXb753MB6VxetXsG6XTo7tDDbStHgsP3sg+/I3fJbPTtgDpyAdvb+J3t7S5jEcdzMpCNdw3cMuzPA3sFHI7Flx6kdarX9iyxjV31CPStcAMh3goJ0Bx8y5YA+uCR3x3rndA0aPTNKutf1GKVEmheKyhJGbgsDjCL0XqcHtzXTTjTrTTNPtobsXljIiIiXG4wGXpiOb70MnHQ4H60AiLTtVJVrSe2iR5v9fYSgCC5J/ijJ4jc9udrdjnmq19YyafCdQ0t557BJC0yEbLizlH8Rz/ABD16MPvZHzVpfY7O5sjp81vJNbwgnyvLVL2zzznaOJkz3Gc+hNZ3mXmjyQXSXXnW5/dW9/GC6sO8cinqO2xvmH8JP3alMpozJrG/wDEGtJrekXEC6zAvnRhhtFzswCB255BVuVPqpBr1zRtQi1fSba+gGxJVy0bcMjA4ZT6EHIry27053ibVfDy+VcpieewjbcP+u0BPUdcjHqCB0rX+HutWS3L2Vu4EV0xcwg/LDMByFB5CsASB2KsPSm1clOx6fG+0/Mcr7mp1bpuPJ6cVQQq5wox7YqRGzJtYHA9ulQ46lou5x70w7hnaCPemF9g+Q5/Cnhhtxmp2AYFwpU9+tPGCeUx+FJtGQCOtSc9yTQ3cCPbmQkUwB8kHpUpcY7Y9c0wY7c00wGuGAyTxjmhVRl+/wDQUr5IwMHPbNMwQFHI9gM0wGSM+cFDgHikyHGCuPfNPcYIJ5/CgHPAAB9GoAjKjB+UivM/GPha3s3huLe7kt1nuCyZUFYJcFgQRyMn8K9OZcNnd+FQXdrFfQPBcxRzQuMNG4yDQ1cipDnjY8U1PTpPEwlu4YlXxBaoPtdsoH78Y/1qep9RWRfaoNV063juJltUsIxGljBFgNJnlh2HvnGPeu38R+F7mx1MS6bZXSqjrJa3Fr83k8YKEdcZBP41z+oQ6frWz+2kGkas4yt8sZEFzkdWH8J96hnC4yWmzKsCHw94SBAxq+tYSPP3kgzyfYkmoL7SNN0/xPa6K8UkrmRIru4EmCZHx90DoFzTdX0bxDpckF1fLJcRwYMV0reYmAcgbhnI+tNj8SWH/CUy+Ibm2ke5z5qWxxs83GMls9M84xmgWjViS18LRXd/quli726lbTMlupT5J9vOAex4zWLewxQwWqiKRZCjiVXb7rByMdPap01Cbdc37XJS9N0s6lSeT82cccdaseI9bttb+y3UdsILvyiLxQODJn7wxxzigiTj0NXV9Lg8RWL6jYW0UWqW3N3YxsP3qAcSKB09xWR/bMN34XfTtVgee4tyPscyD5lX+JWJH3RkY+tPsLXWdTvmuNFtboTmMIZI+3yhT83AGcVswaFpPh+YS6vKNX1Z/uWFsxKI3/TR+9BT97W1jN8P6FHBB/bmu7o9NicG3hb79y+chQP7tdTo1jf694qFxqbzRSXMDyMsWMwRdFQHHHFQ2+kax4qiS8lheS4aTy4Nu1be2j6NjnkivVtO0y00yExWttFFgAHy1Az7mqSNKdNy9B1law6dZxWttGIoIk2Kg7VK0rfNhc4HBPelkX5BtzyegqIsDhTu/Gmd+ysPbcQDjAPrTDlTtVOR1+alP91VJJ6YpgJ3AhQOuc9c1URN2JVG5fmGCKcow/4U0rnJ6GnRudg4z9KTGWIhlfpT9opgYbcZ5PWk6jCMc+hqHuAyVFLgHJNV3RRzsxz3q2dwXnr61UAIOZDuXP5VSdwGk8c8AU0EEZ7D3qwEjl5CgD1NNaNF/pTbuJKxwXxPLroUeDgZnPToPs03+Irk7aAp4Q8NAHIGi30h9OVUf1rr/iihGgxYwMrc9T/07yf4VzcDD/hEfDhXILaBec59ApqkxNHFQ4WVihaJY3LF5Vz8+cgj2+Xdj0jUd6fcxMZBAYwpDABHbKoegDHuAFOf91z/ABUksf2RYEUyZcvONw+bcWPP/jox/up/eqteXj2UZljgMjL82wfMpOOR7j5Np9o2/vUxE2l24R763gZo5BJGS7uSMsMITnoRueQjttFTrICYYwo+xu4C5OWWIRkc+4i3H6y1jaAXlur5p2lcTbjjGc4XMzH325Uf79am5ysxcp5sTFZASMOwbLd8YMjRpj+6hoA7bTJma5CGJfMLbsFjjez5A/Bjj6QVqCUywPMXWK3K/uznHloV4IHqsKlvrJXNaQVn8oQShXaIYkznCsCin2OwTyf8CFb6zAWh85S0DEs21R904dk+m0QRY9yKAHXcgubdl+zybdjPJHnJKYUtH7HHlxD/AHnqm6zRWayRsqyK5XIIIeUtgn6ecfpthFbAhn2Lsfc24PllLhtjYXOP70zZ+i1n39uX/wBEtUbbGDGrAYyuDGCMe3mt/wBtFPegQeHXtJY4JNPWQ3MWyIN1JjL9T77HyT71f1Eb9MuJpNyPM6mZEODvG3A3c4xhgfqah0GzthNeRRLNFIGdnbO0BGJCA5GRhP8A0EU3XI2JtbAlnE95CALcfcO4OfboWB9qAOC8VWqT+Ibk4zI0SMxK+xx077Rk/wC6PWuQmTZuXBUZ4DDvXpPim3W18Rwz+VsvJLPq+AFCsuOPdv0DVleFtMtNY02SRrUByOA5Odp5X9MfnSbsO9ir4Liu55Li0tr17VtnmBkGc13ehWtzpTXNpfXbXIuGEiT7cEk8EfoK5DQkHh/xVGjfNE7GIEnoD0z7jNelmDz5QcABPun19ahsTZRn0m1jVzFbh2c5YnktUEWjuzYdlt4j1jT7xH17VuCEIgBzx6VKIcIXChBjqetAzDNvbpq1oqJhYgfmI6E8AfXrT9dUfYt2Mmr0MiEkxrgHkk9c+9JPEtxaspO7IPvSYbnKW7pw24I7fLxXRR2zyRAqNoPUg1yxtUSWVjPjBICkjHFdLoV/9ss1RsbwuCfWkiURXkLxgg9GHWsq+AFscjqhAwfatS7d4fkdmkPdjxisLULpRFjJJIwAOcGkSzF8NwSwfZ0MZEckyKD6nI6V70Sufr0rynwVCbi80hZF3lJJGAPbAIyfpxXrBJAPT6VpDYpDXGFHv3pwUgjgFTzmgHIzg8+1BY7SM5HbjmrGKSCcgda5zx5z4QvCxyA8XGcD/WpXRryM+3Sua8dSLH4Ovt3cx9P+uiUAef6o3neCvFwcj57TT3zn+IxJXfeAW36JIRgksjZ+sMZ/rXnt+u3wT4qZu2nadg+n7sV3vgFC2iHJ2lTCOnX9xHSexSOt35PHSk5OD3pShGACBg8+9OZvXr9akJHjXxVy2qyhRkKbcFsZ/hlrR+FcSjaVYkBbg8+7Q1T+KpJ1GRW5X/RyR9Fl/Gr/AMK+WVAB8q3HBPvDViPTLlttnM2eiMentXzR4gnC6iYjuAEEGecf8sk6V9KXw/4ltypHAic8fQ183eIEEeouxHKrFncOD+7XoMVK3Eeu+AlD6K5YFuYD/wCS8VbniZs+FNTU/KPssg6ZJ+U1jfDsD+wZe+TDjOf+feKtvxEinwvqRIHNrJ+HymqGfPuuyE+I9QVmbi4kIOOvzmux8S4Xw1ukXcFMw56Za4ycflXG64Q2taluVsi4lLen3z3rrfFDqPD8gZQisSB/39bp+VAjC8Iaja2esCWeQRxL5HzE56TITgD2B/zzXVfEm/8AOu0gQ7lYjrwcAZHX3c/lXK+CrayvNYEMyI43wHax/wCmyZH5Eiuh8T2yXfji0sCW2yNsO3jjzXHX14qZIwr6xsebauN7bkzyRjPBxzWj4c3Q4DAEmQEgjOB5b/4UzxnpE+iaj9kuGySodQowCnO0/XioNBmLQzFnJK5IwPSKT0o6ExVo2YzWFEMl2j4fMgHJ6Edq7Hwbqam9tTGZIbiWYCVw3yyIkfCAf7RFcRqSBr+6hkbDJKcSMP510/ht20Wdp/LjlnVmADFsISq4II7nJFTLYdTY9h+xy2vhi5N5IpubhYvMyAdvzr8v+0AOK+eZsWl/uc8LOXKg9AGPavRr7xhez2kiXNtCWyqs+9+AGUt0P8P65OK8znc3OoyF8RqzlsZOMEnGKpDU1JaHqutbDoayW02YpsSBCTgfv2xx6Y9BXlSRZePPy/MMnHc/y616dqMCNoWVVoobaU28Af8AjQSk9uv/ANavLUly8KqfkVudx680hdGzoITixhDgABQBn0rudRv7658AwC1+eQE7wSPu+U6uQc/7LH/gVcPaRZsYzvJZgAEP3sY6j2rpbW9+zeEZmmV8ATLleuPLbH/oVSndmNFv2ljK8PBotWUOQS0U2So6ExtmtTx4xfUbd+pfzmPy8nM0n9KxfDT79TifYFUwzcE9yjYrU8ctm/skKH5o5BweoMslaned78Kl26eFQgYjbj/gRr0cE7cgZx1rzf4Vny7FVA3Dyj26fOa9HYlIyxRcAdqgcT5z8QlhcxA/L/o0PUekY7108LGLwgGfBH2UP6/wbf61z2vq0t2qhSB9nhHB/wCmY9+nNbKkr4SYu2V+xfexx2/xq0JmPoEn/E0Kllb/AEW4YZ9PJbtX0ApZsdxjsK+e/Dg3atIX4AtJ1B6/8smr6EjyQCCRx1pNAmcB8TQRYEFcnylAJ6D94tcT4EzDrrMfusYcYz18+Ou1+JkZezc7G/1S456fvBXI+DEZNY+YbgRFjaBwfPjFSI99AY44p54GB260ic855p28AYxWZoHpS+YvQ9ahd2DDYoPv6VGzbH4PPsOlUkA+SQZCk8Hk14v4mivPFes/2nIqx6BbTGC23f8ALwR95gvVskYA7454Ga73xlq32XSHtEuRbzXQZPOK58qMD53x68gD3YV5np/m65EFSd7Hw7p6mBriQ5YDjKr6u3fH06YzoiXubH2m+8Rak0dgsaPAoXzQNkNpH3CkcbscFh7heOasLd6dodnsspXhjYhXvyo825xztgU9F5Pznj6nmqlxqPmRR6RpOnsEBxFZp8xZgfvzc/Mf9knA/iPardlYQ2k015cNFqepJ/rbiZ9trZYHQt/Ew7BRxjovWhhEbDpt34ltzBOyafo64YWUcoWa4YjI3MeST6n8B3rbtPEdvJZ3OnX1gxeRARBBAcMnAwWYjdjHLHaPTNY+n29rb6nBDaTxxXc+GW8u0JlcHjMMPYdfnb9aoazpLanpeq2em3txd3lneO06CUu1xGRlT/tED5cdARimI3otdu9Ht/LmtnVZRtQ3KJb2sIA6KU3ZJ6e9U7zWG1K+tPCy6ddaZp1/CSbmGEIZTjG1c/cBIPLDJrz7RNWm04SpFl4HG2W2fcUkXnIKdVPGc9uvaum8Qas8OkWHl6vrwWGQ+XJZHzGkhkAeMvkjpyn/AAE0AOXXNNvtAZZbPxFJPoIGI/tBjeVC+Ccrw20gfhRJrNtN5HijSfBN3dajczSRTiWSQtG+McpjBVgevSln1dYvGVndHVfEAttRSORbYQ5iAkXBU/Nxg5PTg1bsYtN0Aa1p+s6vrbwyMts0943loGySpjbdk+px2pJA1YvTW2q6PePc6VpFnZ6VPZCR4YLTNwJOP3bDoeT6jg+1UfCUxmuPDszW7Q+Zrd/JsY5KZRvlNc9f69o6arc6DfajqEFkVFo0DW4AjcY2y7y+TggHPofetvwTALNfC9sknmrFrF+gkPcCMjP40McT2qFx5YA9T/OrCd+arQ8r1zyefxqynTFZdSh1FJz6UVQHjV2V1Kxj0qPw1bpJBEtzG97ZM9ssjrvcB1I5+YDGO2Kfq1i1r4y0gw3Xh22tg0EIiaAG5O3aCq/KSO2PSuMfQ4/EXi24uv7Tv7+Nr7BW1tHkjjG7oXcqo9D+NdzpOn30fie8DWUywtd+d5d7eCaTBfIaKNANi+5PT1rQg5u31s23jSWGfX7jUkt7iWR7GO0McalMsoB4ywYDt616houm2A0S0P8AZtvE00SySqYw2Wbk5yMnk965ua6MuqWN5qVpPZRG98qO3uBDsuN4ZS+FGRyV6nFdX4d1o6tZzyvAYmjmZNpHYdPx7EdiDSew1ucF4pv9F0LxVaWekJcjVZ3WKRIW/dIjYHlgH7rHj7pGOp9Kmh06G78RW+l6von2LdDKAqTtMLmMIAGJIAZxuYZxmuMl8W69o/iDVrUPHMY9Rlk8mWJXZTuyCuR6YI/GvQ/h9f6pr+my6zq7efL5jRwRCNV2ADll4zls4PPajoD3Mb7NeQvFaacyXhgJ2W0sptrlOOqCTBRvXaSp/u1aa8njmaK+hltZ5Y90ss9tmOVehE8a/Kw7eYhyOCcU6XQW1q4v2hSG1MT5ls5yE2HGThlZ0/76TNT22kS3+haZHewzytBqO2N95Z1iYFdysCeAcHIOOO3QSUYdzZ3Gm3An07zkdSZhbebuYDH+sgfpIv4Zx94EdMPUliubyLxVoJSPUbNxNd20Q2LOoOTIq5OP9pffPTmty8kuNFv7mwu4hJp4uGMbh/lJHPDLzFLjnIA91/iqlqunPcSJqWlShLgOFMmAm9uyyjoknow+R89s8sD2zTL631LTLe/gkDRXEayKQexGf/rVcMiEHaCT6Zrz/wCEuqm/8KyWVynlz6fcvE0RXaUBO4LjtjJH4V6EFXqAMGo6gVSSMggru9KegHyqcGrDfdPGaj8psfewOtF0AjArwoLenOKcWJbHQUbGCnDEn3phLZBIP40wJlAHGQaikyTgZ/AUiSZboAwzmjr85IyOgpJAAbC7mB9OlKNmQu7jsfWjeCnznHPfioJScjDZ9BjpTAsMucALn86R14+6cn3qNZXBIycj2qXfn72SaAIiADg8GmkYJwxz9KlOHPzdaaV5JzxQF+pGU39SM9q5PU/AFpdrcNFczoHDMkLkNGGPsRwM9ga61xgjBOe+aUNkEDHvQyWlNankf9ka7pHmzaXFe6Zax8zJK6TQAZxkDJOO/HrWfNf/AGi5W3u9F0PVZGyN9qTGxycY44zXtZ5BU/jVb+zdPa3khFrAIph86LGAG+uKVjndB9GeNi20ZLpLabwXItyzZWEX5zn0/pT1uYILlra08I6ZaSBtrvezGTy89Nx6D8a9Tt/COhW0EkMVhEscxBkByxbHTk81NZ6DpumWskNjaRxo/Lk/MWx6k5zQkL6vI8ytrfxBrqyo1zNPp8fyPHpO2JCcdASRkfQ1vaB4FENo73izWbSkgQwyglU9GODkn1zXbeXHBD5cKKijoqAAD8BUqzsuMqCOhOetVYaopatkem2UVhaR21tEUhiXagHarbEgjHTv70K4cjAxjtmnMoOCDgelI6VsVnYs2OE/HrQqcZOD9KkdRkkjgetNVgF6jJ5FA7oI0XHAz9aZJGC+ec+5qfzARtAzkZqBjg4CZz0JNMBCpbgsGXtilLbGUAjA680gbnBI98UEAnjn3xSFck3oD2yfWm+ZgkkY5wO1NABPNP2KcMM5B6jmgZKJlyF9fSq0wKue30qVVUEHAU+goYbjgEZoAarZUfLyPQdajbuvHPbFPIKscZB9KCu8AHOfY0AcP8SbZpNBiBOMySqPxtph/WuPslM3hHwqQQVfSdQhGPUJn/2WvRfGln5+ixEtnZdxZHXhj5Z/9Drzvwopm8D+Fsf8stRubIn/AK6xyr/MiqRLOfuNM8zSjfxFlkgZi2HyNu8+vfIz7fu65G+le8vbqKNtkUEZMaqMAgp9emMAe1dnbw32saFJpdjA7ywzNJdHoPnDGNR6ksefwFcnLp8x1e7UMp3MYyzcBT5nlAGqEaGnz/Y7m7i2o7LeO0QK5388KD7tEoPtmraRRMoiikByBHC5GMkkxo30/wBdIfwrNthcxyyymPfcfaP3SMflRmIIP4bn/KrTxxRMIFkkEDHaJeuEI8tWI9REkj/8CoA6PR7uGSK5fY/2bONsfDGPbyPwhjx/20966+0iV4wHIS5VuEPQyl8/QYlfH/bGuH0u4EVyVkRxEU82QEfcU4mcf9+0hT8a7C3vZVKxK0X21S3Xo0n3Bn/ttLKR/uUAXTcwIyhLlo4ydsUqSdFGY4z7/wDLWU/So9Kjgl08X77Sl0WePe+VEQ4BGOc7RGCPcc1iajILhfslrN8twfJjKr9xHUjf/wABhjY/WX3rrL20it7GKzgX9xDtRMgKRxhWHrzg8/3BQIhsYisTTxBbgXUoXdK3WNQUORnklVbj/aFZk7mXxFbuJMNbI3m2+MDfJle3YF+vpV9tlpbSW8JlaGGKOIA/3lwQSff5Bx/frK0OCYTXV6zK4klKfvnHKj5SG7nPz/8AfAoAi1rwyPEus3skcrMbeyjaONX2rJl3JXkE4PzDPbiua8PXjWc0V/5gkh2xrIqDGOqZ/wDHAf8AgVdLZav9s8V6nDEJJTbRJAkcB2mVxvLFSegznH0rHvfCsh1W9bTX/cmRpnjK/uh0YdOQN2fwWgZZuNGE638wVhK7ieFvVhngfUV0mg6l9rtImydxX5gfUdaoeG72OaW4003WJEDBEYfPGAzKMj14/LFQ3P8AxLNWe1EiuVAdTnB568fWs/ITOrMqMOTypyAT3qLV7wwWhVPvN0rPhu43hEgy247i2emap6pcSxiF5GVm2ZwOADSAdeTyWmnxRJOYbgnn6en+fSqNjqd0tuYWuYzhjtYLg+uMVmRXNqyR+fdJFIGJZHbknPOafJe6QsobzWbaOqED+tDA5y6lVr95WZ5CxKg7sAZPPFbuj6u1pCrryR8oBwMisqY2dw7PDYzuM5G3PX1J6U1LfVrqV1gsYoYlHJZj/nNLQTR2zapb38bNvXcBkrg8g1g3pj84gDAKjvxmn6fayRPNO4b5Iyu3sD/nNZV62Zp23K6jncOoHanYVjsfhXFNNfalcyRbY4VWFSSckkls8+2OlepjaOxA9awPCFmLPwtYL5aqzx+Y2O5bnJ/St9Vz0G41aZoloNKKQxU8ZpHiGwHfyPWpQDnpilC56jI96dwsyuYywLPnPauY8eER+E58f89YT9f3i/4V2Ei7yCCa474jtt8LLH1knnVAAe+1iP1AouKxwmuKYfBfjLJJ2x2MHPbEUf8A8VXoHglPL0SYDp5wX/vmNF/pXAeLpdvgzxCUUg3fiFIFyM5CKi/j9yvRvCCu2jyTED57qc8cDAlYD9AKYG+JDnjGMdxSKQW3NjHSnAscnbgZ4xR8wbJz9DQB498VJWTVJWU9Db9/9mStD4V4fyiq/wAE+fTGYaofFFA+qTs65UNb4x/uyda0PhSpMgwP4Ljp/vQ0Ael3aZs5xu/5Ztxn2r5y18R/2k2ULl4ocAkDJ8pK+knUMhU45GM184eJIvJ1YbtpP2WErkHg+WAf6/lUrcb2PYPAEGdFlOAu1ocAHt9nira8RDZ4X1MuuQLZ8/lWP8NwX0OaNmGd0OCPT7PFW14owvhfUyegtnzn6UPcOh88a6pfXdQjGdoupRle/wAxrrvEpB8OM8S5CvIQMcYFwyn+dcrqX73xPeIFzvvHG0HAJLnvXa+KrQt4PikU/LJFcSZJ65ukIx+DVQjivDGlJrGuLF5siBJYN5B7GRF/PkV6FrsE8Pic20ViLoXIYOMhWUD59ynsQH/SuI8Iw3Iu7kWfyXTLAYjJ0LeemM8ev8q9B8R2urQ6Xp+qXhRb6LEkroMjjO7jHdSf++ahoxqq55/8TYwmp+Q8e+aNI2eRmyxAU8fr24rj9Hle2ld8HYco3cco4+mea7f4iztd3f2lJlkhlCNGBGVJUqSByewrlLTz7mxliht1a3iYzO3c4AXnnoN360+hMtrlbUJ45b6Z0AG+TpnkHH0/Wuw020SYXatIyiJ7dUCNjHmFUf8AMcVwn2V57hiWOxVGD0zkDAr0bSIxC19CAoXzrMYJJ/5aL+dS9hS1iMu7CCGxnkDzBo4ZXBL8BopxGh49FNcSkSLfShpdu24KZJBOAfSvQr9R/ZNyQu4C0ujngZ/0wdK4mytU1LV3sGba014I/M9Mtjpkf0qou4U1uddrGtWaeHkW3fzrhpicsvA/eFgce4/EGvN41PnoBgKZAcYrp7zTLy1t7e3mjOZkjkjwPvqx4I/Oueit5IrtfNymyUKwxyDmkTG7bOugjRLGMJJlViRpNmA4BXnHbH+NdJDawW/ggSykIkiykF+OWjkwPrgLXKWZl1KGzto4180qsa7VA7Ac/TrXofinQY/+EFtYnDgLvlVd3pE2M/go/OlFE0Fedzz3w+SdUQZHEU5CgYwPLbnrWv43QQ6jApRWIWXBwMjE8mf5isnwzGTqhEoJYW7qCp55G3v7sK2/H8TrrjEAkrJcKARxgvv6/wDAhWh2nZ/CxgNLTOT+7cnjH/LQ4/TFeibSVPHG361578LFI00Fhk+W3Of9s8V6KwBDZ9KgcT558Rk/bEADj/R4GJboPkFdAI1bweckAG0wTnjO1T3rmvEMitqqYUhBawjkf9M1Oa7drcjwUTgM20qRnOf9EDcfiKaQmcZ4bVY9TDjAItZyTj/pk3HFfQ6kMuR075r568MxJNqMrAZb7HNnPf8Adt0r6EhIxgkkemKHuNbHA/Ew7bMk7f8AVKAD7vXHeBU260Q8mSGh4Tn/AJbR+/sa674nhxZkByB5aAtt/wCmnSuX+H+ZtbU4AHmxLjuOS2f/ABw9qSQj3UMiAYU9OppDlie1MEmeFGQRyfSlUkECkWIA43AED600x4HB5qXYw5yOayvEepjRfD19qLEHyIWYf72OB+eKaE9jyLxS7eKvGV8091JFoelkW7yRHmVwclF9WJ49gM0zzpNTEUdosVnpdn+7DID5cWf4Uxy8hzyRyc8YHJytDsLnWLG1+0B0tEQyRwhghl/vyMT91C3Vz16CtxdXS1mhtNOiNzeFfKiNvHjtnESn/Vr6ucs3Xgc1VyTSjS10i1+yCOaIMNr24bE0uennOv8Aq15+4vNRNJqE6RuNPkghtziO5njW2t4v+uSOeOP42DH0Fatjo8mjX89yWka7t9KacKQNkcshPQc5ICdSST681jNpOtTwtquqtKYwoPnXBYEc8bVUM5/8c+lFwtYq67Z2um2FhdR3d/d3GrvNBLPYTbpJM7SqgtyVXGO2eafFqEVt4i0jw/fX13pT21uqRSmFI53djnlhkKCOO+SOa7LVlki8MJq+nWr/AG/T4Wa3F9GS20ffGCcjcBwTzXkeqfEOfVkkubnQ9OW5MBhFy0RZgpBxjJ4wc80MEe1J4H8OMHaTSLaR3JLyOuXYnqc+pzXnOuwWcUtpp2n3esWa2cktkwsR5kh2SAoO2Vw5r0fRdTaHwVYalqUmwiyjlmY9c7f5muP12a81Nk1HwxbRjU2t/PdGCsS7SKmAG448tuR1pIdxNR1KHSdP0uUeJ599mrW8gnm2ieXAdfN2hsd+4+7iub17Ute1bSLC+tr/AEO4B3Q3CmSB08xfukGT+IoRn6Vm4u18LayuveFUQ280E2yNHg8wkshOQSMjI6Vn6Y3h/UfDOr2j2l9bLB5d/tWZJeQ2xioIHZxnntVCNjVl8RXmk6bqMWlabdXZBgu/9Ggl3Mv3WyM9V4/4DXQeA2dovCrTxrFJ/al8HRVwFPlnIAFcT4dtNAvrXU9Kt9Xu1+1wefGtxafceL58gqxz8ocY967P4eKRZ+DkQ+ZENRvyJMY3/uyM47UmNHt0AAQEcDnj8asDce2KrxAlB0Ayf51ZU8VndFC80UtFF0B4JpmvxaxrtxfX/hV4bezeNIopJZWxIz4XZHgKO7E47Vau473V9fnuNS1TVdHgtZGndJZYgkscb5JCrtcjAGCQetGot8SLe2sIrTInWWaSYxGIRLECAiknjGAx9eag8RHw/p1prl7q6APqUiwo+lZErKQJcOX+TPQkitSBNatLibxFeva3l/q8tw4RrSzuVt4oEJ+UNHkscDnOAO9dY2u6naWb6fZ2sTatbTFpY3XYbxABmSPj5ieM45Bz14rmLaNL6N/Efhm2he5msBHbvcZ+1GfHlcEnYCArH5eSfrSw6fqV5FoTeJLF5tRVWh2xOVvS6ksrCVWAUFTyGPY4oA0PGPgka1LDrFuHt9TljHnwIw3tjuB/ER0PTPHORWl4Ov30jw5BALdbiSO4dJxFMiyIScj5GwTn0OG46VTvPCXiPU2il1CS2m+zYNp5l26Tx+xkRdmT9PxrZjbUr6f/AE3wohh2iK5jm8t5HP8ACyufldRg8ZByelIZsMgPiJPO0u1dnQ+XdxygSouOQ4IyR9CfoKi060ax1HUktY9O8iViWkthhonxwHj6E89RjPcUmo6Lp13Bb6bbyW9ndwYlgBG541B/h5DBfoRTriKPSr+z1a+itgRGYri4hifOT0JIz8n+90z1qSjKv9FfULKa6urjT47oKA08e4xXKdvMTqOehBJHY9q4m70+60R5ZraCUJCpW4tpgHaFWPQgcSRHsfz2nmuv1m9a4D6lbXdmJbKQq0ttIUmWMn5ch/lcHPQ8HsQawxI10xntHdbuHe/ljLAg/faINzt/vwt+HYkAteANQhPiq5QNhby1z8zZIKNgKfXAbhjyQMHkGvVMhjkMMDpivF/D1vHZfEHR7yzVUtLx5YZEHPlMYywCnujYDKfQEHkGvaPKKAAMfc0mgHbsMzZJz2pFlLHheKaoVRycnJ5oZyRtUEZ7mkkA9jnBJwBVXUb6K00+e6lJEMKF2I64FPKBh80hHpXPeNSR4UuFcsVMsIY+3mLnPtimJ7FS3i8VapCNQTUrfTt/zw2bW+/C9QJGPOT7Vo+HNVvtTjvf7QjSKe2ujCY4xwCFXv3znIq5qN9HplkLiVZmiQgbIIi5PboO1UNA1rTNUnvP7PhnidWDT+bblCWxjknqcYouZ7NK+o7xRdXaWlpZ2bGCa+uFg88DmNcEkj3wMfjWVLpM3hi/064s9RvJre6uVtrmG5mMgbeDhxnoQau+MWEmmQ2sMbyX9xOq2ew7Skg5357AAE1lNb6tZa7pc/iSeC7tt/lwm3BVY5yOGZf4sjgHtRcTbTO4b5CBv5xnPrXGQ6Xc65r+uGTWtVt0t7lY0jt5tqAeWp6Y9TXasCcAhSM9xyK5O58D/ar++uX1i/iiuJfMWG3kMe1toGSf4un0plVE36G5o2mNpVm0DXt1d5ct5ly+5hntn0pdb1L+y9Evr4JuaCIsqngM3Yfnis7wrdXscuoaTqE5uZ7CVVW4brJGwypPv2p/jh/+KXuuD/rId3HbzFzSYRa5NDEutKv9C0tNffVby4votsl3G8n7uRCfmUIeBgHiu0hk3gMNuGAIPTIrH8YFR4T1XoA1o4H5VrWEX/Estl2nIiX+QoCFk7HPeKbbW5re6Nvfx2dhFbO7NCCZ5GCk4yeFHuOa2tEZm0HTyzlmNvGSTnJO0d6Zr6g+HdSHf7LKP/HDTtGDx6HYA5IFvHwB/sige0y5NKY43OSQqlsYyTXEWGj32vaYmtz65exX1yDLbpBLtjhX+FdnQj1zXbSugid3ICKpZs+nevOra08SzaFcvorwwaVOzPa28h/f+UeSEbGFz2z0zQ7k1HZnaeHL6XVtAtLydAsskf7wKMDcCQSPbiszXNG1LUtZtUivru0sfIcyPbyAZfIwDn2zWv4dubW40CyksUK2xiART1XHBB/HNaThG5zk+hp3BK8dTik0m80zxLo9vFr2p3SuZJJknkDKY1HsPVlrtGDN904H865/Ti1/4v1S625itI0skPv99/12j8K6FiQvLYB6EUDguW7Rwn9lXms6nq0x17UrYW140EcUTgKBtU9wfWuj0nTpNPszDJeXF6+7cJblst9PpWNeeDWnvb+dtav4BczmZI4H2KhIAyccseKs+Fru+lS+07UJfOu9Pm8ozYx5iEBlYj1weaRnFOErtF3W9TfStEvL5F3SRRkoH4G7oP1xXL3lhqnh7TI9ffWLu4uUdGvYJn3ROhOGCr2xnP4VteN0f/hHXIYhTPAG78eYuaf4vUDwdqq4DA2rjn1xxQaTuba4ZQ4x83INc14quvEWmD7Xpk+nCDCxiG4Ri8kjNgAY45yK6KyjCWVuMDIjGfrgVzfinVrG18Q6PbahdrBAm67cspOWXhBx7kn8KYpaRNTQtRbVNGgu5lWObJjnRRjbIpIYc+4rWBx90E1yvhXVLDUPEOsWmn3UM9s7LdRlR3Iw45A7gfnXbRwBQeRyOKCoO8SqyHIJz7D0ppBVuaumEYxkZqJlKnBIJ9SKRZECQBkdfTmkYKpztbNSFzjntTyu+MjGeO9AHPeLCw8NX0i43Qxicf8AAGD/APsteU6BKLXwrrceeNI8QRXSj0QyKM/lur2i6tlubSa1lbKyxtGw7YIx/WvGPD0H2jVvFGjjGdT0hJUGM/vVUK3478/lVRE0a3h9YrLVtajWMKYLj962eSgyo/AeWT+NebSRTNoF5cTAh5VZmbHHzNM/9BXoWkapHbeIvtrBz/amnxyDChwGZQeQf9oSVy1havrPh2SxhXybuEbGg6biylVJJPAyePoaok5+OR9Q0ma3OI7koXkIAzIVA2up69Bgj3z3othLcIj3MTLC25Q6DGNwCnjtiNWA+vFb8ugTWWkp8vl3UKhhMpyEfv8AXkgMPRx/dNSaOtpqri0uki065wItsQzGTyGwvZjz8vGaAM62nYSoZAwcANJEeS+SJSD/AOQY8V0VteGKIJLMpli+Tzc4A6x7s+xNzJ+ArRXwXZ3RE9kvnSDG9ZDjewIJ5VuTwDj2qqPDdl9qitvIbzLVUe53PIExg4GdxyPvZ/2d3rSugNTw6qG3uNbntDF5hkaJWUAxx5HfPHyKvHohFdBpRjdxcSKQ0cKuUkGWTK8An0wv559ajMSoPs+FTewkO/LbkHGOvHbP0eo7nzBbs3MksjYWIDkMSAq4PHJ2H2y9K+oihqsjvHaxWziO6eTdtwDsBJ4Ix90HJ47R/SpdU+y6fpEcCwMrHbGuGDbmyAGJ/wB4Z/4A3rRBp5S8S4lkfevzSHI+ULjoPbC5x1x/t1lCdNc8U3jD/jyslW2BQ7QzuSuc+2AoP19aoBdD0F9N1hG3hjNbRrGXbJQg/wAXqfmH5mt25U2F5HNBIkaJGYkgJwuATsOfYIxI9zVFoAZ737O5KFv3DqwCgqqOSc+4NRailusMe6ye6Nm/UtjcFKAjHfOWH4H1pXQ7MzvE2lT284uLOJ1uLcB4NmAzxnJ2k9SRyOeye9c8t2ZLlpVnklnAEkjN97sACP8AdI4/vSgfw137m4kWO4SURsm6FpXU7WYHsR90jY3Xrvrgb/zNO1i+h+ySRxSTCZTH1UOobp1ABZwD6lckYo0YHUQX6IqtHIQrLuwFzx61ckVLuIu+7dtJLYHfmuMj1Q6fKy7B5I+YAZxGD0A/2eePYqe9WItclSQFZWVd2WwCcA/5/WpsI7HS/D1hHZBngjlkkO5mkAYg+lWbmGys8t9mXKjgKozisqy19UnZCWkDH1+6fStuC5stQQsjgqc5YdTUtDRivfQzP5EUJYgZ+br+VLIAihgcBTk4Hb0rYGm2NtIZ9pMjjG7J579K5fXtXFqzwrCYwejE9/Ye1LlE9TPuda2rICc9TjOFP4VzsJe/vo7dF/eSDoR1UDcf0B/OqE91ulMrEbc8gsRzW34atES4kvLpisoQBFzyvzNuz77Yz/31VpAlY908MtFJoNrHGciBTAc88odn9K1xGyKfLAPfnpXL+B5QbGS2ZsvEUcn1ygDH/vtH/EGus47HigtCA5OcYpexp7MNgxzSbhnGOaQxhHy/eArg/HQlutW8OWK9Ddec4z/CpXP6bq7w8kjFeVeNL2QeLby5Vsw6ZpjhQD/y2ZSFH5zL+VNCZh6vP5/hzwhC53LqOry6jLkZ+QOW5/Bh+VepeFbNrbwvp0cmd5gWR+f4m+Y/qTXmHiSykHibRtDiwRpmjiLA/wCekuIgf/Hgfwr2qFFjiSNAQqKFGfaquSBBGPT1o6DJII9RTnPzjgnnpSkbhxwc9DU3ZVkeN/FBUOqXAZc8wAn+6Nj1pfCtdknygYCTg4/3oqzfiow/taYFSAGhJPHTY5q58KmUSAjJBjnwBxj5oqsg9YYFhwR+VfPPjON7fVXj3qMeZHg5GdszgfoVr6EzkZ5rxb4qWWL4ziIsVmDDAyPnQcf99IxqVuU9jvfh2/maLcHjBeHp/wBe8X1rZ8U5HhfUuMj7O+fbisD4bsJNFm2nvCeD628X+Fbnik7fC+obskNFtHPckD+tD3GtjwZWV/HgxtVF1BnYewct2+hr0jxNZl/A+lRMCri0aMrjnJi8w/rGK4PRLVtU8WagOgMkiBgc8ySeWD37SE17J4ms0fQGDcLbvHJ9FBAb/wAcLU7ok8i8AmL+3G4+UPBgg/8ATeOvUdev7mbV4dIWwMlnOMm5K8IwB65xnGB0PTIrzLwXF9m8TTW5BHlvCrD0K3EYNe6GEBQAMkDj2oYndqx82eNbR9J1K5tpYsjeCjvn5Pl+4D6DORVPwtdpGEEbGO6kUxZZFaNgSoG4EdPlP5V0nxRu3vNdu4Gs2iaKRV35yGCp/wDXFc9Bot3ZQGdomCLhdw7HGefT730pX0Oep7kdDD1K5uYdQlilCrJGPLf5QuCp29voK7vwTZ6nqEx1S4naW1Rx5i84kIAwMflXB6sjNc+Y7GRmYsz9SSeea9O+HPiGxttONhfP5YL7kZzhckINqqO55yaknm5oo6fW7Kxi0SYRxxRSEqqHYfkBkG4c+5zXiFvcXemazHPAw3xSsysRkEgk8+te8a3JDBpkrtcQrHGYizFgekiBj+efyrwWNxdXzhP9WsjAfie1NaFN8quegtJ4o1nQPMaP/Qba3ABjiHyhQCMcZzxXn94ynVfLiyyCcsS3Vue9eiaD44v9HsX06SJLq3bKKjDDLnt7/SuJt9Mmm8Q2YmPzzTqAGAwMPtOR+HSpTuyYS5o6PU9B+HHhZrwR3VwgEbqCuByEx1+p6fTPrW34l0W90y1v7yfUDcJMZSkbLgR/umPHOByf5Vr6Bomox2+izWd0senxW6+fD0aRjjPP4f0qX4htnQuMZCTFie/7sjj8xVLc2p07LU8v8DWhm1lAvOWjQkZ7yocfkp/Kt/4l6f5OpmYfeEzMMD+9Gn9UNJ8MrIS3kbDH+seXcOuEXH/oUorb+J1mXtvNUDGxZdx/2G2nP4S/pVmhJ8LwV0wbzyYmPr/y0NehyElHYV5v8KnV7MAMCfLfv/00z/UV6RKCsTnORjOKgqJ85a2jNdQ4wH+ywcAc/wCrXivV3s8eEdrfKv21kG705grzaZFufF+nwOCI0WB5M4IAVFY569ga9jawlPgYQSAidbYTH/roPnP/AI9RcTR4z4afZqp2NsZrWfCg9f3bf4Yr6GCgZJ4Ir59tYY7TxlfRKWEPl3LIw4AUxuwxj1BFfQi42hhyMUFLY83+KoVrJyeQscf/AKMrK+GUCm937QQ0wbLf7ETA/rIK1fik6mIrnafJiAJPQl2I/kfyqT4YWAjtI7nKt+7d+AOrvj+UQ/OgTR6UhBXAxxS4Gc4xTUABGOtOJ9zikUIx28jrXE/Eu5iXRLWxmAMd1dKJAThdiAud3tkLnHNdnkjuBXmHxMklvvEOjaejiJRDNcTTHOIkyo3H16YA9SMc00J7HMiWfUZZbezZYbZCHmuJRgDHRnAGD6Kg4HQAnkdVonhTydOkuWsp5YlwRb7wk90ev7wkjYvfbn65NZNuiQ2waIPZ2ds+IgyB5DL04HR5j6n5Yx75xs6dqVzeyyXrgy29kpcj7UI4ywXC73PMrerfdHbOKbErHQag2p3GjCL7GHubhtuLS58tYUB43S4B+uBVbVdLgitbCyXSri7K5It4ZCIc5GTISecHnnJ5p8ht9autP06NbeSGJPNureG6OxAQMAhR83J4BwO9WLDTLttZk1PUSqE/Ja26zsyw9sjouT7Dj1pFCX98GjvtOitLg4t5Fkl8kiKP5eBk9evbNeQeEvh1da9fQ3N8SthG26UDlWwc7AehPrjOK9J1WPTdLuNtxpl9fW+8NdXM0kkgHdVAJy5zgbQMVizR+Jp9ZOt6ZpWoGKIYtLO8uEgjjGMf6oHJ+hxVbktG9P4pt47jUre8097fR7OPyWkdcbpAPuqO/GMAemTXI6Zez3nh3U9ZhN1oszzx28ZaOMLDAp/dlS+OMcHnqTjrT9aXW7+xmaO5uP8AhJlQyxRSx+UyIDhhGpyvCnO4EmmaemrTeH/7O8ZNAbjU2cRxTjErrGgZOUGeGz19KRJo6Jql9c6Xe2tt4p0e61C1j3+aEPlOpcEvIMDB6jIPeqo06W5a5kE9q8ktpOk6S2ZeBuMgpLtyVyBwSfasHwbdeDLB9Tu7U6otrN5NkwmCkN5hPAxzj5ec1L4diOneI7tdBi0ovYwzKFjmmMu8ZUBt+F64GaoZjaNB/ZviPTLifw7ZNE10sJu7Gdyilvl5G44znoQK6zwKqwnwtEiFUXVNRRV3ZwAhFaD6l45tvGEds1ja/wBjtMjPL5KcR43HJznIGRn1qp4S3TXvhqXyPLL6pqTlCemQeKTHE9jgHyge5/nU/wCI/CoLdP3Yz1Gf51YAz0rLqUG4UUuPaiizA8F8YaHDrGpaTq8PiyzsbaS3EcdyC481wSSQegyT3Iq14hnay8AadcX2mN4hSPfC0lwU45wJSU3N0GMhh05qhefEHS/7L09tc8KQmPUI8TRxAAjZIw27WHvnOQeTWpFrFp9q0Q+Gruz0+K6gISwurJg0iGRhtEi5xzn+dbEEWlo3ijwHBZ6QZPD5k8ydUhDGEqp2sC/B5JLckng9RT/DdjPovhlLa/1J743N0Ta3dmTcRWhXhG3/AMI3deCMZFbl1o+oJLp9xcSRXulWcYbfGkjXJYliSojwGGCAcgjg+tST6FpFvqsdzo8SLqlnBGIraaaWOOKNiSCVX3Y8UAW9I8Y3V/YxRTWAt9aQbpdPm+RpkUlSYj0PIPB/+vW3rFtNqVjCBYRXERw7w3DtE4OOCrDO1hk/41iajZP4m1CTStQ0++so7WSOaG/gkCLJjqQ3J6npwT61k/2reie4mttRl1WHTpmjBsty3UIz9x0YbZuPYHjOallLY6nUo7W3XT7ZILS8vYyJIobyYiYgd0c8lvr1q3da3a2Jtkv1a1+0LnMuNit/dYjOD+lUI9Y0bXvssTqk9rct+6lkjGzzQfuc8rIMZwce1LfWtvrjwwvbxX2lyZVbm3f95BIvBz7Hp/OkM5zxHcTXtzCUthaz2hMUoIVWAb/VsGxjyz05yueGHcc4fOtZjdW8U1vNAwM9sqYMbA4EiA+hOMHpkDlTXT6rEtrevp8IacQgi3jl+8ysu5rZieqMobYezLjtWFqEzF0MEfmT2sQKTscfaoCpxv8AcKQD6hX/ALooBlnSpI7nxFpU8DpE5ug5TafmyrbwPRckOvtIRXrQeRxtZtp91rwrwsjn4n6Xapva2j8y5QMeQhjO3PvlgD7/AEr3RWJyCePSgV+grI23OB+FCuAVVn5+nNKpOD0Hse9JgKRnah9P/r0hjsELwVPrxVbUrGHVNKuLKbOydChPpnvU3mqjHPJ9PWpP9YvUD6UweqscdHrOv6VCtjeaBd30sQ2JcWrLslGOGOTkH1q94ZttRiF9dX9mLWW8ujN5PmByi7QMEjjPFb7MynBHI9aVOnHJ70rGahrdsw/EtleTCxv9PjWW6sZvNWFjjzFI2soPY4PFZ082peJb2wgbSbiws7eZbieS5IDMyfdVRnnnBzXWkZ9c/wC7TYwOR06jk0WG4X6jhjgbelc1eeI9Xs7meJ/DN3cIrHypLWRWDjtnPINdPkhsBqYRvJz7CmU031MTwxYXsJvL/VFRLu+lEjRIciJQMKme5A71pa1pq6to93YlthmjKq391ux/PFXsYwAKey5HvSauJRSVjz+WbXNdtYdEutInt23ILy6dh5ZRSCdh7lsdO3Nd4kR8v5OMDAzUcoIcA96nz90A4GKAjGzucz4mu9X8m806y0G4uklgKLcJMgXLAg8E54pvh2/1gi1sb7QbizjigCm4eZGUlQB0BzzXVEA5pmRjbzRYHHW9yncwxzwTQuSBIjLkcYyMVytlqmsaTYRaQ2iXU91AgiiliA8hwOAxbtxjP0rsniVlwSRj0qMxAABR+dMU1fqUPDunNpGi29nMwaZATIy9CzEs2PbJrSlzGhdVLYGQAeTTUXP4VIqb/vDn2oKSsrGL4Tsbmy0RDfIEvJ5XnnGejM2cflituYKxGOw6+lSbOmKjmDLgp0HJ+lILWVjk7zxFqdneSQy+GL+XJPly2zK6OO3ORjj1qz4ZsryGG7vtQgEV5fzec8QP+rXACqfcAV0GAW3bBn1pNxyQMbvegz5dbsz9f006tol3YowV5I/3bE8BgQVP5gVzF1PrXiC1i0ObR7izkdk+2XL48sIpBOw98kcfWu6VWLY4pCQsgBA/OmVKF3cgIIhIVTkA4AHp0rkvD6and+I7651Tw7cQi52iOWdkZY0QYC49Scn8a7YKvXb78ihmIYd8n60DcE3c43VBf2Xiuxm07w9cSJCGjkni2hJEYDj8CB+tdqSdgwMNjoaarZO49OxxSMfkJL/iaAjHluPIYnO4D8KcYwep5pit8g5z70u8no2PpSKGGID7wBFGCBjBx7UGQkckCnF+Apfr7UAQsFzt2c143qRXw/8AFHS7khUhe7ltHA4wsw8xc/8AAnP/AHya9mc8k9Md815L8XdMdoPtUA/eGNZVbHO+Fifz2Ox/4DVITMPUpV0JluX3g6Xdz2zKuOYzmSMY9Nsjf980tubDUNPgvdPm2XSFRaXMC4wQuWVk789R/Lvoa35WqgaiFEtvrGmpdKu3rLCMOox3MTMPwrz+88PXGn6WmpWk4e3XKTjzCvluMjOQc4z69CR61RJ6hDdCELb3iIBKMusJ81XXvgD5uc9CM+5qvf2GkmdUkSLbCuGheJEO0ZIJJIKnJ469+OmPLYfE+qJCsKPcIpYFy0j7voCCD+talpe6YFL6rd3Et5LnDKH3RnswdgSTjIPB9hSaEdlazR/YQYvIjRFBuJFd8RnPQcbmOCAFzjLDsa2dOKyRzGFJGLTFpJCu4u/AHsQMAe+OB8wrm01eCCC0mlEot1AMcbLzPj7pIJzjPT1PPYmumsIltNIjtmRBNI/mEAkKh7DJORjGCOwU+lJobZajvZZJ43SWNEjQkhozt5Bwpz16n8z6Vlx3MepyrK8kj21tKdkjrkyyDjgE/wAJL/ix/u1leIvERu7hNI0xJvPZVaW7P7vbz8x5HDAcZHTcevFaIkFhCJnY7li81lC9FB64OCO+ATknPfdQINbvbmw0+KxtGB1S9+WJUQ/IvAL8A8LgHB74Haqnhm0t4IZruxjJgDtCBuyxYBYwx+siE/jWTpt5Pcf2n4qm87YgMVpGflIjHUgjPJYfic+taugvDYeDpPLmEF1axzCcKu9y+XXK85+9sNPYZtQva3kTXayxyudzbiBwrIyADtngdqb/AGhD5M0Tx+XKsshnVz90EK5Oe+MHpXPeGZrNtKaG2cKsCrFO5JIDs2c/XCuTVme3lVLqbAcP9pG9M52lGwTk9D2xzRYfMbyLFNYSC7hxb2yZkAZRlxtVWP1w1YHidjYRQahKCIopUguFVM7Ym4Dc9cMoI65Bx3rpbZZpZWtJLfEVwqh9xH3czFdw7Y2r+dZk6Rajpl5aO43zWvlRI/DF41LoOmCPu0WEZenmy1CX+yrqJDkgrIFDjaw+Xa3Uxntn7vA7CsHXdAudEnea3Bnsu+FPydj+pH5kD7prY0mRSlvZxJs+zxefZyTLuJgYYdc8H5WGevAYHtXQW8gvI2gu1Mok53yfLvTawAB7kA4/Fye1DA8uTUNoVwwYqMZHBNbuhauBMqRyBABuPPX2o1jwhvvH+xv97LBCAhxnqe2c/wDoWP4DWO/hu+tnJST7oDbh19ufzPsPoaLDPRrfXILi1aLzBu2kBgw/yK8+8Ran9punVRlwT93nbwO/pxRYaLdXlysZuGALEY6HPpz3J4/A/wB01dvtPt9NtcwlGO0sZQC2/wCh9+MD0K+ppJCOKtZ4bmRDPOVKOHAZeGABOM/kPxrqU8lYo3eVCpJiPzdSAqj8fkf8/esexhsriKOSdZ3tHxkrhpI39N3909uvoRU+oaVd6WAVMUkckgZGU/IRz1UHluvTjNUB6x4G1SN9cVRLj7VA4Cg5w24TY+uJm/I16VnI6DnvXgGhag2mXsepSaRfW9xb5bcsbCGT5CpypHGQccZr2DQfE9jrG+HzViu4seZCzckeo9RSaBM3NxXqQOw4oSQ7eRyKcWDehx7UwKPM4PAqSmyR5QFJIwBzXkNqx1rWTI6Z/tbVEH/bGL98fzHlCvQPF+orYeGbx1YrLMohjOOQXOCfwGT+FefabdJo1pqGoSxlRoumYBbnNzP85H1A2LTSFe4zw5u174napqQ+aNr7yoyemyBc/wDofl17JtPAry34R6W1rZvdMGDLEFOevmSHzHP12mMfhXprOQM8n1pMaRKV9fzqLlc5OTUqPlAR096TApDPFfikytqckm/GJ0iKhupWLJ7/APTQVe+Fc6+bECw+dZ1H1BiPT6Z/Kruq+DL7VZFa+0m5uJFd2Zo9RRFZmbJONvGeB16AVLpXhPUNIuYpLDSpYZPtCSlptQV1UDIYYCc5Vjx9K0IBvG1+WWAaham8MHn+QLJsY2b9pbf1wOuKu+PtHOoabE6JmWeMwbv7rffjP5hl+riuPt9Iu73xPFdBG8t7SOCFi2AztDhvwVTuP4dzXr95p8V/pslpOMxyRhGwcEe49wf5VPUe+hxXwumA09os4d4Y2I75UtGfy2rXSeLpFh0Q5OC80eMnA+Vg5/RTXIbdQ8JeILW4l0q5msy8gubuzUuhVwDu8scqdyqSOnUjrVnWdSn8WXkVtpmkahc2McLhppE+zpvbCnlx02FhwM/NSDyMj4Y6RJJqAup1YMzm7YdsDKx5HqSZG+iivU9Qtoryznt5gDHPG0b+4YY/rVLQNETRbAREqZnIaVlG1c4AAA7AAAD/AOvWsQCpyQPwoGkeGCCfS/FrzmNzuiYyHb1miIZh+OwMP94V7ghjeJWU8MARz2Ncz4j8PvLMuo21sbuRGV3tg4QuQAAyk8A44IPBH0rH0rxo9h4bW2v9K1FNZgjaJLf7K7F2HC8gYPGMnNO4mjmvGIXVfEscSZaAXMk0+HAASMIh/WMjp1Irp9E8O6pLOYtWjiexdTMrqAHWRuSPXHzH8qTw54curmaC+1Gwa0KIgaOVlZ5GU7skDgLvJbBOSceld7GH5JJwOPei2hDjzaHh3xB8F2dtfxpZ3EazTo2yJflJYcjjnqNwxxzisDQ/DN9f2u+3GVZEc5RuhBHUA90YfhXvOs+GdN1iQXE8WLpEAinXhoyDkMPcEV5xq+mX+k3cFtLa3tnaSO/nX1gDJGeQwO1RuXncdvYsecZpGbpXTON1fw7q9nbAyD5dxO3LdANx6gelVtJ8J6m1p9owYtpjbLpx8+dvU+gJ/EV6ZfS3viueOw0/Tr+4sI7XyjcyR/Z42ZiNxO4Z+6AOBn5jVu48LL4W8NyKbuSdprmN3JICg4xwO3THWgUKKWj6nLeCE0qfxFb6d9qju3lVzJttmQggAjDE8fgBU3jzw39h1lL6DbFFbPHcKi5HyE4bH0dR/wB91qfDDQJ7GZLmeHZPt852IGUDKAifUjLH8K9A1/R11ex2oENxGD5W/lWyMMjf7JHH1we1JKxrCmkM8Msr6HGgx+6kki/75cgfpiuU+Js7C3S2jTc/2dgABk5eRFX8eG/LpS6Jr58NX17Y6tpeo2VsRG8LtG0ylwoRsMgIOQqnseuagEGo+MNZluU066t7ZZwYbq5QRoqIuEYKfmZss5AOBkjNM1LngDSzYWLsy7WVfIAz/EDukx/wNtv/AACtbxVYi70lnk6RZ8zHTy2Uq35ZDfVRW/aWMVnZw2keBFGu1R3/ADp7WyyqysMowKsp5BB6iqTJ5TzD4bxNYahJZzKFljmmhbPqfLYf+gv+VejavcC10W9nODsgcgHuccD88Vxuq6Xd+HZmvYLS7uRHJG6z2yB2ZVP3ZF652sy7gDwR6VavvFNvrAtLHT7W/u98oaYR2jjaF5AJcAD5gOp7UmgicvoelNdeMbt4oz5Jk+yK/wDeVAN+OpwFGOuPnFeueXuX5k4IwRWF4W0H+y4DNPGEndSFTIYxgnJyQOWJySfoO1dHn0/WkU1c8W1rSBZ+LrPy02xbmsnJHHzKRH+aMo+oNeuabN5+j2k3QtCjEe+BmsvxLoJ1CNZood7qBvjDBS4BBBVuzqRkH3I71j6b4tstIjurDUI9QtmilJgjezcsyEBsDaCDgkjrQLYwviUGv74WNv8APPLNDAo/3VdifylFdv4QsIrTRVeFGVZsFd3B8tQET/x1QfxrmtN0mbxDew39xaXVv5gZ5nuUCE7zkqi9egVcnoBxzXfqpjUAYCgYGOwoBMsLjt1pSf4c1ED6GlPvx/WgY4sq8YrzPxwol8VR5lSONLJAD1IO+Q7vcKqlsd2C16O/AzXjvxbkmtPFWkvEGcXFq8WAueVfIx780IT2M65vhfO+xzZ6daqIiwGdit0jXP3nYgknvzngVo+H/LTUYJb20iTSoI/OaNyWxkfuyw/idj0zk8cAADNC0e1guY0lgFzZ20gijjj4NzMRyx7bc7R9Cg7mttZGt5o3aaJ5vMby5nOY/NyFknYd1Uny4x6jimyTvrS90y1a3tEgW1ubkGU26r8655y+OnPc1Tt1t7/X/tU1lOjJlbeW8kwGYdTHEenf5sCqVlo0eh64Giiu7+7uuZbmRiBFF0JLYwSSOnX6AVoSvotprMN2SkmoXfyxPnzCFAOSOoRfU8CkWRaZb3ia1M0sd9cIQQ93czDbx0EcY6fXFSXfiKC1N09xBLDaQN5aTMMGeTPKxp1bp1rm7/xo7+JbaHTrw3Edw7Q2rJEwtwy4DbyMmQj2wB3qW807XBrUD20kst6v76TUJokaFk7xRruzGPcDPvQhM5dZr3xh4iXUr64l0qCSKazt7S8HliRJFKjac5ZiSCeO3FLZ21xpmqaJZ2t1fala2yx20q2ao8O8sfMZyST1YjoK0pfDdvo3ieHVpdJuLy9luD5LWkjSRwqWHzv5hODg9uKraXpnhbSPE1v/AGfpN1eXBnKSlImm8l9+N7SbgoHsASKq+hJkX2qw6NcW2mW/gq3kmuJPtE0MSOfJblYyOCM7cnp3rotX0fUbiHUQsOrQi9umBZLmKJYo0bORnbjcfqcCsb+3dXXxPB5eohbiW68tDf6ijgKWxhIY+Af97Ncfr89lq+vXkd14ov7lZrlxFbwQOyjL4CjcwHcD8KQHV6ofDOjKEu9YL6hLp8NtIjyuSiBVOcopyWGMkdvrV7wE0T2/g/yQBGb7UNuAQMbeOvNcB4svfDEniW88211O6eBltgFnSOP92oQYO0n+Gu9+HeBaeDQimNftmoYRm3FRt6Z702NHtUBOwdvWrK8VVtx+6XGfxqyFyOp4rPqUPopmD/fFFMDxXTNC1ibQLNLrWxcm0dp5llAbzYnAKKxnXC8gjoetTanNOvhO1a38MPM8zyxPb6deqphQNkYaMYOfTFUUS7um8TWD+GNORriMviPUctcOj5Af95leMnt71mtoRvPBlvF/widyWt7xtsFjqQLKGUZcMd2eVxitCbWNTVbl38T+H9MEviLTSkFvGoiG6I5wxVzlSSOhPPTpVnTPEGtajea1c2mu6fqlpbK7Q2jAxSI5bCKWYDA6jOTWpb2VxF4r06dJPEVtELSNnj+/agrHja+P4uOeOTVq20oT6Hd2tw1lqMl3MEbztOa1LorAYbaMnByQfpUhvoZlvqF/p9hazXMEmnaxqE4gT7XCblQE6B3j2nBJ43buldGWmutUgi1HS7S7ggj819St2VhHcAfNiPls8jHemIUtZbRILkWisn2a3tXnZFbaeWCsuSQoHYdTzTkNswneytDILiUrGPL/AHNxIf4y8W75eAMsOMUDSGTXcVndjxDayrJbTMizRr96SLH3ym1SrJye5xn0FdGBYabch4wY21CQKSpO1pNpOfYkA896xhBcX0Qja3RrZ9yXBkHnLMXBBRXzuRVbjJXpRpk0L+HdPt9XRRc2119lUAlv3sZIXBHJGB1OKQyDUbWRNGCXg3axKXhtbjAZnMe6SIsR/u5+pI71ytxGk9ypA2QbWkC4/wCWbbJdv/fMswrt4ZNghTV1P2oXVxNbA87Au7B47BCOvrXDxPi3my3yxaQ0jZ7Yt0H5/vBTaEmR/C+ykm8a39y+W+w2YgJ9GZyf5V68QD1GMdStcR8J9OltvCb6jcL+/wBSmNwCRzsxtXP4DP413eActg7vQCkMjRVAJDGnNuGAxB79KULkbiMDPfipCoYqx5FICJQGBwp49DSZIICkg/Snv8hJTHHbvTPMyxzyfc4oAViCmCPnxxXnnin4fax4g8Qz6laeJ59OgdERYYt+OBgk4YDP4V6ERvBwBn86iG9SCSDz1poDwXxn4T1XwhpaXk3jG/uZ5pdkMQMil+OTneeBXr3gfS7vSvCOmW+oTO90It8pdix3MSxBz6Zrz13Pj/4uCMfPpGiE/wC67A9fTlv0WvYsAD5SwquhPUXbtc8g09CSccD6UwMdgJxwOTQpLHB49xUFFn+dIBuFNLAjg8DvSoMZ5PPPNADJWVuAaRHVRjn6mh42ySuOnpUasWGG4Po1AEocDPqegpylmbOcD0qIgjGU69D6VNGFC5Jz70ADLk5xmo2iwcgDmpecHDcU5CCtAECgrnnNOXcXHpUhGOeKTcARQA4jFJTjzzTaAGMgJ+6fwNI8S4BxjmnsSFOOtN3NtHB3UAMUcZyDmgDBLH7vbPWohdW3nmMTxmQfeTeMj8KkYHIO4kY6GmAobfkYprK23BYAU10faCpGB2x2qMzQxzqjyIsr/cVmGSPYUAKCQwUZ29ck9KaIm2gljxU+3A6YpnRjknnoD3ppgNxgA9/rS9gecH0qQIpGSvFCY3ZI74zik3cBCRnbk/lSs26M7V3EDp0pN7Fs4HNAJywH44FICPY5UrtAH1rnPG1ks/h6aRQGa2ImKAZLIMh1/FC4rpSu4ZGSPpVd7fzHwy7o2HzKRwR6U0DPFfDk7R+Eb6xP+kXnhm9F1CP+elsfvAexUv8AmKiDWmmavPplyHksbxgIiCMONuVPPX5Ch9/mHPNXpN/g34jWs8+37DcH+zbg8cxsMwsf+A7R/wABaqHifRGt7W5sdubjSpBHErDPmQnLQH6YLxn321W5DMvWfAs1pcw3ug3Sz5YYgB5IHXafTPY8ehrDub28j1RrhbK2e4D4WW4tiwLdOFIxnI44q7a+JtR0+GJbZkyVAQzDexBYHGT7cZPBB7GtKTxwDbmaWyKSxpjcshUK3OMYOe54yvfmmIk02yuIri01fXJogISZZTPjcGDY3MuOAOwznIUYGDi3rXii51W/Sy0mdjAYyC7nYeeXPT5R0BbHrzzXKLqmq+IbsfapZY0ibd5kpCRxjOQcDqewwSfSrQv3sdPmjtoWjLPjz52Bkdh1JUd+eAfu9Tk8gGb7X9t4Zt3Z51uJrkjz7l8s8755Az8wC89Omf73TITUrvxJqX9mg/uV5Zn+8TjlmHPzegHA4/HJ+w3V64aHc8RRibiTARcerHAHJ7dexrSgux4UtpI4HH2tlOJSCC4bI3KuMj1y2O2AcUCOu1KZLb+zNCslaMTSxnao6xoy5BHPtyPSsjQZHm1+80uW4ZUlikWGLcMeap4b6k5P5VZ8FyT67dnVrhQ7wyeTgnbtAUk4H+8fxPNcdBHPct8kKtetIxQj1b5t5PoPvZ6fIfWgZ2qzJoNv9jhnSSaN2nuyTuUOACAT/eyF+XsN2eta93dFIjZSosUSW28YPoF98Dqw/CuUurRQbfQLW4ZyqiW6fr8oJbJPOWbHPTsK6ZI4ozdRguSbX7NE5XjaWlI/DAX9KSQjfmeZm85JAGWVnRmbduXbKygADHf9K5zWorq0m0q6tl897e9aQhM84mwR19ARWrbrJ9iK8rKsiMrkcD9246Z9QaoajKsiskbI7C/YDBycM8jZPbv+lMDI1Gf7FDPfQuRPpF40cMZBJ8rcVYN7YBJHcVsG7jgsLObLNZTE+ZJs+eBjlyVGOgKncMemKY+nf8TzUbHajLqUW8q/y+UzRlXXPIzhWOf9o1leFWlsbG503UgyyrKjRsH8zzF/iA9OgJOfbrSaA6wyxM3lTxx+YFyS53LIQDlgO4IJPTHzH+9WVqNv+4e5EXzJuMhBAC8gfjjnPqI3/vUsTT6RhLiZfsM8Yn82Nubd89M9kPUenPY1ZiuG8oQXsEYUAkSLFmNsL8vTOCBtyDnhW5OakDLtUEEcUTpIu5SGidvqGBP0+XPtKeprN8USRSwMqiYxEMm5Bkvy2W46ckjHs/oK3Z0kss7YVRcBQ+7cvHIPPUAKWPH/ACzb+9zj3KMZ4XmUhlLKjHnywO7D9T7xP61SQGZLp1zo0kdzBsa1Rj9qjVfl67Sce5AJxngg9q0f7VEL2t8khtkErRKd3zRo4wVIyd3IUA9Rx1GDViOZLa2cqGhd1wsLg52nIKep+XcOO8amsHSNJ/tS/uEdZP7OR9kURI3OyYJBwQcA5xgjjjPShgehrYy2+hKiTG8kd97LIw3kHjK47npz17c1zHh/V7dI4EvIg+LbYUfrvBCkN3AJYnI54NbCSt4dvgly7jSpSsaui58skZ2sT2Ptz9Kj8XeGhqlyuraYiwXgBclAPKnVeclh0bng+/PrQtgNu18Z2emXdvY3F2XtHJjEsrZMZ5Iy38QPT1zxz1ruLa6ivIRNbyxyRHPzIc14VpWuWunSf8VBAIdRtXBVJlwZVPTAAPQ459+tdPp3ieHSJJtTsbO6OkHi68x1MjN0Vgu7k54J47cUNXGnY0fHF7Fea7b6e04FpZIbq8wf4QpJyPXaNv8A20Fcp4mLL4e0nRLnCXOs3L6pqRz92MHcR+Qx/wABq7Ywza9qqwXGN+q3DTXR6BbaJgZBn+6zhUHslQaOR40+IdzqXlMbPzvs8GMYWCIgsfoxKj/gTUbAek+F7WWz8P2omiEc86meVR/Cz/Nj8AQPwraf5kxUjHAL4UYB69PWvLn+I2rW+nX7yxWP2uMRPHGg3xhWkCE7w5B6j+6andiPS9mSACxGetTqQoC7uT0zXmWp+O9c02zs5YFsrpmtZbqfyoyyphwoBw529Rk81Z1jx1qlk9wkFvab47u1gVSC3+ti3sc7gDz05osUmeij5evBpcqwJVc+uK88u/Gmo6fqFjFMbCS0dITNNCN53OxBG0PlccevQ16BjA4OPfFDVhp3Od8JafcCwgvr6No5xCsEURGPLQcE/VsZPsAK6P1rlVur7UdEudZl1CS1gVZXt4ogF2qmQGY4O4nHTgc066lvNSbQ7eS5nsnu7Z5ZDC20+YEUj8Bljj2oGzqQDnAOBT/btXM6Z4nS4s/Kljln1CCRoLiO0jMmHU4yT0AIweT3q5/at+TkaNdBcZyZY8n8N1Armyc+mRS/y9KxB4ktYWC3sVzYFujXK4Q/8CGR+takdwssQljdWjPRlOQfoR1pDJyQH+oo8scEnOKYhzjKk+uaeAOxPHagBCqk9KkCqv3STQMEkYx9aWgBjKAeBzQihgdw/Cn4z3NKq+nSgBqrtUAdqwfFUd02mQm1tvtEouoiI8cfe6n2HeuhK/MCOlDA9CQaErAZ2l6amn2SxZ3SsS8zn+Nz1b/PbFXgoA6U8bcfdP1z1oOOmCKAGHpjrz0pRwMUYApASwzgYoAUZzggD8KdtbsQPwoxlemaAcZyfpmgBrlgMntSdTuAJyOmakJB680nGPloAb5Z+8uASajcsOecg1Ltwc5pxIK8d6AIVf5PmIz1pjlmbAAI96czKdw2nI4yaQZ424JPWgB642+rD8KPvL6UoXHGPrTtpoA8rvvCPxAl1O6lsPFSW9o87vHCzsdiliQOlcj4kfx/4c1Sz0+48Vvc3V8cRRQOcjkKCcj1P6GvfLl0iiaR2CogJZj2A7/h1ryHwYH8bfEq/wDFcyk2VkTFaBugPIX8gSf+BVdyeU9WsY5obC3imYyTRRIkjE5ywABP51538WLQpb6NqpAItbplJPbcuR+qivSxvLDnA6dK5/x1o8us+DtSsolzN5ZkiB7svzAfpU31H0PNdNXMNtJHEiyIhkjwMgybQRj/AIFND/37FdnotnYvHNKF824tiXtIAT88UO6ND+L7m+pB7VxWgv5uj+G7rbhXlZGLditzBx9cLXd6GIYvD0E9vITqp011SNuclWY9P99uabEmbEcI1TTF0jUbtheywLLcpCdhK5wR7AkY9+a5rX7rTH1220OOznW1Oy0meyhyWPVYyw+6ighj9frXRLdW1s93qkrFLmOyja4VjyiAMw47ZJb8q57TZ4f+EcC3t3NYSSsWvFecJIjy4KsNmWwW4HI4JpFGZDe6vpz6xapaaPobQK01rlRLI6r9+QovPKgHOBWVeeI9R1jw3Z39lFqmqyCaS3m+zL9kD4wwZsAtt5xjIru5bLydYF9HZW8cyAxXFw1sXeRNgKhXJHHBB69qwdQ0U3Wg6tYzrquqmO4WZRJcR26tjHClei4OeRVXJsZk+qXtp40sbh7bQ7OG/jgM3nyg3B3AZA5PQ9OOadZPpWs+KZ1v9et5rvTJpLiGK2EqFERixDkna2CR+VMvtCH9veGoI9P0GBhb26Fbq4Mky7WOVQZ+bAHXFZtjqbwX3iK/TXNFiit4Z8G1syTGXfarMwjyTntk5ouFrGbpGhaVZayurWNlfalbRQyXa3S3ChQ6qTt2Bc53YH4iqnhmGd9YF5H4KEMVrE9wHkjldy6j5QpY4yW2jpXQ2/ikweDme+8XRl7m7C21ybFsKsYDMu0AEjkc/hS69omnS6VNBaa1ObzVIUvniiUs0kS84RHcEZZi2PRaLg9TB0O18UT6/C19ollbWqMZrhvsMQbaMsRlhnJPGfU11fgiV5Z/C0rxLE732pM0fB2+2R/niuElt9A0HQjZ3Goamtzqyq7kWq+akKnhWBfjcRu69hXZ/DzYYvBaROSguNQI3DBI9+etDBHtUC+Wo6n8atIPlqrCW8pRUwJHHPNQUSbaKOfSigDws6bfxa5pniRPBDG5ucG93SSLJC/3HJUtggqcjjnvV2Dw/bWFxrmjf8IxbDTnCTQuL5lWchvlzlsqRnkirlxpNhpUc1jd6bcSaTqUasGu9RZ5PPHIiWMfMG6j5SauWXhWGa1tbnxPbWsBAEEFojkZyAAHYsSzYVflzgYzyeauzJZYt47h4oZLeyEEsFl8sQvi20lAAMBhkBlxnv61bnivJPtQs1s0mFmF2vDMrLI7d2TPHJ6cj1FPn8PX9lbyf2ZMLqExGP7PcyMkgB/uyLg8H+9z/tVd0nVLJrlbSYta6hgfuLpdr4AxwSSH47gmkNDrHw+6YE0kwijhEMWLqUkDHzEhyfm3ZweuKvW9r5UyII7eNY49qmNACeTkHjp0PHequreKINNuBaCCeWctGNyRHy13EjJbp0BNc0LnVdakEjiYRsu5VjIUKG59M5CYHXq340WGdjJeWFvCz3E8arzJIzNkDHUk9ulZOltDc22sXMFu05hvpJbcEcs4jA49OcioV0m3srS4u9QYRJGN7M3OADgAE5PYYx1yT1NO0m11C10rTordTG9zcPc3bNg+Wpy2w57nIGfrQBBqk6PoMomnzqiQixkl6BJJFXeQBxwOSe22uTit5NW0m7S3jZX1u4WxgB6iEHdI34IAv4Cl1+7/ALa8QHw7owRYo2eS7mySkZbmWRj7D5R9WFdn4Y02B5YtQWLy7WKH7Pp6OMHyu8h9C5wfoBSA6m0torOzit4k2RQqI0GegAwKnAzyMevB5pFZD93IPpQFwxINAANpY/yo2h1KsOPQU0syH5vu4+8egrDk8T2pmkhsEk1O4XgxWY3hT/tPwi/iaANtY4gDgDAGOtVFu7KS4ktY7uCSeIZeISZdfqM5rKa11jWExqE40+1PW3sny7ezSkcf8BA+tZt//wAIvZyppk8K2ywgOLmI4aFif4nU7lJ9W4OeTQB1ZbbjBzisTxTc6rHodyuiWT3OoSoUUKyrszwWJYjoPSo1l1iyjV4jHrNkRlXUiOcL25+6/wD46frVm017T7uYW/mtbXp6212hik/AHr+GaBXOf+GXhSfw14bdL6Ix39xIXmDbSRjhRkE5GP5125GGyAD680sLlQV+Xjt1xTxtLfMufQigZDnI+U4p4HlgMTTtq+Z8y4NKY93Rsj0NICVCRwOfrS9RxjimK6gA8ntSeZ8wUKRQArckn+RphVjlu/0py8bu/HFCPzjGPXNACKu5lDZxU2MYCjvzTfMH8IrP1DXNP0kBbm4USt9yFAXkf2VRkmmBpEe4HtTCO4/GuauW1LVomn1GY6PpQXLRiQJM4/23zhB7A59x0oS5u/DaAyvLf6KQCJ/vy2w/2scun+11HfI5oA6P768GnqoGQTzTLeVJoUkjkWSNxuVkOQR7Gp1APTqKQDDt9T+NLx1OcetQXtxFY2st1O22KJC7t6Ae1YKHxFq4WaOWDSLZvuo0XnTkepyQqn2wcUwOkVgeBzjnNY2p2+o6lqUdnGXttOVQ886EBpfSNSOV9z6cCmDw9duD5niPViT2jMKD9I6RfDMoJH/CRa3kc8zxn/2SgCZ/DGg+R5P9k2ZVf+mIJP49c++azZtP1DRiZ9HuHmtF5bT7hy2R/wBM3PKn2OR9KvroN2n3fEerEf7ZgP8AOOoJNAmnUx3Gvaq6dSiNHHkfVEDfkRQBah1q0fRBq7TKloYjJlztI45B988YrHsdEj1HSpb3VIFfUL0mbeT88APMaqeq7Rjp3zWX4y8MRjwU1qLyZLe0uBcJHAigbQw+U5yWAyWyfxrfGn6xdQGC41aA27gqWhtSsjKffeQCR3xQIuWeqr/YFvqFwdim3WaUkdPlBNc9c2YPh641+7X/AImhT7VCxODB0KovoAOD6kmm+M9Au7rwV9iF+UMM8bAiMBWTeAqEA/dGR9cVc1DRtc1nTm0+91G1t7dlwz2kLK5I5HLEgDODgD8aBnQQssU7eZcsWmO6OJiPlwoyFHX3P1qO4S01WG5tDKzIG8uURSlGU4BwSpBHBH51zFt4f1+3vbe7TVLOZobc20Ylt3AiXI+ZRuO5jjnJ7VDb6J4v07Tkhsb6yaY3DzSyHKmXL7iWyrdRkYGMccnFAGjqOnXHhq1l1LRrqXyIF82eyuHMqOg5bYWOVbHoce1dFBcrcQ288LfuplDjI52kZFYN3p2tawvkX81pZ2TjEsFqWd5F7ruYDAPfAyRW/HsjjjjRVUIoVR2A6YoAkcfJxnn0pMOCccDik3gHn0px8vYfU0gPPfib4cGqWBuUCqzqIHcnG05zG59MPlc+jmubg1Ea14Ws9buQy3enK2l6wAPnWMkYl+qMA/5165eW1vfWk1rcLvhlTy3U91PWvGfMbwh42nF+pl0zUWFlqIwMFjnZKf8AeB5Pru9KpMTRyGuafLpV3PE1kkqtIWPzx4DfxBVZTkE4YY/hYelUJdSeRWAjghQDahKKhDemU28/r7V3fiLw8xtbnRrl91xZKphmc5LW+cRS/VSfLb2IPavM5bW4NxL51oI1hby3adiAjAn7x5J6dBjPpVCZPFeRQybmLTXD5/eP3PbljgY+p+lW7K1gu5BLqsu2MfOIVGAQSOvcg+nA96zZNPnLNOsky+au1SBsUgfe6kkD69O/pUqWpa6Syt83Dy7Yt5HylhzxnOFUck8ZoEbWo+Jbq8jFppVqkECABJSAWA6fL/CnbkZPvUGg6PNdz3FzOzmCIfvpRyQzA468/dyfxHeuk0/TbTSLGW4ZG+zxoGLlBuYgMC2D0zzx0OT7ZteGYo7fTZL64jdRcSPcvnBDKcJg/QgfrQBB4TuTpXhfUroSMFhkVyfvHB2tyPX5xXP2V9La6XFLZQR/2hOPLV2UfdBJPc/LyOoB7cgV1HhOB7/StVtkSFkNys7wTPhTGRkrj0BUr2q5/ZFrY6hI7NDMzoRBHCSFAwSEBz16bvw4xQIy9AheymF5cp5jThjLLKgYkj5m7/7Kj8K6Aqp0lUAdpTKiyvtIEhR1VQPcgNUcmoQpYtp+1W8sr5v7vOCfnC7u5CK3/fVX7uJ1s9NdFUnC+cx4/wBWsjZ46ZO00XAkaG4hFusoKiSdgVPsLgkfTGKydWiCwXQEkAH2t22qACpVZevHT5T+tbupiKLV7CBgArPMWZSSZB5bFsHp96Q/kay9XNuNOiuE3SvNK+ZCFBGUmGOOvJ/WgCrqEUqapa3FujF3uSnmq2RskyFJHsoPaoL9W0jxMI7WQtAyBSu7GSQxx6gfI/TrgetT69b3EEKLajaySRblUjJUKEJyP+ulN1exguTp9xbyK5VvKkl3nKg7SjfX5GH4mgDqLcQy2sU140IDRljhcjbyHAA5JBH+c1iT2V14W8mMCWXR3fEUkfzyWoyCAT1Kckf/AFjRpN3O1jLp5GHtpghw2WVxweOu04PH09a19NvoSsulXESO8bHy5DyqDnKj2HOD/d5/hOJswMO60uG9mSWO88y0kBOYTtG1uvCY44Pr9RimHSJEdltNQEsIO4RsN6DcW3cZzjBP/fRPPIq3f+Emj1JrvTb6WyNzuZrR4hJEzeoXOA3PQYz1B5pYZPEMsSNPYWPmmXYJY7qVd684YDn0+71HpTuOxn3NlpNlbXF7fXcMieWX8vJzcSDORwckH0Jx16g1c0mO30XSVgitHnnRSuyGPo5HJ7DAJySemR6jGd4osUuYLS4EokuWuQIoWd1jcoCx3eYcj7vQY610FobsaFYT3TxQGWATysVyFY5OPXo34bc0xHH37ajqlvqZv7x4LaNVX7MrfLyAMZAHO/Oe2RWXo2ua5oiwW11JIIJo90Xyl+OoBHoQO36Hmuxg0xZ9E1KKSaNQ9xDP5jjJbIWQgY7Fg2KNU02zi0RZ5S0f2QIYnRjuXd5i5x7AUroDA1XVdO8QWgXU7WFH27kk3gAcDmMg/L1Hynvn8MDw7Bd6hqssZv5XtIiUSV3bbkDO4qSRhFyfrjrmt3xd4Sils4L+zhaPzn2bN2fmPIyO3R8n078VoaFoEEiW+kxsBDJGJ72TpstQcnPoZWAOOyKB2pgTanfPpfhaW7tYmi1LxDss9NgBw0NqvCn2JGWPu3tXXfDfRbbTNG82Ijc6CKPn/lmvOT6FiS/0IrgTejxh4ul1NsrYQg2tkgXGIQcM4x0LE7B7sfSvZdIsBp+nohULIw3yBR3I6fgOKTKRfIA6nIri/GumM2kJDp+kTytPL+9WyCoAMfefHLAE5Az1Fdo6kgkAj0NMOSMNgdakqx5idI1kSwJaWt9vEVtHayuiJEqDAmEyA85wT3zkVZ0fRdXmmuUvrS5XzLGQXbXOx0e6BxGYhzgAdOwGK9HCeZjAB9acQidu9FyWjB8OaRHF4e0kXtjCt7BbRhjJEu9G2jPOOOc1u7iCMDJ9DSFgDgcmsvWtQeys82wV7ydxBboejSH+g5J9hQPY5+0X7Xqdx4WaRFsLKbz5CXB85GbckX4Mfm+gHetPxVZyONOkjmMQFz5DSL1USo0YP4My1xPi2x+xeJ9Gti4liChfKfI85pS4kcHuwO36ZFdBe2/iSLwnNa3kbahLJaK6vEFVoJlG7nJAIBA5HNAGVo/iOy0S71fSZLmDTZftEaCdImlgLCNFbB4G4kdDzn1rXXxHeyX5t9L1K21iSNVeVGCQoFPQB89cA9j15xWZqXh6VPCtoZNSkitr26S7vGSEFYnfL71xhgAxUYz6VTsfC6a5bxX+o2OpXetyRAefLGIYoRjjtgjByepNPQk7PSPE9rqzJDNaTWjzblWOfaVZgcMmQSNw5yDihoU0fxBYwafiOO7L/aLZeVUKhPmKP4eQAexzXMaF8KYolZdWvbhgjI0f2WYpllBBc4AIJz9feuuh8HaLas0sNoxlIAaRp5CzY6ZO7Jp3Q7M3kyF+Yn60kk9uigvOi/VgKzF8M6UAM2UTEf3iW/masQ6LpkOQum2oJ6nyV/wqSiRta0iDh9TtVb/amX/GopPEejRkg38Rx/dO7+QNW4rS2TPl20a/7kYFWETB6YxQBkf8JHprH5J5CPa3kP8AJasWOuaff3TWsEzifbv8qSJkbb6jcBkc1pOmY8biMjqO1VLbT7WwRnQDfjLzSHLNj1Y0AXKHCEHJ59q5yS/uvEDtDpUzW+nDiS+Ucy+oiz/6F09KjM2qaGFcM2q6XgYIO64iH8pB+v1oA6HIH3ckj1NJvYk5xVSx1Ox1OMyWV1HNj7yqeQfQjqD9asjv9aAHZYd80ZPOOtKHfYpOOaaCd3HJJ5pALvOMUqAleRzScl+e4I61LGO1AFe+d7WymmhVXkSNmCscAkAnBNczp3ijVLzw1Br6aXDJbSwmbyorg+YFHXGVAJ4PeuquoBc20kPmmLepXcACRn0zWBb+E47fQItDGqXo0+OLySqbFdl9CwGfypgaulajbazptvqFq5e3uIxJG2MZBFXiWC/IB+Ncbf8Ah7UkvrSPTnij0u2hESW8bsvyB422+hyFbn8O9dLo0M9totrb3kha4SMK7ZzzQBZYK2NwxTRFhgwHGeBVbUNTstNi33l1HAD03nk/QdT+FZh1XVdSxHpNgYYmB/0q+UqB/uxj5m/HAoA3jKiFQ5VSxwOcZNTcnoM1x0enaJd6ibPUrttW1F1Ick8Qf7oXiP271oLba3pBH2OcalajA+zXL7ZUHosnRvow/GgDH+JtzrB8My6boun3dzdXnyM8CZEafxc+p6fjV7wHoMfhzwjY2bQbJ3TzpyRgmRuue4xwPwrTt/EljcSi2uS9jdH/AJd7tdjE/wCyfut+BNaY45UjnsaAFUnBwMCk25Byc59aEckHJzzSgNtPAx9aQHkGo6S2jW2t6fAhAsb4X9ovbyJRg49lcDP0roNAudNaFbx5fL+xzOkJYkDy7lldVP4nA9xW54j08FotUW286S2R4pox/wAtbd/vr74wCB6j3rzm0mtvD+tvpOqTK+jamm23uenmROdyMG9Uc/hk1S2Je51uo28lx4U1G+vYTHeT2/2Wc4O0hZCucHt8x/CumvdPt1JJhJDR+UEiYpkEYwcdcdvSqGqJeanDqmjvGTBPYn7NOB/Fgggn1ztIrA0fxXfppsMtz+/G3Em/G9XQgOOwHBz06g0ijTGlqlxDc2k0TO0D28u5C/7vkKTvb+EjnrmqkUv2uGxsdQhZpZ45oJj5cAj3LgYIDHnAHAzx1rqLLUrS/V/JkUurMrxsRkYODx6Z/nTLjR7WeWCf7NEzxSNIu6JSAzAgnkdTnJ9cUAY0FsTeWN4YrSOKNHWPbaK7AhmwVZScfKDwPXtXL38U9n4ZwNURLnUroeXLHoeCUA4QxgepBy1b0x07TdOt11Ex2q21tIUFvEIoy7krtGCRu5xgVHZweItUu7e50y5vLK1SPDf2jtYHLFsrGOTgHaCcDA70wOO1FpZNet9Dh8TWyDT4T9rWTThjcPmlfOwqOBj8KvaRr/8AaOuXerTazok+hWwKrHJaeW8QIKxpuZBjP1roNe8La9baVcSaBrUlxfOv79L1Ek8z2XIwn06GuZfSNb1VLHTrHTtJudOBQ38lxAqOJsHczRqVKkZIA74zT0Jsy5Jp2pavFaazcjSWQM7SJEsMyXSg5VFkZcg8FeeABUPgQ+ePCMpSOI/aNRYLHjauT0GO1La3EDaisGpeHr7QtI0WN5ILnznjQJnoynIYse3vS+BJIZB4T+z5EXn6iyZXBK54yPoaGCPYIc7FGcn2qfOD71BB9wH1qcdQMCs3cofuHqKKXAopXYHlmm6fp3gvcEhW61XDTMpciCzRj1y33F4IyOWx+FW7HRNQ1y6/tO+u7iHjMUoQI7f9c0IIjT3OWbvxxTdcC3NtbalCB/p1juwwzl4iJk/TeK2vE/iI6J4Yl1dIDOERGSNM8lsYz7c1q32J9TM1q58QadolzbTwfamIzDfWxZNuCD+8C5K9Oq5HqAK5yPxwWslt/E2mpdWhPyySbBz7OD5bH3BQ+1Zlr8VNWsrkw3Nlc6igjEjKbJoZM7jwuMjHoSPxrZg8R+EfELyyXlnqGk3jJvkZ4HjbaOCWKgqy/wC8MUWC4tvBo7eTNomtQ2wYDy7PUsorAbsBX4b+Juu8V0MOoeI47QwWvheIT9I5/t6NB9ScB8Y7Yrl/+EF0zVnabR9W0+cMclIiYyfTJiYL+aGq9x8N9Zt0LWv2WSTGOZomBH/AoP5mmFzqzp4sYjqXinXYLm8jy0UEj+TaxP8AwhU6sfc5NctqHjnU7yGbRNCne4uWJe81acCKG3U9dgP3VA4GefzrHh8DeIt5a/tby3jQ8mz8lywP/XMof1rsND0bR9GSLOl6xOyYYCWxO0N/eCKMZ9zk+9FguZPhS30Czt3tGvG+yb83UzwsZb5wemACViz0HVvp19HXxLpwVUggvZ+yiKxlI/PaAKrNr0SAiPT9VkyOAtk4IP4gVGNdvXTbB4e1Vj6OsUY/8eelYbZcXXdQnYraeH7zHZ7p44R/Mt+lNaLxJdsc3Fjp6/3Ylad/++m2j/x01WF14hlB8nS7S2yM7ri63Efgi/8As1NksdfdS99rUdvFjOLSAR/+PyFv5CiwXLL6BYRg3GsXs98sYyWvJgIgPXYMJ+YpYfElg0YttCspL/Bwv2VAsK/WQ4UD6En2rm3vPCWnvJLe3keozwfO7SyPeyJjvjkL+QrKvvi5BHJbx6fouoLFcAmK5uIGCMqnBKquS2PwpNWGdrNp2saoWOpXws7dh/x7WDHcf96U8n/gIH1qA6L4du86bCtss9vyRby7ZoyepLKd2T3z175ryubx5c6ulut/Nq8sDNMLiGygaKI8ER8qd5565asC0hto5opWtruJoLl5UEZmy0Z6AEPx9evHNNITZ61L4a1nRWluNEu2dOuxSsbN9VI8t/yQ+9NfxQWRbLxFpEUzMceW6CNyfZJDtb/gDtXKw+PNU00Kbee8vozMP3N7bf6qLHaQNuY5z26VsWvxQ0u+22uq6TeWyuQhM1sZYXP5Z5+lFibm/ZS6NHMsema/c6TcMf8Aj1uWIVvpHMOn+6RWyr+JrVQdmn6nGf4kZrZj+e8H8xXNra+F9TJgsdQjtZSPmto5toH1hf5f/HaD4L1G2G7TNRRVPIVBJBn/AL9OF/8AHKVikzpB4iuoflvNB1KHHVowky/+OsT+lP8A+Et0pRmb7ZAe4lsplP8A6DXOrF41s14eaXDchJYZRj/gSRn9aada8XQt81k5UHJJ03J/NJjRYdzoB4u0AKCNTjwTwGVgfyxTl8W6I/Ed40hPAEcMj5/JTWEPEXiBAANPBIGebK5H8lNI/iDxJgCOyO/tiwmb9Cy07IDbPieHYDb6Zqtwe22zZAfxfaKc2oa9dcW2kQWxb7r3lyDgeu1A2fpkVz0d14zupMeTPErdWS2hiGP+ByuR+RpJvD3iO/Cfbb4xxkHcHupHyPdYxEv55pWE2aV7ItuQmveJ2jZ/+XayxAT7AAtIfwNZ3/CRafpkz2mi6Ttu2/juEYSP77ADK3/AsD3qFtL8O6LIov8AVwGJC+TC6wlyeg2x/O30JOazr34naB4fhkh0jR7mba+x/JtvJjDejEjJOfbNOwrm5HoOteIZVn1q7kgt1ORHhdx91QZVPqxZvpVZJdY8GTfZ2YXemykrE+zhGJ4wM4U5P3Oh52kfdrkT8WNaM8k4tv3cLkG1+yPtZcd3PKt9Rj869D1LUX1Xwfbutu0TamIYlifBZRIRu9uF3flRYLlO3vbnQZ7krAIJY42uLqwBPlTIPvS25P3T6oe/5nuIJfOjjlXcNyg4IwRxnmuH1Nhf609oQAm+DT0XPb/XTf8AjoQV3CsoUAkcdgallDNSshqOnXFpJnZNGyEjtkVnaNqbzj7BfDydRhXEidpAOPMT1U9fboa2MnoTSAKWyyAkdMjpQBWu9QtNMh828uI4lJOC5wTxnj8OaqjxLpjwWk1vK9zHd8xG3jaTK5wWOBwoPek13TP7UsDCixCRmA8xxyqEgPg9srkfjXDzfD/VrW0urTS9Qh+zTPMI1lLAxRsCUUbfR2c/98ntigD0S4vraHeHZmdFUskalmAY4B2jnFSOQSBnBPavNx4I8QQyBra7sEmWRGSVmdmAjh2xg8cgNkn1Jz7VA3gHxHMg87U7Yt5cjsqXEo3ymMRgk4zjqx96APR5fKEMglUFApL5GQR3qhb65pSaJBqckv2aznj3xecNpK4z0+gz9K4y68D+KJyzrqFn5ywTQRkyyHCttVe3ZAR9Tnmug1/w3dX/AISOk2xgW6MYgWZgVEcZwHCkAkfKMUC1L39taHren3SwXC3cKRbpkjyzFCODtHJz2IrXQr5SAZAA6H09+9cTfeENWup4rqJrSGSJYYEgSRgghjJbBIAJJbbxgDHFUR4D1uC3svKvo2uBEz3Ja4cK1xu3IQMH5Ac8DHWgZ6L5saSJGzqGcnapPLY649cUNgMflAHXOa88vPB3iKaaO4t5NOhu0thF5pmkZtxYeY+7b95lGM8YyaueH/BN7YauLrVLtZYY4wIIYZpCFcuXYnOMgE4HsBQJ3O5DKwyWJ+tNJC8jt70ZXHz9APXrQVJbO3aOOKQxruN5DjgYGfenhQcgngHGKDt+bcOpzz3pHZAOAw96AALHwEwCPauP8f8AhqDWNKkuGi3eXEUnCjlo85yPVlPzD8R3rr87cc47dM0p5BBPXjgU0B43oVxca3ph0qUo/ibQebYucLe25GNp9VZcD8jXL+INNieOPUbaOQwbCfLcncAnBVv9uMgK3cgKfcdb428O3vh7XLbWdFGy4ikaS2I53Z5aA+3Ur7ZHpT7iex1rSh4o0xGNndEHU7ZRuazmAx54XvjkMP4lNWS0eVXfm30jqTsgVMkhhyAOCe2OchR6jrnNdX4U0EpIL2RM7kJiBAGI+ucnqSec+m3s1RXPh+ODUBvVBYyEGSOL5wc/dCn+4/O09RyOoFbOt69FpFtiOEGRE2eWUGC2CNvPYckjsAR3GExGJ4n1CSS/TR7WIyW6OJrpEO3coG7y/XGF/kO1bGtl9N0rTNMaRMXAZ8YB2hUbcvoQQV+tcpo9rLcag9ypcuxjZ95wWZmLHJ9MRv8Ahiu38RqipNLK0b29unmPsCnbyQCB7hAOPX2pgYumRXWkSz3sTrJNJGYFAbPR/mOM92GAM8mQVf0ez23Et/qU8aSRxucgfLGmSTtHTBPGBg4qxaWsZtYFCqbeKEMNyFWc9g2D1Bzz6g/3RVkRPq8zWpZFtbc+dLIFILEHKbh0xnk47A0CG3dkEiSGAM8p/fS5bLM7EhM46dJBj3FaWqvFYalatIZHghidFxzu+dIix/Bc/nVTR3+13DXU0wWMS+ZHtXcX27dgJHqFjb6ualF39oubuQBJWkmEKmQk5VBtUrnpksp/A0WAVg95cx2+DcCKBYoZCCAWYhsDHchcn61FrFxHP4fsFhCEmU72C5UkjIGfoc0Wd4si5W5YKk0ksRPCkRrgdPVC35U+40sJ4ZgjMsrJGouAoxy6oykEnn+6KALGoT+VY3bSpu3wS7fmxjYFbqD3IHam29sLjQIrQPGrRwl8gnfIU4UE+5P6VFqRHlR25Zdk8gjDY5j3qvXvzmmeF5Zl05EneN72ZljHYqqgvkf+OigBk0y2T2mrW6F4n2pMVG4Y5C9+h2jPuVq/qmnf2lpkdzp8ghukYSRyK3DKMHbxzjGCCOeQccnMOmwRRWms2DwM9vbu/wC6Azg4LDB7YCDH1qXw9eM8Eti5dXiG6Nto+ZOxUe+cD0G2gCvo3ieeBGtb1CLiKURsNudrZ6YznB/+up/hHSjUY5BN9oRpZBgMyDeFzzg9Mke4DfWsDUNDtLu+WR1EEz4jV0kwRj73HU9uMEYyapCXUNODRDUvNtkjbbJNHjjJIDHkg5GOMchh2GUrDvcl1iVPEniWC2splk0+CNmZsf8ALaVlj7jOQM9c1uayZItPeMQLLIFZJkwcbjwu32ySPxrnfCbv+91S6kjeR5jLLgfwRrgHI4OPMznvgV0F1Itw9q0kiTzLICojyGkxlsEevyA/jSuPSxmvk6DIkoEShn3ybSXQliyjPspP0qprc+yFLecMlqZArz4A2qGbnPYgfzqxrdhOdNjIZ1iWPe5JP39pjwfx7981n6zINTvnR2hSxgYzb25jIXAMjDsikHA/jbjpTsiSCaYy3DTPvubSAiG3hBKtcFuI0x/eccn0Qf7VL4oml0vTB4Xhlj/trVP9K1e5U8RIeqj0AztA/wAav/a4PDmkp4lvoXMzbotEsJP9YzP1lcd3ckE+g4qn4N0C7v8AUW1G/H2m/uJhLM55BcHP/fKfq3+7TGdZ4K8OCwgiaWIxGNVxH/dI+6vvgEk+rMa7tRht2Ac96gtbJbWFUijVQONpP61MQwxu4z6VDZSQ5TkD6CmOc/LipAuenT2pHwn3gNx6Uhirgg4NJ1OAPxoUj7x4p29R0H6UAMaLCkj72OtY2pwXH2+xv4LMXLW5k/d7wuNygbhnjPB/M1tliCO4ph2n5VB+vpTCxzqW6xXg1rxBLaxvGClsjEFYFPJ+Y9WOOT7cetaNpqmm60k0dndw3MYQeYIXDYDDjkeoql4s0i41XQ7i3s0iN6yFIZZTjy92AxB5wdu4dO9c+/gCaK5g/s+aSKKCyZCxuGVpJdoWNSVx8i8mgnU7e1to7O1ito93lxIsa55OAAP8Kq3GtWVrai5d3MRnFuCqH75baBjHrXFr4V8YgwuNRjyivKUluXYNMUIycDoDtwOnXNQT+EfF0n2No5rR5bIMITJdOwyI1CMQRyQ25ue5HpQOx6YjYySCPQ4oV1cMVIJB2tg9CO1edx+EPE32pJUu8Rx+UAjXrkv+8LyFiB16AAds103g/Sb7R9JMF8YRcPI0khRi252YlmyfXPTtigEdDk5JFPVmGOM0DHdRnJ5BpVz03DA9qQxSeaXG1txNMAxnmnkqeuOnegBJ5kjtnlbO1FLEgZwB7Vwt/qlxrzW6GF5ILlRLbabG21pU6iSdv4Y/9nv+ld2WUALxtNcHo2NO1+K1lXYS0+nHB6hT5sX/AI4zUwK0+oax4ql/snTrf7HZQ4juJQpRQRwR6geijk8ZxTn0jXfCrl9Km+02rcsgiDYx6xggj6ofwrY0K+t9F8HTPKm5dNMySrCPmYxsecepGDXAx/Gh2nvZ2itVtY8eTZlZDJLn/bxgHnoRigLnSrrmj6yd+q6e9rdRHm5tXJZPqVAdf+BDFa9ob+aIS6Nrtrfwj/lldKHP/fxMEfiDWDH468Ia/FC2q2/2WVvlV5V+Zfo68r+lWB4c0vU187R9WSZup34mYf8AA1KyD/vqiwmzof7Y1S3fF5oFy2DjdaSpKuPYEhv0pw8U6WP+Ph7m0bri4tpEIP1xj9a59bPxZphCQXTzDHQXCyZ/4DKufw30o8SeJ7cA3FlnH3t1iw/WN3H6UWBM6SHxV4ekA26vaZ77p1X+Zqf/AISfQFG7+2tPA/6+U/xrk28YXox9p0i0kJ7sk4/nCf503/hLkOcaLZZ7D97/APGaLCbOml8W+HWKgavau45URtvOfwzTG8TWMqn7Haajef8AXG0cDP1YAVzyeKtRYZttKhDE8BLe4bH/AJDX+dCat4uuyQLOVARj5bJEx+Mkuf8Ax2mkCZupqutXYxZ6KIV6h725VR/3ym4/yqnfvcwpu1vxNFZp3hs1ERPtuYlj+FZv9j+JdRwbu72ZHIkumb/x2NUH60//AIRfR9IRZdS1TyuMHYyW4J+o+c/99UrAnqRDXND0d9+maZJLdSHAuLskM59RuzI34LSyQeKPEKkXBNnbns4MKkf7oO9vxKj2qtN4+8D+GVeKxZZ58fMlrHuZvq56/nWLf/FsXUwjtp4LGFreSQOqNNIJAPlQggKCc+9Fh3O4tvBWkQW4iuWNyzdGc+WFP+wFwAfcc+9WUs9c0kKbG7Go2y9be8bbKP8AdkHX/gQ/GvEbjUbLWntL6/1S8kmEf+keZdMCGK/wAR4TDVu6f48v9HtLWK01dLoLjzEvpXlDfQiIMPzNNoEz1STXNKvIxaaxam0Z8/uL+MBT9G5U/nSx+HI4FEmkalc2QPKoj+bF/wB8tn9CK5S0+LWh3ha31W1dV+60ka+dCfrkA/pWjYzeGNTfzNC1j7LM38FpdbPzjbI/SlYLm2ZvElix3wWOox4zuhYwyf8AfLbl/UU5PExjz9u0fVLbPV/I8xR+KE1Uz4isl2xXlnfDHAuYjC5/4EuQf++RTl8QanEcXfh+4Y/3rWaOUH8DtP6UWHcnPirQjw+pQxsegnDR/wDoQFcJ4psNAutPli/tO0fS5JDIjQzKz2MvdlGeYz3A6dq7YeKbVF/0qx1CBscrJZOw/NQaryeIvCk2RJ9nLcEiWzYY/NaeotDhtC8Z6hosA8P69cLDMUxYaqqebFKv8JP94dsj8a6VtEl1aE6tp5s47y4U/aYA/mwTHay7gRyhIY8j15zVDxBZ+ENVtpFh1D7KjnLIlu7RFv72zb8p91INcGNF1jTHZdInlvYyQA1vayq564OcIe/djQkJs6yZNUspm8rSdYt7klsC33OuWdCTuDBeinr+ldP/AGtrk9isl+th4fi6u9xOJZOv8K8KD9Sa4G10fxzcxbpv7SgVhgKztx7ndN/Sr8Hw51O6cyXkhQE5d57kfyRc4/4HTaC7NCfxV4b0e8L2UUup6q/AurrJJ/3RjcR7IoHvWv4c8Y3t9aXAeznu9SaY7IERY1jXHBc87Bn+8S1Ycdn4K8N721TWrY4OTFAAoLf7W3Lt/wACaq938Y9Es7aWDQLOBRCo8s3H7pWycfKqg89znFIaZ0epWniCyvxq8k0RkZQJRaxEiJR2Zf8Alovvww7elVtSsbDxrbrFJK2m6u2HikhmIjugvTDLjevPT7y1u+D/ABTb+KtMkuISqzW7COdUzt3Y6qcDIPXnpWXZwRXviVUgVUtxqM91tVeAIkEXHpl2JJ/2TRqFzJmNzA0Fm3iF9HishHHc2uoqs0c24k5Ejffzg49MVH4OEZuvDBj27Ddant2YxjccYxxj6VUv9TEt5ruqXGn2mtafLOVj0+NA867F2B2PVF+U9j17VL4BZZP+ETaOHykMupER/wDPMbvu/h0psUT1+EHZgdcdanUYHPWmREeWMdamXkc9agoKKdRSsgPMrdyvhqMTIudM1Mo4U5/dmQr+Wx6feWsl/wDC67sZFaRobR4TljkvESP/AGSorJ7fUNI8UJbmFo5AZ4ngIZHzGPmGD/eQ8VseHW+0WOpW5UFGuWIGOqyqsn/s9abE7nhunS2twWWG3KICpY3MuHIOcY3Ekir7wWsqtu+zEOChxKoOPTNZligbVZoYZrmeZIwjLHaI5UhiCMegPetO2iuLjUP7OjleG9PzKt5bwQDnpyz5x9AaYikujW5kWQt5brlVIvOhPTktxitC0vNV07yvs2tXAVc+aTqfDcccFyBzXZxfC7UvLjabxNCshGWVNOjZQfQE9QK4m8V7HxJe6E8891c20pAMGnRESLgHOM57+lAGza+MPF0awZ1iGRVH74N9nII9fXNRp8VPEsIQXCsX80+YsVirYT2IcZOMVmrZX32mygY3UEVxcrC81xpiARBjgEDkdcDmvS5Phv4WstPmvdW+0XqwRs8skjbBgDJ+WPaKTY0jiG+K+ufZ2ZYpxMsv3Tp4VfL3dc787sdulU7j4teIyJvLadTu/d7bFBhPU5zzXQeFtH+HvjSe4GmaXPAbZhkGR0bB6MMOQfxrG+Iekw+CrmyEWotNFd78RTWsTFNo4O4AZGeOaYig/jXxJq1vcg6nfwljmFnlS344/u7cnr2qhd2U1+l3JeXbzM6gRGfUd+zjBJBf15rv/C3gLT9f0Ky1PUrya6iuohJ5UUSQKueoyo3HHrmoJdP+GS+LP+EW/sqc3Zfy/NEshQSYzt3bs5pPewHDfYQ8bLNeSPFLGkQC3oxheOm/BHP4U6Kwtre4jkt1+dB8jPfIwGevBbHpXd+KfBGneHfDl3qGn3b2sVqu8QTxJOjEkDaCw3DJ96wvh7pcXjaS+kuL4wxWzKDBDaQq7bhnO4g4GQRxTAy/KWIAKsQ4PC3EQ9/71K3ytvMcceV73UXT8663xVoXw+8HJbvqGnXFw9ySqhZJHY4xlj8wA69q2bT4ceG9R0yO80h5rVbiMSRurCVeRkHbIGoGtTzjaWIJEfJ4UXEfH/j2KbtjdSpihYKcnN1FwfcbutVkuy+sXemJcy3MtvKyK1vpsTBwpwSR1B9sV2XgvwkviWK8l1S7ki8iYwtax2cULAYBBLFSeQe2KBHGXmj2dyWme3VmYjLC9T/4qnoL3T2kbT9WurfKgIi6kAqEHn+Pn8q7LxJpPw38HXtrY6lplxJNcDflZZHKLnG4/OO/pXS3Pwt0BNPkn0q4msCU37jtuEIxnO2QH9CKTdgOAPi7xXbbjba2oRUwvmzwy5bJ5JbnFNn+KPjC0k8r7RazjZkstmrc9h8r1n+DR/wlXiVNJN+kKlHdnWxhJcKei5GBkc9PWvQ9f8EeBvDGjvq2r2lzdbCBkzNl2PQBVKqPyokNI4ofF7xaFAMVuw25J+wMBn0J31G3xb8XNswyIGHzhdOxt49SxzXaeHfBngrxPpkWq6Pb3FoWJXKysWRgeQVYsp/KuH8UgeG/FEui/wBoJMqmMiU2MIMe485wOSAc9OfamIdF8QvE16bdXvLtCxPnFUjhXGD0OOO3eqd3LqOoQQrfardTPktIsuqZyvPAG7HpXqkHwy0JrffrEs2oMq7jIcQJx1O2MD9c1haDpfw18ZXl1ZabpUsUtsuSd7p5iZxuB3HP40rgecQ6Db5iIdUkEu4uLteVByFPzenerS6ZbCKQFmbLFwP7SHX0xu6+9dT480W18FxWF5b35kt5pvKNtLbRSMoAySGwM444P51iWUdxcxLJFFeyRsF2uNIi6fgaYCRW6XMkdtbiMSTyrFlLlGJLELnA5J5969qvIV/tzRLGPJS2SWc4PQKojX9Xz+FeX+HLSWTxnpMMkN0sQnMv7zT0gHyqx+8Oeu2vR9Uudl9rl0JCGtdMCqT/AHm3t/RaTdhpXKvhxhe6ta3EvzExT3p4wczSbU/8cUiu3DK3bFct4ftkhvr4ADFvHb2qjoQEiB/m5/OrXiLXG0TSvtEMAmkZxGoZtq5OeSfTihiudCkgcHa4bnHHSjewYZBrjU8X3R8Pm8+zWpuY5/J2pOTHIduRsIBJPbGOtQjxxeebFD/ZsKPOHMYknI2CPfvEmBwfk4HPWpLR3GxScg/gaQlUbA4+lYul67JqV5dQtbrCkSxMhL7mYOm4E8cU7XtTksdNL22xruRlhtw3TzHO0E+wzn8KANVlJbIPNIMEgYxXF6hq8Oj3H2PU/HKWlyFDlJYIFOPUAr04qmPFOkMu7/hY0GOx8uD/AOJppAeiZAbA4I9aCSf4gAOorzv/AISrTFUEfEi29cFLc/8AstOPivTQ2D8SLXaf+mUHX/vmlYD0BmAGQ2abv4JPf9K4BfFmlRjLfEW259I4ef8Ax2m/8JXpPQfEa3PPP7qDj/x2gD0HeA43HJPpRhmOfyrzv/hK9MCnHxFt9x5yYYRn/wAdo/4SjTR0+I1t7/u4f/iaAPQnAJ2nIAPX19qcXyMbuPrXnbeKtKYED4iwEg944P0+WlXxTpgGP+FiW4z6R2+f/QafKJux6CzbEJDdu9MJZuGUnkY5rgf+Eo0n7w+JFuO5Hlw8/wDjtIPFOktIT/wsWDb2Hlwf/E0rBfQ9G3lgQUxzimjIwcVwH/CU6WWGfiLbYzn/AFcA/wDZaYPE+lp1+I9sffyoP/iaAR3N9ZQalYva3KZjkXBwcEehB7EHkGvGrz+1Ph34ll1GGJp7KXJvrdfuzRE481R0DDPI7H2NdDf+LnZI4ND8XNq2pTtsgt4IIeuDlnO3hR1JrVtfBB1cxXXi+/k1e6UZ8lT5dvGSOQEXGfqaadhM5bUbKxt9Pj1LTZUk8O3eTFKF3Cydj8yOOvkseo6qeRXI65pVxaXgmuXL2sMeCkh3eWW6bjzuU8YcdVGODXqep+GptBkk1Tw3axmJk23mlDAjuU7lVPAf+dcg1r/bGpW+l+F7qKa0uIjLmZDu01CcPE395TyBGehGR61QjibeCWGwJCzokhG9ZScmMA5H12jH4sK6yFPttvD+8j87yY2kaV8Asse4J9N7MxHon0rqdR+E1q1lGthqN2LyEAK1zKXRwMHBA+7kjqK5S3tpdBU2WpIbe8TICSKAWTIJKN0YE/Xt/dOQDYh0+a3to44laWKM4dxlcjjLN+JPPbvnFUtauGsLdbCEmP7VJ5lzOCP3afMCOpxhQ2Rjs9bVuZLSza+vW8ksu8BmJ49wfTg49SoPeuLvJJdS1gWbEGWRxucYIUZxg+wJVT7Bz3pbiOvsSdN0Wa4USI2S/luR8wwAMcZ+UhBz6VSxbJoiEv5ccjKsL4+ZTknJ57FlP4VHqcQexjgh81vNlBcqQD5aZG7jsST+QqeeE3eqabYC3VER99wXw3ygEYz7fMPwFMCkUS10aOd9oklh2KIzkBpnCjPviZ/wWtfxWYn0+1XJDQyIHRARnzBuyccdf5VkauttcXFlawXTBbm4MgwoG0BjtGD15cj/AICK3PERiuorFreWQRreRwFwNw3D7uf9nDH25FJ7AWrmxj2+fJKjLPcQBVQ4aN1Taf1XNUNOaJ9d1K3w+I5fs6hW67mKk59goP40uo+bbXKRBWPmXsFxuB6jDFuOvWq9p5dv4lS5uTHhjJJJHn/WSHcFGP8Atk9SgL8d00Pje1WZlRp7NomRW3JIysH3e5xx+NUbyObTL+O7RY2a3laF4Ccl9pIHQdSgyB6has6+kFnfaNfpC8zxyyRyFW+6vC5HrxHj/wDXWpfQxuv2fzHdrlQq7eNjIANx9wUJ69qsBszx3E9s6zgiRckBcgN1UqP7pzj3ytVNfjtU06WaSaLd5bDcAQCD2I68kjnsdp71mpcsI/scaRiaNiFSIFSc5AUenOVHu0R7VW1YvqT2EMJVXnkVXRQRk5BOPwbOD1DAfw1KGaym38OeHobzypmjWKFRCUDFg7c/Xh8Y/wBn2pNKjjXVYfKRlWCJ/nZ9uAEiTPp0LflUHiD7Vrl3aaZoUTyzQziW4KnEcfy5G4/w43sMDnK9K3J/ATX+lvDdaveC+kQAyRgLEpByB5fdc+p5p2EYusajHq8JsbQD7CzLK7MdqSIFGST/AAxglst1J4HrUVvDp9pYv4g1iQx6FAwa3jZdrX8g+4xTsg6IvTuaqW7RWklzbeJkKyWToBp0XL6lIfuOT3TphBwuOa7HT/Co1oNqPiu3jurqQbYrPOYbOPsqjoW9TTQzhNOt9S8Z6/8A21qUckZ+7BbjgW0bfdAz/wAtGB69gc9cV7DpOmw6bAqxqivgKQgwFAGAB9K5K68I6hoUUs3gzUHg6s1hc4lib/dLcoeB7VVsPFaXVkGuvGMGm3SnZLa3VtEjxsOqkE/rSauI9I3fN1HHNJuUklj+lcGPEdmc4+IOnknv5UIx+tH/AAklqFx/wsHTix7iKHj9aXKaHeq/y/KSKGOWy3XPFcI3iO0XP/FxNNwfSGHOf++qT/hJLXeqj4g6aT6mGHp+dJoDveNuSefegn3z9a4M+JLcnH/Cw9LXB7wwn/2alPiK0YfL8QdM6Y/1MPX/AL6oA7qM5JB6+lIV2v1GPSuEXxJBk4+IWlHHTMEP/wAVTX8Rw+YSvxC0ojHX7PEf/ZqAO8IVhy1MEinJBJFcO3iCItj/AIT/AErbnkiCL/4ug+IoypB8e6WpB4xDF/8AF07Ad579fXJoIHDEYrhF8Qrks3xB0fb7wRc/+P04+I4mUlfH2kk46+TF/wDF0gO56kHPfigYHLDNcMviFflH/Cf6QDu5/cxf/F1Yh1XUL21uZNJ8TWOpSwKX8mKBSDjopKtxnGM00gOx3vkYHb0p4OcZ4OKpaddJqOn217C+Yp41kBx0BGatb8Enoep4pAS8+mR70hZQMnBxxTVk3kgt1oXBZsjIz0pAKWCjaK4nxDi11u6uWUgRra36H3jkMcn/AI4wFdqzNzgqBXKeKYhPcW6Mebi0u7YAd2MYcD/xyqSAmsrfdrmu6e6gxXJjnx6rJHsb8zGa+ejdxaddXtvNdX/nxTeWUFwUDYwpzx6+9e/2FwW1vSrrcN19pPPPUoVP/tQ/nXivxAs7fT/E+vo11HEzz+akRiVywYKeD1HU1RmTl2i2slxP1CgG/XI+uaiFpFJc+eyu0v8Az0a9Td+YqKKW3QwozRyeaNqf8StSC2M8Gur07wDr2pW5lZtKsQ5+RJrRXcjsTt6fSgDEttX1TTRi11XUwONobUY3A/BlOBWpB4/8WRNGgvLSX5MN9oERJb6rjisjxRpNx4PvbWz1K405/tMRlR4LHPRsYx+VZzsIFkmEUMrAHCHTAu449e1AHWD4neKo9ge10dy2eQ5GMfR6nHxS8UmMM2k6WQWC5+0cfX71XtD+GVprmhWl/qd6vk3EKyrHYwLFhSMgFup/Sqsfhf4b3HiM+Go77UDqCMVx9pcAuB93d0zSTuNK5Wb4m+LpGCpp2kou7axEmSB6/fqGfx94uuHeMPaRqjrgp5Y+X+I5Oa0vFfgC38KaBcarZX8Tw2w3GO9tldmycABwOTkjqKxvBOgr42a8lF1YxQ2zhWKWamRtw+8M8L3piKeoa14lv/MVtevURiuxVukXj+LO1R17ViSaUGlkLz38quvzbr9CTznkkfSvRNe8HeAfCMUJ1zUNSLXBOxBO2Wx1YhAOBmryfCvR7m0W60fUZB5yAobpROjL1B5wcfjQB521qG80SvdyyPmNmkvVbC55XOOlPkLxAqpvgAMAC8UKAOnFJYq+qeKE8PK+lrcieSAzG2BT5B1Ax3IOK73UPhpoFnZS6hrV/cCKFN0rQYgQD/dAz+tAHBM0yuMG8AGOPtq8nFSlHjcMZL04Ha9Q/N1rsNA8C+C/E9k15oupX+I32tvk3FWxxuVh0rl/FWlReENahsLu50+SO4jaVJBaYZMcDcBnqc80AVnEpSNllvGCkH5bxcEdeuPamzQrcRH7Qlw6g5CG6U4NXNDsZNa1u30i1exjEkbN5slmQvy9QB3OOetdRqXw88MaZp8mo65qV2saYMjxt5a57AKozQByun3N/aKPsV5qVuq7sCK+XH5MCK118YeJYLQ+RdNNLn5TciJh15yVAJ/CtfSfh54V8QacupaFql8YySgMreYuR1DIwzXGeJmPhnXJdKnl0uaTYGRktyg+Y4wfTHJ69KAOgj+JHi2CXDWGmyoMfOSy7v1qaH4oeI5pFDaLpoJXLHzyMc9Otatp8JreaKOXVdQG8AHFhGIlP4nJP6VjaT4N8AeIdSudO0rVdQN3bglwLg8gHBIyMHnrigB7fFLxGSgGj6eoZTuzMzbD2HBqp/wsTxZLKjGxsYkJO7ylLMuMYOS2DmovGvhNvBthbXQutPns5JVh2zW2JfrwcHA9KseEfBR8W6Sb9r2ztrV5GjC20B83CnHUnj16d6TY0rlW68V+LrqMAX81svmMGWERDCY4xxnNYF1a6vfMxvNW1C5UyZVXuA2Ex6EYzn8K7LU/BvgPQtRh0nUtd1GO9ucbAZj8ueAWwuBn3q5ffC+LTraa4sdQgcRoWYajFvyAMkblII/KmNqx53/ZjfZign1B0dw7oZEALKMAnA7VbSB2lM0kd0JHwhfzB0qpaXlreQB1OnLJ/HH9nkOz8qnElv8AMS2ms2MlTbSg89smgk9W+H6Lp/gy41GXcRLLLO7PjOxOAD+Cmm6JKdP0XU9UlfDWenxxkn++UMz/AIlpB+VWre3+wfCm0tUVQ89pFFhemZWA/wDZqoalLbweBby5uJPItrvUCXk9IzPtB6H+BB2pJgcjbWkVq9y1jpMnhu+jjXdrN6wKOdnOMnClieq561t+BFZV8JM8omZpNRJlBzuO7r+Nc/cXVrJaKbo6l4w0y7nyhRAv2dgegx86tgYxwDmt/wADIiyeE44YmjjWXUtsbdVG7gH6UMqJ7DAN0YNTAkdBUMJYRqDxU696zvfQoXNFLRRygeYeDryLU9V1drdrSTT5raJbX7KjIvlhpF5DAc9c4GKveC5C1pOHQ5aG1YcH/nkq/wDstZnga+ju9f1Z7caelha28UVutnKHGzc55wcAnnjtmr3gxi9q5Qrj7NaqfmxgeVn+RFaktnik8dnD4x1QXNxD8k8qiKbzNp/ePx8oGOAD1x9al1SPTbjTpNrWKSR5ZfKeYscDj72R3q1PdF/G+sMJrhUNzJhIbtYgf3j4HINWb27Y2NxtkvyrLt+bUlkGfTbjn6UCPfoxiGEYyNi4wfYV82eL3ib4o6xHcXQgUXDZZwT2GAcA+1fSaZ2RAMCNg6jHYV84eIZGi+KusyLcSQn7S43RSiNu3G49KBrYtWZshq1gsZsWY3UBHl+duz5q8jccfnXuvjP/AJEbXMc/6BNwP9014zbzyy6pp6br0BryDAk1BZQ37wH7u0EivY/GpC+A9dbJGLGXr/umpY0eU/ANV/tLWGDc+VCMenL8U/47Fv7c0RJDsBhb5sZ2jeOaT4BKPtmtsGyFSHgD3am/G9j/AMJLoeZCCIj827BHz+vanL4hHoPw5kEXgHSCjGQ+U2DnAPzHmvJG3P8AHaRiQS2rAAgnjmvXfh6QvgnSSXZv3DHnv8x5ryRGL/Hlgv8A0FTjH40/tAvhPTfiqc/DfVByOYu3+2tcj8CQFfVwDvOyEuBwFOZOP85rrPiqD/wrnUlPJZ4gM8Y+cVzfwPG9dUZpGdRFABk5C8yce1JCKXx7kZb/AEJR3jk7dPmWvVPBMQ/4QfQ+nNlET/3xXlHx4cjUtEILHEcnQ/7S1634PJXwXog/hNlFwcj+AUS2K6o+XZxHN4juGmkUD7U2c7uRubrgE/1r3T4QBDY62YkiCfakAMO7b/qx/f5rxKxkK+I5NrTK32onZG+zjLdDXu3wrYtZ6yzeaN14vMsoduIlHUChbC6nnXxwYv4wtRuyq2i8A9PnavcyT/wi7t0Isz/6BXhPxwO/xjap6WinPf7zV7tOyr4TlAxxZNx/wCl9lA1qfOnweBHxJ08Ek5jlbjp9xq9Y+Nm5Ph8cYybqL+teWfB3DfEWx2KwAil5I4+4a9S+Nuf+EDQZz/pkXGPY05dAj1GfBZQfA64YEm6k/pXl/wASIlf4n6oJJPLw6Y9/kXivUvg0CPA0bBiQbiQ89e1eX/EFj/wtHVtsjj5wp2nGfkX2pr40I+hLnamiXTncf9FY4z/sGvEvgiV/4Sm7bGG+xsMEf7S17VecaFekDJFo/wD6Aa8Y+CRx4lv13n/j0YduPmWpW7H0Nn48kGx0XcSFMkvYY6LXnWjCxis3M0tpKd7YMyzdj22cf1r0H47nFvoRyRtll6emF5rjdCuJE06Xab5t8rMWjvAg69wV/rRHYJbnafDWC2fxektutphLWRi0Pmg8lQc7/wCldffurw+KHycyXdtbgZ4xsiH/ALMawPh05fxPcZWfK2RI82YSfxr0xW9d4EGuL83Gr2pYAf8AXDim1cRPHqkuntepBbCaa81O4VPMchQEQZ+6CTwnAAzVt9ahuvCA1EWcFyX2o0EhJQsZAnJK5wD7ZqhaX+iiLUNP1OCSUJqNw202skgBLsRhgDzg1YTUfDX2d7UWbrbP8rxrYSbSByMjZ60rDuVWv0lW50saDpjHTVaaaF5cRADvH8nJ5PUDFZ48SaXMjRL4etTJOwDRuq4M5b5FPy/3Mvn0reM3hGSCOGXTy0cRJRTp8mFJ6/wd8VZfWPDjM0iwN5hkEuWsJM7wNob7nXHFIoyrDxNIL7ThLpttE+qLG6vDLnahBHzZXqMcfj6VLHfyeJNQ1DR7myC2KPJH54D53KRhlbbtznB4ORihj4PaJ4f7OxGxVmUafLgkZwfu9sn86ZE+nQ3W/wAP+H5Hv34SZrZoY1yMbmZgOOnAyadhNmL4r0pPEXgg6lcRRyarpAkVnUf60RsVkU+zAE+xrU8O6BZTQW2rX1nboAu6ygT5kjiKqASMcsRgnr1pNfePQPCJ0eOQ3esagjwxxqMNLJJnc+OyjcSakGrNpFlp2iWFnLqF2tntVoWVVjCgKrs2flVuTnPbvTRNi5qFna3nm2i6ZakSRDeWiVQAXC4IGG6bjngVj6hdabZ3cj2Nk+oyS2Ms9uILdTbbQ/AOOrZHXPTNJaS3kDQBtZtLEXAijjis1N1K+QQp8xz7E5C9jzWhd+Co7wMZ9a1Zy0LQMqTIibG6gKFAH1xS2K3Rj3bWkIln1KbToLKbTo2kga2G9CNvm8qd33XHPbINU4vD/hZ9aFvdK6f2pAIYY2ZQHZVKEoPvDhc5JweMVsP8ONEhsy0up6mkEUJjYyXC7QhCgg/J0wqj8Kgm8IaFceILJ31bVJdTi3+QRKjGELgn+DAA3L+dFxWZlaZLZaxo93Y+HIdNNxphL21qhJaQAEbZNygj5sHrzjFVtM0HWtXstPudWij0q1gWSG/he22l1Q5V0/iBKjGc/wAPfNdkPAluYpANU1ZRKjLJ5U6IHDdcgJ3/ADpw8LwW1slmNe1aOA4hjj8+PGMHCgFOeM8U7hZmH4i1Hw5BHNeukN3psNuQ4ht0IikYAKS45BYH0/hNZVha6NaWFtrD6Nbi9S2XbC0f2hipG2OZwQGC8EcLk1r2fgbw5qE09la6nqEgVYpJRC6eXwxZAcJt4JJx71bHwu0S4ubyaW91Vp7tPKnZrhfnXjjG3pwMY6UuYfL5nD6Rp/iTWJ7u2F1pxvVm+1xTpCp8tTw0bRMoZRjleOoPNQan40srXXf7Hfw7b3G8m3meGLypfmAViABgvxnOMAnA9T6Jb+CNL8ORG3ttf1S0Xb5rKbxchRxnlc4z+FTW3hrTtXiE0Os6rOsMrxpIzRn5lOCVJT14yKLhynAyeAdMQNp1ndXNvawziW4u7mPHn/LuRFmHCqO/HU10epaQY9F04XOiaTqV3FKiXcsT+UkYUnbnI+bAboe+Mitl/hvpt5b2kc+pavJFaENBGZ1CoRyDtCY/OqcHg7RdBuL+W213U7aV5BJdP9qTLMAXwcrnpk4pp30FynEXmhaXbeKfOkRrvTYEa1uriZf9XM7HEpZCON3ynGMYrptN1/U/A12th4geS60Vm8uC/Y5eLrjd3ZcDPsCMmtceBdNudPmMV9qgi1MKbjHloZAR/F8gOef1rBg1K6vdMg8LQrHJr6SzWEty6Bmt7dDgyH/eXaB6mjcVrM9D1G9Fvod1qlk6ziK2aePbyHwpIxjr2rz34b+LdANi1u5ktdSu52eee5QKlxMeTtcccA8L1xUxgbwLpRisdSe78OToY5Yy4ea1YnaXj/vLk8jHFcNpXiPS/DF7Poep28N94evyJX24fymPAdT1xgex4z1pLco+gpCiLjcdx7Z61WvdJs9asjb39ulwjc4YcqfUHqD7ivOn1i88M6kljol3N4j08QefJbkhprSLAIIk6EEdFPNdj4Y8a6F4jiAsrwG5PWCT5JF/4D3/AA4oaJ6nGeKtITSdQtrG31dDlTJHbXpCMeSABNjHU5AbnJ6muZgWTT9YVL63lsbiMbtk8YLMx+XAzwy7SfX73tXU3Ot6bdeL1j8QsbNZpTI0F3GQAkfEKEkY5JaTPToK7rWLfSNQ0WZ7u3trm0WJn/eDcuAM9R0/CldlnnC+XqF6ZVkUwRKlvEQhU7TyVYH159ORSW7/AGm4ursxlwT5IVD0Xglh9QV/FT607Q9C1G8iuo9Lj/s9kjUzJcnz4sugbCvwykA9CDg96ZpM9zHDHEEiu44zuV9PZZgzE5Gdp3gA89Ohx2qtyGrFaSEyeOLWOcBhFFlCB8uE+cknPQ7R+Zrb1TTzef2UIm8oGfeMnKDZu25H12/nWNpFzbWmt317dyrYsYmES3yOm0b+F5H9zIrQXVtLm1qwVNRt0i2ybyk6hSwGzGSfRtwHtTBFvUTHbtbz28TSt5qbtrDo7jHA6YDGs6+iaS7s9QVlDTNGV2kfxOGwAfZ5Koz61ps2oQNBfReWLqMuDKOzxZ6dB97p71oX2pW15BpMFlHcXSxRhWFrG8mAEbAOB1DEVL3HtoXtdDXWkSRyAPOki/PGcZGM7s+7MAasRRx3uiJPBKpkhR8gOAXcEYPP9542X/gdUfFGvSQ2Sx3Vm9nGxLQPe/utwDAn5Blmxhf4fxrC0gajeJb2Vtpt1qMLhJyqsIIfJLYB4O5j8pIyRyOlV0uSaGqKusXtm+gu19dGJRMsCjdgjhmbohGAeT1AOOKs6B4estd19zfagJLi3BkeGwDLEpY8gy9/mDEAdMkZrXvvDWr6ddSX+kXTi0iy8dlb4i8n1wuNsn/AuT61Y8ANYeZfxW1wlxcbomLjHzRlAVPHQklyR6mk3bYbVjr7bTbbS7MQ2sEcMKDhY1pwfYhcrwOck4FYniPx7ouhH7MZzd37kIlpbYaRie3oPxrkX1ZvEP8AaT+Kb06RZ6cN8mkIWSR07F3/AIgemFpgin468ZaCNV025sFkudVsbkeVcIgMfo8ZY9eD26GvUbu6tbLT2vrmZIYEXdI7twvHc14C+v6f4p1y2dY49L0TSubeKNRuUf3uOrErwPXGa7y6027+INst5qGpjT7U4/s6zV1JL7dyvKOhJHO3sKB76jbnUdW8du5sXbTfDcXzPcE4a5APO4jlV4IwCDyDXHadocusX+t3vhzTIYFaVPsM15H8nkjIYqXz8x4bPNde+oHXbG18LMBZare3bQ6sLfAJWNcsw9Q424PuauXvw/0rTZW1SfWtZidf3XmeYCFVvk2gbcAcgcdKWwJXM2fwjpOseDrL7c1pdajZI26axkEYkXJGThcsMjGQM5HFR6jptxY2ljfW+n6ZavbkPqKC1URyhh8pLy4+XGAcdzXVab4LsbQBbHXrzzdr7djQkgF8tj5Om4/hUGoeAItTuHnvdV1SWR4DbsdyYaM9QQEwf5ii4WMGwsPB+rsviN4beW5tgYVS1TKPIqZJKBcMRk4I64qhpupDUmbTYNE0yPTZYdkOoadsne3IB+eTdyOncDFdFF8PtI0KTT4/7e1K22b1t8uoTP32yduCeM5Pp7VZsPh7pdnJcvY6reQzynEssPkh/n567MjNJvULHkXijQNcXxHm2sEisbNUW3vJCiRyqORIWPDFuuPfFegNo2na3pkWm6np2mpqqRLJeRWcPltMcZQRSZChsHJHI5rqbrwGbxbUXWuX9y1vzE08cTlRx0JTrwK59vh3ox8SfapNf1YaqhWZWaZd2WJAK5XHXjFO4WZW0L/hD/D2iwvcWxQyxEu95As3lbX2gt8oIzn8cGqvinwU1x4ZvWsFsLjVrloz5MAVFMSEj90mAQSeoya6G7+HNpq5uZZ9d1K4+2okczB4wsioeBgL1BHX61pS/DuJruC8fVb5ri3jWKGR4oSY0XoFynHWi4WZ5Avh3XbO10PQtM0iUXnFzfXD2qtsMhwFJYdFUZx713Uo8MX2oapbXlpojw2cYiFxEP3iDGHL7RhejEHtXQppY+1T3K+L9UEke5JVZowBtxnK7e2Rz7j1p58Em8glRtbvBHOuJNkMClxk9/L570XGkcwbLwjp11LdjSUhntrFpo2uQJIHD5fJ25zgY5HQEYq/aJa/aZGk8P6XcCOwguAtnGrNK8h5GwjIHOQSOlamoeD7gaVNaDX77yzD5Xz28T7FwBhcKMcACudn0PWbo3F/Fq66hb3tpFAqWkn2aVApBUqDkZIBGOO9AW1NfV4tK0fRrzUjotk/lRHyY5rdRJJLvKDcMY25KkY5qXT9Ai8P6LY6LabUvtVm/wBOuFUK33S8mMdBgbR6bqzvEN+Nb8PaqsEsCXVrJDKlpNkTIQyYDbsAEsp+7wa6OSZfEWkWGtaO6yTW0nmrGxwScFZIm9DgkfUChCZ09tBFaWsVtAgjijUKir0AAwBU+QVwawofFOmpGEvmmsZ+8VxEykH64wfwoHi7QVchtTj4+v8AhU2KNiOPJwpyc/lU3lPkjFYieL9A2BhqkAycc56/lTv+Ev8AD+4f8TaL36/4UAa0owmMciue1yPbd6E5OduoKp/4FG6/1qebxh4eMO4apD1xk5H9Kx9T8Q6RqV7olpa6hFPK2oxNtQ5OBuOf0ppARaISYfC8jH5kSe3OT1G3p/44K8w+MNtGfFdzieKNntoXEbn5n6jj/vmvTtKA+y+HDg83N0wUd+JO9ef/ABgDDxG6xFlJsIyyhA2fnf16VRmculvBfWIinkgmCxECQzMcHGMgYwK9e+FUZTwbaI03m+XLMgYMTwJCO9eXWNvdtApYX77huOyzQhuvQ5r1f4XrnwZb7w+43E5IK7SD5jdRSY0rnCfH1WGtaG6HDLA+0g4x84rk9NnklsbdjdeY5HzE3bqc5+ldV8eCTr2hBGP/AB7vxjJzuFc3o0Nw2lWrLHesCg5W0Vl69c5o6BbU918Cgr4B0Zc8m1XkHNeJ6cg/4X0PbV5Px5Ne4eByD4A0bJOfsq9sGvE9NB/4XyOVIGqS8fie/rSWw2eq/GDJ+G1/tXH7yLp/viuO+AOS2u5Jb/UHB7cPXY/GBtnw5vSMf62Ecn/bFcj8B2DS66TgcQYx/wADpL4Rp3IPjyS2q6Ei4wYZB/48teneC2ZvBmj7uv2SL/0EV5h8eDnWtBwcYikPT/aWvUfBqMPBujdObKE/+OCmnoSfP3hKEj4pWbuQrnUGwCOvLZr2P4oNu+HusgEkbE7cf6xa8f8ABrO3xSs8tuJvz9OrHrXsXxUKj4e6wSMrsT/0YtXbURzfwHUJpWrncGzLF07cGuZ+NIMvjzT1Z1jVrRBvbovzNzzXS/AvculasWwFaaIjA9jXN/GIM/xDsFVgzfZY8DG7Pzv270urAt+AmmbxXoZnuzcSfvcv55ccxMR8vbj3rrvjCuPh5dEnpcxZI9N1cp4AiceKNAZo50Y+aSXtRGpxE33SDz+Ndb8YnX/hALpVIObmLoPegCL4IkjwRcrx/wAfr9R/srXmPxV3H4jXiFQVEcPJ/h+UV6Z8D1LeBrln5Y3sn4fKteX/ABVf/i49+BkgLEP/ABwUR6jR9JoR/YsZC4/0df8A0Gvn74MH/i5BBOf9Gmx+YNfQUeP7Gi5A/wBHXr/u18//AAZG34iqBj/j2mJx07VEdmU9Gdl8el3aDpAzgfa2/H5DWj8EA3/CEOWzn7W/UewrP+PRxoGk84xdMc4/2av/AAQH/FGTYx/x9yYz9BTtaA+tzzz4uZPxOkXACiGDk9zXuPiJs+ENTBOD9il69vkNeGfFzP8AwtBs4J8mEYxXuPiNdvhLVGHJFlLx/wBszTWxB80eGmnSWaSK7EA3YdBKEdwPQk9vpXTXNw72k7G/uGcxMR/p454+lYXheKRonCxEjdg7LRZWJx6noK3Li3ZbOUSRTDC4I+wKgC9/mHSk7gez6tF5Gg6ZCVwBc2y/98kN/wCy1g6kLiPwN4VS2gtZnldJGjvWAhK+TI53E9uQfwrpPEiq+macqk/8fS9e/wC7auW8RaidP8J+D7mPTjqKFY4/siKTvDWzL0AOcDNCVwasRzaumjZ1W313TItEtmRLux0y0EmGYY2l1x74bio/AssU3/CJywhjE8mpFN55AL5GffFLcRap4f1C7Gn6JaWuiPbRzoLa0LyykMh2MP73JHt17UngOTefCz+W8ZaXUmKSfeX5hwfem9hxPXYP9WKnUYqGE/ItT5zWXUoKKKKdwPHfBNq2k+F/Ed/LBYW8hGwLp7bom2plSpyckl8V1nhWNbWK9OFVRN5K8dokSP8AmprD+yJoHh+y0oxoWH+nXca8cAhggA4+ZyqAAY4NS+IbxvDHw+eCR1a9uY/IQl9pkmlJ3nJ6DknPtWpB49HNHN4hu322jB2MhD2jnBLMevrz171evD/ozhktlzjO2JhjkdCeBVCwURajOPs4iIRFAXU4T69yOenarT6nb/a4rK7ubqGJ2UyzGfz0Rc5J/dqcnjtQB9FYDFMOeg96+atfmA+J+s71gbF1JxLA0gxn0XkfWvYk+KPgkfd1zk9c28uf/Qa8W8RX2lnxzfX+l3xvILpmljdCYzGx5Odw7Y6DrmgDfsSia1pjj7MAb6Ajy43B++OOeK9i8dTCT4f64cY3WUgx+GK8a1jV9L8OeI9A1DT59R1TTJE+0NFcTsWZ1Zl43DPBGcH0r0C58b+FfGPhnUNNj1qHT57m3aLF3+7KMR78H8DSaGmcz8Af9ZrRbjAhXp3y/wDhTPjXIF8WaKFdc+Rn5gSMeZ3A6irngE6H8PtO1GXVfE2lTS3DLhLSUynC59Bkk56VyHxJ8Zab4vvrSTTbeVBahkW4c4Z8noF7dOCaGI9s8Bqp8EaOSo2m3BAAwOSentXjtrtf47kjAxqrjp9a7Twh8T/DkWk2mkXjyaVLbRCECU74229w49fesez8PaNZ/EmTxNJ4t0Y6cZ2uVAuh5hJB+Uj8ab3uPodf8Wefh7qJO3b5sO0Zz/GOtc/8Etiwans27vLhztj24Pz9c9fqOKrfET4l+HdS0C90awSS/M2FEwBSNGByDk8sePSsH4aeOdJ8K2c9lqsE0S3Dh/tSDeMAYAK9QBz09aBI1PjscapoowDmKQn/AL6Fes+E5F/4Q7SPmxiyiyM/7FeZePLTSPHjadeaT4n0hBAjK4uZwhUEg5APOeOlb1x8SPCvhTSLayi1FNSnt4EiCWozuKjHJ6AfjSW2pV9TxLTyr64wYQDdctgSIzf3v7v4cV7t8KWRNO1dcodt6APKBC/cXpnmvJvDEOg67qWsXFzcXen3TLLPp8Vu7ABgjOwLYPTHqOK6f4c/ErStGsGsNaSaKeWRpXvMGQSE9N2ORgYHGaOhPUzPje4PjS2BUgC1Qf8Aj7V7neyoPC90GxxZOP8Axw15J480vS/GmuWer6d4q0aO2ESxzCW4CsoBJyAevWuh1/4oeF9LsmtYLj+1JdhTy7bkHIxy/Qde2aSXu2G3rc86+DZJ+I1qcKMQSkY/3a9I+Nrl/A8QOC321Af++WryT4e+I7Pw54judSuLCSS3KFFMTDfCGI6AkbvSvT/Ger+H/H3hP7HpniGwt7lZVlVLt/JzgEFSG5HWmwRofB8hPAsH3ADcScjjHOP6V5X46kY/FLVwWiK+cMb1Jydq4xjv716FoHiDw54D8HxWF5r1ndXCs0jLaHzcsTnHH9cV5frfiK113x2NYt9Mb7O0iO8DSYMu3GST0HAp9RH0nfFotEv8rgC0kIHf7hrxb4IO0niS/wDM2ki1YDjnG5a7mz+IPhjX9NntZNT/ALOuLiFkKXg27dwI4PQ9fWuY8BWGj+BLy/1DVvE+kSq8YjiW3ud5IzknA7n0p6XE72HfHZg8egrgY3y549kri9FWJrF3kay2rMQBJFIO/bA6ex6Vp/FDx7o/imG3sdLtp5Ps0hZblhszkYIC9fTk+lZuhTzNpYZHkRS7Ej+0Iou/91hmpSsN6nffDd4YvF5XNtultJBiJXHR0PO7r1NdbqsZB8TxkZ+WC+T1+VR/WGvNtI1STTdfsL+eRtkEoWRm1GOT5DlW+UfXP4V6xqYji1qxu5SrWN7E1lMM9S3zR/gfmX/gQpjVjk75Zo/E1wx8V3elWtxehVgjQHc0sasm07TjJ3Zz6U+3sNZms5bmLxbr8oRiqxRwRhnKkhlG4dcqSCcDHrVLWFnhs5Y0jtft1vGtrJJdqHjR0OYJjuzwyll3etWZ5ri21ZYbm6uNTuNRhS+sLRSyRxywrllD9cMc/LjvQI1rXR9YkvGt5PF2qQYDSIvmwu7xcYcAJ65BB9O9W7jw5qSn5fHOsllZSwxEdqE9SNvHGeah0/xJAupWDanItrLfbII7KKPebecKfMR3XIwfl+XtVmR4LFrfTVChoJlM0VvJgW6EMwaQsctHw3HvUspMzpdJvwC6eO9Uf7QP9EC+Sxm+XOFyoDHg9KrS6ddM8yQ+Kdeu2RzG0EMkUUhcbcgZQDADZJB4rX+16U0k8cvlQQTbIrS4aUeTMGB4gAb5TjgkY5qLFtc6nbW9lfWsk1iVFzC7/vreMgkBSOc/dBJJyBzTQmVF0PQ7FLq7VmEkSulxeagzmbaCVdg5IO0qCBjjNYFzeXllea7pemXenwo9u5ih3/vXXyP3e3jkAcDB7Gty81KXUbq00nS2FlJKxuLm3v4CTJbKdpCgghQcfdOOua5xtPstWslbWLOTT9S1O/ViIJTho4g2CCchRtU8AjPtTFcwdD1bUZNXvNXmvLSxFnHBFafagqoH2lFXjI4UufxrNuFS5u7iU6g8zySyHzIrtlRiTwVG37v413Q0q20gxzPdgzXeXsIruZla3/dfOAHLLuyQefzqK/g1iSx1+W203T9SEU+2C3a0jJI3L1K/e6N0Pf8ACi4amZD4g1GTwI8Ud5Yz29l9mLWyPvmVVkG/eD7jucVR0bW9TWwv7+61eys5r+WWM/avlLRdXK4BGclQMH+EV0smqWIg0wa1oNva289vEFlUeVIsznHlpjDcdTyABWLHq/hO+v8AXdMewlMkFtLG5unkkysTAnDbyQMrngA0Bc5iOIQ2nmtPdGRVDEG9J6c5xj+tdXrnibXJNK0/UYruxuvLNxGr2e1hGTGoQnJGCMt7/WpNBh8I3nheW4W20s2djdbtzyS/IzLjq69SQoxyOtSa9CPszXVtpdu93BNGjRWeqrCUiKggYXHcEAEHv60rBcw/tt7aeEY9Pm1WxSS6hhmmtQxS4LZAjUHHHyqM8+vrVOxuH0vUbK9tb3ypIZh891dtJGOoBb5RwCRzXVQ6DZXNut1deHLg3dldlbZpZnnS4LncrsVGWUHg56dM1n38uq6jY6rNb+GrOSWznWS2YQmQuh+Rhtz1wqnGMdaYDPF3iLXm1JIYJra5N/BaYmtwHjIBLFQc5Pz4yAO1N1++aWG00l9Ys5o7OYxrHZzlHyFIcvgf3h78mkvTcRz2Gk3ym313Ubd5mmtgYFikYfuo9qYUkgEHI71T8H+KLlPtup69Zac9hpMITP2GMSNIeEQNjOepNFgLfh6+n0XWxJaahbxGVPL3390WjJ3DOMgYOP5U6/vdVuvGDabNNbpai+uJbiZgNpQqRuz1IEfA4xTv7UstX8cNpEvg7SbtbuVWW5jQo/lMAwcnp90+3NaWuXvhzTNT0yGC1uTc3oEaWdpP5kCuH2gkE4Ygj7vT1pWC5i61qkuua1HPc6nHc4t0XOn3TJGoycZAU8456VJ4MllsdUvE027s47q4zuFzNumkGz5QpIGfmBpvizUvD8mp3fKRzXsn2dSdPV/kjO04AccMw4PH3TVp7Owm8UXjqdPaJbmKzjQ6e4KtkKeQDk7VbBzwSOaYFDRdZ1Ge8S5ubi2s7fTrKIRG6UBRIpxg49WZmJPPArltU0Marq15eR3dsVac72h/1ZPH3MDgcmu30Pw7rMmtaq39qRSW8UdwttHK7YR2yE4kXHHPOT0pulDXP7A1jztS0uXUYXjaGVrm2cAMQG3E9AMce5oC4mlXFzaeC9VsNHuLBQlg4nQPm5aQHDEjqRgHHtWAbZvEl5qGpalqFtp0/mKLRnYQ5AXsRkcKo6dzXoEWmmcpdXltpVwt0kMTT2nDxS7WDsJEI43AHgjg0lpCdN08al/wjepTXccrWdwgfzTsOP3qI+/OMcAYoA4uy8Ta/b2MdtqqWuu6cU3NHd8sn0fhgcema6Ww8YeH5/CsejaZKNHXzsyR32XjmUtuZPNXOM9MkdK7eF7eC5aJNDaWKGBJHkNkmZy2OQTgAj+JcfSma7oHhXWZTbXll5F2kBn8+3jZDt9mUYbHcGpaGmS298ujfD+71HfDNdMkkztav5qtKzHoR2GQPYCvKtVjtrzVmazuLaUW5itrURSMJvkAXcOQpDEE9zXUS/C66tkiufC2uSQllLZkkZDJnkEFB/MVn6hpHj7TrlFn0nT9ejwCZWt43IY9QW+VvxoQnc7bR7m5fwDd3EkzCRY52jMhErxBS2FYsPmIwRnmuMu9a1b/AISA6YuoWwJlijUz6aj5Z1Q5LKuAMsfyp8/jTWLa0uPDl34OvLdmjNv/AMS/PAxyFypXp3rm016wu9QkEdx4sju2bfJHCyHJXA5VSOmAOnaqA9a1Cy1DT/ByebNGmoReW1zNaxIu5d4D7cj+5k9O1efyvqsGq3Qku9YmW3nkj2tdsiTYJAWPaOSBhjzng4B6VZs/iNaTeG30JNM16/ZbZllnOBIV5yxOTjrVC28WXt3pV5baT4Kur2FpRcTm+laVmfgBsAD0H3aVtQPWbOzsdU0bTbq8e21OWGMFbkqHG8gBiMj2rBt/P8N+ImlmSC00hGlBuLidUXynxIqquckq5YdOhrjbSH4l6lpbJZW8WkW4cItrEi2555LAnPH61ct/hRc3kFvPrutyC8YsJSp8wnJ4Cs/9KYM2Nb+Leh2CMtjFcaiz8KyL5cZPT7zDn8Aa89v9f8RalB9njnt9B00yqn2e0HkqFY9WcdvevVNO8L+FtEzcx6ZFcT2+IppZAZXBx1I55Oewpb97KO1ubh9OgQW7BJ0ismclT2TABLYI5HAoC55HcY8NSSLp8ltew3dnIsjxYlPm56bvVWAOR610nxAzqcQsdVms2vEkiWAwuPORcZffjJxnsRW7qGgwX8NmkAvLKY/vZZLOPyBHCM7FYMeWxgE8mqctisL3E9t4Q+0zyTpDDFPKgPl4DM+RjPOBkkkmgDzvwzpzaBrkd6bix89A/lveEiLcAMfeA56muik1XUrHxItjatbSw3M9pNbyQx5UYcEEHPHyllOM8cdq3G0+20vxtpemxeHdEaKFlUyTXY3ozEs+ELZbAPcVl262kurar/aV1bxwW0crtawah+7i+YAkKi/L1PHrQFyt4ic6j4ka4lmt/tMcciGXT7gglAQFDlQ3zABvTim6Ne3NnJfWI1SBIbtY4JVv5y52MD8ybsdz2HpSw6ZolppepxXOvF2tZ4JS32fzSgDNtGMDIYEcVmahpPhpNEvTFfTm3jnjvYnS0AdYpAVC5JGQCB9MUCNzwnrmuReJUsplgSS1e8kaRl2IoZckbiem8A81R1O7udX1S6u7m9mMhKqxsbpkiLBcErgMKs6JeeGr2wN5c3OtXptQHkWXBDrHjcCuTkENnnP3Diug0Sz8MafDc6HFYvKt9O0Nu16EkWRvLDhlIxhSCMYIpWHdmTYX13ceHp9Ki1K0mZBPPFBcS75/NUn5CCc7So9O9R+EfE2tPa3l3vs4pILO2iaW7CxqxDMBklsE7eOvaorGfwlHa3t4NNXSJbUraq0ind9oJzkOGYrwpHTjNWZtFaXxJaT2P2m/0a5Vrl51uBKq4GXUDbknPy56nIosF2c8HvLoSXbX2ogzPIyLFdSBeTkYGDjPHetPV9Z1Sfw/b3MGo2VxLpwhSLyH3y+WWB3NznIZBnOOpptlfN4l0e/06fSLey1Xz/OspWtgAN5Pytv6Zbao9MiqF9DcpruomO4+xWum2IgW92bA7qyhzgffyxcYwe1FgudNF4m1ZvB1xOk1nBb3l1dARyt5bhTgjyxuzncWPFc+v2i2jgmfU79CkkbO0tzJtALD72R09apeJ9PtrrTLNLF5Dqen263F7HIcvIrgHcPTaMEqOmals5rSPTNM0CdUhvJ7KW6S4bGUkkyVVuOm1VI9zRYLs19d1zVINVtdY86wuVuFmjuo7YeYmdgUqcNjldp6/wANa2ta7qx8MaXpNzcxp51rbFfIl2XAcAFiQDuA2g9qo+JdJ1u58KadfaWFS7jt1GoJaR4Eu7GxwBwSM+x5qC08OayfilEYdNupNJtpFWR5IyUkKxjJYt1ywphdkFhd6jpeuW1zb6nN5hLKgv7pjEx24AO7aM8+tNvdT1jS9dnhilgnjvo4Jomgj3KrGXeCDngqzOOM8cVsWPhfVdQ8JarY6vZ6fY6lIY4ba6lZAQhfcVOM4PYHrWn/AMIz4d0uTR9N1DV7pbp7U7LW3L7ZmCndIvdehOBjJoC5a1OfVdT1zU2gtdMurq3tXKfOrodkimMSc4BGGIzjFJ9ktbzUrjVLXWI9OvJbWO7MelyElwBiQuoBVvn6YBPFXdN1rR7K2mjtLSUaeJZ7WXzWWKIfvE3fL3++cd/lq5cy32lS6PbaRaWdrZfafInkCBR5JLbQmec5HI9aSKuiez0HxPJbK8njG6DDII+xx888HmqXl66smw+LrwzybgkS2ULMWVclTjgHkcE81n2et3VjcLazS3evalptz9lvBECgEUrbg5Uj5iuMZ4xXTXey4067a1ijmYyoLiKCTyxtOCJN5A/hweD2xQkTcr2ena9cuFTxpNIeQdtlEQpBwQTyMjnio5bDxHbhFl8ayeYoLTBbGI+WMEgn0HHU8VqaPdwS6qr2js8L2+9pYcC2cljkjHWTI59jVGOVHs7eRIbqS8Mq7lciO6KByoaUZG6Nck47jFJlIzrpNdEMcieK7x7Z0aQzx6fE6hAobcccjIzgdT6VRt49dg17Rn1TW49QtIVuLx1ihVduxSEPTP8AFz0wa0r3xBZW9rd6raD7fYyOkAlsQfMebftwy9AqDbg98981Sbz7t/sqXElyZ0/s+GZkAZ1J3XMpx+C5HUimhNmxo8bFvDFuzbjHZS3L/UhB/N2/KvM/i68Enii7Vzab47SFV813DgkknaF4/i716vpXkyavqGoqQtvAi2URzwqpkvj/AIESP+A14R4ovpPEOr63feXdFJZwsRjdQgQYC5BOeRg0IRLBDai2wj6SQAAojkuMZ69SPevXPhduHgu2TCg/aJ/ukkH943TPNeQPeJptognmuk2jaPnGSe4r0/wV4p0DQ/DFpZ3evWH2gb5HBmB2lmLYz7A0MEcr8dyItf0INtx9nYZJ/wBsda5DSoLb7Hbs39neZszkyyhuvHTgfSuj+Mmo6XrsmmahZavZXX2cNHJFFICwycgisGEJD8PJNXttcnN/bzBHstowiMxCnpnt60dB31Pe/AmG8A6NuwQLVe9eK6Y2fjxwBt/taXtweWr0TwX8QvDMuhWOnLeCymt4FjEVzhc4HZuhrm7DwncW3xTk8RyX9guli6e6E/2pSCDnAxnjr19qEJs7P4wOf+FbXvGcyxcD/fFcj8Bzg61twRtgyc/79WviX488NXvhq90aO7+3zzKNv2U5WNgcgs3QjIHSud+Ffi/RvDdvcxaiXtpLp1xcMuY8AcKcdDyT+NDWlkBofHpQdY0IkkYgk5zxjeteo+Dif+EP0YDr9iix/wB8ivOviVpUvjefS7zRL2xuUgVo5FFyq4yQQ3J6cV1A8ZaB4Q8P2NhfapBLc2lskRS3PmMSqgdun40W0A8e8E/8lMsT8oK3zHPr97pXsvxWL/8ACutXGRgon/oxa8O8O61ptj8Qn1aS2uRp6TPMkYwTHnOM+wz+lez+I9X0nxt4K1Cw0fV7R7iaMeWHkCHIYNgg8jOMZqmIwvgMobR9XyMYmj4z/smuc+MEcTfECwWRU2/ZY8mVyqffbOSOldX8O4U8CaFfnX7+xtDcTBwnnhsADHOOpOe2a4zxv4j0Hxl430xrW8a2hT9xcXrDChc5DKD6ZPWkMv8Aw5WF/FugEGIkLLgRSu2B5R6g8Cu0+M/yfD64ywA+1RA49M1wem6rpngf4jx29/ezXWn28H+jXKRjOJFU7iB1GCenrXdeNXsvHfgie00LU7K5nMqSqhnVd2D056H60AR/A7/kRbkc/wDH6/f/AGUrzL4q4HxG1H5eNsR+vyD/AAr0zwHJa+APBZh12/sreZ5mlaPzlYrkAAcHk8V5T4/8RaNrnjBdQskm+zlUE2RtLbeOB2+X+VA9D6bQKdHjyB/x7j/0GvAPguMfEYjsLaf+Yr1nRPHGga/pyxWmpwwO8YXyZ2COvGOh6/hXBeAfCN94V8YXGq6pcWkFnBC8cc32lSJNxHPXjgZ5pJaA3qbHx3eP+wNLBAObphz/ALtXfgkAPBcuMf8AH3JnHTtXKfFvxl4e17SYNOspzc3cE+8SxD92Oxye/wCFaXws8aeHdM8Ow6NdXX2S7Z2l33HypIWP8LdO2OcUPawJnLfFtQfigwJH+ph4P0r2vxKT/wAIfqgUHcbGXGD/ALBrzPx14Q1LxD45g1OwltpbGVI1eUTLiPbwSec9K6/xZ408M6ZpN1ZXmoxyloTGYbZg8hypHbgde9MR4Z4XeKLzmxBk4+aS5KMB3wO/1roroD7HMd8IBRio+2kj6479BXMeFmUzSiMXBYNyEgEgCep9K6ndLISqxXY6KR9iT8cc0Aez604m8M6bdgnaJ7WZj6KWUH9GrndStY77wJoaT3EloLK6W3kmikKGMjfD1HI5Iq74UkfxB8PDpsrSC4hia1IcbWUqPkJHuNpqvZxDXdC1bR2wsl5GLyFWGQsh++D9JVP51OwHD32u6beajc6Fea7eQW8mLaKM2zK8Ey4VXZy2TyDn2NdJ4CiFr/wikDSb2jk1FS394hgM1yWsrreoWtlqkfhqxuppd8d6DZB2WaMkEnHI3AD9a634fmSVPBzSoI3xqAZQu3aQwGMdsU2OJ7DDjywR6VKveoohiMCpUHOaztqUOz7UUUU7IDzjw/ZTazqH9oXhLwiTzDJnAmkXhQAefLTnGep5rg/jWl5d+IbGCLznijhDKi5IDs5GeO/AFehaPqN3pemW1pLol15kESoWWeHaxAxkZfpx+tFzPY6jP5l94UFxJjaHm+zMw74yXrQg8esrCaztVUJfh2xv8zSVmwe43Oc4pt/ps99F5M0eoBFJOI9JWP8A9BIzxXrwtNGK5HgyA7s9RagHH/AqiWHQ8FX8F24OMkYtenr9+gDxaPwfaOceVqw44xp5wD6/fpG8IWyOdi6soAx/x4HOeOfv17bBa6HMzRxeConKgHCLbEj/AMfqR9N0x8geAu+MiO2/+LoA8EuvDd4bhFjg1KSGKPKvJbMrFuSBjnAyTVz/AIRqO7toRd2uopKkYDeTp/GfruG76kZr2z+ydMwo/wCEEbK9/LtwD/4/QdJ0sHC+BGYk5OI7Y/8As9AHgF34Wuo8C1sr2SI9S1u0ZPtgZqez8KkRI9xbanDIDnbDaNJxn1LCvdv7K0pd2/wE3sPKtv8A4ul/s7SS+0eAmJx90xW3H/j9AHjLaMJrFbOW21AxA5z/AGSu7P8Av7t361m3HhIiJls7XUHcnrNaMgA9juP8q95Om6b38Av/AN+rcf8As9NGnaUqkHwHJ6A+Xb//ABygDwaDwpNI0gms7yIAjBjtzIc/iRWra6N9heQLb6hMCvlt52mLIPXjcxx+Fey/2ZpSpj/hApckZ/1dv/8AF1ENM0xlyPAkh9cR2/Pt9+gDxNvCcLIrJDqPmMCcGy2g/wDj/H5Vmx+F9R8xC+mXSgZ3NtYkjtgV73/Z+nJIFbwLIvcYjt8/+h077Fp6/IPA0p7EmO3Gf/H6APFD4caCGY266qZSDtBtCgORjGQ5+nTpUWm6HdxyKJbK72EESk2ok2kjoFP8+DXuSWOlIf8AkRJWb18u3/8Ai6e9ppud3/CBSY94rf8A+LoEeHSeFFFs3kwajJJkFQ9mVXjryGOKpx+G70yfvdOuIl3Lg7GJ68/X9K9/Sw0orkeBZwp/6ZW/X/v5SJY6X1HgObcO/lwf/HKBnjFn4dFpP9phGoEg5G+x3L6Hgvj8xUd54Ziu53ma31FXOceXp4VQfXCvivaJbPTdhz4Elx/1yg/X56hNppipv/4QeQduY4D/AOz0AeDt4Yv2kdY9OumjCkKzqRk+uP6VoW3hhIRlk1QSbfnVLTOG7/MW5r2VLHTmkOfBEuTzjy4f/jlWFttLK4HgWXP/AFyg/wDjlAHkV3oQvBF9pgv/ANym0eVpyoT9SG5/Gsi78MXSSxC1tL2VMYdnh8sn8ATXur2emqhJ8BTZHH+rgP8A7UpPsWmjCjwLNnvlIB/7UoA8MtfDMgjL3cN9DKGABjgL8fUkVt6fYvY2+yBLsoWyTJpaSEn6kk16wLDSYioPgWUbjx8kHP8A5Epx0/TS/wDyIc4+scHP/j9AHlvm3Rk2TwzYJ+6dEiGfxr1XwpbPq/w/sLa+eR98LKXYbXUq5CH2IwCPQioPsemxnnwPNjPGEg/o9a9nqctnaR29r4W1CGFc7VTyAo5zwPMoAZapZXkj22v2inUrWBllYqSk8J/jHqp6kH7prnWRNEu1tdLu0Wxihjv7eWVcuIWLCRMD5nO1cjg4xz2rclnvrq+uLmbS7m0hjsJo8zFPmZiCMbWP92uM1ua00y70nxFeF2OnadbIqoN2/fvBHbBOMZPTNAGolnaQ2mp2VrFJYxajvmn1AMCbefhGHUhWOc7Rg4NMeXVfEt0/hrSPLhFlbi01LU7uEO7cY2AdCcZPOetNkV4L5Zr+4gXTrxUbT41IDbsEcZIJd1OCT0POelZnhTX08H61qFrr0H2Kz1G4822uMllUgYCsxyRxtPPrzSYEHizwZoPhTS9OtXF/q+pXEnk2UM10Y40J6kKuMDJHfrXN614cfwbfQSavp9k6Sx+bILa4nR8AgFQ5YgsM9PavSfGVw76hoPirSZYr+DTZW+0R27CRjE+AxUA84Ga8u8bXMvjbxhDJo8Vxd+ZGqhFgZGQ5PDAnqBjmhAenHwHNdaCt54W8SajBHd2+Uhu5fPjKsucZPK/UV5l4Z0awg1PW9P8AFNlcMmk2zzOsU7o42sBgYODkN7cV7Lb6zpHgjwpY2Wqanbo1rbqjBHy7sByAo5PPFeS2mqyeKNV8a6tHA6x3GlybY8ElQGUAE+pC5496fUDtrHwD4R8Q6Qmo+F9SuoblPmjm89pDGcdGRskCvMfFGia94VtLqx1KOTNzeC4+2xsfLk4YEcdCd2cGsDw/f61ZazAdCuJ0vpGCIkfO8njBHcfWva9F+JWm6s8vh7xhBbQ3QYwu55t5scd+n+eaLBc8xn0q3vfBmiXMEAGpX91NCZZblgoCY5AZsA813ngH4b6BrOiXT6pbyvfW17LaSSw3MiiTacE9e9ZfxZ0XTNB8P6JZ6UALU3E8qAtuClgpwD6V2PwVbyvA7tMzbmvZG3N/FkLzz75oYI4D4jeG9H8J63Bp+k2ypDJamd1nuZPmYMQAMHk1zcD6TY39zp3iDRvKnKHMkVzKWSQplCwLHdyRxx1r0P4s6lqNh4tsbqycRFLTfGxtxKHcOePunHGK89mtNZ8Z+MJtQsdNnSa5lV2JQhYmAGWLdAMjNJMb0NTwj4r1G4vbfQXsVukMH2e0jSTyWjkB3KQ2cHLDPNQeEtOF34kSz1g3MqM08ckXnSJIjRpu6ggdsYqvZah4vj122u4JtQ1CO2udsc8aFg4DYODjviuzttdi8Q/EWxtbF5Lm2sobpjdOmGlZ4zuJwOxwuT6CmI6TSPh94P8AFHh+LVNIlvo5JFzFM127NBJ7gnqDXJav431nwqj+HtV0e0u76F2aWe6QMkuT8jBQADxnqfWsjwJ4un8H6uFgMk2mzRBr+LYcwMOGfHtx+Br0b4man4cGmabqk8cN3qWRJYANlWBHBfHVBkH6ilfUdtDI8JaFD4w1MP4qkdL/AOxK8FpZ/wCjiGDOFLbccnPA9BUPxK8CeHfCXhtNQ061n+0G4WNWkuHYJkE5Az14qn8Gbq6vvGOtX1y8kkkkGXkLcElx/nFdZ8aTv8ERbd0gF4hbC5wMMKL6glocx8MPA2heL/D899qdrKZ4bhodyXDLuAAPTtyayfipoGn+DdQ0+00hLlBPG0skkly75IbGOtdx8Ed8fg+6bZsD3jsN3GRtUZH41yfx6WWXW9LlG4oLZgGHQndnH15pNvmsCOl8H/Dfwz4h8K6fq1zb3iz3ce+QLdPtyCRx/nvXl/jvSNO8P+NLvSdMieKzhCDa0pYvkBjk1758NQ8Pw60OOQlGEGSG4/iNeKfFOzmm+I+pNHbyPvMezYhJb92On60762Bqxlf2LPe6fd65ZaZ9m0e1aM+RJO7BtzbflOOTn8s17rB8IfCvlo4TUEZgCSt/J1I5714uuga1p/gw3N6bu2t7i6jhtrIfKZieSzL14wMZr6fhkXyo1LDIAzz7CmxI+UIdT/s7xe0gWd7a3uHCQLdOpbBITL5z1wSfrXVw+G79/GFjLrlxvg1PUWgkt4J5VMRI3HDYAwM8YyK4m70++/t+fyLS5e4NwxVBCTk7uOMc16PaWmv/APCceFJtfuZpL+7uDcNb5AWCNRgZAGAcA59qbBnXa78NPDmkeH9S1CH+0Ge3t3lUNfyYyqkjPNcN8MfDfijW3utSsdVl02xdfJM3Mjtg5ITd/OvZvFgDeC9bVBvY2UoCDkk7T0rzn4SeO9JstIj0DUbhLOaKRjC78I6sc/e7HPrWaZTRjfEaz0vwnLDYm61XVNTnTzHa7vnCKucAlVxyT71zfhe0gkRdR1LSpItN+0JbyXVpdyRyQs/Q4LHK11Hxo0i6udct9ctVNzYvCsTvCdwQqT1I9QetRy6gvinTrXw1p323Umluo5PPmgEKWMa4B6DBGAeTVk9TovE3w31y38P3VvoOv3lxbsoZrO6ILuAc4R+o6dO9cR4Ug0GXw9d6n4nk1BFt7uO282C6kGC4J+Zc9BjHFezeIfHGheGrJmu9QiknVf3VvGwaRyOgwOnNeI2sr3nw61q9liwsutQSvhSVAwxJ/WlfUbSPTE8BxfYoNT8Ea/cxtw4Ety00FwAcgNzkelee+Lf7a1XWrh9RZtJ1C3iL/Zrm7fZcAckxNwoAHQZzU/guPXrGysNQ8I3C3UsjOL+2dwIYxklQ6k5BwD8w46V3mn+LfC/xHsW0fW7WOC8U4NvM2Pm55jehgkeWa5YNJeaJZ6RJcwS6hp6XLmS8cguyknkngcdK6XxV4a1+68M6bd2kd8kWnWyhrZmZmct8zNxzx3J9Rim+KPDlifidoWheV59hDpyI4djuMaq5JBX+LAOPfFUL7W9B8QanLdarcavo0ttCY4bXeTG6qMKowARnIJpiO08K/DTw9r/hPT9Uuhfefd26tJtvHAJ78Zrz/wAQaPZ6Z48vdGtdOnvYrYF1zeujqoQOx3ZwPyr2z4eny/AWhxvlSLROvFeZeJtVXSPHXizZBczX12sUVqI7cOCCBuPzAjHAHvk0r6j6GzoXguDX9Hg13w14l1O1kkDApduJwjdCDn+dc7b+F/Ft74s1bRJ7axWa4g/0m6eAeWI2YYZSACSSvT1zXongbyfBvgeEa3e2llLM73M0byKuwsc7ceuOwrJsPivpNz4tu5THJHo7Rx28V+yEL5ilj83oDk4+lDYJHOeLfAuh+CvDxvtVvb7VL65ZYo4zL5SSMB3xztAA715/pCRajLNJ/YoltYhmSKK4dWCYLcEn2J5FezfFC3TW9H0zVrGGLVoNPnMsttFJu82Nh/s+mK890Lxbo8F9df2Z4Nnt726tpLdVhuGkUsw4+Rh7UIGjsbD4Y282irqfhDWp4FvbfIhukEiOrAjB4yPvEVxXgjwyt547uPDPiGO4820VmXZcMhjZduMY9sV7FoV9p3gzwZp1rrOpW0ElrbKJQXG4t1IA6nrivPfBGvp4m+NuoazaxMls1s4TI52gKoz9cUrjsix4/wDh34e8M+EbzVbZLyScSKAst0xUsxwSR3OK5/wjby3fw01q2jkEd3c3IFkc4bIClgp7ZO0fUivTPi3lvAlwfLaRDcQl1VckKHGeK4mXUtI8QW0Wm+FvDt4l3sKxERmOK3d3BZ2O7qCimmiWVPhZ4Zt/GVrqK6tcagZLR41UpduuQcnBHsQPyqf4h/D/AE/RrjSrTThcNc37yK0t1dM4VEXcf8+1b/wet2sdU8UwmdpvKuki84jHmMu7Jqx8Wbi3h1Lw7cX6ztZh7iOZoRllDoFyPfnP4UNjR5P4Z8U3sGoWOn2GnaXLevOIVu5rffK+87eWJ5GD6dK6bWdUvr/xdDF4bn07ybglEf7LGHtRH8rbmxwoAyD6EVkaJ4Rj1DWIpvD0+rCC1ZpZb6WBU2Io/gAOSx7CqupiDwppcmjSxznU71VkvJIyP3cfVYufwLY9hTEep3vw91Dw5pcGreHdWv7i/tdss8UlwSt0gGWUDoM44rz3xVe6zq6z+JtLutRfR5ZCrxyTkfZ3yAVwD0yeK9B+E3juLVrSPw/cvKtxbxfuJZiCZEHbjuB+lY/xQ8P3WhWeoajpSl9M1Pb9ttxnbC4YMJABwNxUA8d6V9R20LvhD4Z6D4j8J2GpzS3ytdL5kkaXbFSwYjPT2rhPGcWn+F/H0tk1ve3UNqqbJGvnEgyoJw3brXtPwxLxfDjRgQVJiY4I5++xrh9d8Q6HpnxdvIfEej209vKsXl3bxfNCdg5PqM5+mKL6gkb4+GMcunRXOjeINVs3lj82NZ5BKgLjJyCM555IrG8N6Rrvji2v1vtZ+w2FveMk0dmdzzTDG5txztXgEAflXYeN9I1XxJ4eDeHNZkt3EeRHC+I7hSOBkfhivGdB07xr4Z0eXXtIkuIyty8NzbBMkFccsh6jmhA0WfFXhjWtB1m5Fro+pTWjNt+2G5kka4QDjdtxjjtiqGiavazyf2PqmpavplqVI2RzlouBwGB5A7V0dj8c9ct9qappVtMRnJjDRt/UV6XZ3fhnxx4WOp6ppscFuSysb1AjLjqQ3p6Ghsdkcf8AD+JbfwZE+q3cR064UpbwLGVKSb3DFiOcvwo9RxVybT76ZWNxf21v4umRo1vUQ7UtQ+7JzgcDAJx3ArD0C7Gn6I0sUElxam+eC1AxuMAcbZmyDymcr9Sa6KZpLe/h0/YZIpVMj3RAHlYIIVhjlXPzOPXPpRYTfQijsLXVPFPkwTXGlWek2hF5FEPJWUu2W7YGeMkE11N1DbWFw1ho0IGp3MKop6rawgcN/sj0Hc1y0Utxu8QR5MlnBpiJasTuZxuYs2e4Lcg+hFdW+oPpPiK+mOl31yk0MOJbeEuDt3ZB/P8AWjYEYPj+OTw/8N7m3013RQyQkg/MwdvmyfU85+prxTTU/wBLkmmMkZjOAsys6scDIwPYZr6C1a+s9ZtGtb3QdWkhLh9jWjAZHIPBrKXStBhMjDw5rG48syQygk+ud1Mk8ruFtZYiENqoZfvrayAjgc5+g/WsSTw9abW/09iwJIzE/wCZ4r3L7F4fK7T4c1npz8kvP/j1OFp4fCMP+Eb1vJGOIpf6tQB4Knh23cc6hwF/54Pyfypt3p0kFg1tBfSTxyFd8QjZQMZweRyBk17udO0BlyPDesgDj/Vy/wDxVI9joAU/8U7ra7uOUmz/AOhUAeGWGlxPbvb3DME3AJK8bZGP7vB4PvUN5oYigX7NcvPlvuhWHH0Ir3iPTfDwCqPDutcccLNj/wBCqX+zPDxHzeH9aBHAwk3H/j1AHz5BpRmlCSh4FyW3MNwA+gFalvpltA8okvIJhIANs0DlcdB0HWvbE03w+Czf2DrpDHgeXNwPf5qG0/w2R/yAdaH/AGznPb60AeFPoCKjCC9U54QLE6/nxWemlSsSCJFJXgkjB9c+1fQAs/Dh27dE1tf7o8mcY/WpWsvDhHz6FrRbG3Pl3HP60AeJ2+g2dvNG/wDaSNGR86sjHJB4BwOlPvNIsrm48wXdtAT8oEUb7SfXBFextp3h7zGY6LrZPXPlT4H05pwsPDUmCdD10993lz9fzoA8Em0nyHVVZ7mI4LOvGDjPGauW2hQsgmlvRA7j5lZWJAPHUKea9xWw8NiVlOja8Aw6bLjA/WpGtPDmTnRtcBHTEc/P60AeAXVpeS6m0rTtMyFYt/I34GPl4GAAK1LjRNNfbJDqMVu5IDqqOQMDk/dP/wCuvY5bDwsgEraHrpOR/wAsrg7ffrUhtPDW0kaProYf9Mrnn9aBnz9LpuTJsEkwD7VkBADD15ANXrTQoRGVub6OMtj5djNx68Kea9zTSfDDAD+xNd3Z3fNHcZpTZeGssTpGuHJA4iuBj9aBHi1/p1hP5cAvrWJolCrIEl3P9eMflWXPpmyZF+1Pcx4Jbyyc5/4EBXvR0/wuhJXSdb5/6ZXFM/s7wygwNK10f9s7mgZ4JaaXHNL+/ultRgkhwx59sA1tQadpq6eYprq2n3HAkdJdy/7uFH617K2m+FW+Y6broYkdI7qlfTvCwTjTdc/4FHc/4UCPC7rRYoowttqayuOdiFwQv0K4qpDpjyOU2yRAkfPKMqFx3wOtfQC6Z4WcMRputLkc/u7n/ChbDwsqlRY69yMY8u549+lAzxax0eGzmSU6hayYY/unWUKeO5C5rUQWTDLRaZwBzm45r1RLDwqAcWOurzncYbnn9KRrHwsIiotdbIxwDHc0COd+G195XitbS2e2EN3byGWKAyYyuNp+f6kcetdjrdjNouprqFuAkMkpljcnCRzN99XPZJPXs2DUOlp4a0u+W+trPV/PjBVWktrh8AgZwCPatfUvEljd6XeW6W985eF1VDYS8kjAHK1LA5LxnoNr4k8NX+sadcPp9xC3m3kDL/HGvfHIYA9RwwxUPw7UhPBzeYXCrqALdm+Yc1tS28ieC/FKzQSKDH/Fwf8Aj2jB/rWL8OgBF4PRdwQLqHBOTjcKbKR7NFyq1NUEH3FxU9QUFFFFAH//2Q==;" parent="bOGV1TXRQdCtfyOMVB9T-1" vertex="1">
          <mxGeometry x="210" y="190" width="520" height="203" as="geometry" />
        </mxCell>
        <mxCell id="bOGV1TXRQdCtfyOMVB9T-39" value="Basta cliccare sulla immagine e riceverai immediatamente l&#39; accredito di 1 Milione di dollari !" style="text;html=1;strokeColor=none;fillColor=none;align=center;verticalAlign=middle;whiteSpace=wrap;rounded=0;fontSize=12;" parent="bOGV1TXRQdCtfyOMVB9T-1" vertex="1">
          <mxGeometry x="210" y="400" width="510" height="20" as="geometry" />
        </mxCell>
        <mxCell id="bOGV1TXRQdCtfyOMVB9T-13" value="" style="shape=rect;strokeColor=none;fillColor=#ffffff;gradientColor=none;shadow=0;fontSize=12;" parent="1" vertex="1">
          <mxGeometry x="-20" y="200" width="190" height="280" as="geometry" />
        </mxCell>
        <mxCell id="bOGV1TXRQdCtfyOMVB9T-14" value="Gestisci conto" style="shape=rect;strokeColor=none;fontSize=10;fontColor=#000000;resizeWidth=1;align=left;spacingLeft=25;spacingTop=2;" parent="bOGV1TXRQdCtfyOMVB9T-13" vertex="1">
          <mxGeometry width="190" height="30" relative="1" as="geometry" />
        </mxCell>
        <mxCell id="bOGV1TXRQdCtfyOMVB9T-15" value="" style="shape=rect;rounded=1;rSize=3;strokeColor=none;fillColor=#FF9501;" parent="bOGV1TXRQdCtfyOMVB9T-14" vertex="1">
          <mxGeometry y="0.5" width="15" height="15" relative="1" as="geometry">
            <mxPoint x="5" y="-7.5" as="offset" />
          </mxGeometry>
        </mxCell>
        <mxCell id="bOGV1TXRQdCtfyOMVB9T-16" value="" style="shape=mxgraph.ios7.misc.right;strokeColor=#666666;" parent="bOGV1TXRQdCtfyOMVB9T-14" vertex="1">
          <mxGeometry x="1" y="0.5" width="5" height="10" relative="1" as="geometry">
            <mxPoint x="-15" y="-5" as="offset" />
          </mxGeometry>
        </mxCell>
        <mxCell id="bOGV1TXRQdCtfyOMVB9T-17" value="Aggiungi fondi" style="shape=rect;strokeColor=none;fontSize=10;fontColor=#000000;resizeWidth=1;align=left;spacingLeft=25;spacingTop=2;" parent="bOGV1TXRQdCtfyOMVB9T-13" vertex="1">
          <mxGeometry width="190" height="30" relative="1" as="geometry">
            <mxPoint y="30" as="offset" />
          </mxGeometry>
        </mxCell>
        <mxCell id="bOGV1TXRQdCtfyOMVB9T-18" value="" style="shape=rect;rounded=1;rSize=3;strokeColor=none;fillColor=#FF3B2F;" parent="bOGV1TXRQdCtfyOMVB9T-17" vertex="1">
          <mxGeometry y="0.5" width="15" height="15" relative="1" as="geometry">
            <mxPoint x="5" y="-7.5" as="offset" />
          </mxGeometry>
        </mxCell>
        <mxCell id="bOGV1TXRQdCtfyOMVB9T-19" value="" style="shape=mxgraph.ios7.misc.right;strokeColor=#666666;" parent="bOGV1TXRQdCtfyOMVB9T-17" vertex="1">
          <mxGeometry x="1" y="0.5" width="5" height="10" relative="1" as="geometry">
            <mxPoint x="-15" y="-5" as="offset" />
          </mxGeometry>
        </mxCell>
        <mxCell id="bOGV1TXRQdCtfyOMVB9T-20" value="Richiedi un prestito" style="shape=rect;strokeColor=none;fontSize=10;fontColor=#000000;resizeWidth=1;align=left;spacingLeft=25;spacingTop=2;" parent="bOGV1TXRQdCtfyOMVB9T-13" vertex="1">
          <mxGeometry width="190" height="30" relative="1" as="geometry">
            <mxPoint y="60" as="offset" />
          </mxGeometry>
        </mxCell>
        <mxCell id="bOGV1TXRQdCtfyOMVB9T-21" value="" style="shape=rect;rounded=1;rSize=3;strokeColor=none;fillColor=#4CDA64;" parent="bOGV1TXRQdCtfyOMVB9T-20" vertex="1">
          <mxGeometry y="0.5" width="15" height="15" relative="1" as="geometry">
            <mxPoint x="5" y="-7.5" as="offset" />
          </mxGeometry>
        </mxCell>
        <mxCell id="bOGV1TXRQdCtfyOMVB9T-22" value="" style="shape=mxgraph.ios7.misc.right;strokeColor=#666666;" parent="bOGV1TXRQdCtfyOMVB9T-20" vertex="1">
          <mxGeometry x="1" y="0.5" width="5" height="10" relative="1" as="geometry">
            <mxPoint x="-15" y="-5" as="offset" />
          </mxGeometry>
        </mxCell>
        <mxCell id="bOGV1TXRQdCtfyOMVB9T-23" value="Cronologia transazioni" style="shape=rect;strokeColor=none;fontSize=10;fontColor=#000000;resizeWidth=1;align=left;spacingLeft=25;spacingTop=2;" parent="bOGV1TXRQdCtfyOMVB9T-13" vertex="1">
          <mxGeometry width="190" height="30" relative="1" as="geometry">
            <mxPoint y="90" as="offset" />
          </mxGeometry>
        </mxCell>
        <mxCell id="bOGV1TXRQdCtfyOMVB9T-24" value="" style="shape=rect;rounded=1;rSize=3;strokeColor=none;fillColor=#007AFF;" parent="bOGV1TXRQdCtfyOMVB9T-23" vertex="1">
          <mxGeometry y="0.5" width="15" height="15" relative="1" as="geometry">
            <mxPoint x="5" y="-7.5" as="offset" />
          </mxGeometry>
        </mxCell>
        <mxCell id="bOGV1TXRQdCtfyOMVB9T-25" value="" style="shape=mxgraph.ios7.misc.right;strokeColor=#666666;" parent="bOGV1TXRQdCtfyOMVB9T-23" vertex="1">
          <mxGeometry x="1" y="0.5" width="5" height="10" relative="1" as="geometry">
            <mxPoint x="-15" y="-5" as="offset" />
          </mxGeometry>
        </mxCell>
        <mxCell id="bOGV1TXRQdCtfyOMVB9T-26" value="Milione di dollari gratisÂ " style="shape=rect;strokeColor=none;fontSize=10;fontColor=#000000;resizeWidth=1;align=left;spacingLeft=25;spacingTop=2;" parent="bOGV1TXRQdCtfyOMVB9T-13" vertex="1">
          <mxGeometry width="190" height="30" relative="1" as="geometry">
            <mxPoint y="120" as="offset" />
          </mxGeometry>
        </mxCell>
        <mxCell id="bOGV1TXRQdCtfyOMVB9T-27" value="" style="shape=rect;rounded=1;rSize=3;strokeColor=none;fillColor=#5855D6;" parent="bOGV1TXRQdCtfyOMVB9T-26" vertex="1">
          <mxGeometry y="0.5" width="15" height="15" relative="1" as="geometry">
            <mxPoint x="5" y="-7.5" as="offset" />
          </mxGeometry>
        </mxCell>
        <mxCell id="bOGV1TXRQdCtfyOMVB9T-28" value="" style="shape=mxgraph.ios7.misc.right;strokeColor=#666666;" parent="bOGV1TXRQdCtfyOMVB9T-26" vertex="1">
          <mxGeometry x="1" y="0.5" width="5" height="10" relative="1" as="geometry">
            <mxPoint x="-15" y="-5" as="offset" />
          </mxGeometry>
        </mxCell>
        <mxCell id="bOGV1TXRQdCtfyOMVB9T-29" value="Impostazioni" style="shape=rect;strokeColor=none;fontSize=10;fontColor=#000000;resizeWidth=1;align=left;spacingLeft=25;spacingTop=2;" parent="bOGV1TXRQdCtfyOMVB9T-13" vertex="1">
          <mxGeometry width="190" height="30" relative="1" as="geometry">
            <mxPoint y="150" as="offset" />
          </mxGeometry>
        </mxCell>
        <mxCell id="bOGV1TXRQdCtfyOMVB9T-30" value="" style="shape=rect;rounded=1;rSize=3;strokeColor=none;fillColor=#8F8E94;" parent="bOGV1TXRQdCtfyOMVB9T-29" vertex="1">
          <mxGeometry y="0.5" width="15" height="15" relative="1" as="geometry">
            <mxPoint x="5" y="-7.5" as="offset" />
          </mxGeometry>
        </mxCell>
        <mxCell id="bOGV1TXRQdCtfyOMVB9T-31" value="" style="shape=mxgraph.ios7.misc.right;strokeColor=#666666;" parent="bOGV1TXRQdCtfyOMVB9T-29" vertex="1">
          <mxGeometry x="1" y="0.5" width="5" height="10" relative="1" as="geometry">
            <mxPoint x="-15" y="-5" as="offset" />
          </mxGeometry>
        </mxCell>
        <mxCell id="bOGV1TXRQdCtfyOMVB9T-33" value="" style="endArrow=none;html=1;fontSize=12;fillColor=#f5f5f5;strokeColor=#D1D1D1;" parent="1" edge="1">
          <mxGeometry width="50" height="50" relative="1" as="geometry">
            <mxPoint x="169" y="480" as="sourcePoint" />
            <mxPoint x="169" y="200" as="targetPoint" />
            <Array as="points">
              <mxPoint x="169" y="340" />
            </Array>
          </mxGeometry>
        </mxCell>
      </root>
    </mxGraphModel>
  </diagram>
</mxfile>
